# Blender v2.76 (sub 0) OBJ File: 'handsAttack.blend'
# www.blender.org
mtllib handsAttack_000051.mtl
o Cube
v 0.449055 -0.061001 -2.046928
v 0.523966 -0.004263 -2.540683
v 0.070008 -0.349755 -2.441370
v 0.428681 -0.491991 -2.234585
v 0.115443 -0.438034 -2.078809
v 0.177169 -0.378425 -2.574085
v 0.326394 0.080895 -2.434097
v 0.621103 -0.022075 -2.243011
v 4.557527 -0.363962 -0.795829
v 4.359606 -0.142933 -0.835443
v 4.457209 -0.105811 -1.115963
v 4.655130 -0.326840 -1.076349
v 2.402421 -2.474521 -1.601609
v 2.409349 -1.998750 -1.623087
v 2.559106 -1.971357 -2.246695
v 2.552111 -2.447127 -2.225226
v 4.285006 -0.894008 -0.725499
v 4.036882 -0.255501 -1.517312
v 3.795473 -0.347318 -0.823479
v 4.526414 -0.802191 -1.419332
v 3.582567 -0.856178 -1.167101
v 3.939319 -1.078189 -1.457921
v 3.821495 -1.123002 -1.119280
v 3.700392 -0.811364 -1.505742
v -0.343124 0.073337 1.972365
v -0.073916 0.409306 2.248106
v -0.395292 0.048581 2.478523
v -0.283663 -0.180805 2.371805
v -0.487192 -0.163697 2.401829
v -0.217985 0.172271 2.677570
v -0.260920 0.414958 2.259009
v -0.149083 0.185638 2.152395
v 0.343477 -0.353632 0.002275
v -0.349472 -0.349472 -0.000446
v 0.403775 0.273841 0.025356
v -0.270833 0.403998 -0.036190
v 4.694127 -0.218970 1.577899
v 4.605281 -0.212660 1.292133
v 4.454921 0.040811 1.344477
v 4.543769 0.034502 1.630243
v 1.864085 -2.022802 2.245408
v 2.046460 -1.722740 1.701751
v 2.387250 -1.297438 2.050810
v 2.204875 -1.597501 2.594467
v 4.453924 -0.682862 1.873311
v 3.862278 -0.040324 1.295970
v 4.234171 -0.667258 1.166503
v 4.082029 -0.055929 2.002778
v 3.714404 -0.825439 1.523105
v 3.640147 -0.527066 1.931266
v 3.821659 -0.833055 1.868078
v 3.532893 -0.519450 1.586293
vt 1.000000 0.500000
vt 1.000000 1.000000
vt 0.000000 1.000000
vt 1.000000 0.000000
vt 0.500000 1.000000
vt 0.000000 0.000000
vt 0.000000 0.500000
vt 0.500000 0.000000
vn -0.338900 -0.939000 -0.058100
vn 0.351700 0.935300 -0.038400
vn -0.824800 0.495600 -0.272200
vn 0.924200 -0.377400 0.058500
vn -0.748300 0.663200 -0.013400
vn 0.675600 0.662800 0.322800
vn -0.032600 0.147900 0.988500
vn 0.566500 0.375800 -0.733400
vn 0.874300 -0.416500 0.249100
vn -0.340500 0.940200 0.005900
vn 0.668600 0.718400 0.192100
vn -0.633000 -0.755300 -0.169800
vn 0.120800 -0.023400 -0.992400
vn -0.163900 0.046900 0.985400
vn -0.835700 0.501200 -0.224400
vn 0.423800 -0.905300 0.027600
vn 0.104600 -0.083900 -0.991000
vn -0.516500 -0.320200 0.794200
vn -0.361500 0.047300 0.931200
vn 0.391900 0.189500 -0.900300
vn 0.660600 -0.740100 0.126100
vn -0.664200 0.735400 -0.133800
vn -0.887000 -0.458200 0.057200
vn 0.897700 0.440600 -0.006000
vn -0.949000 0.307900 -0.067000
vn 0.945800 -0.189200 0.264100
vn -0.802100 0.594300 0.059000
vn 0.812100 0.531500 -0.240800
vn 0.782300 -0.568000 -0.255800
vn -0.140600 0.987900 0.065500
vn 0.593500 0.190600 0.781900
vn 0.048200 0.229300 -0.972200
vn 0.263600 0.477000 -0.838500
vn -0.299900 -0.450100 0.841100
vn 0.508300 0.670400 0.540500
vn -0.544600 -0.643500 -0.537900
vn -0.530300 -0.141900 -0.835900
vn 0.035100 -0.182100 0.982700
vn -0.726000 0.644500 0.239900
vn 0.230800 -0.968500 -0.093200
vn 0.454200 -0.876300 -0.160600
vn -0.503500 0.846000 0.175200
vn 0.392400 0.043100 0.918800
vn -0.362400 -0.022600 -0.931700
vn -0.006200 -0.998100 0.061500
vn 0.197800 0.974300 -0.108100
vn -0.981100 0.094400 -0.168600
vn 0.989200 -0.099000 0.107700
vn -0.731600 0.681000 -0.032700
vn 0.669200 0.719900 0.184300
vn -0.631800 -0.752800 -0.184700
vn 0.105500 -0.046400 -0.993300
vn -0.157700 0.056100 0.985900
vn -0.287000 -0.086000 0.954100
vn 0.518000 -0.046200 -0.854100
vn 0.659800 -0.739800 0.131700
vn -0.665100 0.735800 -0.127400
vn -0.006300 -0.997500 0.071100
vn 0.181000 0.979600 0.087700
vn -0.994600 0.104000 0.003800
vn 0.963800 -0.101700 0.246300
vn 0.448900 -0.837500 -0.311600
vn -0.479900 0.826200 0.295000
vn 0.531600 -0.749600 0.394300
vn -0.456200 0.753800 -0.473000
usemtl Material
s off
f 34/1/1 3/2/1 4/3/1
f 8/4/2 7/2/2 36/5/2
f 36/1/3 7/2/3 3/3/3
f 33/1/4 4/2/4 8/3/4
f 6/6/5 5/3/5 1/2/5
f 12/6/6 11/4/6 10/2/6
f 19/2/7 17/3/7 9/3/7
f 20/6/8 18/4/8 11/4/8
f 17/3/9 20/6/9 12/6/9
f 19/2/10 10/2/10 11/4/10
f 1/2/11 14/2/11 15/4/11
f 5/3/12 6/6/12 16/6/12
f 6/6/13 2/4/13 15/4/13
f 5/3/14 13/3/14 14/2/14
f 24/4/15 21/2/15 19/2/15
f 23/3/16 22/6/16 20/6/16
f 22/6/17 24/4/17 18/4/17
f 23/3/18 17/3/18 19/2/18
f 14/2/19 13/3/19 23/3/19
f 15/4/20 24/4/20 22/6/20
f 13/3/21 16/6/21 22/6/21
f 14/2/22 21/2/22 24/4/22
f 28/3/23 27/2/23 34/1/23
f 36/5/24 31/2/24 32/4/24
f 34/7/25 27/3/25 31/2/25
f 32/3/26 28/2/26 33/1/26
f 26/4/27 25/2/27 29/3/27
f 37/3/28 38/2/28 39/4/28
f 38/2/29 37/3/29 45/3/29
f 48/6/30 40/6/30 39/4/30
f 45/3/31 37/3/31 40/6/31
f 39/4/32 38/2/32 47/2/32
f 43/4/33 42/2/33 25/2/33
f 41/3/34 44/6/34 30/6/34
f 44/6/35 43/4/35 26/4/35
f 42/2/36 41/3/36 29/3/36
f 52/4/37 46/4/37 47/2/37
f 51/3/38 45/3/38 48/6/38
f 50/6/39 48/6/39 46/4/39
f 47/2/40 45/3/40 51/3/40
f 42/2/41 49/2/41 51/3/41
f 50/6/42 52/4/42 43/4/42
f 51/3/43 50/6/43 44/6/43
f 43/4/44 52/4/44 49/2/44
f 33/7/45 34/1/45 4/3/45
f 35/8/46 8/4/46 36/5/46
f 34/7/47 36/1/47 3/3/47
f 35/7/48 33/1/48 8/3/48
f 2/4/49 6/6/49 1/2/49
f 9/3/6 12/6/6 10/2/6
f 10/2/7 19/2/7 9/3/7
f 12/6/8 20/6/8 11/4/8
f 9/3/9 17/3/9 12/6/9
f 18/4/10 19/2/10 11/4/10
f 2/4/50 1/2/50 15/4/50
f 13/3/51 5/3/51 16/6/51
f 16/6/52 6/6/52 15/4/52
f 1/2/53 5/3/53 14/2/53
f 18/4/15 24/4/15 19/2/15
f 17/3/16 23/3/16 20/6/16
f 20/6/17 22/6/17 18/4/17
f 21/2/18 23/3/18 19/2/18
f 21/2/54 14/2/54 23/3/54
f 16/6/55 15/4/55 22/6/55
f 23/3/56 13/3/56 22/6/56
f 15/4/57 14/2/57 24/4/57
f 33/7/58 28/3/58 34/1/58
f 35/8/59 36/5/59 32/4/59
f 36/1/60 34/7/60 31/2/60
f 35/7/61 32/3/61 33/1/61
f 30/6/27 26/4/27 29/3/27
f 40/6/28 37/3/28 39/4/28
f 47/2/29 38/2/29 45/3/29
f 46/4/30 48/6/30 39/4/30
f 48/6/31 45/3/31 40/6/31
f 46/4/32 39/4/32 47/2/32
f 26/4/33 43/4/33 25/2/33
f 29/3/34 41/3/34 30/6/34
f 30/6/35 44/6/35 26/4/35
f 25/2/36 42/2/36 29/3/36
f 49/2/37 52/4/37 47/2/37
f 50/6/38 51/3/38 48/6/38
f 52/4/39 50/6/39 46/4/39
f 49/2/40 47/2/40 51/3/40
f 41/3/62 42/2/62 51/3/62
f 44/6/63 50/6/63 43/4/63
f 41/3/64 51/3/64 44/6/64
f 42/2/65 43/4/65 49/2/65
