# Blender v2.76 (sub 0) OBJ File: 'handsAttack.blend'
# www.blender.org
mtllib handsAttack_000032.mtl
o Cube
v -1.105888 0.074619 -1.789973
v -1.389291 0.178887 -2.178671
v -1.662692 -0.186866 -1.815720
v -1.255325 -0.320061 -1.934284
v -1.392899 -0.294032 -1.607181
v -1.686789 -0.188790 -1.984535
v -1.466415 0.247816 -1.952661
v -1.128227 0.160660 -2.029037
v 2.675106 -0.264565 -2.999359
v 2.516398 -0.107914 -2.799688
v 2.394974 0.052011 -3.021669
v 2.553681 -0.104639 -3.221341
v 0.453435 -2.392270 -3.018599
v 0.471316 -1.989991 -2.926703
v 0.150086 -1.802191 -3.428424
v 0.132149 -2.204478 -3.520265
v 2.499723 -0.838154 -3.019321
v 1.806849 -0.055142 -3.074503
v 2.107178 -0.450697 -2.525459
v 2.199392 -0.442598 -3.568366
v 1.689989 -0.841635 -2.834432
v 1.734997 -0.837682 -3.343446
v 1.881579 -1.030741 -3.075472
v 1.543407 -0.648575 -3.102406
v 1.702930 -0.014322 1.173591
v 1.823428 0.395748 1.454133
v 1.708474 -0.049746 1.794393
v 1.814572 -0.259722 1.460049
v 1.698117 -0.302019 1.596187
v 1.818615 0.108050 1.876729
v 1.710457 0.349630 1.576331
v 1.816680 0.139770 1.241969
v 0.342724 -0.351722 -0.009924
v -0.349472 -0.349472 -0.000446
v 0.308808 0.312268 -0.171512
v -0.261172 0.377948 0.126787
v 7.592864 -0.020610 0.590191
v 7.492512 0.003166 0.309194
v 7.420747 0.289454 0.359045
v 7.521101 0.265678 0.640043
v 4.596805 -0.994744 1.239834
v 4.602897 -0.630548 0.704870
v 4.755435 -0.111442 1.060008
v 4.749343 -0.475638 1.594971
v 7.252490 -0.393067 0.915127
v 6.826779 0.373838 0.343415
v 7.004279 -0.334260 0.220111
v 7.074990 0.315032 1.038431
v 6.482957 -0.334377 0.608143
v 6.517470 -0.017475 1.007542
v 6.604103 -0.363078 0.947361
v 6.396326 0.011226 0.668324
vt 1.000000 0.500000
vt 1.000000 1.000000
vt 0.000000 1.000000
vt 1.000000 0.000000
vt 0.500000 1.000000
vt 0.000000 0.500000
vt 0.000000 0.000000
vt 0.500000 0.000000
vn -0.278100 -0.953600 0.115800
vn 0.207100 0.961600 -0.180200
vn -0.865500 0.017500 0.500600
vn 0.763200 -0.115700 -0.635700
vn -0.490100 0.662500 0.566500
vn 0.744500 0.663800 0.071000
vn 0.666800 -0.228600 0.709300
vn -0.078500 0.753100 -0.653200
vn 0.781200 -0.218500 -0.584800
vn -0.192900 0.743000 0.640800
vn 0.717400 0.664000 -0.210700
vn -0.607400 -0.749300 0.264100
vn -0.589200 0.050900 -0.806400
vn 0.422600 -0.219700 0.879300
vn -0.731900 0.296100 0.613700
vn 0.278000 -0.700800 -0.657000
vn -0.613300 0.306500 -0.727900
vn 0.159400 -0.711200 0.684700
vn 0.253000 -0.226100 0.940700
vn -0.326200 0.600300 -0.730200
vn 0.564300 -0.586600 -0.581000
vn -0.537500 0.516800 0.666300
vn -0.359100 -0.837400 0.412000
vn 0.072900 0.994200 -0.079700
vn -0.640600 0.370400 0.672600
vn 0.670900 -0.358000 -0.649400
vn -0.971800 0.200000 0.125100
vn 0.911100 0.280900 -0.301600
vn 0.580200 -0.767700 -0.272200
vn 0.139700 0.989600 0.033800
vn 0.667900 0.038000 0.743200
vn 0.052000 0.183900 -0.981600
vn -0.012600 0.567100 -0.823500
vn -0.031400 -0.558100 0.829200
vn 0.213600 0.806400 0.551400
vn -0.257600 -0.797400 -0.545800
vn -0.597100 -0.010000 -0.802100
vn 0.041600 -0.161300 0.986000
vn -0.506100 0.825300 0.250600
vn -0.049400 -0.996600 -0.066700
vn 0.271900 -0.945900 -0.177100
vn -0.049900 0.993500 0.101900
vn 0.332900 -0.080200 0.939500
vn -0.238500 0.108300 -0.965100
vn -0.003400 -0.999900 -0.013600
vn 0.051200 0.991400 -0.120500
vn -0.689000 0.481700 0.541600
vn 0.763400 -0.313200 -0.565000
vn -0.490900 0.682900 0.541100
vn 0.656900 0.694900 -0.292500
vn -0.680700 -0.712800 0.169100
vn -0.479400 0.215600 -0.850700
vn 0.561200 -0.026700 0.827200
vn 0.428000 -0.513900 0.743400
vn -0.085100 0.225400 -0.970500
vn 0.498400 -0.550800 -0.669500
vn -0.593600 0.551200 0.586400
vn -0.000900 -0.986200 0.165800
vn 0.442000 0.816300 -0.371900
vn -0.591600 -0.068700 0.803300
vn 0.668000 -0.143600 -0.730200
vn 0.100900 -0.822900 -0.559100
vn -0.027300 0.826500 0.562300
vn 0.296500 -0.597100 0.745400
vn -0.133400 0.586000 -0.799200
usemtl Material
s off
f 34/1/1 3/2/1 4/3/1
f 8/4/2 7/2/2 36/5/2
f 34/6/3 36/1/3 7/2/3
f 35/6/4 33/1/4 4/2/4
f 6/7/5 5/3/5 1/2/5
f 11/4/6 10/2/6 9/3/6
f 19/2/7 17/3/7 9/3/7
f 20/7/8 18/4/8 11/4/8
f 20/7/9 12/7/9 9/3/9
f 19/2/10 10/2/10 11/4/10
f 1/2/11 14/2/11 15/4/11
f 5/3/12 6/7/12 16/7/12
f 6/7/13 2/4/13 15/4/13
f 5/3/14 13/3/14 14/2/14
f 24/4/15 21/2/15 19/2/15
f 23/3/16 22/7/16 20/7/16
f 24/4/17 18/4/17 20/7/17
f 23/3/18 17/3/18 19/2/18
f 14/2/19 13/3/19 23/3/19
f 15/4/20 24/4/20 22/7/20
f 13/3/21 16/7/21 22/7/21
f 14/2/22 21/2/22 24/4/22
f 33/6/23 28/3/23 27/2/23
f 35/8/24 36/5/24 31/2/24
f 34/6/25 27/3/25 31/2/25
f 32/3/26 28/2/26 33/1/26
f 30/7/27 26/4/27 25/2/27
f 40/7/28 37/3/28 38/2/28
f 38/2/29 37/3/29 45/3/29
f 48/7/30 40/7/30 39/4/30
f 45/3/31 37/3/31 40/7/31
f 39/4/32 38/2/32 47/2/32
f 43/4/33 42/2/33 25/2/33
f 41/3/34 44/7/34 30/7/34
f 30/7/35 44/7/35 43/4/35
f 42/2/36 41/3/36 29/3/36
f 52/4/37 46/4/37 47/2/37
f 51/3/38 45/3/38 48/7/38
f 48/7/39 46/4/39 52/4/39
f 47/2/40 45/3/40 51/3/40
f 49/2/41 51/3/41 41/3/41
f 50/7/42 52/4/42 43/4/42
f 51/3/43 50/7/43 44/7/43
f 43/4/44 52/4/44 49/2/44
f 33/6/45 34/1/45 4/3/45
f 35/8/46 8/4/46 36/5/46
f 3/3/47 34/6/47 7/2/47
f 8/3/48 35/6/48 4/2/48
f 2/4/49 6/7/49 1/2/49
f 12/7/6 11/4/6 9/3/6
f 10/2/7 19/2/7 9/3/7
f 12/7/8 20/7/8 11/4/8
f 17/3/9 20/7/9 9/3/9
f 18/4/10 19/2/10 11/4/10
f 2/4/50 1/2/50 15/4/50
f 13/3/51 5/3/51 16/7/51
f 16/7/52 6/7/52 15/4/52
f 1/2/53 5/3/53 14/2/53
f 18/4/15 24/4/15 19/2/15
f 17/3/16 23/3/16 20/7/16
f 22/7/17 24/4/17 20/7/17
f 21/2/18 23/3/18 19/2/18
f 21/2/54 14/2/54 23/3/54
f 16/7/55 15/4/55 22/7/55
f 23/3/56 13/3/56 22/7/56
f 15/4/57 14/2/57 24/4/57
f 34/1/58 33/6/58 27/2/58
f 32/4/59 35/8/59 31/2/59
f 36/1/60 34/6/60 31/2/60
f 35/6/61 32/3/61 33/1/61
f 29/3/27 30/7/27 25/2/27
f 39/4/28 40/7/28 38/2/28
f 47/2/29 38/2/29 45/3/29
f 46/4/30 48/7/30 39/4/30
f 48/7/31 45/3/31 40/7/31
f 46/4/32 39/4/32 47/2/32
f 26/4/33 43/4/33 25/2/33
f 29/3/34 41/3/34 30/7/34
f 26/4/35 30/7/35 43/4/35
f 25/2/36 42/2/36 29/3/36
f 49/2/37 52/4/37 47/2/37
f 50/7/38 51/3/38 48/7/38
f 50/7/39 48/7/39 52/4/39
f 49/2/40 47/2/40 51/3/40
f 42/2/62 49/2/62 41/3/62
f 44/7/63 50/7/63 43/4/63
f 41/3/64 51/3/64 44/7/64
f 42/2/65 43/4/65 49/2/65
