# Blender v2.76 (sub 0) OBJ File: 'handsBlock.blend'
# www.blender.org
mtllib handsBlock_000012.mtl
o Cube
v 0.494044 -0.116551 -1.961327
v 0.717278 0.093786 -2.361066
v 0.416389 -0.363149 -2.430634
v 0.662277 -0.534150 -2.181573
v 0.437857 -0.577863 -2.158390
v 0.650390 -0.369939 -2.565677
v 0.547068 0.108128 -2.337477
v 0.832916 -0.057608 -2.162744
v 3.437058 1.073279 1.025574
v 3.196253 1.201100 0.901998
v 3.371502 1.336715 0.700771
v 3.612307 1.208894 0.824347
v 3.035423 -1.477546 -0.738326
v 2.818400 -1.045347 -0.741566
v 3.172827 -0.806803 -1.221917
v 3.389802 -1.239025 -1.218718
v 3.434061 0.477959 0.949762
v 3.271917 1.129535 0.146404
v 2.838459 0.794108 0.644114
v 3.867519 0.813386 0.452052
v 3.042638 0.335738 0.231135
v 3.544894 0.345147 0.137395
v 3.333335 0.181435 0.380313
v 3.254196 0.499451 -0.011783
v -0.755789 0.052234 1.984127
v -0.498090 0.476020 2.108131
v -0.626685 0.127283 2.377378
v -0.517128 -0.151846 2.378701
v -0.649315 -0.146747 2.442875
v -0.391616 0.277039 2.566880
v -0.610551 0.472814 2.148051
v -0.500786 0.193773 2.149455
v 0.342731 -0.353772 0.003799
v -0.349472 -0.349472 -0.000446
v 0.401680 0.269716 0.055728
v -0.260755 0.405917 -0.056498
v 3.337920 1.003571 -0.518660
v 3.139563 0.939427 -0.733451
v 2.949814 1.140180 -0.618175
v 3.148170 1.204326 -0.403383
v 1.845141 -1.434867 1.380954
v 1.710356 -1.182978 0.800225
v 2.036577 -0.646508 0.957202
v 2.171362 -0.898398 1.537931
v 3.419377 0.538824 -0.147799
v 2.459442 0.876710 -0.393938
v 2.928765 0.380169 -0.679064
v 2.950054 1.035365 0.137326
v 2.698136 0.127457 -0.126531
v 2.708527 0.447240 0.271925
v 2.937590 0.204892 0.132764
v 2.469073 0.369805 0.012629
vt 1.000000 0.500000
vt 1.000000 1.000000
vt 0.000000 1.000000
vt 1.000000 0.000000
vt 0.500000 1.000000
vt 0.000000 0.500000
vt 0.000000 0.000000
vt 0.500000 0.000000
vn -0.464600 -0.874100 -0.141500
vn 0.476000 0.877800 0.054000
vn -0.935700 0.084500 -0.342400
vn 0.926700 -0.338300 0.163400
vn -0.904400 0.256000 -0.341300
vn 0.100000 0.782500 0.614500
vn -0.498300 -0.107100 0.860300
vn 0.577400 0.725400 -0.374800
vn 0.778600 -0.083100 0.622000
vn -0.699500 0.701500 -0.136500
vn 0.086700 0.865300 0.493700
vn -0.046400 -0.879700 -0.473300
vn 0.488600 0.292300 -0.822100
vn -0.531000 -0.260600 0.806300
vn -0.796700 0.168100 -0.580500
vn 0.735700 -0.645300 0.205900
vn 0.527100 0.192900 -0.827600
vn -0.588100 -0.670100 0.452900
vn -0.667500 -0.330200 0.667400
vn 0.592500 0.527300 -0.609000
vn 0.817600 -0.418500 0.395400
vn -0.804900 0.423400 -0.415700
vn -0.930200 -0.365300 -0.035200
vn 0.921800 0.363300 0.135200
vn -0.993500 -0.026900 -0.110400
vn 0.931100 0.170000 0.322700
vn -0.838200 0.401800 0.368800
vn 0.398700 0.710100 -0.580300
vn 0.739900 -0.335600 -0.583100
vn -0.424800 0.896700 0.124500
vn 0.766300 0.477400 0.430000
vn -0.451200 0.083700 -0.888500
vn -0.227200 0.398200 -0.888700
vn 0.189200 -0.380000 0.905400
vn 0.484900 0.837800 0.250800
vn -0.522900 -0.819600 -0.234100
vn -0.752700 -0.420600 -0.506500
vn 0.509600 -0.012400 0.860300
vn -0.725300 0.422300 0.543700
vn 0.482200 -0.855200 -0.189900
vn 0.610700 -0.709300 -0.352100
vn -0.645700 0.648900 0.402500
vn 0.711200 0.309800 0.631100
vn -0.705500 -0.297500 -0.643200
vn -0.006700 -0.996700 0.081300
vn 0.216800 0.971000 -0.101100
vn -0.906800 0.308300 -0.287500
vn 0.972600 -0.109000 0.205200
vn -0.893000 0.283100 -0.349700
vn -0.498300 -0.107100 0.860400
vn 0.084000 0.861800 0.500300
vn -0.047000 -0.880400 -0.471800
vn 0.488500 0.239000 -0.839200
vn -0.531000 -0.277400 0.800700
vn -0.796700 0.168200 -0.580500
vn -0.578400 -0.404900 0.708200
vn 0.760400 0.377800 -0.528300
vn 0.804800 -0.424300 0.415000
vn -0.817800 0.417700 -0.395900
vn -0.006700 -0.996600 0.082300
vn 0.181600 0.976800 0.113700
vn -0.981800 0.103500 -0.158900
vn 0.913400 -0.118800 0.389400
vn 0.560000 -0.704700 -0.435600
vn -0.625300 0.652400 0.428100
vn 0.847400 -0.529000 0.046700
vn -0.832000 0.541400 -0.121200
usemtl Material
s off
f 34/1/1 3/2/1 4/3/1
f 8/4/2 7/2/2 36/5/2
f 34/6/3 36/1/3 7/2/3
f 33/1/4 4/2/4 8/3/4
f 6/7/5 5/3/5 1/2/5
f 12/7/6 11/4/6 10/2/6
f 17/3/7 9/3/7 10/2/7
f 20/7/8 18/4/8 11/4/8
f 17/3/9 20/7/9 12/7/9
f 19/2/10 10/2/10 11/4/10
f 1/2/11 14/2/11 15/4/11
f 5/3/12 6/7/12 16/7/12
f 6/7/13 2/4/13 15/4/13
f 5/3/14 13/3/14 14/2/14
f 21/2/15 19/2/15 18/4/15
f 23/3/16 22/7/16 20/7/16
f 22/7/17 24/4/17 18/4/17
f 23/3/18 17/3/18 19/2/18
f 14/2/19 13/3/19 23/3/19
f 15/4/20 24/4/20 22/7/20
f 13/3/21 16/7/21 22/7/21
f 14/2/22 21/2/22 24/4/22
f 28/3/23 27/2/23 34/1/23
f 36/5/24 31/2/24 32/4/24
f 34/6/25 27/3/25 31/2/25
f 32/3/26 28/2/26 33/1/26
f 30/7/27 26/4/27 25/2/27
f 40/7/28 37/3/28 38/2/28
f 38/2/29 37/3/29 45/3/29
f 48/7/30 40/7/30 39/4/30
f 37/3/31 40/7/31 48/7/31
f 39/4/32 38/2/32 47/2/32
f 43/4/33 42/2/33 25/2/33
f 41/3/34 44/7/34 30/7/34
f 30/7/35 44/7/35 43/4/35
f 42/2/36 41/3/36 29/3/36
f 52/4/37 46/4/37 47/2/37
f 51/3/38 45/3/38 48/7/38
f 48/7/39 46/4/39 52/4/39
f 47/2/40 45/3/40 51/3/40
f 42/2/41 49/2/41 51/3/41
f 50/7/42 52/4/42 43/4/42
f 51/3/43 50/7/43 44/7/43
f 43/4/44 52/4/44 49/2/44
f 33/6/45 34/1/45 4/3/45
f 35/8/46 8/4/46 36/5/46
f 3/3/47 34/6/47 7/2/47
f 35/6/48 33/1/48 8/3/48
f 2/4/49 6/7/49 1/2/49
f 9/3/6 12/7/6 10/2/6
f 19/2/50 17/3/50 10/2/50
f 12/7/8 20/7/8 11/4/8
f 9/3/9 17/3/9 12/7/9
f 18/4/10 19/2/10 11/4/10
f 2/4/51 1/2/51 15/4/51
f 13/3/52 5/3/52 16/7/52
f 16/7/53 6/7/53 15/4/53
f 1/2/54 5/3/54 14/2/54
f 24/4/55 21/2/55 18/4/55
f 17/3/16 23/3/16 20/7/16
f 20/7/17 22/7/17 18/4/17
f 21/2/18 23/3/18 19/2/18
f 21/2/56 14/2/56 23/3/56
f 16/7/57 15/4/57 22/7/57
f 23/3/58 13/3/58 22/7/58
f 15/4/59 14/2/59 24/4/59
f 33/6/60 28/3/60 34/1/60
f 35/8/61 36/5/61 32/4/61
f 36/1/62 34/6/62 31/2/62
f 35/6/63 32/3/63 33/1/63
f 29/3/27 30/7/27 25/2/27
f 39/4/28 40/7/28 38/2/28
f 47/2/29 38/2/29 45/3/29
f 46/4/30 48/7/30 39/4/30
f 45/3/31 37/3/31 48/7/31
f 46/4/32 39/4/32 47/2/32
f 26/4/33 43/4/33 25/2/33
f 29/3/34 41/3/34 30/7/34
f 26/4/35 30/7/35 43/4/35
f 25/2/36 42/2/36 29/3/36
f 49/2/37 52/4/37 47/2/37
f 50/7/38 51/3/38 48/7/38
f 50/7/39 48/7/39 52/4/39
f 49/2/40 47/2/40 51/3/40
f 41/3/64 42/2/64 51/3/64
f 44/7/65 50/7/65 43/4/65
f 41/3/66 51/3/66 44/7/66
f 42/2/67 43/4/67 49/2/67
