# Blender v2.76 (sub 0) OBJ File: 'handsBlock.blend'
# www.blender.org
mtllib handsBlock_000009.mtl
o Cube
v 0.553882 -0.094579 -1.963552
v 0.754737 0.051370 -2.401983
v 0.382318 -0.375804 -2.429469
v 0.658969 -0.530299 -2.177886
v 0.386541 -0.544474 -2.119729
v 0.575495 -0.399153 -2.564099
v 0.564418 0.089284 -2.355865
v 0.839808 -0.054854 -2.162842
v 4.050622 0.633433 0.534727
v 3.822916 0.799814 0.434415
v 3.990703 0.890315 0.203649
v 4.218410 0.723934 0.303961
v 2.943580 -1.865794 -0.984377
v 2.812016 -1.400425 -0.989534
v 3.134585 -1.255578 -1.526402
v 3.266094 -1.720964 -1.521277
v 3.926987 0.047144 0.500927
v 3.778782 0.682513 -0.317954
v 3.363780 0.458669 0.252818
v 4.341988 0.270988 -0.069846
v 3.420441 -0.047821 -0.150423
v 3.897877 -0.139423 -0.307905
v 3.695326 -0.248675 -0.029327
v 3.622991 0.061431 -0.429000
v -0.716800 0.085123 1.951437
v -0.437389 0.471531 2.135824
v -0.646086 0.112413 2.391534
v -0.547383 -0.148029 2.362669
v -0.709835 -0.139129 2.410831
v -0.430424 0.247279 2.595218
v -0.580220 0.470580 2.161876
v -0.481306 0.210214 2.133110
v 0.342731 -0.353772 0.003799
v -0.349472 -0.349472 -0.000446
v 0.401680 0.269716 0.055728
v -0.260755 0.405917 -0.056498
v 3.812092 0.624268 0.183417
v 3.645764 0.590635 -0.063160
v 3.463214 0.808692 0.030235
v 3.629542 0.842326 0.276811
v 1.765947 -1.678828 1.697334
v 1.757128 -1.394947 1.115789
v 2.110834 -0.905794 1.349205
v 2.119653 -1.189675 1.930750
v 3.779374 0.141901 0.538964
v 2.916469 0.598051 0.160089
v 3.367983 0.058713 -0.070913
v 3.327858 0.681239 0.769966
v 3.023173 -0.182035 0.424558
v 3.003589 0.121804 0.834967
v 3.223961 -0.141432 0.722221
v 2.802802 0.081201 0.537302
vt 1.000000 0.500000
vt 1.000000 1.000000
vt 0.000000 1.000000
vt 1.000000 0.000000
vt 0.500000 1.000000
vt 0.000000 0.500000
vt 0.000000 0.000000
vt 0.500000 0.000000
vn -0.404800 -0.907500 -0.112100
vn 0.443600 0.895500 0.035900
vn -0.934200 0.084000 -0.346800
vn 0.920600 -0.355300 0.162200
vn -0.879800 0.410500 -0.239800
vn 0.327200 0.774300 0.541600
vn -0.385700 0.028200 0.922200
vn 0.644200 0.583700 -0.494300
vn 0.828100 -0.204700 0.521800
vn -0.569600 0.816600 -0.093900
vn 0.312900 0.852800 0.418100
vn -0.273500 -0.873800 -0.402000
vn 0.415800 0.156900 -0.895800
vn -0.453400 -0.118400 0.883400
vn -0.824300 0.293300 -0.484300
vn 0.624800 -0.765500 0.154100
vn 0.434100 0.051900 -0.899400
vn -0.633600 -0.524000 0.569200
vn -0.618300 -0.166300 0.768200
vn 0.589800 0.376500 -0.714400
vn 0.772700 -0.550800 0.315600
vn -0.762200 0.552300 -0.337600
vn -0.935800 -0.349300 -0.048600
vn 0.932000 0.340400 0.124300
vn -0.985900 0.091600 -0.139900
vn 0.935900 0.050800 0.348700
vn -0.837300 0.486200 0.250000
vn 0.565100 0.675800 -0.473300
vn 0.783500 -0.402300 -0.473600
vn -0.337000 0.936200 0.099600
vn 0.733700 0.370200 0.569800
vn -0.287200 0.163800 -0.943800
vn -0.032600 0.449500 -0.892700
vn -0.005300 -0.427500 0.904000
vn 0.527400 0.766600 0.366200
vn -0.565300 -0.744600 -0.354900
vn -0.701500 -0.313000 -0.640300
vn 0.357000 -0.099000 0.928900
vn -0.753100 0.487800 0.441500
vn 0.408600 -0.899800 -0.152900
vn 0.577300 -0.765100 -0.285100
vn -0.626700 0.707700 0.326200
vn 0.628000 0.204100 0.750900
vn -0.619200 -0.192200 -0.761400
vn -0.006700 -0.996800 0.079700
vn 0.216500 0.971200 -0.099300
vn -0.881400 0.387800 -0.269700
vn 0.972000 -0.109200 0.207900
vn -0.864800 0.434600 -0.251500
vn 0.310400 0.850200 0.425200
vn -0.274000 -0.874400 -0.400500
vn 0.403400 0.104000 -0.909100
vn -0.457300 -0.135100 0.879000
vn -0.539700 -0.254900 0.802300
vn 0.736700 0.201100 -0.645700
vn 0.761900 -0.553200 0.337000
vn -0.773000 0.550000 -0.316100
vn -0.006700 -0.996400 0.084400
vn 0.183000 0.977400 0.105800
vn -0.983900 0.104800 -0.144700
vn 0.915000 -0.118600 0.385500
vn 0.541900 -0.752000 -0.375300
vn -0.610500 0.708000 0.354900
vn 0.764000 -0.626300 0.154800
vn -0.735300 0.639200 -0.225200
usemtl Material
s off
f 34/1/1 3/2/1 4/3/1
f 8/4/2 7/2/2 36/5/2
f 34/6/3 36/1/3 7/2/3
f 33/1/4 4/2/4 8/3/4
f 6/7/5 5/3/5 1/2/5
f 11/4/6 10/2/6 9/3/6
f 17/3/7 9/3/7 10/2/7
f 20/7/8 18/4/8 11/4/8
f 17/3/9 20/7/9 12/7/9
f 19/2/10 10/2/10 11/4/10
f 1/2/11 14/2/11 15/4/11
f 5/3/12 6/7/12 16/7/12
f 6/7/13 2/4/13 15/4/13
f 5/3/14 13/3/14 14/2/14
f 21/2/15 19/2/15 18/4/15
f 23/3/16 22/7/16 20/7/16
f 24/4/17 18/4/17 20/7/17
f 23/3/18 17/3/18 19/2/18
f 14/2/19 13/3/19 23/3/19
f 15/4/20 24/4/20 22/7/20
f 13/3/21 16/7/21 22/7/21
f 14/2/22 21/2/22 24/4/22
f 28/3/23 27/2/23 34/1/23
f 36/5/24 31/2/24 32/4/24
f 34/6/25 27/3/25 31/2/25
f 32/3/26 28/2/26 33/1/26
f 30/7/27 26/4/27 25/2/27
f 40/7/28 37/3/28 38/2/28
f 47/2/29 38/2/29 37/3/29
f 48/7/30 40/7/30 39/4/30
f 37/3/31 40/7/31 48/7/31
f 39/4/32 38/2/32 47/2/32
f 43/4/33 42/2/33 25/2/33
f 41/3/34 44/7/34 30/7/34
f 30/7/35 44/7/35 43/4/35
f 42/2/36 41/3/36 29/3/36
f 52/4/37 46/4/37 47/2/37
f 51/3/38 45/3/38 48/7/38
f 50/7/39 48/7/39 46/4/39
f 47/2/40 45/3/40 51/3/40
f 42/2/41 49/2/41 51/3/41
f 50/7/42 52/4/42 43/4/42
f 51/3/43 50/7/43 44/7/43
f 43/4/44 52/4/44 49/2/44
f 33/6/45 34/1/45 4/3/45
f 35/8/46 8/4/46 36/5/46
f 3/3/47 34/6/47 7/2/47
f 35/6/48 33/1/48 8/3/48
f 2/4/49 6/7/49 1/2/49
f 12/7/6 11/4/6 9/3/6
f 19/2/7 17/3/7 10/2/7
f 12/7/8 20/7/8 11/4/8
f 9/3/9 17/3/9 12/7/9
f 18/4/10 19/2/10 11/4/10
f 2/4/50 1/2/50 15/4/50
f 13/3/51 5/3/51 16/7/51
f 16/7/52 6/7/52 15/4/52
f 1/2/53 5/3/53 14/2/53
f 24/4/15 21/2/15 18/4/15
f 17/3/16 23/3/16 20/7/16
f 22/7/17 24/4/17 20/7/17
f 21/2/18 23/3/18 19/2/18
f 21/2/54 14/2/54 23/3/54
f 16/7/55 15/4/55 22/7/55
f 23/3/56 13/3/56 22/7/56
f 15/4/57 14/2/57 24/4/57
f 33/6/58 28/3/58 34/1/58
f 35/8/59 36/5/59 32/4/59
f 36/1/60 34/6/60 31/2/60
f 35/6/61 32/3/61 33/1/61
f 29/3/27 30/7/27 25/2/27
f 39/4/28 40/7/28 38/2/28
f 45/3/29 47/2/29 37/3/29
f 46/4/30 48/7/30 39/4/30
f 45/3/31 37/3/31 48/7/31
f 46/4/32 39/4/32 47/2/32
f 26/4/33 43/4/33 25/2/33
f 29/3/34 41/3/34 30/7/34
f 26/4/35 30/7/35 43/4/35
f 25/2/36 42/2/36 29/3/36
f 49/2/37 52/4/37 47/2/37
f 50/7/38 51/3/38 48/7/38
f 52/4/39 50/7/39 46/4/39
f 49/2/40 47/2/40 51/3/40
f 41/3/62 42/2/62 51/3/62
f 44/7/63 50/7/63 43/4/63
f 41/3/64 51/3/64 44/7/64
f 42/2/65 43/4/65 49/2/65
