# Blender v2.76 (sub 0) OBJ File: 'handsBlock.blend'
# www.blender.org
mtllib handsBlock_000118.mtl
o Cube
v 0.657674 -0.085156 -1.987597
v 0.784275 -0.037008 -2.472901
v 0.323128 -0.381412 -2.415922
v 0.656428 -0.522318 -2.171519
v 0.330483 -0.464890 -2.047160
v 0.444503 -0.413824 -2.535707
v 0.578606 0.049695 -2.387914
v 0.851904 -0.053392 -2.165389
v 4.695264 -0.386321 -0.373358
v 4.511569 -0.161228 -0.445365
v 4.639679 -0.143022 -0.715276
v 4.823375 -0.368116 -0.643269
v 2.560613 -2.475298 -1.300073
v 2.578410 -1.993462 -1.337788
v 2.793991 -1.991263 -1.943410
v 2.776130 -2.473098 -1.905713
v 4.396018 -0.902101 -0.305642
v 4.258536 -0.300331 -1.151335
v 3.941669 -0.345359 -0.483742
v 4.712884 -0.857072 -0.973235
v 3.746265 -0.864931 -0.821688
v 4.122674 -1.114682 -1.060595
v 3.968020 -1.136660 -0.734762
v 3.900919 -0.842952 -1.147521
v -0.632918 0.131471 1.915553
v -0.349991 0.445966 2.202653
v -0.686668 0.091975 2.406094
v -0.589721 -0.132515 2.325880
v -0.794535 -0.108126 2.337279
v -0.511609 0.206368 2.624379
v -0.536542 0.457820 2.195251
v -0.439388 0.233386 2.115162
v 0.342731 -0.353772 0.003799
v -0.349472 -0.349472 -0.000446
v 0.401680 0.269716 0.055728
v -0.260755 0.405917 -0.056498
v 4.227813 -0.179473 1.463840
v 4.133107 -0.168901 1.180089
v 3.974757 0.077418 1.242118
v 4.069464 0.066847 1.525869
v 1.458155 -2.083824 2.160509
v 1.662746 -1.780518 1.626647
v 2.020902 -1.382400 1.990086
v 1.816312 -1.685706 2.523949
v 4.010490 -0.659485 1.751106
v 3.384583 -0.024095 1.202703
v 3.776243 -0.633338 1.049281
v 3.618829 -0.050242 1.904528
v 3.269762 -0.819816 1.411284
v 3.192932 -0.535223 1.828707
v 3.384091 -0.832578 1.753825
v 3.078604 -0.522462 1.486166
vt 1.000000 0.500000
vt 1.000000 1.000000
vt 0.000000 1.000000
vt 1.000000 0.000000
vt 0.500000 1.000000
vt 0.000000 0.000000
vt 0.000000 0.500000
vt 0.500000 0.000000
vn -0.336900 -0.938000 -0.081400
vn 0.361600 0.932200 -0.012300
vn -0.792000 0.492800 -0.360400
vn 0.910300 -0.381500 0.160800
vn -0.745200 0.658500 -0.105100
vn 0.663500 0.656400 0.359200
vn -0.131100 0.203400 0.970300
vn 0.655300 0.315200 -0.686500
vn 0.825900 -0.431500 0.362900
vn -0.301700 0.950100 -0.079100
vn 0.644900 0.728200 0.232200
vn -0.611100 -0.759800 -0.222000
vn 0.221000 -0.036800 -0.974600
vn -0.247000 0.084700 0.965300
vn -0.786700 0.516100 -0.338600
vn 0.382200 -0.916300 0.119600
vn 0.205400 -0.142200 -0.968300
vn -0.609900 -0.258000 0.749300
vn -0.440900 0.086200 0.893400
vn 0.490700 0.124600 -0.862300
vn 0.621700 -0.752200 0.218500
vn -0.616700 0.749000 -0.242200
vn -0.924000 -0.377500 -0.060200
vn 0.925700 0.363300 0.105000
vn -0.942100 0.280800 -0.183500
vn 0.911500 -0.155200 0.380800
vn -0.770600 0.634000 0.064900
vn 0.787400 0.567100 -0.241700
vn 0.797100 -0.531900 -0.285900
vn -0.174900 0.980000 0.094900
vn 0.601700 0.191600 0.775400
vn 0.020400 0.256500 -0.966300
vn 0.298600 0.482900 -0.823200
vn -0.333500 -0.454200 0.826100
vn 0.535800 0.629300 0.562900
vn -0.570700 -0.600600 -0.559900
vn -0.541400 -0.139200 -0.829200
vn 0.061300 -0.206500 0.976500
vn -0.743900 0.610900 0.271000
vn 0.263800 -0.956600 -0.123700
vn 0.484200 -0.853300 -0.193400
vn -0.552600 0.805400 0.214400
vn 0.421600 0.042900 0.905800
vn -0.408100 -0.032600 -0.912300
vn -0.006700 -0.997100 0.076300
vn 0.216300 0.971500 -0.097500
vn -0.958900 0.092700 -0.268200
vn 0.971000 -0.109500 0.212700
vn -0.726800 0.675800 -0.122600
vn 0.663500 0.656300 0.359200
vn 0.643500 0.726800 0.240000
vn -0.611400 -0.760100 -0.220300
vn 0.190500 -0.083600 -0.978100
vn -0.256600 0.069900 0.964000
vn -0.387100 -0.021000 0.921800
vn 0.589600 -0.084700 -0.803300
vn 0.616000 -0.749700 0.241800
vn -0.622300 0.751600 -0.218800
vn -0.006800 -0.995700 0.092200
vn 0.185400 0.978300 0.093000
vn -0.986600 0.106700 -0.123300
vn 0.920000 -0.118100 0.373700
vn 0.478200 -0.829700 -0.288100
vn -0.545300 0.801300 0.246300
vn 0.563700 -0.773000 0.291200
vn -0.514800 0.782600 -0.350000
usemtl Material
s off
f 34/1/1 3/2/1 4/3/1
f 8/4/2 7/2/2 36/5/2
f 36/1/3 7/2/3 3/3/3
f 33/1/4 4/2/4 8/3/4
f 6/6/5 5/3/5 1/2/5
f 12/6/6 11/4/6 10/2/6
f 17/3/7 9/3/7 10/2/7
f 18/4/8 11/4/8 12/6/8
f 17/3/9 20/6/9 12/6/9
f 19/2/10 10/2/10 11/4/10
f 1/2/11 14/2/11 15/4/11
f 5/3/12 6/6/12 16/6/12
f 6/6/13 2/4/13 15/4/13
f 5/3/14 13/3/14 14/2/14
f 24/4/15 21/2/15 19/2/15
f 22/6/16 20/6/16 17/3/16
f 22/6/17 24/4/17 18/4/17
f 23/3/18 17/3/18 19/2/18
f 14/2/19 13/3/19 23/3/19
f 15/4/20 24/4/20 22/6/20
f 13/3/21 16/6/21 22/6/21
f 14/2/22 21/2/22 24/4/22
f 28/3/23 27/2/23 34/1/23
f 36/5/24 31/2/24 32/4/24
f 34/7/25 27/3/25 31/2/25
f 32/3/26 28/2/26 33/1/26
f 30/6/27 26/4/27 25/2/27
f 40/6/28 37/3/28 38/2/28
f 47/2/29 38/2/29 37/3/29
f 40/6/30 39/4/30 46/4/30
f 37/3/31 40/6/31 48/6/31
f 39/4/32 38/2/32 47/2/32
f 43/4/33 42/2/33 25/2/33
f 41/3/34 44/6/34 30/6/34
f 30/6/35 44/6/35 43/4/35
f 42/2/36 41/3/36 29/3/36
f 46/4/37 47/2/37 49/2/37
f 51/3/38 45/3/38 48/6/38
f 48/6/39 46/4/39 52/4/39
f 47/2/40 45/3/40 51/3/40
f 42/2/41 49/2/41 51/3/41
f 50/6/42 52/4/42 43/4/42
f 51/3/43 50/6/43 44/6/43
f 43/4/44 52/4/44 49/2/44
f 33/7/45 34/1/45 4/3/45
f 35/8/46 8/4/46 36/5/46
f 34/7/47 36/1/47 3/3/47
f 35/7/48 33/1/48 8/3/48
f 2/4/49 6/6/49 1/2/49
f 9/3/50 12/6/50 10/2/50
f 19/2/7 17/3/7 10/2/7
f 20/6/8 18/4/8 12/6/8
f 9/3/9 17/3/9 12/6/9
f 18/4/10 19/2/10 11/4/10
f 2/4/51 1/2/51 15/4/51
f 13/3/52 5/3/52 16/6/52
f 16/6/53 6/6/53 15/4/53
f 1/2/54 5/3/54 14/2/54
f 18/4/15 24/4/15 19/2/15
f 23/3/16 22/6/16 17/3/16
f 20/6/17 22/6/17 18/4/17
f 21/2/18 23/3/18 19/2/18
f 21/2/55 14/2/55 23/3/55
f 16/6/56 15/4/56 22/6/56
f 23/3/57 13/3/57 22/6/57
f 15/4/58 14/2/58 24/4/58
f 33/7/59 28/3/59 34/1/59
f 35/8/60 36/5/60 32/4/60
f 36/1/61 34/7/61 31/2/61
f 35/7/62 32/3/62 33/1/62
f 29/3/27 30/6/27 25/2/27
f 39/4/28 40/6/28 38/2/28
f 45/3/29 47/2/29 37/3/29
f 48/6/30 40/6/30 46/4/30
f 45/3/31 37/3/31 48/6/31
f 46/4/32 39/4/32 47/2/32
f 26/4/33 43/4/33 25/2/33
f 29/3/34 41/3/34 30/6/34
f 26/4/35 30/6/35 43/4/35
f 25/2/36 42/2/36 29/3/36
f 52/4/37 46/4/37 49/2/37
f 50/6/38 51/3/38 48/6/38
f 50/6/39 48/6/39 52/4/39
f 49/2/40 47/2/40 51/3/40
f 41/3/63 42/2/63 51/3/63
f 44/6/64 50/6/64 43/4/64
f 41/3/65 51/3/65 44/6/65
f 42/2/66 43/4/66 49/2/66
