# Blender v2.76 (sub 0) OBJ File: 'handsAttack.blend'
# www.blender.org
mtllib handsAttack_000025.mtl
o Cube
v -1.359614 0.086806 -1.607698
v -1.696224 0.195814 -1.946562
v -1.913734 -0.174596 -1.550839
v -1.526586 -0.302837 -1.731378
v -1.618803 -0.281382 -1.387821
v -1.964060 -0.172001 -1.713417
v -1.741217 0.261558 -1.709324
v -1.418744 0.180196 -1.835774
v 2.216807 -0.279325 -3.214020
v 2.091310 -0.140530 -2.980392
v 1.941235 0.038607 -3.167429
v 2.066732 -0.100187 -3.401058
v -0.014389 -2.377162 -3.081450
v 0.020444 -1.994037 -2.977732
v -0.368172 -1.782462 -3.410744
v -0.403053 -2.165597 -3.514398
v 2.031738 -0.848531 -3.257796
v 1.350142 -0.062164 -3.142560
v 1.721335 -0.505239 -2.679944
v 1.660546 -0.405456 -3.720412
v 1.257676 -0.866493 -2.957181
v 1.228007 -0.817793 -3.465003
v 1.409176 -1.034045 -3.239214
v 1.076508 -0.650241 -3.182970
v 1.949450 0.043754 0.821696
v 2.045523 0.445894 1.122418
v 1.978329 -0.018049 1.457435
v 2.058263 -0.213920 1.085816
v 1.968734 -0.265151 1.228618
v 2.064807 0.136989 1.529341
v 1.957719 0.391784 1.253720
v 2.037749 0.196031 0.882074
v 0.341353 -0.351282 -0.011873
v -0.349472 -0.349472 -0.000446
v 0.273032 0.319242 -0.194752
v -0.242836 0.371975 0.152799
v 7.867807 0.054783 0.047820
v 7.752525 0.090731 -0.226066
v 7.699848 0.379205 -0.166033
v 7.815131 0.343257 0.107854
v 4.902907 -0.741830 0.813108
v 4.878495 -0.350787 0.297987
v 5.000114 0.158281 0.678671
v 5.024526 -0.232762 1.193792
v 7.527027 -0.306387 0.384847
v 7.111602 0.496030 -0.144091
v 7.241889 -0.217476 -0.292578
v 7.396739 0.407118 0.533334
v 6.745174 -0.198669 0.126068
v 6.820751 0.106177 0.529172
v 6.884341 -0.242064 0.456700
v 6.681584 0.149573 0.198539
vt 1.000000 0.500000
vt 1.000000 1.000000
vt 0.000000 1.000000
vt 1.000000 0.000000
vt 0.500000 1.000000
vt 0.000000 0.500000
vt 0.000000 0.000000
vt 0.500000 0.000000
vn -0.249900 -0.957500 0.144200
vn 0.168300 0.966700 -0.192800
vn -0.778400 -0.018200 0.627500
vn 0.669600 -0.131200 -0.731100
vn -0.394400 0.659700 0.639800
vn 0.756900 0.653300 0.018400
vn 0.759600 -0.291700 0.581300
vn -0.161600 0.807900 -0.566700
vn 0.684200 -0.167900 -0.709700
vn -0.086100 0.684100 0.724300
vn 0.692000 0.656600 -0.300200
vn -0.562700 -0.751600 0.344200
vn -0.699400 0.057700 -0.712400
vn 0.512100 -0.267500 0.816200
vn -0.630000 0.242500 0.737700
vn 0.168600 -0.640800 -0.749000
vn -0.708200 0.370800 -0.600700
vn 0.246800 -0.769100 0.589500
vn 0.357600 -0.274200 0.892700
vn -0.421300 0.662200 -0.619700
vn 0.472600 -0.546600 -0.691300
vn -0.428300 0.455800 0.780200
vn -0.199700 -0.883900 0.422900
vn 0.038200 0.994800 -0.094200
vn -0.415100 0.388100 0.822800
vn 0.523100 -0.358200 -0.773400
vn -0.981500 0.127400 0.143200
vn 0.905900 0.238300 -0.350000
vn 0.519600 -0.791200 -0.322500
vn 0.196200 0.979500 0.046000
vn 0.711700 -0.016200 0.702300
vn 0.004100 0.204500 -0.978900
vn -0.059900 0.606900 -0.792500
vn 0.015500 -0.601200 0.799000
vn 0.165600 0.789300 0.591300
vn -0.210100 -0.783500 -0.584800
vn -0.643000 0.041700 -0.764800
vn 0.090600 -0.187000 0.978200
vn -0.443800 0.845200 0.297700
vn -0.108600 -0.990500 -0.084300
vn 0.203200 -0.956100 -0.211000
vn 0.037800 0.992700 0.114400
vn 0.365000 -0.125300 0.922500
vn -0.105000 0.184200 -0.977300
vn -0.003000 -0.999700 -0.024900
vn 0.026500 0.993400 -0.111500
vn -0.593500 0.471700 0.652100
vn 0.677400 -0.296700 -0.673200
vn -0.398800 0.680200 0.615000
vn 0.610300 0.693300 -0.383200
vn -0.661800 -0.707400 0.248400
vn -0.565800 0.262900 -0.781500
vn 0.676000 -0.036300 0.736000
vn 0.520000 -0.582000 0.625100
vn -0.196800 0.272700 -0.941800
vn 0.381100 -0.495600 -0.780500
vn -0.505600 0.504200 0.700100
vn 0.001100 -0.975500 0.220000
vn 0.300500 0.869000 -0.393000
vn -0.517200 -0.104000 0.849500
vn 0.503300 -0.179300 -0.845300
vn 0.009200 -0.796300 -0.604900
vn 0.072100 0.796100 0.600900
vn 0.287400 -0.616700 0.732900
vn -0.213100 0.617300 -0.757400
usemtl Material
s off
f 34/1/1 3/2/1 4/3/1
f 8/4/2 7/2/2 36/5/2
f 34/6/3 36/1/3 7/2/3
f 35/6/4 33/1/4 4/2/4
f 6/7/5 5/3/5 1/2/5
f 12/7/6 11/4/6 10/2/6
f 19/2/7 17/3/7 9/3/7
f 20/7/8 18/4/8 11/4/8
f 20/7/9 12/7/9 9/3/9
f 19/2/10 10/2/10 11/4/10
f 1/2/11 14/2/11 15/4/11
f 5/3/12 6/7/12 16/7/12
f 6/7/13 2/4/13 15/4/13
f 5/3/14 13/3/14 14/2/14
f 21/2/15 19/2/15 18/4/15
f 23/3/16 22/7/16 20/7/16
f 22/7/17 24/4/17 18/4/17
f 23/3/18 17/3/18 19/2/18
f 14/2/19 13/3/19 23/3/19
f 15/4/20 24/4/20 22/7/20
f 13/3/21 16/7/21 22/7/21
f 14/2/22 21/2/22 24/4/22
f 33/6/23 28/3/23 27/2/23
f 35/8/24 36/5/24 31/2/24
f 27/3/25 31/2/25 36/1/25
f 32/3/26 28/2/26 33/1/26
f 26/4/27 25/2/27 29/3/27
f 40/7/28 37/3/28 38/2/28
f 47/2/29 38/2/29 37/3/29
f 40/7/30 39/4/30 46/4/30
f 45/3/31 37/3/31 40/7/31
f 39/4/32 38/2/32 47/2/32
f 26/4/33 43/4/33 42/2/33
f 41/3/34 44/7/34 30/7/34
f 30/7/35 44/7/35 43/4/35
f 42/2/36 41/3/36 29/3/36
f 52/4/37 46/4/37 47/2/37
f 51/3/38 45/3/38 48/7/38
f 48/7/39 46/4/39 52/4/39
f 47/2/40 45/3/40 51/3/40
f 49/2/41 51/3/41 41/3/41
f 50/7/42 52/4/42 43/4/42
f 51/3/43 50/7/43 44/7/43
f 52/4/44 49/2/44 42/2/44
f 33/6/45 34/1/45 4/3/45
f 35/8/46 8/4/46 36/5/46
f 3/3/47 34/6/47 7/2/47
f 8/3/48 35/6/48 4/2/48
f 2/4/49 6/7/49 1/2/49
f 9/3/6 12/7/6 10/2/6
f 10/2/7 19/2/7 9/3/7
f 12/7/8 20/7/8 11/4/8
f 17/3/9 20/7/9 9/3/9
f 18/4/10 19/2/10 11/4/10
f 2/4/50 1/2/50 15/4/50
f 13/3/51 5/3/51 16/7/51
f 16/7/52 6/7/52 15/4/52
f 1/2/53 5/3/53 14/2/53
f 24/4/15 21/2/15 18/4/15
f 17/3/16 23/3/16 20/7/16
f 20/7/17 22/7/17 18/4/17
f 21/2/18 23/3/18 19/2/18
f 21/2/54 14/2/54 23/3/54
f 16/7/55 15/4/55 22/7/55
f 23/3/56 13/3/56 22/7/56
f 15/4/57 14/2/57 24/4/57
f 34/1/58 33/6/58 27/2/58
f 32/4/59 35/8/59 31/2/59
f 34/6/60 27/3/60 36/1/60
f 35/6/61 32/3/61 33/1/61
f 30/7/27 26/4/27 29/3/27
f 39/4/28 40/7/28 38/2/28
f 45/3/29 47/2/29 37/3/29
f 48/7/30 40/7/30 46/4/30
f 48/7/31 45/3/31 40/7/31
f 46/4/32 39/4/32 47/2/32
f 25/2/33 26/4/33 42/2/33
f 29/3/34 41/3/34 30/7/34
f 26/4/35 30/7/35 43/4/35
f 25/2/36 42/2/36 29/3/36
f 49/2/37 52/4/37 47/2/37
f 50/7/38 51/3/38 48/7/38
f 50/7/39 48/7/39 52/4/39
f 49/2/40 47/2/40 51/3/40
f 42/2/62 49/2/62 41/3/62
f 44/7/63 50/7/63 43/4/63
f 41/3/64 51/3/64 44/7/64
f 43/4/65 52/4/65 42/2/65
