# Blender v2.76 (sub 0) OBJ File: 'handsBlock.blend'
# www.blender.org
mtllib handsBlock_000048.mtl
o Cube
v 0.457125 -0.137252 -1.964981
v 0.685341 0.116269 -2.335806
v 0.437388 -0.351271 -2.428482
v 0.665113 -0.536202 -2.183855
v 0.477725 -0.593067 -2.180871
v 0.696332 -0.342947 -2.560262
v 0.532402 0.118035 -2.326170
v 0.828698 -0.060134 -2.163275
v 2.953984 1.280701 1.314303
v 2.710401 1.382694 1.173375
v 2.883597 1.547626 0.993385
v 3.127180 1.445634 1.134313
v 3.036385 -1.222076 -0.558845
v 2.766918 -0.820572 -0.568185
v 3.128115 -0.519266 -1.006374
v 3.397542 -0.920798 -0.997080
v 3.033799 0.693467 1.219706
v 2.859705 1.353676 0.425957
v 2.431326 0.945734 0.871138
v 3.462178 1.101409 0.774523
v 2.727473 0.534583 0.464204
v 3.230603 0.610564 0.417048
v 3.021524 0.411459 0.634330
v 2.936553 0.733689 0.246922
v -0.776414 0.028812 2.009919
v -0.540860 0.474469 2.095270
v -0.616135 0.138000 2.365967
v -0.495507 -0.152062 2.386615
v -0.606071 -0.147170 2.458689
v -0.370517 0.298487 2.544040
v -0.631921 0.472034 2.141632
v -0.511090 0.182065 2.162350
v 0.342731 -0.353772 0.003799
v -0.349472 -0.349472 -0.000446
v 0.401680 0.269716 0.055728
v -0.260755 0.405917 -0.056498
v 2.937928 1.207260 -0.946832
v 2.723296 1.121685 -1.137110
v 2.531887 1.311074 -1.006380
v 2.746519 1.396650 -0.816102
v 1.853127 -1.276231 1.159914
v 1.637490 -1.053456 0.591819
v 1.935678 -0.489300 0.699863
v 2.151314 -0.712075 1.267960
v 3.094844 0.761771 -0.576591
v 2.090551 1.018538 -0.723874
v 2.563978 0.550107 -1.047221
v 2.621418 1.230201 -0.253244
v 2.414477 0.298105 -0.467144
v 2.442512 0.630040 -0.079627
v 2.673578 0.401412 -0.237443
v 2.183411 0.526733 -0.309328
vt 1.000000 0.500000
vt 1.000000 1.000000
vt 0.000000 1.000000
vt 1.000000 0.000000
vt 0.500000 1.000000
vt 0.000000 0.500000
vt 0.000000 0.000000
vt 0.500000 0.000000
vn -0.509300 -0.844700 -0.164400
vn 0.489600 0.869800 0.060800
vn -0.937200 0.085000 -0.338300
vn 0.930700 -0.326900 0.164400
vn -0.896800 0.155600 -0.414100
vn -0.054500 0.761800 0.645600
vn -0.553100 -0.205200 0.807400
vn 0.510000 0.807100 -0.297400
vn 0.726000 -0.012100 0.687600
vn -0.769100 0.614000 -0.177500
vn -0.067800 0.847300 0.526700
vn 0.107800 -0.857400 -0.503200
vn 0.516400 0.386000 -0.764400
vn -0.561100 -0.359200 0.745800
vn -0.758400 0.092300 -0.645200
vn 0.791700 -0.556700 0.251600
vn 0.567700 0.292600 -0.769500
vn -0.534500 -0.757000 0.375900
vn -0.675000 -0.439200 0.592900
vn 0.570500 0.622800 -0.535400
vn 0.827200 -0.329900 0.454900
vn -0.813500 0.337200 -0.473800
vn -0.922400 -0.385400 -0.024600
vn 0.910100 0.389400 0.142000
vn -0.990200 -0.106900 -0.089600
vn 0.920600 0.246300 0.303000
vn -0.822600 0.348800 0.449000
vn 0.277300 0.719700 -0.636500
vn 0.697000 -0.296900 -0.652700
vn -0.477900 0.865600 0.149800
vn 0.768300 0.547000 0.332500
vn -0.549100 0.021700 -0.835400
vn -0.351700 0.352000 -0.867400
vn 0.314500 -0.336200 0.887700
vn 0.442000 0.879400 0.177100
vn -0.479300 -0.863600 -0.156700
vn -0.767500 -0.491700 -0.411400
vn 0.598400 0.052900 0.799500
vn -0.693600 0.383200 0.610000
vn 0.524500 -0.822000 -0.221900
vn 0.623000 -0.671900 -0.400500
vn -0.647600 0.610600 0.455800
vn 0.748400 0.382100 0.542200
vn -0.745000 -0.369800 -0.555200
vn -0.006700 -0.996600 0.082100
vn 0.217000 0.970800 -0.102600
vn -0.920700 0.251500 -0.298500
vn 0.973000 -0.108900 0.203400
vn -0.888300 0.184300 -0.420700
vn -0.070700 0.843200 0.533000
vn 0.107100 -0.858300 -0.501800
vn 0.524600 0.333900 -0.783100
vn -0.558400 -0.375600 0.739700
vn -0.580900 -0.503900 0.639300
vn 0.748600 0.492000 -0.444400
vn 0.813600 -0.338100 0.473000
vn -0.827200 0.329200 -0.455500
vn -0.006700 -0.996600 0.082000
vn 0.180600 0.976300 0.118900
vn -0.980300 0.102600 -0.168600
vn 0.912900 -0.118800 0.390600
vn 0.563400 -0.673800 -0.478100
vn -0.624900 0.616500 0.479000
vn 0.886300 -0.461900 -0.034200
vn -0.880000 0.473100 -0.041800
usemtl Material
s off
f 34/1/1 3/2/1 4/3/1
f 8/4/2 7/2/2 36/5/2
f 34/6/3 36/1/3 7/2/3
f 33/1/4 4/2/4 8/3/4
f 6/7/5 5/3/5 1/2/5
f 12/7/6 11/4/6 10/2/6
f 17/3/7 9/3/7 10/2/7
f 20/7/8 18/4/8 11/4/8
f 17/3/9 20/7/9 12/7/9
f 18/4/10 19/2/10 10/2/10
f 1/2/11 14/2/11 15/4/11
f 5/3/12 6/7/12 16/7/12
f 6/7/13 2/4/13 15/4/13
f 5/3/14 13/3/14 14/2/14
f 21/2/15 19/2/15 18/4/15
f 23/3/16 22/7/16 20/7/16
f 22/7/17 24/4/17 18/4/17
f 23/3/18 17/3/18 19/2/18
f 14/2/19 13/3/19 23/3/19
f 15/4/20 24/4/20 22/7/20
f 13/3/21 16/7/21 22/7/21
f 14/2/22 21/2/22 24/4/22
f 28/3/23 27/2/23 34/1/23
f 36/5/24 31/2/24 32/4/24
f 34/6/25 27/3/25 31/2/25
f 32/3/26 28/2/26 33/1/26
f 26/4/27 25/2/27 29/3/27
f 40/7/28 37/3/28 38/2/28
f 47/2/29 38/2/29 37/3/29
f 40/7/30 39/4/30 46/4/30
f 37/3/31 40/7/31 48/7/31
f 39/4/32 38/2/32 47/2/32
f 43/4/33 42/2/33 25/2/33
f 29/3/34 41/3/34 44/7/34
f 30/7/35 44/7/35 43/4/35
f 42/2/36 41/3/36 29/3/36
f 46/4/37 47/2/37 49/2/37
f 51/3/38 45/3/38 48/7/38
f 50/7/39 48/7/39 46/4/39
f 47/2/40 45/3/40 51/3/40
f 42/2/41 49/2/41 51/3/41
f 50/7/42 52/4/42 43/4/42
f 51/3/43 50/7/43 44/7/43
f 43/4/44 52/4/44 49/2/44
f 33/6/45 34/1/45 4/3/45
f 35/8/46 8/4/46 36/5/46
f 3/3/47 34/6/47 7/2/47
f 35/6/48 33/1/48 8/3/48
f 2/4/49 6/7/49 1/2/49
f 9/3/6 12/7/6 10/2/6
f 19/2/7 17/3/7 10/2/7
f 12/7/8 20/7/8 11/4/8
f 9/3/9 17/3/9 12/7/9
f 11/4/10 18/4/10 10/2/10
f 2/4/50 1/2/50 15/4/50
f 13/3/51 5/3/51 16/7/51
f 16/7/52 6/7/52 15/4/52
f 1/2/53 5/3/53 14/2/53
f 24/4/15 21/2/15 18/4/15
f 17/3/16 23/3/16 20/7/16
f 20/7/17 22/7/17 18/4/17
f 21/2/18 23/3/18 19/2/18
f 21/2/54 14/2/54 23/3/54
f 16/7/55 15/4/55 22/7/55
f 23/3/56 13/3/56 22/7/56
f 15/4/57 14/2/57 24/4/57
f 33/6/58 28/3/58 34/1/58
f 35/8/59 36/5/59 32/4/59
f 36/1/60 34/6/60 31/2/60
f 35/6/61 32/3/61 33/1/61
f 30/7/27 26/4/27 29/3/27
f 39/4/28 40/7/28 38/2/28
f 45/3/29 47/2/29 37/3/29
f 48/7/30 40/7/30 46/4/30
f 45/3/31 37/3/31 48/7/31
f 46/4/32 39/4/32 47/2/32
f 26/4/33 43/4/33 25/2/33
f 30/7/34 29/3/34 44/7/34
f 26/4/35 30/7/35 43/4/35
f 25/2/36 42/2/36 29/3/36
f 52/4/37 46/4/37 49/2/37
f 50/7/38 51/3/38 48/7/38
f 52/4/39 50/7/39 46/4/39
f 49/2/40 47/2/40 51/3/40
f 41/3/62 42/2/62 51/3/62
f 44/7/63 50/7/63 43/4/63
f 41/3/64 51/3/64 44/7/64
f 42/2/65 43/4/65 49/2/65
