# Blender v2.76 (sub 0) OBJ File: 'handsBlock.blend'
# www.blender.org
mtllib handsBlock_000050.mtl
o Cube
v 0.462564 -0.133801 -1.964161
v 0.690542 0.113164 -2.339528
v 0.434295 -0.353250 -2.428960
v 0.664651 -0.535918 -2.183518
v 0.471391 -0.591130 -2.177637
v 0.689578 -0.347427 -2.561419
v 0.534785 0.116672 -2.327834
v 0.829318 -0.059716 -2.163163
v 3.031025 1.253736 1.272557
v 2.787553 1.359649 1.134354
v 2.961426 1.520178 0.951065
v 3.204897 1.414266 1.089268
v 3.039373 -1.260607 -0.586843
v 2.777616 -0.854007 -0.594875
v 3.138539 -0.562226 -1.039685
v 3.400255 -0.968853 -1.031698
v 3.098169 0.664542 1.180326
v 2.926023 1.323558 0.385160
v 2.495971 0.926505 0.838500
v 3.528221 1.061596 0.726986
v 2.778516 0.507412 0.429997
v 3.282328 0.573347 0.375571
v 3.072432 0.379557 0.596834
v 2.988412 0.701203 0.208735
v -0.773558 0.032452 2.005788
v -0.534236 0.474942 2.096932
v -0.617614 0.136329 2.367805
v -0.498870 -0.152151 2.385556
v -0.612797 -0.147349 2.456575
v -0.373475 0.295142 2.547719
v -0.628611 0.472271 2.142462
v -0.509663 0.183884 2.160285
v 0.342731 -0.353772 0.003799
v -0.349472 -0.349472 -0.000446
v 0.401680 0.269716 0.055728
v -0.260755 0.405917 -0.056498
v 3.003131 1.178862 -0.883815
v 2.790708 1.096601 -1.077994
v 2.599387 1.287709 -0.949658
v 2.811810 1.369970 -0.755479
v 1.854256 -1.300142 1.194052
v 1.650749 -1.072533 0.623403
v 1.953707 -0.512385 0.738782
v 2.157214 -0.739994 1.309431
v 3.148608 0.730051 -0.512914
v 2.149997 0.999271 -0.675769
v 2.623205 0.526588 -0.993193
v 2.675399 1.202734 -0.195490
v 2.461107 0.274023 -0.416755
v 2.486582 0.604032 -0.027419
v 2.717542 0.373328 -0.182345
v 2.230148 0.504728 -0.261830
vt 1.000000 0.500000
vt 1.000000 1.000000
vt 0.000000 1.000000
vt 1.000000 0.000000
vt 0.500000 1.000000
vt 0.000000 0.500000
vt 0.000000 0.000000
vt 0.500000 0.000000
vn -0.502400 -0.849600 -0.160800
vn 0.488000 0.870800 0.060000
vn -0.937000 0.084900 -0.339000
vn 0.930100 -0.328600 0.164200
vn -0.899200 0.170700 -0.402800
vn -0.031000 0.766300 0.641800
vn -0.545900 -0.189900 0.816100
vn 0.521400 0.795400 -0.309000
vn 0.735000 -0.022300 0.677700
vn -0.759500 0.627800 -0.170600
vn -0.044200 0.851400 0.522600
vn 0.084300 -0.862200 -0.499600
vn 0.513300 0.371600 -0.773600
vn -0.557700 -0.344100 0.755400
vn -0.765200 0.103400 -0.635400
vn 0.784100 -0.570600 0.244100
vn 0.562700 0.277200 -0.778800
vn -0.543800 -0.744400 0.387500
vn -0.675100 -0.422700 0.604600
vn 0.575100 0.608600 -0.546700
vn 0.826800 -0.343300 0.445500
vn -0.813300 0.350300 -0.464600
vn -0.923800 -0.381900 -0.026300
vn 0.912100 0.384900 0.141000
vn -0.991200 -0.094700 -0.092800
vn 0.922600 0.234800 0.306100
vn -0.825800 0.356700 0.436800
vn 0.296400 0.718900 -0.628800
vn 0.704300 -0.302500 -0.642300
vn -0.470100 0.870500 0.145500
vn 0.769000 0.536500 0.347500
vn -0.534900 0.031600 -0.844400
vn -0.333100 0.359700 -0.871600
vn 0.295700 -0.343500 0.891400
vn 0.449300 0.873400 0.188100
vn -0.486700 -0.857200 -0.168300
vn -0.766200 -0.480900 -0.426200
vn 0.585600 0.042600 0.809500
vn -0.699100 0.388900 0.600000
vn 0.518400 -0.827200 -0.216700
vn 0.621600 -0.677600 -0.393000
vn -0.647900 0.616400 0.447600
vn 0.743700 0.371000 0.556200
vn -0.740000 -0.358700 -0.569000
vn -0.006700 -0.996600 0.082000
vn 0.216900 0.970800 -0.102300
vn -0.918700 0.260400 -0.296900
vn 0.973000 -0.109000 0.203700
vn -0.890200 0.199200 -0.409600
vn -0.047100 0.847400 0.528900
vn 0.083600 -0.863000 -0.498200
vn 0.520200 0.319300 -0.792100
vn -0.555400 -0.360500 0.749400
vn -0.581700 -0.489000 0.650000
vn 0.751800 0.474900 -0.457400
vn 0.813300 -0.351200 0.463900
vn -0.826800 0.342600 -0.446100
vn 0.180800 0.976400 0.118100
vn -0.980600 0.102800 -0.167100
vn 0.912900 -0.118800 0.390500
vn 0.563400 -0.678400 -0.471500
vn -0.625500 0.621900 0.471100
vn 0.881200 -0.472200 -0.021400
vn -0.873600 0.483700 -0.054400
usemtl Material
s off
f 34/1/1 3/2/1 4/3/1
f 8/4/2 7/2/2 36/5/2
f 34/6/3 36/1/3 7/2/3
f 33/1/4 4/2/4 8/3/4
f 6/7/5 5/3/5 1/2/5
f 12/7/6 11/4/6 10/2/6
f 17/3/7 9/3/7 10/2/7
f 20/7/8 18/4/8 11/4/8
f 17/3/9 20/7/9 12/7/9
f 19/2/10 10/2/10 11/4/10
f 1/2/11 14/2/11 15/4/11
f 5/3/12 6/7/12 16/7/12
f 6/7/13 2/4/13 15/4/13
f 5/3/14 13/3/14 14/2/14
f 21/2/15 19/2/15 18/4/15
f 22/7/16 20/7/16 17/3/16
f 24/4/17 18/4/17 20/7/17
f 21/2/18 23/3/18 17/3/18
f 14/2/19 13/3/19 23/3/19
f 15/4/20 24/4/20 22/7/20
f 13/3/21 16/7/21 22/7/21
f 14/2/22 21/2/22 24/4/22
f 28/3/23 27/2/23 34/1/23
f 36/5/24 31/2/24 32/4/24
f 34/6/25 27/3/25 31/2/25
f 32/3/26 28/2/26 33/1/26
f 26/4/27 25/2/27 29/3/27
f 40/7/28 37/3/28 38/2/28
f 38/2/29 37/3/29 45/3/29
f 48/7/30 40/7/30 39/4/30
f 45/3/31 37/3/31 40/7/31
f 39/4/32 38/2/32 47/2/32
f 43/4/33 42/2/33 25/2/33
f 29/3/34 41/3/34 44/7/34
f 44/7/35 43/4/35 26/4/35
f 42/2/36 41/3/36 29/3/36
f 46/4/37 47/2/37 49/2/37
f 51/3/38 45/3/38 48/7/38
f 48/7/39 46/4/39 52/4/39
f 47/2/40 45/3/40 51/3/40
f 42/2/41 49/2/41 51/3/41
f 50/7/42 52/4/42 43/4/42
f 51/3/43 50/7/43 44/7/43
f 43/4/44 52/4/44 49/2/44
f 33/6/45 34/1/45 4/3/45
f 35/8/46 8/4/46 36/5/46
f 3/3/47 34/6/47 7/2/47
f 35/6/48 33/1/48 8/3/48
f 2/4/49 6/7/49 1/2/49
f 9/3/6 12/7/6 10/2/6
f 19/2/7 17/3/7 10/2/7
f 12/7/8 20/7/8 11/4/8
f 9/3/9 17/3/9 12/7/9
f 18/4/10 19/2/10 11/4/10
f 2/4/50 1/2/50 15/4/50
f 13/3/51 5/3/51 16/7/51
f 16/7/52 6/7/52 15/4/52
f 1/2/53 5/3/53 14/2/53
f 24/4/15 21/2/15 18/4/15
f 23/3/16 22/7/16 17/3/16
f 22/7/17 24/4/17 20/7/17
f 19/2/18 21/2/18 17/3/18
f 21/2/54 14/2/54 23/3/54
f 16/7/55 15/4/55 22/7/55
f 23/3/56 13/3/56 22/7/56
f 15/4/57 14/2/57 24/4/57
f 33/6/45 28/3/45 34/1/45
f 35/8/58 36/5/58 32/4/58
f 36/1/59 34/6/59 31/2/59
f 35/6/60 32/3/60 33/1/60
f 30/7/27 26/4/27 29/3/27
f 39/4/28 40/7/28 38/2/28
f 47/2/29 38/2/29 45/3/29
f 46/4/30 48/7/30 39/4/30
f 48/7/31 45/3/31 40/7/31
f 46/4/32 39/4/32 47/2/32
f 26/4/33 43/4/33 25/2/33
f 30/7/34 29/3/34 44/7/34
f 30/7/35 44/7/35 26/4/35
f 25/2/36 42/2/36 29/3/36
f 52/4/37 46/4/37 49/2/37
f 50/7/38 51/3/38 48/7/38
f 50/7/39 48/7/39 52/4/39
f 49/2/40 47/2/40 51/3/40
f 41/3/61 42/2/61 51/3/61
f 44/7/62 50/7/62 43/4/62
f 41/3/63 51/3/63 44/7/63
f 42/2/64 43/4/64 49/2/64
