# Blender v2.76 (sub 0) OBJ File: 'handsBlock.blend'
# www.blender.org
mtllib handsBlock_000068.mtl
o Cube
v 0.526995 -0.102851 -1.961425
v 0.739883 0.071255 -2.383600
v 0.397632 -0.371030 -2.430636
v 0.660277 -0.532102 -2.179541
v 0.407760 -0.560686 -2.137408
v 0.609208 -0.388035 -2.566239
v 0.557510 0.098136 -2.347594
v 0.836703 -0.055906 -2.162665
v 3.798343 0.845401 0.758444
v 3.563562 0.994913 0.648352
v 3.736194 1.105352 0.430185
v 3.970975 0.955841 0.540276
v 2.997329 -1.694909 -0.880017
v 2.827302 -1.242152 -0.882681
v 3.167073 -1.056313 -1.395788
v 3.337048 -1.509090 -1.393159
v 3.727037 0.251994 0.704167
v 3.573319 0.894951 -0.107743
v 3.146335 0.621792 0.431868
v 4.154021 0.525154 0.164557
v 3.269068 0.132996 0.021551
v 3.760891 0.085830 -0.108915
v 3.552492 -0.047492 0.154454
v 3.477467 0.266318 -0.241818
v -0.735127 0.071004 1.964912
v -0.463550 0.474515 2.122409
v -0.637030 0.118768 2.385752
v -0.534411 -0.150224 2.370331
v -0.683886 -0.143512 2.426147
v -0.412308 0.259999 2.583644
v -0.593292 0.472066 2.155179
v -0.490463 0.203156 2.139848
v 0.342731 -0.353772 0.003799
v -0.349472 -0.349472 -0.000446
v 0.401680 0.269716 0.055728
v -0.260755 0.405917 -0.056498
v 3.622391 0.801884 -0.133966
v 3.440860 0.755087 -0.367316
v 3.254447 0.965502 -0.264498
v 3.435979 1.012300 -0.031147
v 1.810716 -1.570735 1.560560
v 1.745849 -1.299179 0.976684
v 2.089638 -0.788376 1.176059
v 2.154505 -1.059932 1.759936
v 3.639991 0.325589 0.230720
v 2.729925 0.730278 -0.092134
v 3.190994 0.209839 -0.346443
v 3.178923 0.846027 0.485029
v 2.895244 -0.038099 0.176437
v 2.889352 0.272407 0.582255
v 3.114387 0.018396 0.458134
v 2.670210 0.215912 0.300558
vt 1.000000 0.500000
vt 1.000000 1.000000
vt 0.000000 1.000000
vt 1.000000 0.000000
vt 0.500000 1.000000
vt 0.000000 0.500000
vt 0.000000 0.000000
vt 0.500000 0.000000
vn -0.429800 -0.894400 -0.124200
vn 0.459600 0.887000 0.045000
vn -0.934800 0.084200 -0.345200
vn 0.923300 -0.347800 0.162700
vn -0.896000 0.342200 -0.283100
vn 0.228400 0.783800 0.577500
vn -0.439600 -0.029300 0.897700
vn 0.620000 0.648600 -0.441400
vn 0.810800 -0.149200 0.566000
vn -0.630300 0.768500 -0.109700
vn 0.214600 0.864200 0.455100
vn -0.174600 -0.882300 -0.437200
vn 0.452300 0.215500 -0.865400
vn -0.492300 -0.179900 0.851600
vn -0.816600 0.236800 -0.526300
vn 0.677400 -0.714700 0.174300
vn 0.479700 0.112500 -0.870200
vn -0.618900 -0.590300 0.518100
vn -0.645500 -0.238100 0.725700
vn 0.596300 0.443700 -0.669000
vn 0.797000 -0.492900 0.349100
vn -0.785400 0.495900 -0.370400
vn -0.934300 -0.353900 -0.043100
vn 0.928600 0.347700 0.129200
vn -0.991100 0.039700 -0.127200
vn 0.935500 0.104000 0.337800
vn -0.841300 0.448400 0.302000
vn 0.494300 0.693800 -0.523700
vn 0.767400 -0.371700 -0.522500
vn -0.376800 0.919900 0.108700
vn 0.752400 0.417700 0.509300
vn -0.361800 0.130500 -0.923100
vn -0.119300 0.429600 -0.895100
vn 0.081100 -0.409300 0.908800
vn 0.512000 0.799200 0.314800
vn -0.550100 -0.778900 -0.301100
vn -0.728300 -0.360400 -0.582800
vn 0.426900 -0.062600 0.902100
vn -0.743800 0.458000 0.486800
vn 0.442400 -0.881000 -0.167500
vn 0.594200 -0.740600 -0.313700
vn -0.637500 0.681600 0.359200
vn 0.668600 0.250200 0.700200
vn -0.661100 -0.238100 -0.711500
vn -0.006700 -0.996700 0.080400
vn 0.216600 0.971100 -0.100100
vn -0.893200 0.353500 -0.277700
vn 0.972300 -0.109100 0.206700
vn -0.882500 0.367700 -0.293300
vn 0.212000 0.861100 0.462000
vn -0.175200 -0.882900 -0.435700
vn 0.445300 0.162100 -0.880600
vn -0.494500 -0.196700 0.846700
vn -0.561900 -0.320900 0.762500
vn 0.753200 0.279300 -0.595500
vn 0.785100 -0.496800 0.369800
vn -0.797200 0.492100 -0.349600
vn -0.006700 -0.996500 0.083200
vn 0.182400 0.977100 0.109300
vn -0.983000 0.104300 -0.150900
vn 0.914200 -0.118700 0.387500
vn 0.551800 -0.731100 -0.401300
vn -0.619300 0.683300 0.386600
vn 0.804300 -0.584000 0.109300
vn -0.781500 0.596900 -0.181800
usemtl Material
s off
f 34/1/1 3/2/1 4/3/1
f 8/4/2 7/2/2 36/5/2
f 34/6/3 36/1/3 7/2/3
f 33/1/4 4/2/4 8/3/4
f 6/7/5 5/3/5 1/2/5
f 11/4/6 10/2/6 9/3/6
f 19/2/7 17/3/7 9/3/7
f 18/4/8 11/4/8 12/7/8
f 17/3/9 20/7/9 12/7/9
f 19/2/10 10/2/10 11/4/10
f 1/2/11 14/2/11 15/4/11
f 5/3/12 6/7/12 16/7/12
f 6/7/13 2/4/13 15/4/13
f 5/3/14 13/3/14 14/2/14
f 24/4/15 21/2/15 19/2/15
f 22/7/16 20/7/16 17/3/16
f 22/7/17 24/4/17 18/4/17
f 23/3/18 17/3/18 19/2/18
f 14/2/19 13/3/19 23/3/19
f 15/4/20 24/4/20 22/7/20
f 13/3/21 16/7/21 22/7/21
f 14/2/22 21/2/22 24/4/22
f 28/3/23 27/2/23 34/1/23
f 36/5/24 31/2/24 32/4/24
f 34/6/25 27/3/25 31/2/25
f 32/3/26 28/2/26 33/1/26
f 26/4/27 25/2/27 29/3/27
f 40/7/28 37/3/28 38/2/28
f 47/2/29 38/2/29 37/3/29
f 40/7/30 39/4/30 46/4/30
f 45/3/31 37/3/31 40/7/31
f 39/4/32 38/2/32 47/2/32
f 43/4/33 42/2/33 25/2/33
f 29/3/34 41/3/34 44/7/34
f 44/7/35 43/4/35 26/4/35
f 42/2/36 41/3/36 29/3/36
f 52/4/37 46/4/37 47/2/37
f 51/3/38 45/3/38 48/7/38
f 50/7/39 48/7/39 46/4/39
f 47/2/40 45/3/40 51/3/40
f 42/2/41 49/2/41 51/3/41
f 50/7/42 52/4/42 43/4/42
f 51/3/43 50/7/43 44/7/43
f 43/4/44 52/4/44 49/2/44
f 33/6/45 34/1/45 4/3/45
f 35/8/46 8/4/46 36/5/46
f 3/3/47 34/6/47 7/2/47
f 35/6/48 33/1/48 8/3/48
f 2/4/49 6/7/49 1/2/49
f 12/7/6 11/4/6 9/3/6
f 10/2/7 19/2/7 9/3/7
f 20/7/8 18/4/8 12/7/8
f 9/3/9 17/3/9 12/7/9
f 18/4/10 19/2/10 11/4/10
f 2/4/50 1/2/50 15/4/50
f 13/3/51 5/3/51 16/7/51
f 16/7/52 6/7/52 15/4/52
f 1/2/53 5/3/53 14/2/53
f 18/4/15 24/4/15 19/2/15
f 23/3/16 22/7/16 17/3/16
f 20/7/17 22/7/17 18/4/17
f 21/2/18 23/3/18 19/2/18
f 21/2/54 14/2/54 23/3/54
f 16/7/55 15/4/55 22/7/55
f 23/3/56 13/3/56 22/7/56
f 15/4/57 14/2/57 24/4/57
f 33/6/58 28/3/58 34/1/58
f 35/8/59 36/5/59 32/4/59
f 36/1/60 34/6/60 31/2/60
f 35/6/61 32/3/61 33/1/61
f 30/7/27 26/4/27 29/3/27
f 39/4/28 40/7/28 38/2/28
f 45/3/29 47/2/29 37/3/29
f 48/7/30 40/7/30 46/4/30
f 48/7/31 45/3/31 40/7/31
f 46/4/32 39/4/32 47/2/32
f 26/4/33 43/4/33 25/2/33
f 30/7/34 29/3/34 44/7/34
f 30/7/35 44/7/35 26/4/35
f 25/2/36 42/2/36 29/3/36
f 49/2/37 52/4/37 47/2/37
f 50/7/38 51/3/38 48/7/38
f 52/4/39 50/7/39 46/4/39
f 49/2/40 47/2/40 51/3/40
f 41/3/62 42/2/62 51/3/62
f 44/7/63 50/7/63 43/4/63
f 41/3/64 51/3/64 44/7/64
f 42/2/65 43/4/65 49/2/65
