# Blender v2.76 (sub 0) OBJ File: 'handsBlock.blend'
# www.blender.org
mtllib handsBlock_000115.mtl
o Cube
v 0.656886 -0.085091 -1.987318
v 0.784220 -0.036266 -2.472362
v 0.323579 -0.381447 -2.416080
v 0.656432 -0.522385 -2.171567
v 0.330752 -0.465598 -2.047738
v 0.445503 -0.413884 -2.536045
v 0.578574 0.050029 -2.387670
v 0.851811 -0.053387 -2.165358
v 4.692369 -0.377350 -0.366191
v 4.508238 -0.152664 -0.438355
v 4.636778 -0.133938 -0.708026
v 4.820910 -0.358624 -0.635862
v 2.564589 -2.470973 -1.298205
v 2.581246 -1.989067 -1.335533
v 2.797887 -1.985879 -1.940773
v 2.781166 -2.467784 -1.903463
v 4.394296 -0.893927 -0.299383
v 4.256797 -0.291876 -1.144871
v 3.938870 -0.338193 -0.477872
v 4.712224 -0.847610 -0.966383
v 3.745362 -0.858000 -0.816544
v 4.122816 -1.106632 -1.054973
v 3.967644 -1.129239 -0.729428
v 3.900534 -0.835394 -1.142089
v -0.633645 0.131165 1.915729
v -0.350581 0.446249 2.202045
v -0.686320 0.092107 2.406030
v -0.589442 -0.132678 2.326208
v -0.793978 -0.108452 2.337934
v -0.510914 0.206633 2.624251
v -0.536836 0.457961 2.194947
v -0.439752 0.233233 2.115251
v 0.342731 -0.353772 0.003799
v -0.349472 -0.349472 -0.000446
v 0.401680 0.269716 0.055728
v -0.260755 0.405917 -0.056498
v 4.226566 -0.172552 1.453636
v 4.131227 -0.162280 1.170086
v 3.972634 0.083829 1.232325
v 4.067972 0.073557 1.515876
v 1.461360 -2.080780 2.157342
v 1.664325 -1.777450 1.622874
v 2.022655 -1.378585 1.985320
v 1.819690 -1.681916 2.519789
v 4.010605 -0.652741 1.741632
v 3.382533 -0.018612 1.194246
v 3.774796 -0.627336 1.040304
v 3.618342 -0.044019 1.895575
v 3.269389 -0.814396 1.403506
v 3.193028 -0.529695 1.820940
v 3.384480 -0.826796 1.745805
v 3.077937 -0.517295 1.478642
vt 1.000000 0.500000
vt 1.000000 1.000000
vt 0.000000 1.000000
vt 1.000000 0.000000
vt 0.500000 1.000000
vt 0.000000 0.000000
vt 0.000000 0.500000
vt 0.500000 0.000000
vn -0.337200 -0.937900 -0.081500
vn 0.362300 0.932000 -0.011800
vn -0.792400 0.492100 -0.360400
vn 0.910300 -0.381400 0.160800
vn -0.746600 0.656800 -0.105900
vn 0.661200 0.657700 0.360800
vn -0.133300 0.202400 0.970200
vn 0.655700 0.317300 -0.685100
vn 0.826300 -0.429700 0.364000
vn -0.303900 0.949400 -0.078900
vn 0.642600 0.729600 0.233900
vn -0.608800 -0.761200 -0.223700
vn 0.222800 -0.035500 -0.974200
vn -0.248900 0.083300 0.964900
vn -0.787400 0.514400 -0.339600
vn 0.384300 -0.915400 0.119600
vn 0.207400 -0.140900 -0.968000
vn -0.610600 -0.260100 0.748100
vn -0.442600 0.084400 0.892700
vn 0.491900 0.126500 -0.861400
vn 0.623200 -0.750800 0.219000
vn -0.618200 0.747600 -0.242700
vn -0.924300 -0.377000 -0.060200
vn 0.925900 0.362700 0.105200
vn -0.942500 0.279400 -0.183200
vn 0.911900 -0.153600 0.380600
vn -0.771400 0.632900 0.066200
vn 0.786000 0.568100 -0.243700
vn 0.797300 -0.530900 -0.287300
vn -0.176200 0.979800 0.094700
vn 0.603100 0.192900 0.774000
vn 0.017900 0.256000 -0.966500
vn 0.296100 0.482900 -0.824100
vn -0.331000 -0.454200 0.827100
vn 0.536100 0.630500 0.561400
vn -0.571000 -0.601800 -0.558400
vn -0.543000 -0.140500 -0.827900
vn 0.063700 -0.205900 0.976500
vn -0.744200 0.609900 0.272300
vn 0.265000 -0.956300 -0.123700
vn 0.485100 -0.852700 -0.194000
vn -0.553400 0.804600 0.215200
vn 0.423500 0.044100 0.904800
vn -0.410100 -0.033700 -0.911400
vn -0.006700 -0.997100 0.076300
vn 0.216300 0.971500 -0.097500
vn -0.958800 0.092700 -0.268400
vn 0.971000 -0.109500 0.212700
vn -0.728300 0.674100 -0.123300
vn 0.641300 0.728300 0.241700
vn -0.609100 -0.761400 -0.222000
vn 0.192400 -0.082400 -0.977900
vn -0.258500 0.068600 0.963600
vn -0.388600 -0.022700 0.921100
vn 0.591200 -0.082600 -0.802300
vn 0.617400 -0.748400 0.242300
vn -0.623800 0.750200 -0.219300
vn -0.006800 -0.995700 0.092100
vn 0.185400 0.978300 0.093100
vn -0.986600 0.106700 -0.123400
vn 0.920000 -0.118100 0.373800
vn 0.478800 -0.829100 -0.288700
vn -0.546000 0.800600 0.247000
vn 0.565500 -0.771900 0.290400
vn -0.516700 0.781600 -0.349300
usemtl Material
s off
f 34/1/1 3/2/1 4/3/1
f 8/4/2 7/2/2 36/5/2
f 36/1/3 7/2/3 3/3/3
f 33/1/4 4/2/4 8/3/4
f 6/6/5 5/3/5 1/2/5
f 11/4/6 10/2/6 9/3/6
f 17/3/7 9/3/7 10/2/7
f 20/6/8 18/4/8 11/4/8
f 17/3/9 20/6/9 12/6/9
f 19/2/10 10/2/10 11/4/10
f 1/2/11 14/2/11 15/4/11
f 5/3/12 6/6/12 16/6/12
f 6/6/13 2/4/13 15/4/13
f 5/3/14 13/3/14 14/2/14
f 24/4/15 21/2/15 19/2/15
f 22/6/16 20/6/16 17/3/16
f 22/6/17 24/4/17 18/4/17
f 23/3/18 17/3/18 19/2/18
f 14/2/19 13/3/19 23/3/19
f 15/4/20 24/4/20 22/6/20
f 13/3/21 16/6/21 22/6/21
f 14/2/22 21/2/22 24/4/22
f 28/3/23 27/2/23 34/1/23
f 36/5/24 31/2/24 32/4/24
f 34/7/25 27/3/25 31/2/25
f 32/3/26 28/2/26 33/1/26
f 26/4/27 25/2/27 29/3/27
f 40/6/28 37/3/28 38/2/28
f 38/2/29 37/3/29 45/3/29
f 40/6/30 39/4/30 46/4/30
f 45/3/31 37/3/31 40/6/31
f 46/4/32 39/4/32 38/2/32
f 43/4/33 42/2/33 25/2/33
f 41/3/34 44/6/34 30/6/34
f 30/6/35 44/6/35 43/4/35
f 42/2/36 41/3/36 29/3/36
f 52/4/37 46/4/37 47/2/37
f 45/3/38 48/6/38 50/6/38
f 48/6/39 46/4/39 52/4/39
f 47/2/40 45/3/40 51/3/40
f 42/2/41 49/2/41 51/3/41
f 50/6/42 52/4/42 43/4/42
f 51/3/43 50/6/43 44/6/43
f 43/4/44 52/4/44 49/2/44
f 33/7/45 34/1/45 4/3/45
f 35/8/46 8/4/46 36/5/46
f 34/7/47 36/1/47 3/3/47
f 35/7/48 33/1/48 8/3/48
f 2/4/49 6/6/49 1/2/49
f 12/6/6 11/4/6 9/3/6
f 19/2/7 17/3/7 10/2/7
f 12/6/8 20/6/8 11/4/8
f 9/3/9 17/3/9 12/6/9
f 18/4/10 19/2/10 11/4/10
f 2/4/50 1/2/50 15/4/50
f 13/3/51 5/3/51 16/6/51
f 16/6/52 6/6/52 15/4/52
f 1/2/53 5/3/53 14/2/53
f 18/4/15 24/4/15 19/2/15
f 23/3/16 22/6/16 17/3/16
f 20/6/17 22/6/17 18/4/17
f 21/2/18 23/3/18 19/2/18
f 21/2/54 14/2/54 23/3/54
f 16/6/55 15/4/55 22/6/55
f 23/3/56 13/3/56 22/6/56
f 15/4/57 14/2/57 24/4/57
f 33/7/58 28/3/58 34/1/58
f 35/8/59 36/5/59 32/4/59
f 36/1/60 34/7/60 31/2/60
f 35/7/61 32/3/61 33/1/61
f 30/6/27 26/4/27 29/3/27
f 39/4/28 40/6/28 38/2/28
f 47/2/29 38/2/29 45/3/29
f 48/6/30 40/6/30 46/4/30
f 48/6/31 45/3/31 40/6/31
f 47/2/32 46/4/32 38/2/32
f 26/4/33 43/4/33 25/2/33
f 29/3/34 41/3/34 30/6/34
f 26/4/35 30/6/35 43/4/35
f 25/2/36 42/2/36 29/3/36
f 49/2/37 52/4/37 47/2/37
f 51/3/38 45/3/38 50/6/38
f 50/6/39 48/6/39 52/4/39
f 49/2/40 47/2/40 51/3/40
f 41/3/62 42/2/62 51/3/62
f 44/6/63 50/6/63 43/4/63
f 41/3/64 51/3/64 44/6/64
f 42/2/65 43/4/65 49/2/65
