# Blender v2.76 (sub 0) OBJ File: 'handsBlock.blend'
# www.blender.org
mtllib handsBlock_000028.mtl
o Cube
v 0.424755 -0.161251 -1.972301
v 0.650115 0.132963 -2.313648
v 0.455780 -0.337525 -2.424245
v 0.668252 -0.537736 -2.185862
v 0.519398 -0.601980 -2.199459
v 0.736391 -0.311942 -2.550284
v 0.516300 0.125315 -2.316289
v 0.825030 -0.063025 -2.164225
v 2.444892 1.410207 1.555893
v 2.203214 1.487888 1.397295
v 2.369159 1.679741 1.238391
v 2.610837 1.602060 1.396989
v 2.991631 -0.985052 -0.378834
v 2.676412 -0.618834 -0.399481
v 3.032999 -0.258448 -0.794736
v 3.348186 -0.624697 -0.774139
v 2.604174 0.841243 1.450666
v 2.416857 1.507905 0.665365
v 2.006412 1.033380 1.058394
v 3.014619 1.315768 1.057634
v 2.383973 0.677978 0.666626
v 2.876050 0.815804 0.666256
v 2.675723 0.584202 0.858083
v 2.584299 0.909580 0.474799
v -0.791859 0.005433 2.037474
v -0.583220 0.469503 2.087372
v -0.607957 0.148790 2.353620
v -0.473873 -0.150478 2.391992
v -0.562802 -0.143992 2.469430
v -0.354164 0.320078 2.519327
v -0.653085 0.469547 2.137693
v -0.518804 0.170379 2.176126
v 0.342731 -0.353772 0.003799
v -0.349472 -0.349472 -0.000446
v 0.401680 0.269716 0.055728
v -0.260755 0.405917 -0.056498
v 2.493814 1.362748 -1.322507
v 2.267642 1.255994 -1.486964
v 2.077074 1.434728 -1.340901
v 2.303246 1.541482 -1.176445
v 1.826243 -1.128760 0.942364
v 1.536280 -0.939603 0.395552
v 1.800396 -0.352139 0.458718
v 2.090359 -0.541295 1.005528
v 2.721839 0.941308 -0.961183
v 1.691082 1.119342 -1.006679
v 2.162430 0.677265 -1.367943
v 2.250492 1.383385 -0.599917
v 2.093772 0.432617 -0.769798
v 2.136753 0.777255 -0.394946
v 2.366804 0.561489 -0.571269
v 1.863721 0.648383 -0.593476
vt 1.000000 0.500000
vt 1.000000 1.000000
vt 0.000000 1.000000
vt 0.500000 0.000000
vt 1.000000 0.000000
vt 0.000000 0.500000
vt 0.000000 0.000000
vt 0.500000 1.000000
vn -0.553600 -0.811300 -0.187900
vn 0.529900 0.847700 -0.026000
vn -0.938900 0.085500 -0.333500
vn 0.934200 -0.316100 0.165400
vn -0.871400 0.063600 -0.486400
vn -0.201800 0.722400 0.661400
vn -0.589000 -0.303400 0.749000
vn 0.429600 0.874200 -0.226400
vn 0.662000 0.047000 0.748000
vn -0.821500 0.523800 -0.225500
vn -0.215600 0.810600 0.544500
vn 0.254400 -0.816700 -0.517900
vn 0.526900 0.476500 -0.703800
vn -0.572800 -0.454600 0.682100
vn -0.707400 0.027000 -0.706200
vn 0.830500 -0.467400 0.303000
vn 0.589500 0.390200 -0.707200
vn -0.466500 -0.830700 0.304000
vn -0.662800 -0.541300 0.517500
vn 0.532000 0.708400 -0.463700
vn 0.820700 -0.246500 0.515500
vn -0.806500 0.256200 -0.532900
vn -0.911900 -0.410300 -0.013300
vn 0.895100 0.420700 0.147800
vn -0.980500 -0.184200 -0.068700
vn 0.905400 0.316900 0.282600
vn -0.795400 0.301100 0.526000
vn 0.154000 0.718500 -0.678200
vn 0.645700 -0.264700 -0.716200
vn -0.524000 0.832400 0.180300
vn 0.755000 0.611500 0.236800
vn -0.633300 -0.043800 -0.772700
vn -0.465900 0.299000 -0.832800
vn 0.429900 -0.285400 0.856600
vn 0.390000 0.914300 0.109500
vn -0.426000 -0.900700 -0.085700
vn -0.766600 -0.558700 -0.316500
vn 0.672700 0.120600 0.730000
vn -0.653300 0.349700 0.671500
vn 0.559400 -0.787700 -0.258000
vn 0.627100 -0.636300 -0.449300
vn -0.641000 0.575100 0.508300
vn 0.769600 0.452000 0.451000
vn -0.768600 -0.439900 -0.464500
vn -0.006700 -0.996500 0.082700
vn 0.209200 0.976600 -0.049300
vn -0.931300 0.193700 -0.308500
vn 0.973300 -0.108800 0.201900
vn -0.866000 0.093400 -0.491300
vn -0.218400 0.805800 0.550400
vn 0.253700 -0.817800 -0.516600
vn 0.543000 0.426600 -0.723300
vn -0.567600 -0.470200 0.675800
vn -0.707500 0.027000 -0.706200
vn -0.565600 -0.596100 0.569900
vn 0.716700 0.596400 -0.361500
vn 0.806700 -0.257000 0.532100
vn -0.820500 0.245800 -0.516100
vn -0.006700 -0.996600 0.082500
vn 0.179700 0.975900 0.123700
vn -0.978800 0.101700 -0.178000
vn 0.912800 -0.118800 0.390700
vn 0.560100 -0.644900 -0.520100
vn -0.616600 0.583300 0.528700
vn 0.910400 -0.396600 -0.117800
vn -0.912900 0.406000 0.041300
usemtl Material
s off
f 34/1/1 3/2/1 4/3/1
f 35/4/2 8/5/2 7/2/2
f 34/6/3 36/1/3 7/2/3
f 33/1/4 4/2/4 8/3/4
f 6/7/5 5/3/5 1/2/5
f 11/5/6 10/2/6 9/3/6
f 17/3/7 9/3/7 10/2/7
f 20/7/8 18/5/8 11/5/8
f 17/3/9 20/7/9 12/7/9
f 19/2/10 10/2/10 11/5/10
f 1/2/11 14/2/11 15/5/11
f 5/3/12 6/7/12 16/7/12
f 6/7/13 2/5/13 15/5/13
f 5/3/14 13/3/14 14/2/14
f 21/2/15 19/2/15 18/5/15
f 23/3/16 22/7/16 20/7/16
f 24/5/17 18/5/17 20/7/17
f 23/3/18 17/3/18 19/2/18
f 14/2/19 13/3/19 23/3/19
f 15/5/20 24/5/20 22/7/20
f 13/3/21 16/7/21 22/7/21
f 14/2/22 21/2/22 24/5/22
f 28/3/23 27/2/23 34/1/23
f 36/8/24 31/2/24 32/5/24
f 34/6/25 27/3/25 31/2/25
f 32/3/26 28/2/26 33/1/26
f 30/7/27 26/5/27 25/2/27
f 37/3/28 38/2/28 39/5/28
f 47/2/29 38/2/29 37/3/29
f 40/7/30 39/5/30 46/5/30
f 45/3/31 37/3/31 40/7/31
f 39/5/32 38/2/32 47/2/32
f 43/5/33 42/2/33 25/2/33
f 41/3/34 44/7/34 30/7/34
f 30/7/35 44/7/35 43/5/35
f 42/2/36 41/3/36 29/3/36
f 52/5/37 46/5/37 47/2/37
f 51/3/38 45/3/38 48/7/38
f 48/7/39 46/5/39 52/5/39
f 47/2/40 45/3/40 51/3/40
f 42/2/41 49/2/41 51/3/41
f 50/7/42 52/5/42 43/5/42
f 51/3/43 50/7/43 44/7/43
f 43/5/44 52/5/44 49/2/44
f 33/6/45 34/1/45 4/3/45
f 36/8/46 35/4/46 7/2/46
f 3/3/47 34/6/47 7/2/47
f 35/6/48 33/1/48 8/3/48
f 2/5/49 6/7/49 1/2/49
f 12/7/6 11/5/6 9/3/6
f 19/2/7 17/3/7 10/2/7
f 12/7/8 20/7/8 11/5/8
f 9/3/9 17/3/9 12/7/9
f 18/5/10 19/2/10 11/5/10
f 2/5/50 1/2/50 15/5/50
f 13/3/51 5/3/51 16/7/51
f 16/7/52 6/7/52 15/5/52
f 1/2/53 5/3/53 14/2/53
f 24/5/54 21/2/54 18/5/54
f 17/3/16 23/3/16 20/7/16
f 22/7/17 24/5/17 20/7/17
f 21/2/18 23/3/18 19/2/18
f 21/2/55 14/2/55 23/3/55
f 16/7/56 15/5/56 22/7/56
f 23/3/57 13/3/57 22/7/57
f 15/5/58 14/2/58 24/5/58
f 33/6/59 28/3/59 34/1/59
f 35/4/60 36/8/60 32/5/60
f 36/1/61 34/6/61 31/2/61
f 35/6/62 32/3/62 33/1/62
f 29/3/27 30/7/27 25/2/27
f 40/7/28 37/3/28 39/5/28
f 45/3/29 47/2/29 37/3/29
f 48/7/30 40/7/30 46/5/30
f 48/7/31 45/3/31 40/7/31
f 46/5/32 39/5/32 47/2/32
f 26/5/33 43/5/33 25/2/33
f 29/3/34 41/3/34 30/7/34
f 26/5/35 30/7/35 43/5/35
f 25/2/36 42/2/36 29/3/36
f 49/2/37 52/5/37 47/2/37
f 50/7/38 51/3/38 48/7/38
f 50/7/39 48/7/39 52/5/39
f 49/2/40 47/2/40 51/3/40
f 41/3/63 42/2/63 51/3/63
f 44/7/64 50/7/64 43/5/64
f 41/3/65 51/3/65 44/7/65
f 42/2/66 43/5/66 49/2/66
