# Blender v2.76 (sub 0) OBJ File: 'handsBlock.blend'
# www.blender.org
mtllib handsBlock_000072.mtl
o Cube
v 0.543581 -0.097454 -1.962530
v 0.749409 0.059140 -2.394941
v 0.388186 -0.374142 -2.430034
v 0.659438 -0.531003 -2.178519
v 0.394333 -0.550908 -2.126559
v 0.588422 -0.395263 -2.565181
v 0.561935 0.092746 -2.352694
v 0.838617 -0.055223 -2.162750
v 3.958267 0.717274 0.621018
v 3.727633 0.877275 0.517083
v 3.897550 0.975354 0.291019
v 4.128185 0.815353 0.394955
v 2.966464 -1.800980 -0.945532
v 2.820152 -1.340022 -0.949435
v 3.149842 -1.179673 -1.477499
v 3.296099 -1.640649 -1.473630
v 3.854336 0.127696 0.579080
v 3.704157 0.766028 -0.237132
v 3.283887 0.523441 0.322008
v 4.274606 0.370282 0.019940
v 3.365822 0.023009 -0.084438
v 3.849364 -0.051743 -0.231869
v 3.644242 -0.170143 0.041032
v 3.570943 0.141410 -0.357339
v -0.723976 0.079830 1.956382
v -0.447217 0.472852 2.130502
v -0.642552 0.114790 2.389423
v -0.542523 -0.148959 2.365691
v -0.700112 -0.140986 2.416872
v -0.423353 0.252037 2.590993
v -0.585131 0.471238 2.159219
v -0.484891 0.207568 2.135582
v 0.342731 -0.353772 0.003799
v -0.349472 -0.349472 -0.000446
v 0.401680 0.269716 0.055728
v -0.260755 0.405917 -0.056498
v 3.743630 0.693694 0.061359
v 3.571324 0.655112 -0.180338
v 3.387177 0.870263 -0.083405
v 3.559484 0.908845 0.158292
v 1.784798 -1.637658 1.645872
v 1.754588 -1.358128 1.062938
v 2.104937 -0.860602 1.283358
v 2.135147 -1.140132 1.866291
v 3.730027 0.213317 0.420825
v 2.848384 0.650041 0.062769
v 3.303847 0.117889 -0.176986
v 3.274563 0.745468 0.660579
v 2.977438 -0.125948 0.329320
v 2.963145 0.180356 0.738111
v 3.185444 -0.079372 0.621095
v 2.755139 0.133780 0.446336
vt 1.000000 0.500000
vt 1.000000 1.000000
vt 0.000000 1.000000
vt 1.000000 0.000000
vt 0.500000 1.000000
vt 0.000000 0.500000
vt 0.000000 0.000000
vt 0.500000 0.000000
vn -0.414000 -0.902800 -0.116500
vn 0.450000 0.892200 0.039500
vn -0.934400 0.084000 -0.346200
vn 0.921600 -0.352500 0.162400
vn -0.886900 0.384500 -0.256000
vn 0.289900 0.779000 0.555900
vn -0.406900 0.006800 0.913400
vn 0.636000 0.608800 -0.474200
vn 0.822400 -0.183300 0.538600
vn -0.593300 0.798800 -0.099400
vn 0.275800 0.858200 0.432800
vn -0.236100 -0.878100 -0.416100
vn 0.430500 0.178900 -0.884700
vn -0.469100 -0.141500 0.871800
vn -0.822200 0.271600 -0.500200
vn 0.645500 -0.746600 0.161200
vn 0.452300 0.074600 -0.888800
vn -0.629000 -0.549600 0.549800
vn -0.629600 -0.193500 0.752400
vn 0.593300 0.402200 -0.697300
vn 0.782700 -0.528900 0.328000
vn -0.771800 0.531000 -0.349800
vn -0.935400 -0.350600 -0.046600
vn 0.931000 0.342600 0.126200
vn -0.988200 0.071900 -0.135200
vn 0.936000 0.071100 0.344700
vn -0.839500 0.471700 0.269700
vn 0.538700 0.683200 -0.493100
vn 0.778000 -0.390400 -0.492300
vn -0.352300 0.930200 0.102700
vn 0.741600 0.388300 0.547000
vn -0.316000 0.151500 -0.936600
vn -0.065700 0.442500 -0.894400
vn 0.027600 -0.421100 0.906600
vn 0.522200 0.779200 0.346600
vn -0.560200 -0.757900 -0.334400
vn -0.712500 -0.331000 -0.618700
vn 0.384000 -0.085500 0.919300
vn -0.750100 0.476300 0.458700
vn 0.421700 -0.892800 -0.158100
vn 0.584100 -0.755800 -0.295800
vn -0.631200 0.697800 0.338600
vn 0.644200 0.221500 0.732100
vn -0.635800 -0.209500 -0.742800
vn -0.006700 -0.996800 0.080000
vn 0.216600 0.971200 -0.099600
vn -0.886000 0.374900 -0.272800
vn 0.972100 -0.109200 0.207500
vn -0.872500 0.409200 -0.267100
vn 0.273300 0.855400 0.439900
vn -0.236700 -0.878700 -0.414500
vn 0.420100 0.125800 -0.898700
vn -0.472300 -0.158200 0.867100
vn -0.549100 -0.279900 0.787500
vn 0.744100 0.230800 -0.626900
vn 0.771500 -0.531900 0.349100
vn -0.783000 0.528100 -0.328500
vn -0.006700 -0.996500 0.083900
vn 0.182800 0.977300 0.107100
vn -0.983600 0.104600 -0.147100
vn 0.914700 -0.118700 0.386400
vn 0.546000 -0.744000 -0.385100
vn -0.614300 0.698600 0.366800
vn 0.780000 -0.610400 0.137900
vn -0.753500 0.623300 -0.209200
usemtl Material
s off
f 34/1/1 3/2/1 4/3/1
f 8/4/2 7/2/2 36/5/2
f 34/6/3 36/1/3 7/2/3
f 33/1/4 4/2/4 8/3/4
f 6/7/5 5/3/5 1/2/5
f 11/4/6 10/2/6 9/3/6
f 17/3/7 9/3/7 10/2/7
f 20/7/8 18/4/8 11/4/8
f 20/7/9 12/7/9 9/3/9
f 18/4/10 19/2/10 10/2/10
f 1/2/11 14/2/11 15/4/11
f 5/3/12 6/7/12 16/7/12
f 6/7/13 2/4/13 15/4/13
f 5/3/14 13/3/14 14/2/14
f 24/4/15 21/2/15 19/2/15
f 23/3/16 22/7/16 20/7/16
f 22/7/17 24/4/17 18/4/17
f 23/3/18 17/3/18 19/2/18
f 14/2/19 13/3/19 23/3/19
f 15/4/20 24/4/20 22/7/20
f 13/3/21 16/7/21 22/7/21
f 14/2/22 21/2/22 24/4/22
f 28/3/23 27/2/23 34/1/23
f 36/5/24 31/2/24 32/4/24
f 34/6/25 27/3/25 31/2/25
f 32/3/26 28/2/26 33/1/26
f 26/4/27 25/2/27 29/3/27
f 40/7/28 37/3/28 38/2/28
f 38/2/29 37/3/29 45/3/29
f 48/7/30 40/7/30 39/4/30
f 45/3/31 37/3/31 40/7/31
f 39/4/32 38/2/32 47/2/32
f 43/4/33 42/2/33 25/2/33
f 41/3/34 44/7/34 30/7/34
f 44/7/35 43/4/35 26/4/35
f 42/2/36 41/3/36 29/3/36
f 52/4/37 46/4/37 47/2/37
f 51/3/38 45/3/38 48/7/38
f 50/7/39 48/7/39 46/4/39
f 47/2/40 45/3/40 51/3/40
f 42/2/41 49/2/41 51/3/41
f 50/7/42 52/4/42 43/4/42
f 51/3/43 50/7/43 44/7/43
f 43/4/44 52/4/44 49/2/44
f 33/6/45 34/1/45 4/3/45
f 35/8/46 8/4/46 36/5/46
f 3/3/47 34/6/47 7/2/47
f 35/6/48 33/1/48 8/3/48
f 2/4/49 6/7/49 1/2/49
f 12/7/6 11/4/6 9/3/6
f 19/2/7 17/3/7 10/2/7
f 12/7/8 20/7/8 11/4/8
f 17/3/9 20/7/9 9/3/9
f 11/4/10 18/4/10 10/2/10
f 2/4/50 1/2/50 15/4/50
f 13/3/51 5/3/51 16/7/51
f 16/7/52 6/7/52 15/4/52
f 1/2/53 5/3/53 14/2/53
f 18/4/15 24/4/15 19/2/15
f 17/3/16 23/3/16 20/7/16
f 20/7/17 22/7/17 18/4/17
f 21/2/18 23/3/18 19/2/18
f 21/2/54 14/2/54 23/3/54
f 16/7/55 15/4/55 22/7/55
f 23/3/56 13/3/56 22/7/56
f 15/4/57 14/2/57 24/4/57
f 33/6/58 28/3/58 34/1/58
f 35/8/59 36/5/59 32/4/59
f 36/1/60 34/6/60 31/2/60
f 35/6/61 32/3/61 33/1/61
f 30/7/27 26/4/27 29/3/27
f 39/4/28 40/7/28 38/2/28
f 47/2/29 38/2/29 45/3/29
f 46/4/30 48/7/30 39/4/30
f 48/7/31 45/3/31 40/7/31
f 46/4/32 39/4/32 47/2/32
f 26/4/33 43/4/33 25/2/33
f 29/3/34 41/3/34 30/7/34
f 30/7/35 44/7/35 26/4/35
f 25/2/36 42/2/36 29/3/36
f 49/2/37 52/4/37 47/2/37
f 50/7/38 51/3/38 48/7/38
f 52/4/39 50/7/39 46/4/39
f 49/2/40 47/2/40 51/3/40
f 41/3/62 42/2/62 51/3/62
f 44/7/63 50/7/63 43/4/63
f 41/3/64 51/3/64 44/7/64
f 42/2/65 43/4/65 49/2/65
