# Blender v2.76 (sub 0) OBJ File: 'handsAttack.blend'
# www.blender.org
mtllib handsAttack_000043.mtl
o Cube
v -0.170162 0.002868 -2.092755
v -0.243378 0.082083 -2.579821
v -0.652627 -0.269573 -2.364835
v -0.244938 -0.412104 -2.278065
v -0.505456 -0.369150 -2.041368
v -0.592303 -0.287513 -2.524766
v -0.405910 0.161490 -2.417004
v -0.069504 0.061464 -2.325531
v 3.977858 -0.301071 -1.853199
v 3.765318 -0.098507 -1.794972
v 3.771683 -0.009682 -2.080743
v 3.984224 -0.212246 -2.138970
v 1.789357 -2.450739 -2.341839
v 1.781881 -1.997766 -2.314051
v 1.737837 -1.901726 -2.942627
v 1.745243 -2.354701 -2.970399
v 3.768862 -0.861211 -1.800992
v 3.258914 -0.140496 -2.363795
v 3.243169 -0.360194 -1.656974
v 3.784607 -0.641513 -2.507815
v 2.965063 -0.831109 -2.008031
v 3.229324 -0.968413 -2.423303
v 3.221640 -1.075641 -2.078323
v 2.972749 -0.723880 -2.353012
v 0.525164 -0.039378 1.914834
v 0.741700 0.346450 2.171017
v 0.484180 -0.041472 2.467291
v 0.619828 -0.275422 2.274481
v 0.435043 -0.281670 2.355916
v 0.651579 0.104158 2.612099
v 0.568138 0.331980 2.233681
v 0.703978 0.098121 2.040917
v 0.344543 -0.353041 -0.002492
v -0.349472 -0.349472 -0.000446
v 0.389151 0.287858 -0.060794
v -0.285355 0.395908 0.027457
v 6.008801 -0.215049 1.590101
v 5.928036 -0.212842 1.301885
v 5.803730 0.056940 1.338785
v 5.884496 0.054733 1.627000
v 3.059962 -1.726381 2.177416
v 3.174044 -1.419663 1.619052
v 3.448156 -0.931244 1.943354
v 3.334073 -1.237962 2.501718
v 5.714421 -0.637510 1.898369
v 5.207202 0.035223 1.276770
v 5.514657 -0.632051 1.185503
v 5.406966 0.029764 1.989636
v 4.972746 -0.719085 1.533502
v 4.920187 -0.396072 1.925976
v 5.070245 -0.721749 1.881432
v 4.822687 -0.393407 1.578047
vt 1.000000 0.500000
vt 1.000000 1.000000
vt 0.000000 1.000000
vt 1.000000 0.000000
vt 0.500000 1.000000
vt 0.000000 0.500000
vt 0.000000 0.000000
vt 0.500000 0.000000
vn -0.332000 -0.943200 0.010700
vn 0.309700 0.944900 -0.105900
vn -0.995600 0.084100 0.041000
vn 0.906000 -0.358200 -0.225400
vn -0.704500 0.668100 0.239400
vn 0.703800 0.673800 0.225100
vn 0.258500 -0.006400 0.966000
vn 0.297600 0.538800 -0.788100
vn 0.930400 -0.355500 -0.089800
vn -0.374200 0.887900 0.267600
vn 0.717700 0.694100 0.055800
vn -0.663200 -0.748400 -0.007200
vn -0.168400 0.012100 -0.985700
vn 0.076100 -0.059800 0.995300
vn -0.890800 0.439100 0.116600
vn 0.461700 -0.849900 -0.253900
vn -0.194300 0.077200 -0.977900
vn -0.234800 -0.488000 0.840700
vn -0.122000 -0.062800 0.990500
vn 0.094100 0.365000 -0.926200
vn 0.704300 -0.692700 -0.155300
vn -0.713800 0.673200 0.193300
vn -0.686100 -0.656400 0.313700
vn 0.724900 0.637000 -0.262000
vn -0.895800 0.362400 0.257400
vn 0.953900 -0.281000 -0.105700
vn -0.888600 0.453700 0.067700
vn 0.868800 0.433100 -0.240100
vn 0.724700 -0.656900 -0.208100
vn -0.038300 0.999100 0.018400
vn 0.591100 0.164300 0.789700
vn 0.095300 0.177900 -0.979400
vn 0.156100 0.484100 -0.861000
vn -0.196400 -0.463500 0.864100
vn 0.403300 0.764800 0.502500
vn -0.443600 -0.744200 -0.499400
vn -0.521800 -0.125000 -0.843800
vn -0.007900 -0.139100 0.990300
vn -0.660400 0.726400 0.190600
vn 0.130700 -0.990400 -0.044200
vn 0.356400 -0.928200 -0.107000
vn -0.338800 0.935300 0.102100
vn 0.330300 0.023100 0.943600
vn -0.261100 0.011700 -0.965200
vn -0.005100 -0.999600 0.027300
vn 0.140700 0.981900 -0.126700
vn -0.854200 0.504200 0.126600
vn 0.978200 -0.085300 -0.189600
vn -0.693700 0.687100 0.216000
vn 0.708300 0.705900 0.008300
vn -0.675100 -0.734900 -0.064900
vn -0.136900 0.058400 -0.988900
vn 0.131400 0.018500 0.991200
vn 0.011800 -0.264800 0.964200
vn 0.292600 0.063300 -0.954100
vn 0.697500 -0.688500 -0.198500
vn -0.719500 0.677300 0.153900
vn -0.005000 -0.999400 0.034700
vn 0.166000 0.984000 0.064000
vn -0.929900 0.066500 0.361700
vn 0.984500 -0.082600 -0.154900
vn 0.365100 -0.845400 -0.389800
vn -0.307500 0.859100 0.409100
vn 0.419400 -0.653700 0.629900
vn -0.281700 0.635400 -0.718900
usemtl Material
s off
f 34/1/1 3/2/1 4/3/1
f 8/4/2 7/2/2 36/5/2
f 34/6/3 36/1/3 7/2/3
f 33/1/4 4/2/4 8/3/4
f 6/7/5 5/3/5 1/2/5
f 12/7/6 11/4/6 10/2/6
f 19/2/7 17/3/7 9/3/7
f 20/7/8 18/4/8 11/4/8
f 17/3/9 20/7/9 12/7/9
f 19/2/10 10/2/10 11/4/10
f 1/2/11 14/2/11 15/4/11
f 5/3/12 6/7/12 16/7/12
f 6/7/13 2/4/13 15/4/13
f 5/3/14 13/3/14 14/2/14
f 21/2/15 19/2/15 18/4/15
f 23/3/16 22/7/16 20/7/16
f 24/4/17 18/4/17 20/7/17
f 23/3/18 17/3/18 19/2/18
f 14/2/19 13/3/19 23/3/19
f 15/4/20 24/4/20 22/7/20
f 13/3/21 16/7/21 22/7/21
f 14/2/22 21/2/22 24/4/22
f 28/3/23 27/2/23 34/1/23
f 36/5/24 31/2/24 32/4/24
f 34/6/25 27/3/25 31/2/25
f 32/3/26 28/2/26 33/1/26
f 26/4/27 25/2/27 29/3/27
f 37/3/28 38/2/28 39/4/28
f 47/2/29 38/2/29 37/3/29
f 48/7/30 40/7/30 39/4/30
f 45/3/31 37/3/31 40/7/31
f 39/4/32 38/2/32 47/2/32
f 43/4/33 42/2/33 25/2/33
f 41/3/34 44/7/34 30/7/34
f 30/7/35 44/7/35 43/4/35
f 42/2/36 41/3/36 29/3/36
f 46/4/37 47/2/37 49/2/37
f 45/3/38 48/7/38 50/7/38
f 50/7/39 48/7/39 46/4/39
f 47/2/40 45/3/40 51/3/40
f 42/2/41 49/2/41 51/3/41
f 50/7/42 52/4/42 43/4/42
f 51/3/43 50/7/43 44/7/43
f 43/4/44 52/4/44 49/2/44
f 33/6/45 34/1/45 4/3/45
f 35/8/46 8/4/46 36/5/46
f 3/3/47 34/6/47 7/2/47
f 35/6/48 33/1/48 8/3/48
f 2/4/49 6/7/49 1/2/49
f 9/3/6 12/7/6 10/2/6
f 10/2/7 19/2/7 9/3/7
f 12/7/8 20/7/8 11/4/8
f 9/3/9 17/3/9 12/7/9
f 18/4/10 19/2/10 11/4/10
f 2/4/50 1/2/50 15/4/50
f 13/3/51 5/3/51 16/7/51
f 16/7/52 6/7/52 15/4/52
f 1/2/53 5/3/53 14/2/53
f 24/4/15 21/2/15 18/4/15
f 17/3/16 23/3/16 20/7/16
f 22/7/17 24/4/17 20/7/17
f 21/2/18 23/3/18 19/2/18
f 21/2/54 14/2/54 23/3/54
f 16/7/55 15/4/55 22/7/55
f 23/3/56 13/3/56 22/7/56
f 15/4/57 14/2/57 24/4/57
f 33/6/58 28/3/58 34/1/58
f 35/8/59 36/5/59 32/4/59
f 36/1/60 34/6/60 31/2/60
f 35/6/61 32/3/61 33/1/61
f 30/7/27 26/4/27 29/3/27
f 40/7/28 37/3/28 39/4/28
f 45/3/29 47/2/29 37/3/29
f 46/4/30 48/7/30 39/4/30
f 48/7/31 45/3/31 40/7/31
f 46/4/32 39/4/32 47/2/32
f 26/4/33 43/4/33 25/2/33
f 29/3/34 41/3/34 30/7/34
f 26/4/35 30/7/35 43/4/35
f 25/2/36 42/2/36 29/3/36
f 52/4/37 46/4/37 49/2/37
f 51/3/38 45/3/38 50/7/38
f 52/4/39 50/7/39 46/4/39
f 49/2/40 47/2/40 51/3/40
f 41/3/62 42/2/62 51/3/62
f 44/7/63 50/7/63 43/4/63
f 41/3/64 51/3/64 44/7/64
f 42/2/65 43/4/65 49/2/65
