# Blender v2.76 (sub 0) OBJ File: 'handsAttack.blend'
# www.blender.org
mtllib handsAttack_000049.mtl
o Cube
v 0.329037 -0.047716 -2.070563
v 0.374726 0.013779 -2.566588
v -0.073192 -0.332669 -2.443810
v 0.297917 -0.475374 -2.259315
v -0.006790 -0.423536 -2.086533
v 0.025475 -0.359225 -2.583082
v 0.182687 0.097908 -2.448247
v 0.487939 -0.004823 -2.275768
v 4.463813 -0.350270 -1.021560
v 4.259897 -0.132136 -1.042335
v 4.339847 -0.084491 -1.326823
v 4.543764 -0.302624 -1.306049
v 2.300313 -2.471669 -1.762396
v 2.302338 -1.999753 -1.774308
v 2.414379 -1.958321 -2.404331
v 2.412285 -2.430237 -2.392423
v 4.205657 -0.887570 -0.952086
v 3.899040 -0.230197 -1.707117
v 3.701294 -0.348042 -1.003467
v 4.403403 -0.769725 -1.655735
v 3.477479 -0.850296 -1.349868
v 3.820159 -1.056107 -1.668221
v 3.723645 -1.113624 -1.324790
v 3.573994 -0.792778 -1.693300
v -0.174889 0.044389 1.987501
v 0.085414 0.391750 2.257619
v -0.225601 0.026548 2.502569
v -0.107006 -0.204917 2.380021
v -0.308595 -0.192175 2.420561
v -0.048293 0.155186 2.690679
v -0.100662 0.393665 2.278949
v 0.018140 0.162271 2.156493
v 0.343816 -0.353537 0.001376
v -0.349472 -0.349472 -0.000446
v 0.403327 0.276366 0.008155
v -0.275430 0.402699 -0.024206
v 4.958008 -0.230355 1.617554
v 4.871764 -0.225903 1.330956
v 4.726124 0.031192 1.378777
v 4.812369 0.026740 1.665375
v 2.098976 -1.978156 2.268525
v 2.268234 -1.678690 1.720316
v 2.597751 -1.238966 2.062257
v 2.428493 -1.538432 2.610466
v 4.705935 -0.685512 1.916642
v 4.132396 -0.038605 1.326057
v 4.492620 -0.674501 1.207777
v 4.345712 -0.049618 2.034921
v 3.966713 -0.817623 1.561731
v 3.895012 -0.512635 1.965436
v 4.070826 -0.822998 1.907707
v 3.790899 -0.507260 1.619459
vt 1.000000 0.500000
vt 1.000000 1.000000
vt 0.000000 1.000000
vt 1.000000 0.000000
vt 0.500000 1.000000
vt 0.000000 0.000000
vt 0.000000 0.500000
vt 0.500000 0.000000
vn -0.339100 -0.939700 -0.044800
vn 0.345100 0.937100 -0.052600
vn -0.839400 0.496500 -0.221100
vn 0.927300 -0.374400 0.001400
vn -0.745900 0.665000 0.037700
vn 0.681600 0.666000 0.303100
vn 0.023900 0.116900 0.992900
vn 0.514600 0.409400 -0.753400
vn 0.895100 -0.406300 0.183500
vn -0.356600 0.932600 0.056000
vn 0.680400 0.713300 0.167900
vn -0.642600 -0.753400 -0.139300
vn 0.064100 -0.015900 -0.997800
vn -0.116800 0.025600 0.992800
vn -0.856600 0.491000 -0.158500
vn 0.441100 -0.897100 -0.026300
vn 0.046600 -0.051400 -0.997600
vn -0.462200 -0.354600 0.812800
vn -0.315800 0.025300 0.948500
vn 0.334400 0.225500 -0.915000
vn 0.677400 -0.732100 0.072200
vn -0.684300 0.725700 -0.070800
vn -0.857100 -0.501500 0.117800
vn 0.873500 0.482500 -0.064400
vn -0.946900 0.321400 -0.001400
vn 0.958500 -0.208200 0.194700
vn -0.820000 0.569400 0.057900
vn 0.824800 0.511900 -0.240200
vn 0.772800 -0.586800 -0.241700
vn -0.121100 0.991300 0.051900
vn 0.590500 0.188600 0.784700
vn 0.061200 0.215900 -0.974500
vn 0.242900 0.475500 -0.845500
vn -0.280000 -0.449700 0.848100
vn 0.490400 0.692200 0.529500
vn -0.527600 -0.666400 -0.526900
vn -0.525800 -0.141900 -0.838700
vn 0.023000 -0.170200 0.985100
vn -0.714800 0.662000 0.225400
vn 0.212000 -0.974100 -0.078900
vn 0.436600 -0.887900 -0.145200
vn -0.473700 0.866800 0.156000
vn 0.377600 0.041800 0.925000
vn -0.338700 -0.016900 -0.940700
vn -0.006000 -0.998500 0.053900
vn 0.187000 0.975800 -0.113200
vn -0.989400 0.093900 -0.111200
vn 0.994300 -0.094500 0.048500
vn -0.730200 0.683000 0.017400
vn 0.680800 0.716600 0.151600
vn -0.642000 -0.749100 -0.163400
vn 0.057600 -0.025400 -0.998000
vn -0.101400 0.048300 0.993700
vn -0.229200 -0.122300 0.965700
vn 0.475900 -0.024300 -0.879100
vn 0.677700 -0.732200 0.067800
vn -0.684100 0.725700 -0.073900
vn -0.006000 -0.998100 0.061200
vn 0.178500 0.980300 0.084100
vn -0.992100 0.100100 0.075700
vn 0.980800 -0.094500 0.170800
vn 0.061100 0.215900 -0.974500
vn 0.432900 -0.840600 -0.325500
vn -0.444600 0.836700 0.319800
vn 0.511400 -0.732600 0.449300
vn -0.421100 0.732000 -0.535500
usemtl Material
s off
f 34/1/1 3/2/1 4/3/1
f 8/4/2 7/2/2 36/5/2
f 36/1/3 7/2/3 3/3/3
f 33/1/4 4/2/4 8/3/4
f 6/6/5 5/3/5 1/2/5
f 11/4/6 10/2/6 9/3/6
f 17/3/7 9/3/7 10/2/7
f 20/6/8 18/4/8 11/4/8
f 20/6/9 12/6/9 9/3/9
f 19/2/10 10/2/10 11/4/10
f 1/2/11 14/2/11 15/4/11
f 5/3/12 6/6/12 16/6/12
f 6/6/13 2/4/13 15/4/13
f 5/3/14 13/3/14 14/2/14
f 21/2/15 19/2/15 18/4/15
f 23/3/16 22/6/16 20/6/16
f 22/6/17 24/4/17 18/4/17
f 23/3/18 17/3/18 19/2/18
f 14/2/19 13/3/19 23/3/19
f 15/4/20 24/4/20 22/6/20
f 13/3/21 16/6/21 22/6/21
f 14/2/22 21/2/22 24/4/22
f 28/3/23 27/2/23 34/1/23
f 36/5/24 31/2/24 32/4/24
f 34/7/25 27/3/25 31/2/25
f 32/3/26 28/2/26 33/1/26
f 26/4/27 25/2/27 29/3/27
f 37/3/28 38/2/28 39/4/28
f 38/2/29 37/3/29 45/3/29
f 48/6/30 40/6/30 39/4/30
f 45/3/31 37/3/31 40/6/31
f 39/4/32 38/2/32 47/2/32
f 43/4/33 42/2/33 25/2/33
f 29/3/34 41/3/34 44/6/34
f 30/6/35 44/6/35 43/4/35
f 42/2/36 41/3/36 29/3/36
f 52/4/37 46/4/37 47/2/37
f 51/3/38 45/3/38 48/6/38
f 50/6/39 48/6/39 46/4/39
f 47/2/40 45/3/40 51/3/40
f 42/2/41 49/2/41 51/3/41
f 50/6/42 52/4/42 43/4/42
f 51/3/43 50/6/43 44/6/43
f 43/4/44 52/4/44 49/2/44
f 33/7/45 34/1/45 4/3/45
f 35/8/46 8/4/46 36/5/46
f 34/7/47 36/1/47 3/3/47
f 35/7/48 33/1/48 8/3/48
f 2/4/49 6/6/49 1/2/49
f 12/6/6 11/4/6 9/3/6
f 19/2/7 17/3/7 10/2/7
f 12/6/8 20/6/8 11/4/8
f 17/3/9 20/6/9 9/3/9
f 18/4/10 19/2/10 11/4/10
f 2/4/50 1/2/50 15/4/50
f 13/3/51 5/3/51 16/6/51
f 16/6/52 6/6/52 15/4/52
f 1/2/53 5/3/53 14/2/53
f 24/4/15 21/2/15 18/4/15
f 17/3/16 23/3/16 20/6/16
f 20/6/17 22/6/17 18/4/17
f 21/2/18 23/3/18 19/2/18
f 21/2/54 14/2/54 23/3/54
f 16/6/55 15/4/55 22/6/55
f 23/3/56 13/3/56 22/6/56
f 15/4/57 14/2/57 24/4/57
f 33/7/58 28/3/58 34/1/58
f 35/8/59 36/5/59 32/4/59
f 36/1/60 34/7/60 31/2/60
f 35/7/61 32/3/61 33/1/61
f 30/6/27 26/4/27 29/3/27
f 40/6/28 37/3/28 39/4/28
f 47/2/29 38/2/29 45/3/29
f 46/4/30 48/6/30 39/4/30
f 48/6/31 45/3/31 40/6/31
f 46/4/62 39/4/62 47/2/62
f 26/4/33 43/4/33 25/2/33
f 30/6/34 29/3/34 44/6/34
f 26/4/35 30/6/35 43/4/35
f 25/2/36 42/2/36 29/3/36
f 49/2/37 52/4/37 47/2/37
f 50/6/38 51/3/38 48/6/38
f 52/4/39 50/6/39 46/4/39
f 49/2/40 47/2/40 51/3/40
f 41/3/63 42/2/63 51/3/63
f 44/6/64 50/6/64 43/4/64
f 41/3/65 51/3/65 44/6/65
f 42/2/66 43/4/66 49/2/66
