# Blender v2.76 (sub 0) OBJ File: 'handsAttack.blend'
# www.blender.org
mtllib handsAttack_000058.mtl
o Cube
v 0.654791 -0.084804 -1.988754
v 0.780377 -0.036735 -2.474310
v 0.319148 -0.380907 -2.416462
v 0.653005 -0.521828 -2.172647
v 0.327147 -0.464249 -2.047633
v 0.440142 -0.413253 -2.536400
v 0.574807 0.050075 -2.388896
v 0.848476 -0.052910 -2.166767
v 4.694353 -0.388817 -0.382248
v 4.510543 -0.163647 -0.453724
v 4.638064 -0.145314 -0.723906
v 4.821874 -0.370484 -0.652429
v 2.557180 -2.476684 -1.305398
v 2.575148 -1.994956 -1.342996
v 2.789408 -1.992680 -1.949075
v 2.771376 -2.474407 -1.911494
v 4.395154 -0.904576 -0.314165
v 4.255934 -0.302303 -1.159214
v 3.940524 -0.347647 -0.490953
v 4.710564 -0.859232 -0.982427
v 3.744277 -0.866990 -0.828761
v 4.120112 -1.116680 -1.068636
v 3.966171 -1.138811 -0.742476
v 3.898219 -0.844858 -1.154921
v -0.628377 0.130622 1.916641
v -0.345682 0.445268 2.203803
v -0.682448 0.091235 2.407494
v -0.585235 -0.133248 2.326769
v -0.790137 -0.108914 2.338347
v -0.507443 0.205732 2.625509
v -0.532351 0.457077 2.196581
v -0.434931 0.232651 2.115981
v 0.342744 -0.353770 0.003777
v -0.349472 -0.349472 -0.000446
v 0.401739 0.269775 0.055268
v -0.260927 0.405891 -0.056199
v 4.235255 -0.182438 1.469179
v 4.140847 -0.171846 1.185329
v 3.982692 0.074656 1.247129
v 4.077100 0.064064 1.530979
v 1.463197 -2.084023 2.163206
v 1.667969 -1.780795 1.629370
v 2.025831 -1.382485 1.992887
v 1.821059 -1.685713 2.526724
v 4.017139 -0.662143 1.756356
v 3.392452 -0.026250 1.207144
v 3.783631 -0.635945 1.054287
v 3.625960 -0.052449 1.909213
v 3.276588 -0.821794 1.415828
v 3.199633 -0.537006 1.833093
v 3.390557 -0.834580 1.758488
v 3.085665 -0.524219 1.490433
vt 1.000000 0.500000
vt 1.000000 1.000000
vt 0.000000 1.000000
vt 1.000000 0.000000
vt 0.500000 1.000000
vt 0.000000 0.000000
vt 0.000000 0.500000
vt 0.500000 0.000000
vn -0.336800 -0.938100 -0.081000
vn 0.361300 0.932400 -0.012800
vn -0.792400 0.493000 -0.359100
vn 0.910500 -0.381600 0.159300
vn -0.744800 0.659200 -0.103400
vn 0.664400 0.656000 0.358100
vn -0.128900 0.202900 0.970700
vn 0.653900 0.315400 -0.687700
vn 0.826600 -0.431900 0.360800
vn -0.301600 0.950200 -0.077900
vn 0.646000 0.727500 0.231100
vn -0.612200 -0.759300 -0.220700
vn 0.218900 -0.037000 -0.975000
vn -0.245200 0.084500 0.965800
vn -0.787400 0.516500 -0.336600
vn 0.382300 -0.916400 0.118300
vn 0.203200 -0.141600 -0.968800
vn -0.608300 -0.258300 0.750500
vn -0.439100 0.086200 0.894300
vn 0.488900 0.125000 -0.863300
vn 0.621900 -0.752500 0.217000
vn -0.617100 0.749200 -0.240400
vn -0.923600 -0.379000 -0.058400
vn 0.925400 0.364600 0.103200
vn -0.942100 0.281700 -0.181800
vn 0.912000 -0.156200 0.379200
vn -0.770800 0.633800 0.064300
vn 0.788300 0.566200 -0.241000
vn 0.796800 -0.532900 -0.284900
vn -0.174000 0.980200 0.094400
vn 0.601200 0.191200 0.775900
vn 0.021700 0.256200 -0.966400
vn 0.298900 0.482800 -0.823200
vn -0.333800 -0.454000 0.826100
vn 0.535300 0.629600 0.563000
vn -0.570300 -0.600900 -0.560100
vn -0.540700 -0.138900 -0.829700
vn 0.060100 -0.206300 0.976600
vn -0.743500 0.611700 0.270100
vn 0.262900 -0.956900 -0.123200
vn 0.483500 -0.853900 -0.192700
vn -0.551700 0.806300 0.213600
vn 0.420500 0.042600 0.906300
vn -0.406800 -0.032100 -0.912900
vn -0.006700 -0.997100 0.076000
vn 0.216000 0.971500 -0.097700
vn -0.959300 0.092800 -0.266700
vn 0.971300 -0.109300 0.211200
vn -0.726500 0.676400 -0.120900
vn 0.653800 0.315400 -0.687700
vn 0.644700 0.726300 0.238600
vn -0.612400 -0.759500 -0.219300
vn 0.188600 -0.083400 -0.978500
vn -0.254600 0.070100 0.964500
vn -0.385100 -0.021500 0.922600
vn 0.588000 -0.084800 -0.804400
vn 0.616300 -0.750000 0.240000
vn -0.622600 0.751800 -0.217300
vn -0.006700 -0.995800 0.091800
vn 0.185300 0.978300 0.092900
vn -0.986900 0.106700 -0.121300
vn 0.920800 -0.117800 0.371700
vn -0.333800 -0.454100 0.826100
vn 0.477500 -0.830000 -0.288300
vn -0.544000 0.801900 0.246800
vn 0.562700 -0.773000 0.293100
vn -0.513300 0.782600 -0.352200
usemtl Material
s off
f 34/1/1 3/2/1 4/3/1
f 8/4/2 7/2/2 36/5/2
f 36/1/3 7/2/3 3/3/3
f 33/1/4 4/2/4 8/3/4
f 6/6/5 5/3/5 1/2/5
f 12/6/6 11/4/6 10/2/6
f 17/3/7 9/3/7 10/2/7
f 20/6/8 18/4/8 11/4/8
f 17/3/9 20/6/9 12/6/9
f 19/2/10 10/2/10 11/4/10
f 1/2/11 14/2/11 15/4/11
f 5/3/12 6/6/12 16/6/12
f 6/6/13 2/4/13 15/4/13
f 5/3/14 13/3/14 14/2/14
f 24/4/15 21/2/15 19/2/15
f 23/3/16 22/6/16 20/6/16
f 22/6/17 24/4/17 18/4/17
f 23/3/18 17/3/18 19/2/18
f 14/2/19 13/3/19 23/3/19
f 15/4/20 24/4/20 22/6/20
f 13/3/21 16/6/21 22/6/21
f 14/2/22 21/2/22 24/4/22
f 28/3/23 27/2/23 34/1/23
f 36/5/24 31/2/24 32/4/24
f 34/7/25 27/3/25 31/2/25
f 32/3/26 28/2/26 33/1/26
f 26/4/27 25/2/27 29/3/27
f 37/3/28 38/2/28 39/4/28
f 38/2/29 37/3/29 45/3/29
f 40/6/30 39/4/30 46/4/30
f 37/3/31 40/6/31 48/6/31
f 39/4/32 38/2/32 47/2/32
f 43/4/33 42/2/33 25/2/33
f 41/3/34 44/6/34 30/6/34
f 44/6/35 43/4/35 26/4/35
f 42/2/36 41/3/36 29/3/36
f 52/4/37 46/4/37 47/2/37
f 45/3/38 48/6/38 50/6/38
f 50/6/39 48/6/39 46/4/39
f 47/2/40 45/3/40 51/3/40
f 42/2/41 49/2/41 51/3/41
f 50/6/42 52/4/42 43/4/42
f 51/3/43 50/6/43 44/6/43
f 43/4/44 52/4/44 49/2/44
f 33/7/45 34/1/45 4/3/45
f 35/8/46 8/4/46 36/5/46
f 34/7/47 36/1/47 3/3/47
f 35/7/48 33/1/48 8/3/48
f 2/4/49 6/6/49 1/2/49
f 9/3/6 12/6/6 10/2/6
f 19/2/7 17/3/7 10/2/7
f 12/6/50 20/6/50 11/4/50
f 9/3/9 17/3/9 12/6/9
f 18/4/10 19/2/10 11/4/10
f 2/4/51 1/2/51 15/4/51
f 13/3/52 5/3/52 16/6/52
f 16/6/53 6/6/53 15/4/53
f 1/2/54 5/3/54 14/2/54
f 18/4/15 24/4/15 19/2/15
f 17/3/16 23/3/16 20/6/16
f 20/6/17 22/6/17 18/4/17
f 21/2/18 23/3/18 19/2/18
f 21/2/55 14/2/55 23/3/55
f 16/6/56 15/4/56 22/6/56
f 23/3/57 13/3/57 22/6/57
f 15/4/58 14/2/58 24/4/58
f 33/7/59 28/3/59 34/1/59
f 35/8/60 36/5/60 32/4/60
f 36/1/61 34/7/61 31/2/61
f 35/7/62 32/3/62 33/1/62
f 30/6/27 26/4/27 29/3/27
f 40/6/28 37/3/28 39/4/28
f 47/2/29 38/2/29 45/3/29
f 48/6/30 40/6/30 46/4/30
f 45/3/31 37/3/31 48/6/31
f 46/4/32 39/4/32 47/2/32
f 26/4/33 43/4/33 25/2/33
f 29/3/63 41/3/63 30/6/63
f 30/6/35 44/6/35 26/4/35
f 25/2/36 42/2/36 29/3/36
f 49/2/37 52/4/37 47/2/37
f 51/3/38 45/3/38 50/6/38
f 52/4/39 50/6/39 46/4/39
f 49/2/40 47/2/40 51/3/40
f 41/3/64 42/2/64 51/3/64
f 44/6/65 50/6/65 43/4/65
f 41/3/66 51/3/66 44/6/66
f 42/2/67 43/4/67 49/2/67
