# Blender v2.76 (sub 0) OBJ File: 'handsBlock.blend'
# www.blender.org
mtllib handsBlock_000059.mtl
o Cube
v 0.491780 -0.117648 -1.961429
v 0.715533 0.095254 -2.359517
v 0.417677 -0.362519 -2.430571
v 0.662432 -0.534284 -2.181713
v 0.440104 -0.578926 -2.159802
v 0.653215 -0.368500 -2.565500
v 0.546265 0.108777 -2.336782
v 0.832656 -0.057743 -2.162762
v 3.409957 1.087548 1.043622
v 3.168854 1.213835 0.919056
v 3.344138 1.351211 0.719060
v 3.585242 1.224926 0.843626
v 3.036829 -1.462262 -0.727987
v 2.816584 -1.031698 -0.731426
v 3.171736 -0.789424 -1.209367
v 3.391936 -1.220012 -1.205969
v 3.411837 0.492393 0.966488
v 3.249041 1.144532 0.163719
v 2.815496 0.804747 0.658387
v 3.845382 0.832179 0.471819
v 3.025293 0.348848 0.245486
v 3.527951 0.362238 0.154428
v 3.316350 0.196398 0.395862
v 3.236894 0.514688 0.004053
v -0.757134 0.050877 1.985569
v -0.500577 0.476030 2.107242
v -0.626005 0.127901 2.376745
v -0.515877 -0.151911 2.379233
v -0.646812 -0.146876 2.443938
v -0.390256 0.278277 2.565612
v -0.611794 0.472819 2.147607
v -0.501458 0.193094 2.150176
v 0.342731 -0.353772 0.003799
v -0.349472 -0.349472 -0.000446
v 0.401680 0.269716 0.055728
v -0.260755 0.405917 -0.056498
v 3.316051 1.016768 -0.544979
v 3.116614 0.951375 -0.758391
v 2.926695 1.151450 -0.642213
v 3.126132 1.216843 -0.428802
v 1.846620 -1.425358 1.368055
v 1.706964 -1.175023 0.787806
v 2.031738 -0.636823 0.941832
v 2.171394 -0.887158 1.522082
v 3.402003 0.552997 -0.173912
v 2.438978 0.886116 -0.414413
v 2.908719 0.391254 -0.701760
v 2.932262 1.047859 0.113435
v 2.682795 0.138389 -0.147357
v 2.694286 0.458859 0.250517
v 2.923553 0.217331 0.110271
v 2.453528 0.379917 -0.007112
vt 1.000000 0.500000
vt 1.000000 1.000000
vt 0.000000 1.000000
vt 1.000000 0.000000
vt 0.500000 1.000000
vt 0.000000 0.500000
vt 0.000000 0.000000
vt 0.500000 0.000000
vn -0.467200 -0.872600 -0.142800
vn 0.477000 0.877200 0.054500
vn -0.935800 0.084500 -0.342200
vn 0.927000 -0.337600 0.163500
vn -0.904500 0.249900 -0.345500
vn 0.090900 0.781900 0.616700
vn -0.502000 -0.112700 0.857500
vn 0.573900 0.730500 -0.370100
vn 0.775900 -0.078700 0.626000
vn -0.704100 0.696500 -0.138600
vn 0.077600 0.864800 0.496000
vn -0.037300 -0.878900 -0.475500
vn 0.490700 0.297800 -0.818900
vn -0.533300 -0.266400 0.802900
vn -0.794900 0.163500 -0.584400
vn 0.739400 -0.640200 0.208300
vn 0.530000 0.198800 -0.824400
vn -0.585400 -0.675500 0.448300
vn -0.668500 -0.336700 0.663100
vn 0.591700 0.533100 -0.604700
vn 0.818700 -0.413200 0.398800
vn -0.805900 0.418300 -0.419000
vn -0.929900 -0.366300 -0.034600
vn 0.921200 0.364600 0.135700
vn -0.993500 -0.031600 -0.109200
vn 0.930700 0.174600 0.321600
vn -0.837600 0.398600 0.373500
vn 0.391800 0.711000 -0.584000
vn 0.737700 -0.333200 -0.587300
vn -0.428100 0.894900 0.125800
vn 0.766900 0.481600 0.424300
vn -0.457300 0.080200 -0.885700
vn -0.234700 0.395700 -0.887900
vn 0.196800 -0.377700 0.904800
vn 0.482700 0.840400 0.246400
vn -0.520700 -0.822300 -0.229500
vn -0.754000 -0.424800 -0.501000
vn 0.515100 -0.008700 0.857100
vn -0.723700 0.419900 0.547700
vn 0.484900 -0.853300 -0.191600
vn 0.611600 -0.707100 -0.354900
vn -0.646100 0.646600 0.405600
vn 0.713800 0.314100 0.626000
vn -0.708300 -0.301800 -0.638200
vn -0.006700 -0.996700 0.081300
vn 0.216800 0.971000 -0.101200
vn -0.907700 0.305000 -0.288200
vn 0.972700 -0.109000 0.205000
vn -0.893300 0.277200 -0.353800
vn 0.074800 0.861200 0.502700
vn -0.037900 -0.879700 -0.474000
vn 0.491100 0.244500 -0.836100
vn -0.533100 -0.283100 0.797300
vn -0.579000 -0.410800 0.704200
vn 0.760300 0.384700 -0.523400
vn 0.805800 -0.419200 0.418300
vn -0.818800 0.412500 -0.399300
vn -0.006700 -0.996600 0.082300
vn 0.181500 0.976800 0.114000
vn -0.981800 0.103500 -0.159500
vn 0.913300 -0.118800 0.389500
vn 0.560400 -0.702900 -0.438100
vn -0.625500 0.650300 0.431100
vn 0.850000 -0.525000 0.042100
vn -0.835200 0.537400 -0.116700
usemtl Material
s off
f 34/1/1 3/2/1 4/3/1
f 8/4/2 7/2/2 36/5/2
f 34/6/3 36/1/3 7/2/3
f 33/1/4 4/2/4 8/3/4
f 6/7/5 5/3/5 1/2/5
f 11/4/6 10/2/6 9/3/6
f 19/2/7 17/3/7 9/3/7
f 20/7/8 18/4/8 11/4/8
f 20/7/9 12/7/9 9/3/9
f 19/2/10 10/2/10 11/4/10
f 1/2/11 14/2/11 15/4/11
f 5/3/12 6/7/12 16/7/12
f 6/7/13 2/4/13 15/4/13
f 5/3/14 13/3/14 14/2/14
f 21/2/15 19/2/15 18/4/15
f 23/3/16 22/7/16 20/7/16
f 22/7/17 24/4/17 18/4/17
f 23/3/18 17/3/18 19/2/18
f 14/2/19 13/3/19 23/3/19
f 15/4/20 24/4/20 22/7/20
f 13/3/21 16/7/21 22/7/21
f 14/2/22 21/2/22 24/4/22
f 28/3/23 27/2/23 34/1/23
f 36/5/24 31/2/24 32/4/24
f 34/6/25 27/3/25 31/2/25
f 32/3/26 28/2/26 33/1/26
f 26/4/27 25/2/27 29/3/27
f 37/3/28 38/2/28 39/4/28
f 47/2/29 38/2/29 37/3/29
f 48/7/30 40/7/30 39/4/30
f 45/3/31 37/3/31 40/7/31
f 39/4/32 38/2/32 47/2/32
f 43/4/33 42/2/33 25/2/33
f 41/3/34 44/7/34 30/7/34
f 44/7/35 43/4/35 26/4/35
f 42/2/36 41/3/36 29/3/36
f 52/4/37 46/4/37 47/2/37
f 51/3/38 45/3/38 48/7/38
f 50/7/39 48/7/39 46/4/39
f 47/2/40 45/3/40 51/3/40
f 42/2/41 49/2/41 51/3/41
f 50/7/42 52/4/42 43/4/42
f 51/3/43 50/7/43 44/7/43
f 43/4/44 52/4/44 49/2/44
f 33/6/45 34/1/45 4/3/45
f 35/8/46 8/4/46 36/5/46
f 3/3/47 34/6/47 7/2/47
f 35/6/48 33/1/48 8/3/48
f 2/4/49 6/7/49 1/2/49
f 12/7/6 11/4/6 9/3/6
f 10/2/7 19/2/7 9/3/7
f 12/7/8 20/7/8 11/4/8
f 17/3/9 20/7/9 9/3/9
f 18/4/10 19/2/10 11/4/10
f 2/4/50 1/2/50 15/4/50
f 13/3/51 5/3/51 16/7/51
f 16/7/52 6/7/52 15/4/52
f 1/2/53 5/3/53 14/2/53
f 24/4/15 21/2/15 18/4/15
f 17/3/16 23/3/16 20/7/16
f 20/7/17 22/7/17 18/4/17
f 21/2/18 23/3/18 19/2/18
f 21/2/54 14/2/54 23/3/54
f 16/7/55 15/4/55 22/7/55
f 23/3/56 13/3/56 22/7/56
f 15/4/57 14/2/57 24/4/57
f 33/6/58 28/3/58 34/1/58
f 35/8/59 36/5/59 32/4/59
f 36/1/60 34/6/60 31/2/60
f 35/6/61 32/3/61 33/1/61
f 30/7/27 26/4/27 29/3/27
f 40/7/28 37/3/28 39/4/28
f 45/3/29 47/2/29 37/3/29
f 46/4/30 48/7/30 39/4/30
f 48/7/31 45/3/31 40/7/31
f 46/4/32 39/4/32 47/2/32
f 26/4/33 43/4/33 25/2/33
f 29/3/34 41/3/34 30/7/34
f 30/7/35 44/7/35 26/4/35
f 25/2/36 42/2/36 29/3/36
f 49/2/37 52/4/37 47/2/37
f 50/7/38 51/3/38 48/7/38
f 52/4/39 50/7/39 46/4/39
f 49/2/40 47/2/40 51/3/40
f 41/3/62 42/2/62 51/3/62
f 44/7/63 50/7/63 43/4/63
f 41/3/64 51/3/64 44/7/64
f 42/2/65 43/4/65 49/2/65
