# Blender v2.76 (sub 0) OBJ File: 'handsBlock.blend'
# www.blender.org
mtllib handsBlock_000098.mtl
o Cube
v 0.633859 -0.084148 -1.979848
v 0.781414 -0.015092 -2.456634
v 0.336720 -0.381932 -2.420304
v 0.656658 -0.524293 -2.172976
v 0.339704 -0.485546 -2.064420
v 0.474680 -0.414437 -2.545057
v 0.577108 0.059542 -2.380543
v 0.849113 -0.053361 -2.164542
v 4.593724 -0.123947 -0.158724
v 4.397576 0.088578 -0.235895
v 4.537746 0.122713 -0.498161
v 4.733894 -0.089811 -0.420990
v 2.673207 -2.342509 -1.239912
v 2.656607 -1.859912 -1.266925
v 2.902455 -1.827179 -1.860006
v 2.918993 -2.309778 -1.833014
v 4.331054 -0.661967 -0.117469
v 4.192599 -0.051882 -0.957022
v 3.845906 -0.136313 -0.308340
v 4.677746 -0.577536 -0.766151
v 3.707919 -0.660661 -0.666618
v 4.113917 -0.876010 -0.890062
v 3.944706 -0.917218 -0.573458
v 3.877130 -0.619452 -0.983221
v -0.654208 0.121902 1.921564
v -0.368291 0.453885 2.185039
v -0.676472 0.096124 2.403827
v -0.581021 -0.137109 2.335424
v -0.777128 -0.117309 2.356362
v -0.491210 0.214674 2.619838
v -0.545688 0.461773 2.186454
v -0.450028 0.228602 2.118170
v 0.342731 -0.353772 0.003799
v -0.349472 -0.349472 -0.000446
v 0.401680 0.269716 0.055728
v -0.260755 0.405917 -0.056498
v 4.176636 0.023420 1.159534
v 4.063508 0.024700 0.882413
v 3.898232 0.264651 0.950990
v 4.011361 0.263372 1.228111
v 1.548630 -1.991807 2.062502
v 1.704232 -1.688990 1.512092
v 2.066175 -1.268734 1.845625
v 1.910573 -1.571551 2.396035
v 4.000681 -0.460809 1.467307
v 3.312081 0.135847 0.951500
v 3.720870 -0.457646 0.781881
v 3.591892 0.132684 1.636926
v 3.247872 -0.660463 1.178722
v 3.184922 -0.372339 1.596046
v 3.384440 -0.662006 1.513259
v 3.048354 -0.370795 1.261508
vt 1.000000 0.500000
vt 1.000000 1.000000
vt 0.000000 1.000000
vt 1.000000 0.000000
vt 0.500000 1.000000
vt 0.000000 0.000000
vt 0.000000 0.500000
vt 0.500000 0.000000
vn -0.348600 -0.933300 -0.086300
vn 0.383100 0.923700 0.000400
vn -0.805200 0.470900 -0.360500
vn 0.912600 -0.375800 0.161100
vn -0.786200 0.603800 -0.131400
vn 0.592700 0.694900 0.407200
vn -0.196000 0.169800 0.965800
vn 0.664300 0.379300 -0.644000
vn 0.836100 -0.377700 0.397700
vn -0.367800 0.926800 -0.076000
vn 0.575400 0.768200 0.280900
vn -0.539800 -0.797400 -0.269600
vn 0.273200 0.003100 -0.961900
vn -0.302300 0.042900 0.952200
vn -0.804800 0.464400 -0.369700
vn 0.443400 -0.888100 0.121400
vn 0.265300 -0.103200 -0.958600
vn -0.626700 -0.320400 0.710300
vn -0.491700 0.031800 0.870200
vn 0.523900 0.181400 -0.832200
vn 0.664400 -0.709100 0.236200
vn -0.658000 0.706800 -0.259700
vn -0.929800 -0.363200 -0.059200
vn 0.930500 0.349700 0.109500
vn -0.955500 0.238200 -0.174100
vn 0.920900 -0.107200 0.374800
vn -0.793400 0.599500 0.105500
vn 0.743200 0.597800 -0.300600
vn 0.800800 -0.500300 -0.329200
vn -0.213600 0.972600 0.091700
vn 0.640800 0.232200 0.731700
vn -0.053600 0.240100 -0.969300
vn 0.222400 0.481400 -0.847800
vn -0.258300 -0.454200 0.852600
vn 0.541100 0.662800 0.517600
vn -0.577100 -0.635600 -0.512800
vn -0.586500 -0.178200 -0.790100
vn 0.133400 -0.186300 0.973400
vn -0.752400 0.581300 0.309800
vn 0.299300 -0.945700 -0.126600
vn 0.509800 -0.833800 -0.212000
vn -0.574400 0.783200 0.238100
vn 0.476500 0.077900 0.875700
vn -0.464000 -0.067100 -0.883300
vn -0.006700 -0.997000 0.077100
vn 0.216300 0.971400 -0.097800
vn -0.957600 0.092200 -0.272800
vn 0.971200 -0.109500 0.211600
vn -0.768300 0.622800 -0.147600
vn 0.573700 0.766500 0.288600
vn -0.540200 -0.797800 -0.267900
vn 0.246600 -0.045700 -0.968000
vn -0.310700 0.027500 0.950100
vn -0.431600 -0.071800 0.899200
vn 0.635100 -0.021400 -0.772200
vn 0.657300 -0.707600 0.259200
vn -0.665000 0.708400 -0.236600
vn -0.006700 -0.995900 0.089900
vn 0.184900 0.978100 0.095800
vn -0.986100 0.106300 -0.127900
vn 0.918600 -0.118300 0.377000
vn 0.743100 0.597800 -0.300600
vn 0.496600 -0.812100 -0.306400
vn -0.564800 0.780000 0.269400
vn 0.616400 -0.741400 0.265300
vn -0.571900 0.752200 -0.327200
usemtl Material
s off
f 34/1/1 3/2/1 4/3/1
f 8/4/2 7/2/2 36/5/2
f 36/1/3 7/2/3 3/3/3
f 33/1/4 4/2/4 8/3/4
f 6/6/5 5/3/5 1/2/5
f 11/4/6 10/2/6 9/3/6
f 17/3/7 9/3/7 10/2/7
f 20/6/8 18/4/8 11/4/8
f 17/3/9 20/6/9 12/6/9
f 18/4/10 19/2/10 10/2/10
f 1/2/11 14/2/11 15/4/11
f 5/3/12 6/6/12 16/6/12
f 6/6/13 2/4/13 15/4/13
f 5/3/14 13/3/14 14/2/14
f 21/2/15 19/2/15 18/4/15
f 22/6/16 20/6/16 17/3/16
f 22/6/17 24/4/17 18/4/17
f 23/3/18 17/3/18 19/2/18
f 14/2/19 13/3/19 23/3/19
f 15/4/20 24/4/20 22/6/20
f 13/3/21 16/6/21 22/6/21
f 14/2/22 21/2/22 24/4/22
f 28/3/23 27/2/23 34/1/23
f 36/5/24 31/2/24 32/4/24
f 34/7/25 27/3/25 31/2/25
f 32/3/26 28/2/26 33/1/26
f 26/4/27 25/2/27 29/3/27
f 40/6/28 37/3/28 38/2/28
f 38/2/29 37/3/29 45/3/29
f 48/6/30 40/6/30 39/4/30
f 37/3/31 40/6/31 48/6/31
f 39/4/32 38/2/32 47/2/32
f 43/4/33 42/2/33 25/2/33
f 41/3/34 44/6/34 30/6/34
f 30/6/35 44/6/35 43/4/35
f 42/2/36 41/3/36 29/3/36
f 52/4/37 46/4/37 47/2/37
f 51/3/38 45/3/38 48/6/38
f 50/6/39 48/6/39 46/4/39
f 47/2/40 45/3/40 51/3/40
f 42/2/41 49/2/41 51/3/41
f 50/6/42 52/4/42 43/4/42
f 51/3/43 50/6/43 44/6/43
f 43/4/44 52/4/44 49/2/44
f 33/7/45 34/1/45 4/3/45
f 35/8/46 8/4/46 36/5/46
f 34/7/47 36/1/47 3/3/47
f 35/7/48 33/1/48 8/3/48
f 2/4/49 6/6/49 1/2/49
f 12/6/6 11/4/6 9/3/6
f 19/2/7 17/3/7 10/2/7
f 12/6/8 20/6/8 11/4/8
f 9/3/9 17/3/9 12/6/9
f 11/4/10 18/4/10 10/2/10
f 2/4/50 1/2/50 15/4/50
f 13/3/51 5/3/51 16/6/51
f 16/6/52 6/6/52 15/4/52
f 1/2/53 5/3/53 14/2/53
f 24/4/15 21/2/15 18/4/15
f 23/3/16 22/6/16 17/3/16
f 20/6/17 22/6/17 18/4/17
f 21/2/18 23/3/18 19/2/18
f 21/2/54 14/2/54 23/3/54
f 16/6/55 15/4/55 22/6/55
f 23/3/56 13/3/56 22/6/56
f 15/4/57 14/2/57 24/4/57
f 33/7/58 28/3/58 34/1/58
f 35/8/59 36/5/59 32/4/59
f 36/1/60 34/7/60 31/2/60
f 35/7/61 32/3/61 33/1/61
f 30/6/27 26/4/27 29/3/27
f 39/4/62 40/6/62 38/2/62
f 47/2/29 38/2/29 45/3/29
f 46/4/30 48/6/30 39/4/30
f 45/3/31 37/3/31 48/6/31
f 46/4/32 39/4/32 47/2/32
f 26/4/33 43/4/33 25/2/33
f 29/3/34 41/3/34 30/6/34
f 26/4/35 30/6/35 43/4/35
f 25/2/36 42/2/36 29/3/36
f 49/2/37 52/4/37 47/2/37
f 50/6/38 51/3/38 48/6/38
f 52/4/39 50/6/39 46/4/39
f 49/2/40 47/2/40 51/3/40
f 41/3/63 42/2/63 51/3/63
f 44/6/64 50/6/64 43/4/64
f 41/3/65 51/3/65 44/6/65
f 42/2/66 43/4/66 49/2/66
