# Blender v2.76 (sub 0) OBJ File: 'handsBlock.blend'
# www.blender.org
mtllib handsBlock_000103.mtl
o Cube
v 0.643972 -0.084335 -1.982969
v 0.782926 -0.024274 -2.463542
v 0.330949 -0.381848 -2.418540
v 0.656533 -0.523466 -2.172357
v 0.335512 -0.476957 -2.057137
v 0.461874 -0.414479 -2.541302
v 0.577878 0.055419 -2.383672
v 0.850297 -0.053346 -2.164882
v 4.640364 -0.233208 -0.249392
v 4.449326 -0.015277 -0.324269
v 4.584599 0.012044 -0.589882
v 4.775637 -0.205886 -0.515005
v 2.627272 -2.399434 -1.266391
v 2.625268 -1.916815 -1.297703
v 2.858699 -1.897215 -1.896356
v 2.860638 -2.379835 -1.865063
v 4.361880 -0.762243 -0.197140
v 4.223951 -0.155642 -1.039301
v 3.889369 -0.223219 -0.382337
v 4.696462 -0.694667 -0.854104
v 3.726968 -0.746129 -0.732388
v 4.120887 -0.976230 -0.962643
v 3.957587 -1.009211 -0.641998
v 3.890268 -0.713147 -1.053033
v -0.645336 0.126043 1.918844
v -0.360395 0.450684 2.192334
v -0.680728 0.094322 2.404871
v -0.584789 -0.135240 2.331461
v -0.784667 -0.113573 2.348438
v -0.499726 0.211068 2.621929
v -0.541741 0.460175 2.190098
v -0.445594 0.230672 2.116809
v 0.342731 -0.353772 0.003799
v -0.349472 -0.349472 -0.000446
v 0.401680 0.269716 0.055728
v -0.260755 0.405917 -0.056498
v 4.201741 -0.061212 1.287790
v 4.096273 -0.055927 1.007710
v 3.933829 0.186735 1.073461
v 4.039298 0.181450 1.353540
v 1.511783 -2.030904 2.104705
v 1.688161 -1.727575 1.560883
v 2.048867 -1.316612 1.907094
v 1.872489 -1.619942 2.450917
v 4.008164 -0.543935 1.587238
v 3.345515 0.069333 1.057121
v 3.747300 -0.530862 0.894495
v 3.606379 0.056260 1.749863
v 3.259823 -0.727049 1.276885
v 3.191044 -0.440490 1.694366
v 3.387144 -0.733429 1.614993
v 3.063724 -0.434110 1.356257
vt 1.000000 0.500000
vt 1.000000 1.000000
vt 0.000000 1.000000
vt 1.000000 0.000000
vt 0.500000 1.000000
vt 0.000000 0.000000
vt 0.000000 0.500000
vt 0.500000 0.000000
vn -0.343300 -0.935500 -0.084100
vn 0.374100 0.927400 -0.004800
vn -0.799600 0.480300 -0.360500
vn 0.911600 -0.378300 0.160900
vn -0.769500 0.627200 -0.119900
vn 0.623200 0.679400 0.387300
vn -0.168900 0.184600 0.968200
vn 0.661400 0.352300 -0.662200
vn 0.832500 -0.400400 0.382800
vn -0.340100 0.937300 -0.076800
vn 0.605400 0.752000 0.260700
vn -0.570500 -0.782300 -0.249900
vn 0.251600 -0.014200 -0.967700
vn -0.279400 0.061000 0.958200
vn -0.797800 0.486300 -0.356300
vn 0.417900 -0.900500 0.120200
vn 0.240400 -0.120200 -0.963200
vn -0.620400 -0.294000 0.727100
vn -0.470900 0.055200 0.880500
vn 0.510600 0.157200 -0.845300
vn 0.646900 -0.727600 0.228300
vn -0.641100 0.725000 -0.251900
vn -0.927700 -0.368600 -0.059800
vn 0.928800 0.354700 0.107600
vn -0.950000 0.256300 -0.178100
vn 0.917200 -0.127500 0.377500
vn -0.784300 0.614100 0.088200
vn 0.762400 0.585200 -0.276100
vn 0.799800 -0.513600 -0.310900
vn -0.197300 0.975900 0.092700
vn 0.624900 0.215000 0.750500
vn -0.022500 0.247400 -0.968600
vn 0.254700 0.482500 -0.838100
vn -0.290200 -0.454700 0.842100
vn 0.539400 0.648700 0.536800
vn -0.575000 -0.620900 -0.532800
vn -0.568000 -0.161600 -0.807000
vn 0.103200 -0.195200 0.975300
vn -0.749300 0.593700 0.293400
vn 0.284400 -0.950500 -0.125000
vn 0.499300 -0.842100 -0.203900
vn -0.565500 0.792600 0.227900
vn 0.453800 0.062900 0.888900
vn -0.440900 -0.052300 -0.896100
vn -0.006700 -0.997000 0.076800
vn 0.216300 0.971400 -0.097600
vn -0.958200 0.092400 -0.270900
vn 0.971100 -0.109500 0.212100
vn -0.751400 0.645500 -0.136600
vn 0.603900 0.750500 0.268400
vn -0.570900 -0.782600 -0.248200
vn 0.223300 -0.062200 -0.972800
vn -0.288400 0.045900 0.956400
vn -0.413400 -0.050000 0.909200
vn 0.616600 -0.048500 -0.785800
vn 0.640400 -0.725700 0.251500
vn -0.647500 0.727000 -0.228700
vn -0.006700 -0.995800 0.090800
vn 0.185100 0.978200 0.094600
vn -0.986300 0.106500 -0.125900
vn 0.919200 -0.118200 0.375600
vn 0.489100 -0.819600 -0.298500
vn -0.556900 0.789000 0.259500
vn 0.594600 -0.754900 0.276700
vn -0.548200 0.765300 -0.337300
usemtl Material
s off
f 34/1/1 3/2/1 4/3/1
f 8/4/2 7/2/2 36/5/2
f 36/1/3 7/2/3 3/3/3
f 33/1/4 4/2/4 8/3/4
f 6/6/5 5/3/5 1/2/5
f 12/6/6 11/4/6 10/2/6
f 17/3/7 9/3/7 10/2/7
f 20/6/8 18/4/8 11/4/8
f 17/3/9 20/6/9 12/6/9
f 18/4/10 19/2/10 10/2/10
f 1/2/11 14/2/11 15/4/11
f 5/3/12 6/6/12 16/6/12
f 6/6/13 2/4/13 15/4/13
f 5/3/14 13/3/14 14/2/14
f 21/2/15 19/2/15 18/4/15
f 23/3/16 22/6/16 20/6/16
f 22/6/17 24/4/17 18/4/17
f 23/3/18 17/3/18 19/2/18
f 14/2/19 13/3/19 23/3/19
f 15/4/20 24/4/20 22/6/20
f 13/3/21 16/6/21 22/6/21
f 14/2/22 21/2/22 24/4/22
f 28/3/23 27/2/23 34/1/23
f 36/5/24 31/2/24 32/4/24
f 34/7/25 27/3/25 31/2/25
f 32/3/26 28/2/26 33/1/26
f 26/4/27 25/2/27 29/3/27
f 37/3/28 38/2/28 39/4/28
f 38/2/29 37/3/29 45/3/29
f 48/6/30 40/6/30 39/4/30
f 37/3/31 40/6/31 48/6/31
f 39/4/32 38/2/32 47/2/32
f 26/4/33 43/4/33 42/2/33
f 41/3/34 44/6/34 30/6/34
f 30/6/35 44/6/35 43/4/35
f 42/2/36 41/3/36 29/3/36
f 52/4/37 46/4/37 47/2/37
f 51/3/38 45/3/38 48/6/38
f 50/6/39 48/6/39 46/4/39
f 47/2/40 45/3/40 51/3/40
f 42/2/41 49/2/41 51/3/41
f 50/6/42 52/4/42 43/4/42
f 51/3/43 50/6/43 44/6/43
f 43/4/44 52/4/44 49/2/44
f 33/7/45 34/1/45 4/3/45
f 35/8/46 8/4/46 36/5/46
f 34/7/47 36/1/47 3/3/47
f 35/7/48 33/1/48 8/3/48
f 2/4/49 6/6/49 1/2/49
f 9/3/6 12/6/6 10/2/6
f 19/2/7 17/3/7 10/2/7
f 12/6/8 20/6/8 11/4/8
f 9/3/9 17/3/9 12/6/9
f 11/4/10 18/4/10 10/2/10
f 2/4/50 1/2/50 15/4/50
f 13/3/51 5/3/51 16/6/51
f 16/6/52 6/6/52 15/4/52
f 1/2/53 5/3/53 14/2/53
f 24/4/15 21/2/15 18/4/15
f 17/3/16 23/3/16 20/6/16
f 20/6/17 22/6/17 18/4/17
f 21/2/18 23/3/18 19/2/18
f 21/2/54 14/2/54 23/3/54
f 16/6/55 15/4/55 22/6/55
f 23/3/56 13/3/56 22/6/56
f 15/4/57 14/2/57 24/4/57
f 33/7/58 28/3/58 34/1/58
f 35/8/59 36/5/59 32/4/59
f 36/1/60 34/7/60 31/2/60
f 35/7/61 32/3/61 33/1/61
f 30/6/27 26/4/27 29/3/27
f 40/6/28 37/3/28 39/4/28
f 47/2/29 38/2/29 45/3/29
f 46/4/30 48/6/30 39/4/30
f 45/3/31 37/3/31 48/6/31
f 46/4/32 39/4/32 47/2/32
f 25/2/33 26/4/33 42/2/33
f 29/3/34 41/3/34 30/6/34
f 26/4/35 30/6/35 43/4/35
f 25/2/36 42/2/36 29/3/36
f 49/2/37 52/4/37 47/2/37
f 50/6/38 51/3/38 48/6/38
f 52/4/39 50/6/39 46/4/39
f 49/2/40 47/2/40 51/3/40
f 41/3/62 42/2/62 51/3/62
f 44/6/63 50/6/63 43/4/63
f 41/3/64 51/3/64 44/6/64
f 42/2/65 43/4/65 49/2/65
