# Blender v2.76 (sub 0) OBJ File: 'handsAttack.blend'
# www.blender.org
mtllib handsAttack_000007.mtl
o Cube
v 0.200893 -0.034011 -2.087812
v 0.215653 0.032339 -2.584322
v -0.224407 -0.315264 -2.437052
v 0.158393 -0.458244 -2.276885
v -0.136293 -0.408675 -2.086669
v -0.135131 -0.339586 -2.582631
v 0.030198 0.115322 -2.453892
v 0.345371 0.013026 -2.301660
v 4.353382 -0.336378 -1.250964
v 4.144788 -0.121705 -1.251500
v 4.205812 -0.063125 -1.538624
v 4.414407 -0.277797 -1.538088
v 2.182184 -2.467551 -1.924724
v 2.180142 -2.000050 -1.926375
v 2.251930 -1.944061 -2.560290
v 2.253902 -2.411561 -2.558637
v 4.109526 -0.880625 -1.183951
v 3.744531 -0.204769 -1.895443
v 3.593595 -0.349659 -1.185276
v 4.260463 -0.735736 -1.894118
v 3.357195 -0.844465 -1.534027
v 3.682674 -1.032898 -1.879992
v 3.609007 -1.103614 -1.533380
v 3.430863 -0.773748 -1.880639
v 0.005444 0.017170 1.989683
v 0.255474 0.375813 2.254713
v -0.043387 0.005391 2.514286
v 0.081453 -0.227662 2.374339
v -0.117157 -0.219683 2.425859
v 0.132874 0.138960 2.690889
v 0.071288 0.373637 2.287010
v 0.196332 0.140660 2.147143
v 0.344108 -0.353425 0.000401
v -0.349472 -0.349472 -0.000446
v 0.401561 0.279172 -0.009976
v -0.279391 0.401163 -0.011194
v 5.235772 -0.235362 1.640414
v 5.151777 -0.232343 1.353131
v 5.011331 0.028333 1.396934
v 5.095327 0.025315 1.684216
v 2.349230 -1.923500 2.273573
v 2.504430 -1.623668 1.721419
v 2.820942 -1.169663 2.056920
v 2.665743 -1.469496 2.609074
v 4.971781 -0.681584 1.942666
v 4.416651 -0.029367 1.340446
v 4.764027 -0.674120 1.232107
v 4.624405 -0.036832 2.051005
v 4.232556 -0.801926 1.583602
v 4.164411 -0.490883 1.983283
v 4.333954 -0.805569 1.930406
v 4.063012 -0.487240 1.636479
vt 1.000000 0.500000
vt 1.000000 1.000000
vt 0.000000 1.000000
vt 1.000000 0.000000
vt 0.500000 1.000000
vt 0.000000 0.000000
vt 0.000000 0.500000
vt 0.500000 0.000000
vn -0.338500 -0.940500 -0.030600
vn 0.337200 0.939000 -0.067100
vn -0.851700 0.497100 -0.166100
vn 0.926900 -0.370800 -0.058500
vn -0.740100 0.666300 0.091100
vn 0.687600 0.668800 0.282600
vn 0.084400 0.084500 0.992900
vn 0.458900 0.444000 -0.769600
vn 0.911800 -0.394600 0.113300
vn -0.368500 0.923100 0.110000
vn 0.691900 0.708100 0.140900
vn -0.650900 -0.751700 -0.106200
vn 0.003900 -0.008200 -1.000000
vn -0.066800 0.003200 0.997800
vn -0.873300 0.479200 -0.087900
vn 0.454100 -0.886900 -0.084400
vn -0.015400 -0.017500 -0.999700
vn -0.403800 -0.390300 0.827400
vn -0.266500 0.002200 0.963800
vn 0.272800 0.262700 -0.925500
vn 0.690800 -0.722900 0.014300
vn -0.700000 0.714100 -0.003100
vn -0.819500 -0.545100 0.176700
vn 0.842100 0.525300 -0.122200
vn -0.940100 0.334300 0.067300
vn 0.966400 -0.228000 0.119000
vn -0.838600 0.541500 0.058300
vn 0.837300 0.491400 -0.239700
vn 0.761800 -0.605900 -0.229100
vn -0.100200 0.994200 0.039800
vn 0.588600 0.184900 0.787000
vn 0.073000 0.203400 -0.976400
vn 0.220700 0.475400 -0.851600
vn -0.258700 -0.450900 0.854300
vn 0.469900 0.713600 0.519600
vn -0.507900 -0.689000 -0.516900
vn -0.522500 -0.140200 -0.841000
vn 0.012000 -0.159400 0.987100
vn -0.702100 0.679600 0.212400
vn 0.191600 -0.979200 -0.066300
vn 0.417100 -0.899300 -0.131400
vn -0.440600 0.887000 0.138100
vn 0.363100 0.039200 0.930900
vn -0.315400 -0.010500 -0.948900
vn -0.005800 -0.998900 0.046400
vn 0.175300 0.977400 -0.117800
vn -0.994500 0.092100 -0.049800
vn 0.995800 -0.090700 -0.013900
vn -0.725500 0.684600 0.069900
vn 0.084400 0.084500 0.992800
vn 0.691100 0.713400 0.115900
vn -0.652000 -0.745200 -0.139600
vn 0.007000 -0.003500 -1.000000
vn -0.041400 0.040300 0.998300
vn -0.167200 -0.160000 0.972900
vn 0.430100 -0.001400 -0.902800
vn 0.691100 -0.722800 -0.000600
vn -0.699700 0.714200 -0.016200
vn -0.005800 -0.998600 0.052300
vn 0.175600 0.981200 0.079700
vn -0.984000 0.094000 0.151300
vn 0.992100 -0.088600 0.088700
vn 0.415900 -0.843100 -0.340900
vn -0.408300 0.845400 0.344300
vn 0.488500 -0.712600 0.503500
vn -0.383500 0.706700 -0.594600
usemtl Material
s off
f 34/1/1 3/2/1 4/3/1
f 8/4/2 7/2/2 36/5/2
f 36/1/3 7/2/3 3/3/3
f 33/1/4 4/2/4 8/3/4
f 6/6/5 5/3/5 1/2/5
f 12/6/6 11/4/6 10/2/6
f 19/2/7 17/3/7 9/3/7
f 20/6/8 18/4/8 11/4/8
f 20/6/9 12/6/9 9/3/9
f 19/2/10 10/2/10 11/4/10
f 1/2/11 14/2/11 15/4/11
f 5/3/12 6/6/12 16/6/12
f 6/6/13 2/4/13 15/4/13
f 5/3/14 13/3/14 14/2/14
f 21/2/15 19/2/15 18/4/15
f 23/3/16 22/6/16 20/6/16
f 22/6/17 24/4/17 18/4/17
f 23/3/18 17/3/18 19/2/18
f 14/2/19 13/3/19 23/3/19
f 15/4/20 24/4/20 22/6/20
f 13/3/21 16/6/21 22/6/21
f 14/2/22 21/2/22 24/4/22
f 28/3/23 27/2/23 34/1/23
f 36/5/24 31/2/24 32/4/24
f 34/7/25 27/3/25 31/2/25
f 32/3/26 28/2/26 33/1/26
f 30/6/27 26/4/27 25/2/27
f 37/3/28 38/2/28 39/4/28
f 47/2/29 38/2/29 37/3/29
f 48/6/30 40/6/30 39/4/30
f 45/3/31 37/3/31 40/6/31
f 39/4/32 38/2/32 47/2/32
f 43/4/33 42/2/33 25/2/33
f 41/3/34 44/6/34 30/6/34
f 30/6/35 44/6/35 43/4/35
f 42/2/36 41/3/36 29/3/36
f 46/4/37 47/2/37 49/2/37
f 51/3/38 45/3/38 48/6/38
f 48/6/39 46/4/39 52/4/39
f 49/2/40 47/2/40 45/3/40
f 42/2/41 49/2/41 51/3/41
f 50/6/42 52/4/42 43/4/42
f 51/3/43 50/6/43 44/6/43
f 43/4/44 52/4/44 49/2/44
f 33/7/45 34/1/45 4/3/45
f 35/8/46 8/4/46 36/5/46
f 34/7/47 36/1/47 3/3/47
f 35/7/48 33/1/48 8/3/48
f 2/4/49 6/6/49 1/2/49
f 9/3/6 12/6/6 10/2/6
f 10/2/50 19/2/50 9/3/50
f 12/6/8 20/6/8 11/4/8
f 17/3/9 20/6/9 9/3/9
f 18/4/10 19/2/10 11/4/10
f 2/4/51 1/2/51 15/4/51
f 13/3/52 5/3/52 16/6/52
f 16/6/53 6/6/53 15/4/53
f 1/2/54 5/3/54 14/2/54
f 24/4/15 21/2/15 18/4/15
f 17/3/16 23/3/16 20/6/16
f 20/6/17 22/6/17 18/4/17
f 21/2/18 23/3/18 19/2/18
f 21/2/55 14/2/55 23/3/55
f 16/6/56 15/4/56 22/6/56
f 23/3/57 13/3/57 22/6/57
f 15/4/58 14/2/58 24/4/58
f 33/7/59 28/3/59 34/1/59
f 35/8/60 36/5/60 32/4/60
f 36/1/61 34/7/61 31/2/61
f 35/7/62 32/3/62 33/1/62
f 29/3/27 30/6/27 25/2/27
f 40/6/28 37/3/28 39/4/28
f 45/3/29 47/2/29 37/3/29
f 46/4/30 48/6/30 39/4/30
f 48/6/31 45/3/31 40/6/31
f 46/4/32 39/4/32 47/2/32
f 26/4/33 43/4/33 25/2/33
f 29/3/34 41/3/34 30/6/34
f 26/4/35 30/6/35 43/4/35
f 25/2/36 42/2/36 29/3/36
f 52/4/37 46/4/37 49/2/37
f 50/6/38 51/3/38 48/6/38
f 50/6/39 48/6/39 52/4/39
f 51/3/40 49/2/40 45/3/40
f 41/3/63 42/2/63 51/3/63
f 44/6/64 50/6/64 43/4/64
f 41/3/65 51/3/65 44/6/65
f 42/2/66 43/4/66 49/2/66
