# Blender v2.76 (sub 0) OBJ File: 'handsAttack.blend'
# www.blender.org
mtllib handsAttack_000011.mtl
o Cube
v -0.412039 0.024575 -2.060050
v -0.541299 0.111281 -2.532377
v -0.923934 -0.243521 -2.275828
v -0.507194 -0.384795 -2.239235
v -0.741292 -0.346189 -1.975367
v -0.883832 -0.257342 -2.441998
v -0.685777 0.188172 -2.350548
v -0.341469 0.090435 -2.300364
v 3.690803 -0.282902 -2.199674
v 3.483193 -0.089921 -2.103487
v 3.454572 0.017760 -2.381302
v 3.662184 -0.175221 -2.477489
v 1.493304 -2.436938 -2.571239
v 1.487082 -1.994910 -2.524976
v 1.368688 -1.874128 -3.136930
v 1.374841 -2.316159 -3.183168
v 3.498732 -0.850236 -2.162204
v 2.914444 -0.106584 -2.611439
v 2.985231 -0.372921 -1.924296
v 3.427945 -0.583898 -2.849347
v 2.675832 -0.826248 -2.272307
v 2.891908 -0.929219 -2.723798
v 2.926458 -1.059211 -2.388423
v 2.641283 -0.696255 -2.607682
v 0.855239 -0.057396 1.800638
v 1.047688 0.341345 2.056273
v 0.821881 -0.059741 2.371393
v 0.958322 -0.291240 2.142580
v 0.786637 -0.306952 2.241541
v 0.979086 0.091789 2.497177
v 0.885138 0.318639 2.137173
v 1.021758 0.087239 1.908386
v 0.344492 -0.352746 -0.004415
v -0.349472 -0.349472 -0.000446
v 0.375277 0.293889 -0.092227
v -0.284744 0.391882 0.053154
v 6.479002 -0.180020 1.459364
v 6.397423 -0.175560 1.171404
v 6.284754 0.099381 1.207582
v 6.366333 0.094921 1.495542
v 3.501966 -1.568309 2.028903
v 3.588807 -1.252396 1.470765
v 3.832428 -0.747631 1.794373
v 3.745586 -1.063543 2.352512
v 6.168083 -0.588417 1.770336
v 5.687634 0.102649 1.147582
v 5.966307 -0.577386 1.058101
v 5.889410 0.091617 1.859816
v 5.422388 -0.640038 1.408204
v 5.384857 -0.313516 1.799499
v 5.520869 -0.645422 1.755826
v 5.286376 -0.308131 1.451877
vt 1.000000 0.500000
vt 1.000000 1.000000
vt 0.000000 1.000000
vt 1.000000 0.000000
vt 0.500000 1.000000
vt 0.000000 0.500000
vt 0.000000 0.000000
vt 0.500000 0.000000
vn -0.323800 -0.945400 0.037700
vn 0.288100 0.948900 -0.128500
vn -0.984600 0.074500 0.158000
vn 0.930900 -0.092300 -0.353400
vn -0.666800 0.667700 0.330800
vn 0.714000 0.674500 0.187900
vn 0.369900 -0.064000 0.926900
vn 0.194200 0.596900 -0.778400
vn 0.919200 -0.325800 -0.221000
vn -0.355100 0.858700 0.369400
vn 0.727800 0.685700 -0.005500
vn -0.661700 -0.747400 0.059800
vn -0.279000 0.023900 -0.960000
vn 0.167700 -0.100300 0.980700
vn -0.878200 0.408400 0.248800
vn 0.442900 -0.819600 -0.363300
vn -0.308700 0.137000 -0.941200
vn -0.126600 -0.548200 0.826700
vn -0.026400 -0.104400 0.994200
vn -0.020600 0.428200 -0.903500
vn 0.693100 -0.669900 -0.266400
vn -0.697900 0.640600 0.320200
vn -0.585600 -0.717700 0.376900
vn 0.632700 0.700300 -0.330500
vn -0.849100 0.373300 0.373700
vn 0.916400 -0.310200 -0.253100
vn -0.916700 0.391700 0.079100
vn 0.885500 0.395100 -0.244700
vn 0.695600 -0.687700 -0.207700
vn 0.004000 0.999900 0.014300
vn 0.600200 0.142400 0.787100
vn 0.099400 0.169800 -0.980500
vn 0.113400 0.496900 -0.860400
vn -0.154900 -0.479100 0.864000
vn 0.355600 0.788600 0.501700
vn -0.397100 -0.770900 -0.498100
vn -0.529500 -0.106200 -0.841600
vn -0.010400 -0.134600 0.990800
vn -0.628400 0.754400 0.189700
vn 0.088600 -0.995200 -0.040500
vn 0.311900 -0.944500 -0.103000
vn -0.268500 0.959000 0.090900
vn 0.317500 0.005300 0.948300
vn -0.237800 0.030300 -0.970800
vn -0.004600 -0.999900 0.016100
vn 0.117800 0.984600 -0.129000
vn -0.833700 0.500400 0.233800
vn 0.900800 -0.347600 -0.260400
vn -0.658700 0.687200 0.306400
vn 0.709100 0.702000 -0.065200
vn -0.684800 -0.728700 -0.011300
vn -0.228400 0.098100 -0.968600
vn 0.243300 0.005500 0.969900
vn 0.126100 -0.330500 0.935300
vn 0.199300 0.104700 -0.974300
vn 0.676500 -0.660500 -0.325700
vn -0.712100 0.649800 0.266000
vn -0.004500 -0.999500 0.029900
vn 0.157600 0.986200 0.050900
vn -0.870700 0.040600 0.490200
vn 0.945200 -0.087700 -0.314500
vn 0.327800 -0.843100 -0.426200
vn -0.242000 0.860100 0.449200
vn 0.377100 -0.622000 0.686200
vn -0.226800 0.600900 -0.766500
usemtl Material
s off
f 34/1/1 3/2/1 4/3/1
f 8/4/2 7/2/2 36/5/2
f 34/6/3 36/1/3 7/2/3
f 35/6/4 33/1/4 4/2/4
f 6/7/5 5/3/5 1/2/5
f 12/7/6 11/4/6 10/2/6
f 19/2/7 17/3/7 9/3/7
f 20/7/8 18/4/8 11/4/8
f 17/3/9 20/7/9 12/7/9
f 19/2/10 10/2/10 11/4/10
f 1/2/11 14/2/11 15/4/11
f 5/3/12 6/7/12 16/7/12
f 6/7/13 2/4/13 15/4/13
f 5/3/14 13/3/14 14/2/14
f 24/4/15 21/2/15 19/2/15
f 22/7/16 20/7/16 17/3/16
f 22/7/17 24/4/17 18/4/17
f 23/3/18 17/3/18 19/2/18
f 14/2/19 13/3/19 23/3/19
f 15/4/20 24/4/20 22/7/20
f 13/3/21 16/7/21 22/7/21
f 14/2/22 21/2/22 24/4/22
f 28/3/23 27/2/23 34/1/23
f 36/5/24 31/2/24 32/4/24
f 34/6/25 27/3/25 31/2/25
f 32/3/26 28/2/26 33/1/26
f 30/7/27 26/4/27 25/2/27
f 37/3/28 38/2/28 39/4/28
f 47/2/29 38/2/29 37/3/29
f 48/7/30 40/7/30 39/4/30
f 37/3/31 40/7/31 48/7/31
f 39/4/32 38/2/32 47/2/32
f 43/4/33 42/2/33 25/2/33
f 29/3/34 41/3/34 44/7/34
f 44/7/35 43/4/35 26/4/35
f 42/2/36 41/3/36 29/3/36
f 52/4/37 46/4/37 47/2/37
f 51/3/38 45/3/38 48/7/38
f 48/7/39 46/4/39 52/4/39
f 47/2/40 45/3/40 51/3/40
f 42/2/41 49/2/41 51/3/41
f 50/7/42 52/4/42 43/4/42
f 51/3/43 50/7/43 44/7/43
f 43/4/44 52/4/44 49/2/44
f 33/6/45 34/1/45 4/3/45
f 35/8/46 8/4/46 36/5/46
f 3/3/47 34/6/47 7/2/47
f 8/3/48 35/6/48 4/2/48
f 2/4/49 6/7/49 1/2/49
f 9/3/6 12/7/6 10/2/6
f 10/2/7 19/2/7 9/3/7
f 12/7/8 20/7/8 11/4/8
f 9/3/9 17/3/9 12/7/9
f 18/4/10 19/2/10 11/4/10
f 2/4/50 1/2/50 15/4/50
f 13/3/51 5/3/51 16/7/51
f 16/7/52 6/7/52 15/4/52
f 1/2/53 5/3/53 14/2/53
f 18/4/15 24/4/15 19/2/15
f 23/3/16 22/7/16 17/3/16
f 20/7/17 22/7/17 18/4/17
f 21/2/18 23/3/18 19/2/18
f 21/2/54 14/2/54 23/3/54
f 16/7/55 15/4/55 22/7/55
f 23/3/56 13/3/56 22/7/56
f 15/4/57 14/2/57 24/4/57
f 33/6/58 28/3/58 34/1/58
f 35/8/59 36/5/59 32/4/59
f 36/1/60 34/6/60 31/2/60
f 35/6/61 32/3/61 33/1/61
f 29/3/27 30/7/27 25/2/27
f 40/7/28 37/3/28 39/4/28
f 45/3/29 47/2/29 37/3/29
f 46/4/30 48/7/30 39/4/30
f 45/3/31 37/3/31 48/7/31
f 46/4/32 39/4/32 47/2/32
f 26/4/33 43/4/33 25/2/33
f 30/7/34 29/3/34 44/7/34
f 30/7/35 44/7/35 26/4/35
f 25/2/36 42/2/36 29/3/36
f 49/2/37 52/4/37 47/2/37
f 50/7/38 51/3/38 48/7/38
f 50/7/39 48/7/39 52/4/39
f 49/2/40 47/2/40 51/3/40
f 41/3/62 42/2/62 51/3/62
f 44/7/63 50/7/63 43/4/63
f 41/3/64 51/3/64 44/7/64
f 42/2/65 43/4/65 49/2/65
