# Blender v2.76 (sub 0) OBJ File: 'handsBlock.blend'
# www.blender.org
mtllib handsBlock_000074.mtl
o Cube
v 0.551892 -0.095107 -1.963335
v 0.753743 0.052886 -2.400622
v 0.383452 -0.375499 -2.429589
v 0.659057 -0.530436 -2.178008
v 0.388015 -0.545738 -2.121054
v 0.577994 -0.398437 -2.564333
v 0.563954 0.089959 -2.355252
v 0.839577 -0.054922 -2.162822
v 4.033188 0.649881 0.551455
v 3.804894 0.815039 0.450455
v 3.973119 0.906998 0.220586
v 4.201413 0.741841 0.321586
v 2.948220 -1.853334 -0.976980
v 2.813804 -1.388777 -0.981866
v 3.137800 -1.240955 -1.517061
v 3.272160 -1.705528 -1.512208
v 3.913327 0.062903 0.516053
v 3.764753 0.698850 -0.302312
v 3.348669 0.471400 0.266242
v 4.329410 0.290355 -0.052500
v 3.410209 -0.033989 -0.137664
v 3.888881 -0.122352 -0.293234
v 3.685802 -0.233364 -0.015737
v 3.613288 0.077024 -0.415160
v -0.718202 0.084111 1.952372
v -0.439270 0.471804 2.134779
v -0.645397 0.112867 2.391136
v -0.546454 -0.148217 2.363261
v -0.707977 -0.139505 2.412015
v -0.429045 0.248188 2.594422
v -0.581159 0.470715 2.161354
v -0.482006 0.209708 2.133577
v 0.342731 -0.353772 0.003799
v -0.349472 -0.349472 -0.000446
v 0.401680 0.269716 0.055728
v -0.260755 0.405917 -0.056498
v 3.799263 0.637815 0.159785
v 3.631765 0.603235 -0.085867
v 3.448895 0.820732 0.008205
v 3.616393 0.855313 0.253856
v 1.769751 -1.670895 1.687478
v 1.756807 -1.387819 1.105618
v 2.109906 -0.897041 1.336526
v 2.122851 -1.180116 1.918386
v 3.770223 0.155802 0.516130
v 2.903632 0.608224 0.141216
v 3.355939 0.070270 -0.091461
v 3.317917 0.693755 0.748806
v 3.014646 -0.171106 0.406136
v 2.996089 0.133200 0.816246
v 3.216847 -0.129361 0.702683
v 2.793889 0.091454 0.519698
vt 1.000000 0.500000
vt 1.000000 1.000000
vt 0.000000 1.000000
vt 1.000000 0.000000
vt 0.500000 1.000000
vt 0.000000 0.500000
vt 0.000000 0.000000
vt 0.500000 0.000000
vn -0.406600 -0.906600 -0.113000
vn 0.444800 0.894900 0.036600
vn -0.934200 0.084000 -0.346700
vn 0.920800 -0.354700 0.162200
vn -0.881200 0.405500 -0.242900
vn 0.320100 0.775400 0.544400
vn -0.389800 0.024100 0.920600
vn 0.642700 0.588500 -0.490400
vn 0.827100 -0.200600 0.525100
vn -0.574200 0.813200 -0.094900
vn 0.305800 0.854000 0.421000
vn -0.266300 -0.874800 -0.404800
vn 0.418700 0.161100 -0.893700
vn -0.456500 -0.122800 0.881200
vn -0.824000 0.289100 -0.487300
vn 0.628800 -0.761900 0.155400
vn 0.437700 0.056200 -0.897400
vn -0.632800 -0.529000 0.565400
vn -0.620500 -0.171500 0.765200
vn 0.590600 0.381500 -0.711100
vn 0.774700 -0.546600 0.317900
vn -0.764200 0.548200 -0.339900
vn -0.935700 -0.349500 -0.048200
vn 0.931900 0.340700 0.124700
vn -0.986400 0.087800 -0.139000
vn 0.935900 0.054800 0.347900
vn -0.837800 0.483400 0.253800
vn 0.560000 0.677200 -0.477200
vn 0.782500 -0.400000 -0.477200
vn -0.340000 0.935100 0.100200
vn 0.735300 0.373700 0.565400
vn -0.292800 0.161400 -0.942400
vn -0.039000 0.448200 -0.893100
vn 0.001000 -0.426300 0.904600
vn 0.526500 0.769100 0.362400
vn -0.564400 -0.747200 -0.350900
vn -0.703700 -0.316500 -0.636200
vn 0.362200 -0.096400 0.927100
vn -0.752600 0.485600 0.444800
vn 0.411100 -0.898500 -0.153900
vn 0.578700 -0.763300 -0.287100
vn -0.627600 0.705800 0.328600
vn 0.631200 0.207500 0.747300
vn -0.622400 -0.195500 -0.757900
vn -0.006700 -0.996800 0.079700
vn 0.216500 0.971200 -0.099400
vn -0.882300 0.385300 -0.270300
vn 0.972000 -0.109200 0.207800
vn -0.866400 0.429700 -0.254500
vn 0.642700 0.588600 -0.490400
vn 0.303300 0.851300 0.428100
vn -0.266900 -0.875300 -0.403200
vn 0.406700 0.108200 -0.907100
vn -0.460200 -0.139500 0.876800
vn -0.541600 -0.259700 0.799500
vn 0.738200 0.206800 -0.642100
vn 0.763800 -0.549100 0.339300
vn -0.775000 0.545800 -0.318400
vn -0.006700 -0.996400 0.084300
vn 0.183000 0.977400 0.106000
vn -0.983800 0.104800 -0.145200
vn 0.915000 -0.118600 0.385700
vn 0.560000 0.677300 -0.477200
vn 0.542700 -0.750400 -0.377200
vn -0.611300 0.706200 0.357200
vn 0.767200 -0.623300 0.151600
vn -0.738900 0.636100 -0.222200
usemtl Material
s off
f 34/1/1 3/2/1 4/3/1
f 8/4/2 7/2/2 36/5/2
f 34/6/3 36/1/3 7/2/3
f 33/1/4 4/2/4 8/3/4
f 6/7/5 5/3/5 1/2/5
f 11/4/6 10/2/6 9/3/6
f 19/2/7 17/3/7 9/3/7
f 20/7/8 18/4/8 11/4/8
f 20/7/9 12/7/9 9/3/9
f 19/2/10 10/2/10 11/4/10
f 1/2/11 14/2/11 15/4/11
f 5/3/12 6/7/12 16/7/12
f 6/7/13 2/4/13 15/4/13
f 5/3/14 13/3/14 14/2/14
f 21/2/15 19/2/15 18/4/15
f 23/3/16 22/7/16 20/7/16
f 24/4/17 18/4/17 20/7/17
f 23/3/18 17/3/18 19/2/18
f 14/2/19 13/3/19 23/3/19
f 15/4/20 24/4/20 22/7/20
f 13/3/21 16/7/21 22/7/21
f 14/2/22 21/2/22 24/4/22
f 28/3/23 27/2/23 34/1/23
f 36/5/24 31/2/24 32/4/24
f 34/6/25 27/3/25 31/2/25
f 32/3/26 28/2/26 33/1/26
f 26/4/27 25/2/27 29/3/27
f 40/7/28 37/3/28 38/2/28
f 47/2/29 38/2/29 37/3/29
f 48/7/30 40/7/30 39/4/30
f 37/3/31 40/7/31 48/7/31
f 39/4/32 38/2/32 47/2/32
f 43/4/33 42/2/33 25/2/33
f 41/3/34 44/7/34 30/7/34
f 30/7/35 44/7/35 43/4/35
f 42/2/36 41/3/36 29/3/36
f 52/4/37 46/4/37 47/2/37
f 51/3/38 45/3/38 48/7/38
f 50/7/39 48/7/39 46/4/39
f 47/2/40 45/3/40 51/3/40
f 42/2/41 49/2/41 51/3/41
f 50/7/42 52/4/42 43/4/42
f 51/3/43 50/7/43 44/7/43
f 43/4/44 52/4/44 49/2/44
f 33/6/45 34/1/45 4/3/45
f 35/8/46 8/4/46 36/5/46
f 3/3/47 34/6/47 7/2/47
f 35/6/48 33/1/48 8/3/48
f 2/4/49 6/7/49 1/2/49
f 12/7/6 11/4/6 9/3/6
f 10/2/7 19/2/7 9/3/7
f 12/7/50 20/7/50 11/4/50
f 17/3/9 20/7/9 9/3/9
f 18/4/10 19/2/10 11/4/10
f 2/4/51 1/2/51 15/4/51
f 13/3/52 5/3/52 16/7/52
f 16/7/53 6/7/53 15/4/53
f 1/2/54 5/3/54 14/2/54
f 24/4/15 21/2/15 18/4/15
f 17/3/16 23/3/16 20/7/16
f 22/7/17 24/4/17 20/7/17
f 21/2/18 23/3/18 19/2/18
f 21/2/55 14/2/55 23/3/55
f 16/7/56 15/4/56 22/7/56
f 23/3/57 13/3/57 22/7/57
f 15/4/58 14/2/58 24/4/58
f 33/6/59 28/3/59 34/1/59
f 35/8/60 36/5/60 32/4/60
f 36/1/61 34/6/61 31/2/61
f 35/6/62 32/3/62 33/1/62
f 30/7/27 26/4/27 29/3/27
f 39/4/63 40/7/63 38/2/63
f 45/3/29 47/2/29 37/3/29
f 46/4/30 48/7/30 39/4/30
f 45/3/31 37/3/31 48/7/31
f 46/4/32 39/4/32 47/2/32
f 26/4/33 43/4/33 25/2/33
f 29/3/34 41/3/34 30/7/34
f 26/4/35 30/7/35 43/4/35
f 25/2/36 42/2/36 29/3/36
f 49/2/37 52/4/37 47/2/37
f 50/7/38 51/3/38 48/7/38
f 52/4/39 50/7/39 46/4/39
f 49/2/40 47/2/40 51/3/40
f 41/3/64 42/2/64 51/3/64
f 44/7/65 50/7/65 43/4/65
f 41/3/66 51/3/66 44/7/66
f 42/2/67 43/4/67 49/2/67
