# Blender v2.76 (sub 0) OBJ File: 'handsAttack.blend'
# www.blender.org
mtllib handsAttack_000003.mtl
o Cube
v 0.576190 -0.075555 -2.013697
v 0.682329 -0.024093 -2.503050
v 0.223405 -0.368718 -2.429171
v 0.567281 -0.510221 -2.199321
v 0.245936 -0.454024 -2.062304
v 0.339229 -0.399651 -2.554227
v 0.479586 0.062104 -2.409391
v 0.761751 -0.040936 -2.198990
v 4.645823 -0.379126 -0.544428
v 4.456031 -0.155410 -0.603813
v 4.572189 -0.129777 -0.878487
v 4.761981 -0.353492 -0.819103
v 2.501189 -2.476308 -1.421725
v 2.514529 -1.996756 -1.453222
v 2.704185 -1.984714 -2.067002
v 2.690779 -2.464265 -2.035521
v 4.357111 -0.900636 -0.474891
v 4.174988 -0.283901 -1.301145
v 3.887684 -0.347303 -0.621771
v 4.644415 -0.837235 -1.154267
v 3.685385 -0.862770 -0.961937
v 4.054724 -1.101892 -1.221833
v 3.914500 -1.132836 -0.890250
v 3.825610 -0.831825 -1.293521
v -0.519996 0.107600 1.942408
v -0.242176 0.430656 2.224953
v -0.573422 0.074217 2.439121
v -0.470334 -0.152340 2.348644
v -0.675007 -0.130725 2.367324
v -0.397187 0.192331 2.649869
v -0.429263 0.440152 2.224685
v -0.325968 0.213655 2.134326
v 0.343047 -0.353721 0.003209
v -0.349472 -0.349472 -0.000446
v 0.402945 0.271287 0.043782
v -0.265018 0.405219 -0.048641
v 4.411397 -0.199096 1.516786
v 4.319277 -0.190299 1.232124
v 4.164059 0.058993 1.290058
v 4.256178 0.050197 1.574720
v 1.615852 -2.062971 2.201069
v 1.812079 -1.761276 1.663170
v 2.163772 -1.352320 2.020842
v 1.967544 -1.654016 2.558742
v 4.184567 -0.672636 1.807426
v 3.572808 -0.034282 1.246641
v 3.956721 -0.650878 1.103348
v 3.800654 -0.056039 1.950719
v 3.444474 -0.825859 1.462972
v 3.368302 -0.535535 1.876550
v 3.555680 -0.836478 1.806613
v 3.257097 -0.524915 1.532908
vt 1.000000 0.500000
vt 1.000000 1.000000
vt 0.000000 1.000000
vt 1.000000 0.000000
vt 0.500000 1.000000
vt 0.000000 0.000000
vt 0.000000 0.500000
vt 0.500000 0.000000
vn -0.337900 -0.938400 -0.072300
vn 0.357900 0.933500 -0.022800
vn -0.805900 0.494200 -0.326000
vn 0.917100 -0.380100 0.120400
vn -0.747300 0.660900 -0.068700
vn 0.668900 0.658800 0.344300
vn -0.092300 0.181600 0.979000
vn 0.620700 0.339000 -0.707000
vn 0.846700 -0.426300 0.318300
vn -0.318200 0.946900 -0.046200
vn 0.654900 0.724000 0.216600
vn -0.620800 -0.757700 -0.201500
vn 0.181300 -0.031700 -0.982900
vn -0.214000 0.069900 0.974300
vn -0.807800 0.511000 -0.293900
vn 0.400000 -0.912700 0.084000
vn 0.165700 -0.119300 -0.978900
vn -0.573500 -0.282400 0.769000
vn -0.409600 0.071100 0.909500
vn 0.452100 0.150100 -0.879200
vn 0.638200 -0.747900 0.182500
vn -0.637100 0.744400 -0.199900
vn -0.912000 -0.410000 -0.012500
vn 0.917000 0.394200 0.060200
vn -0.946400 0.292200 -0.137600
vn 0.926700 -0.168800 0.335900
vn -0.782800 0.619200 0.061700
vn 0.797700 0.552700 -0.241100
vn 0.791500 -0.546700 -0.273000
vn -0.161200 0.983500 0.082600
vn 0.597900 0.191400 0.778400
vn 0.032400 0.245400 -0.968900
vn 0.285400 0.480100 -0.829500
vn -0.320900 -0.452000 0.832300
vn 0.525500 0.645800 0.553900
vn -0.561000 -0.617700 -0.551100
vn -0.536300 -0.140500 -0.832300
vn 0.049900 -0.196500 0.979200
vn -0.737100 0.624700 0.257800
vn 0.250700 -0.961700 -0.110800
vn 0.472400 -0.862900 -0.179500
vn -0.533700 0.822100 0.198100
vn 0.409400 0.043100 0.911300
vn -0.389300 -0.028500 -0.920700
vn -0.006500 -0.997500 0.070200
vn 0.209100 0.972600 -0.101900
vn -0.968800 0.093800 -0.229300
vn 0.979600 -0.105000 0.171300
vn -0.729600 0.678400 -0.086900
vn 0.654700 0.723700 0.218100
vn -0.620100 -0.756900 -0.206400
vn 0.156700 -0.069100 -0.985200
vn -0.217500 0.064700 0.973900
vn -0.347800 -0.046500 0.936400
vn 0.561600 -0.069800 -0.824500
vn 0.634900 -0.746600 0.198800
vn -0.640400 0.745900 -0.183200
vn -0.006600 -0.996500 0.083300
vn 0.183700 0.978800 0.091000
vn -0.991600 0.106300 -0.073300
vn 0.939400 -0.111100 0.324500
vn 0.466400 -0.833200 -0.297200
vn -0.518900 0.812300 0.266300
vn 0.551400 -0.765100 0.332600
vn -0.492100 0.773100 -0.400100
usemtl Material
s off
f 34/1/1 3/2/1 4/3/1
f 8/4/2 7/2/2 36/5/2
f 36/1/3 7/2/3 3/3/3
f 33/1/4 4/2/4 8/3/4
f 6/6/5 5/3/5 1/2/5
f 12/6/6 11/4/6 10/2/6
f 17/3/7 9/3/7 10/2/7
f 20/6/8 18/4/8 11/4/8
f 17/3/9 20/6/9 12/6/9
f 19/2/10 10/2/10 11/4/10
f 1/2/11 14/2/11 15/4/11
f 5/3/12 6/6/12 16/6/12
f 6/6/13 2/4/13 15/4/13
f 5/3/14 13/3/14 14/2/14
f 21/2/15 19/2/15 18/4/15
f 23/3/16 22/6/16 20/6/16
f 24/4/17 18/4/17 20/6/17
f 23/3/18 17/3/18 19/2/18
f 14/2/19 13/3/19 23/3/19
f 15/4/20 24/4/20 22/6/20
f 13/3/21 16/6/21 22/6/21
f 14/2/22 21/2/22 24/4/22
f 28/3/23 27/2/23 34/1/23
f 36/5/24 31/2/24 32/4/24
f 34/7/25 27/3/25 31/2/25
f 32/3/26 28/2/26 33/1/26
f 26/4/27 25/2/27 29/3/27
f 37/3/28 38/2/28 39/4/28
f 38/2/29 37/3/29 45/3/29
f 48/6/30 40/6/30 39/4/30
f 45/3/31 37/3/31 40/6/31
f 39/4/32 38/2/32 47/2/32
f 43/4/33 42/2/33 25/2/33
f 41/3/34 44/6/34 30/6/34
f 44/6/35 43/4/35 26/4/35
f 42/2/36 41/3/36 29/3/36
f 52/4/37 46/4/37 47/2/37
f 51/3/38 45/3/38 48/6/38
f 50/6/39 48/6/39 46/4/39
f 47/2/40 45/3/40 51/3/40
f 42/2/41 49/2/41 51/3/41
f 50/6/42 52/4/42 43/4/42
f 51/3/43 50/6/43 44/6/43
f 43/4/44 52/4/44 49/2/44
f 33/7/45 34/1/45 4/3/45
f 35/8/46 8/4/46 36/5/46
f 34/7/47 36/1/47 3/3/47
f 35/7/48 33/1/48 8/3/48
f 2/4/49 6/6/49 1/2/49
f 9/3/6 12/6/6 10/2/6
f 19/2/7 17/3/7 10/2/7
f 12/6/8 20/6/8 11/4/8
f 9/3/9 17/3/9 12/6/9
f 18/4/10 19/2/10 11/4/10
f 2/4/50 1/2/50 15/4/50
f 13/3/51 5/3/51 16/6/51
f 16/6/52 6/6/52 15/4/52
f 1/2/53 5/3/53 14/2/53
f 24/4/15 21/2/15 18/4/15
f 17/3/16 23/3/16 20/6/16
f 22/6/17 24/4/17 20/6/17
f 21/2/18 23/3/18 19/2/18
f 21/2/54 14/2/54 23/3/54
f 16/6/55 15/4/55 22/6/55
f 23/3/56 13/3/56 22/6/56
f 15/4/57 14/2/57 24/4/57
f 33/7/58 28/3/58 34/1/58
f 35/8/59 36/5/59 32/4/59
f 36/1/60 34/7/60 31/2/60
f 35/7/61 32/3/61 33/1/61
f 30/6/27 26/4/27 29/3/27
f 40/6/28 37/3/28 39/4/28
f 47/2/29 38/2/29 45/3/29
f 46/4/30 48/6/30 39/4/30
f 48/6/31 45/3/31 40/6/31
f 46/4/32 39/4/32 47/2/32
f 26/4/33 43/4/33 25/2/33
f 29/3/34 41/3/34 30/6/34
f 30/6/35 44/6/35 26/4/35
f 25/2/36 42/2/36 29/3/36
f 49/2/37 52/4/37 47/2/37
f 50/6/38 51/3/38 48/6/38
f 52/4/39 50/6/39 46/4/39
f 49/2/40 47/2/40 51/3/40
f 41/3/62 42/2/62 51/3/62
f 44/6/63 50/6/63 43/4/63
f 41/3/64 51/3/64 44/6/64
f 42/2/65 43/4/65 49/2/65
