# Blender v2.76 (sub 0) OBJ File: 'handsAttack.blend'
# www.blender.org
mtllib handsAttack_000008.mtl
o Cube
v 0.062575 -0.019772 -2.097412
v 0.044263 0.051574 -2.592265
v -0.385707 -0.297422 -2.419199
v 0.007917 -0.440447 -2.285885
v -0.274923 -0.393337 -2.077657
v -0.306925 -0.319353 -2.570801
v -0.133314 0.133266 -2.449310
v 0.191062 0.031642 -2.319362
v 4.222819 -0.322300 -1.485890
v 4.011111 -0.111781 -1.464509
v 4.051693 -0.041704 -1.752672
v 4.263402 -0.252223 -1.774053
v 2.044460 -2.462042 -2.089354
v 2.039318 -1.999652 -2.079944
v 2.067757 -1.928395 -2.714725
v 2.072829 -2.390786 -2.724128
v 3.993136 -0.873184 -1.423152
v 3.569876 -0.179162 -2.083008
v 3.469500 -0.352490 -1.370271
v 4.093513 -0.699856 -2.135890
v 3.218457 -0.838802 -1.720733
v 3.523021 -1.008341 -2.094409
v 3.474030 -1.092937 -1.746542
v 3.267449 -0.754205 -2.068600
v 0.200113 -0.007847 1.975895
v 0.438254 0.361911 2.236563
v 0.153748 -0.014632 2.510835
v 0.283909 -0.248666 2.351583
v 0.089557 -0.245928 2.414615
v 0.327698 0.123831 2.675283
v 0.257137 0.355220 2.280455
v 0.387498 0.121268 2.121269
v 0.344342 -0.353292 -0.000667
v -0.349472 -0.349472 -0.000446
v 0.398194 0.282319 -0.029237
v -0.282575 0.399341 0.003066
v 5.530000 -0.233343 1.642198
v 5.447797 -0.231217 1.354389
v 5.313161 0.033049 1.394794
v 5.395364 0.030923 1.682604
v 2.617383 -1.856646 2.256737
v 2.757335 -1.555259 1.701363
v 3.058797 -1.087183 2.031342
v 2.918846 -1.388570 2.586717
v 5.253978 -0.670359 1.947142
v 4.717651 -0.011472 1.335220
v 5.050657 -0.665102 1.235280
v 4.920972 -0.016729 2.047081
v 4.514304 -0.777146 1.584731
v 4.451007 -0.460693 1.980947
v 4.613539 -0.779712 1.932170
v 4.351774 -0.458128 1.633508
vt 1.000000 0.500000
vt 1.000000 1.000000
vt 0.000000 1.000000
vt 1.000000 0.000000
vt 0.500000 1.000000
vt 0.000000 0.500000
vt 0.000000 0.000000
vt 0.500000 0.000000
vn -0.336900 -0.941400 -0.015200
vn 0.327800 0.941200 -0.082200
vn -0.993600 0.089100 -0.070100
vn 0.922400 -0.366500 -0.121800
vn -0.730000 0.667300 0.147500
vn 0.693800 0.671200 0.260900
vn 0.149600 0.050100 0.987500
vn 0.398700 0.480300 -0.781300
vn 0.923800 -0.380900 0.037500
vn -0.375600 0.911300 0.168700
vn 0.702900 0.702700 0.110400
vn -0.657500 -0.750200 -0.069900
vn -0.060700 -0.000300 -0.998200
vn -0.013200 -0.020500 0.999700
vn -0.885100 0.465200 -0.011500
vn 0.462100 -0.874500 -0.147600
vn -0.082400 0.018400 -0.996400
vn -0.340600 -0.427600 0.837300
vn -0.212900 -0.022200 0.976800
vn 0.206000 0.301700 -0.930900
vn 0.700200 -0.712300 -0.048700
vn -0.710600 0.700100 0.070200
vn -0.773500 -0.589100 0.233600
vn 0.802500 0.569100 -0.179200
vn -0.927600 0.346300 0.139700
vn 0.967900 -0.248700 0.035900
vn -0.858100 0.510000 0.060500
vn 0.849900 0.469600 -0.239300
vn 0.749000 -0.625500 -0.218500
vn -0.077500 0.996600 0.029500
vn 0.588000 0.179000 0.788800
vn 0.083500 0.192000 -0.977800
vn 0.196800 0.477100 -0.856500
vn -0.235600 -0.454000 0.859300
vn 0.446200 0.734600 0.511100
vn -0.485100 -0.711500 -0.508400
vn -0.520600 -0.136400 -0.842800
vn 0.002500 -0.149900 0.988700
vn -0.687500 0.697700 0.201500
vn 0.169300 -0.984000 -0.055600
vn 0.395400 -0.910700 -0.119700
vn -0.403600 0.906800 0.122000
vn 0.349200 0.034700 0.936400
vn -0.292800 -0.003000 -0.956200
vn -0.005500 -0.999200 0.038900
vn 0.162500 0.979100 -0.121900
vn -0.861800 0.506700 0.023800
vn 0.992900 -0.087700 -0.080200
vn -0.716800 0.685900 0.125400
vn 0.149500 0.050100 0.987500
vn 0.699700 0.710300 0.076500
vn -0.661700 -0.741200 -0.112800
vn -0.047100 0.019800 -0.998700
vn 0.023100 0.031900 0.999200
vn -0.100200 -0.199800 0.974700
vn 0.379700 0.023000 -0.924800
vn 0.699000 -0.711200 -0.074500
vn -0.711500 0.701200 0.046800
vn -0.005500 -0.999000 0.044300
vn 0.172400 0.982200 0.074400
vn -0.969100 0.085500 0.231300
vn 0.996400 -0.084500 -0.001400
vn 0.397500 -0.844800 -0.358300
vn -0.370200 0.852400 0.369300
vn 0.462800 -0.690200 0.556200
vn -0.343700 0.678800 -0.648900
usemtl Material
s off
f 34/1/1 3/2/1 4/3/1
f 8/4/2 7/2/2 36/5/2
f 34/6/3 36/1/3 7/2/3
f 33/1/4 4/2/4 8/3/4
f 6/7/5 5/3/5 1/2/5
f 11/4/6 10/2/6 9/3/6
f 17/3/7 9/3/7 10/2/7
f 18/4/8 11/4/8 12/7/8
f 17/3/9 20/7/9 12/7/9
f 19/2/10 10/2/10 11/4/10
f 1/2/11 14/2/11 15/4/11
f 5/3/12 6/7/12 16/7/12
f 6/7/13 2/4/13 15/4/13
f 5/3/14 13/3/14 14/2/14
f 24/4/15 21/2/15 19/2/15
f 22/7/16 20/7/16 17/3/16
f 24/4/17 18/4/17 20/7/17
f 23/3/18 17/3/18 19/2/18
f 14/2/19 13/3/19 23/3/19
f 15/4/20 24/4/20 22/7/20
f 13/3/21 16/7/21 22/7/21
f 14/2/22 21/2/22 24/4/22
f 28/3/23 27/2/23 34/1/23
f 36/5/24 31/2/24 32/4/24
f 34/6/25 27/3/25 31/2/25
f 32/3/26 28/2/26 33/1/26
f 30/7/27 26/4/27 25/2/27
f 40/7/28 37/3/28 38/2/28
f 38/2/29 37/3/29 45/3/29
f 40/7/30 39/4/30 46/4/30
f 37/3/31 40/7/31 48/7/31
f 39/4/32 38/2/32 47/2/32
f 43/4/33 42/2/33 25/2/33
f 41/3/34 44/7/34 30/7/34
f 30/7/35 44/7/35 43/4/35
f 42/2/36 41/3/36 29/3/36
f 52/4/37 46/4/37 47/2/37
f 51/3/38 45/3/38 48/7/38
f 48/7/39 46/4/39 52/4/39
f 47/2/40 45/3/40 51/3/40
f 42/2/41 49/2/41 51/3/41
f 50/7/42 52/4/42 43/4/42
f 51/3/43 50/7/43 44/7/43
f 43/4/44 52/4/44 49/2/44
f 33/6/45 34/1/45 4/3/45
f 35/8/46 8/4/46 36/5/46
f 3/3/47 34/6/47 7/2/47
f 35/6/48 33/1/48 8/3/48
f 2/4/49 6/7/49 1/2/49
f 12/7/6 11/4/6 9/3/6
f 19/2/50 17/3/50 10/2/50
f 20/7/8 18/4/8 12/7/8
f 9/3/9 17/3/9 12/7/9
f 18/4/10 19/2/10 11/4/10
f 2/4/51 1/2/51 15/4/51
f 13/3/52 5/3/52 16/7/52
f 16/7/53 6/7/53 15/4/53
f 1/2/54 5/3/54 14/2/54
f 18/4/15 24/4/15 19/2/15
f 23/3/16 22/7/16 17/3/16
f 22/7/17 24/4/17 20/7/17
f 21/2/18 23/3/18 19/2/18
f 21/2/55 14/2/55 23/3/55
f 16/7/56 15/4/56 22/7/56
f 23/3/57 13/3/57 22/7/57
f 15/4/58 14/2/58 24/4/58
f 33/6/59 28/3/59 34/1/59
f 35/8/60 36/5/60 32/4/60
f 36/1/61 34/6/61 31/2/61
f 35/6/62 32/3/62 33/1/62
f 29/3/27 30/7/27 25/2/27
f 39/4/28 40/7/28 38/2/28
f 47/2/29 38/2/29 45/3/29
f 48/7/30 40/7/30 46/4/30
f 45/3/31 37/3/31 48/7/31
f 46/4/32 39/4/32 47/2/32
f 26/4/33 43/4/33 25/2/33
f 29/3/34 41/3/34 30/7/34
f 26/4/35 30/7/35 43/4/35
f 25/2/36 42/2/36 29/3/36
f 49/2/37 52/4/37 47/2/37
f 50/7/38 51/3/38 48/7/38
f 50/7/39 48/7/39 52/4/39
f 49/2/40 47/2/40 51/3/40
f 41/3/63 42/2/63 51/3/63
f 44/7/64 50/7/64 43/4/64
f 41/3/65 51/3/65 44/7/65
f 42/2/66 43/4/66 49/2/66
