# Blender v2.76 (sub 0) OBJ File: 'handsAttack.blend'
# www.blender.org
mtllib handsAttack_000042.mtl
o Cube
v -0.266337 0.011728 -2.083196
v -0.361965 0.094004 -2.565220
v -0.761263 -0.258858 -2.333459
v -0.349286 -0.400979 -2.266418
v -0.599699 -0.359751 -2.018621
v -0.708854 -0.275158 -2.496169
v -0.517618 0.172428 -2.394641
v -0.177503 0.073234 -2.319426
v 3.867651 -0.293325 -1.995175
v 3.656363 -0.094407 -1.921794
v 3.648726 0.001982 -2.205073
v 3.860014 -0.196935 -2.278454
v 1.675440 -2.445463 -2.437142
v 1.668021 -1.996694 -2.401912
v 1.594270 -1.890704 -3.025130
v 1.601619 -2.339475 -3.060341
v 3.665971 -0.856618 -1.948405
v 3.124483 -0.126212 -2.467560
v 3.143374 -0.364618 -1.766905
v 3.647080 -0.618211 -2.649060
v 2.853210 -0.828744 -2.117243
v 3.099055 -0.952515 -2.547798
v 3.108275 -1.068874 -2.205828
v 2.843990 -0.712384 -2.459213
v 0.657656 -0.048395 1.875661
v 0.864779 0.343050 2.131104
v 0.619427 -0.049949 2.435392
v 0.756012 -0.283217 2.228383
v 0.576054 -0.293220 2.317003
v 0.783177 0.098225 2.572445
v 0.695211 0.325318 2.201195
v 0.831983 0.092144 1.994224
v 0.344555 -0.352927 -0.003254
v -0.349472 -0.349472 -0.000446
v 0.384183 0.290226 -0.073475
v -0.285547 0.394362 0.037644
v 6.199513 -0.202842 1.547728
v 6.118722 -0.200007 1.259524
v 5.998922 0.071892 1.295782
v 6.079714 0.069058 1.583985
v 3.238328 -1.666240 2.126330
v 3.341628 -1.356316 1.567637
v 3.603824 -0.860786 1.891001
v 3.500525 -1.170710 2.449694
v 5.898240 -0.619594 1.857105
v 5.402099 0.059928 1.233951
v 5.698411 -0.612582 1.144271
v 5.601927 0.052917 1.946784
v 5.155220 -0.689747 1.492600
v 5.108129 -0.364936 1.884284
v 5.252750 -0.693169 1.840514
v 5.010599 -0.361513 1.536370
vt 1.000000 0.500000
vt 1.000000 1.000000
vt 0.000000 1.000000
vt 1.000000 0.000000
vt 0.500000 1.000000
vt 0.000000 0.500000
vt 0.000000 0.000000
vt 0.500000 0.000000
vn -0.329200 -0.944000 0.021400
vn 0.301500 0.946500 -0.115100
vn -0.992900 0.080900 0.087400
vn 0.896100 -0.354500 -0.267200
vn -0.690900 0.668100 0.276300
vn 0.707900 0.674300 0.210400
vn 0.303100 -0.029400 0.952500
vn 0.256200 0.562200 -0.786300
vn 0.928100 -0.344100 -0.142100
vn -0.368800 0.876900 0.308300
vn 0.722400 0.690700 0.032000
vn -0.663500 -0.747900 0.019200
vn -0.212500 0.016900 -0.977000
vn 0.112700 -0.075900 0.990700
vn -0.888100 0.427400 0.169400
vn 0.456500 -0.838500 -0.297600
vn -0.240100 0.101100 -0.965500
vn -0.191500 -0.512200 0.837200
vn -0.084100 -0.079400 0.993300
vn 0.048200 0.390400 -0.919400
vn 0.701700 -0.683900 -0.199400
vn -0.709800 0.660800 0.244000
vn -0.647100 -0.681700 0.341200
vn 0.689500 0.663100 -0.291400
vn -0.878800 0.367400 0.304400
vn 0.941800 -0.293200 -0.164500
vn -0.900200 0.429500 0.071800
vn 0.875800 0.418000 -0.241400
vn 0.713700 -0.669300 -0.206600
vn -0.021700 0.999600 0.015900
vn 0.593900 0.156500 0.789100
vn 0.098000 0.173900 -0.979900
vn 0.139200 0.488500 -0.861400
vn -0.180000 -0.469000 0.864700
vn 0.384600 0.775200 0.501100
vn -0.425400 -0.755700 -0.497900
vn -0.524000 -0.118400 -0.843400
vn -0.009900 -0.136500 0.990600
vn -0.648200 0.737700 0.189000
vn 0.114200 -0.992600 -0.041800
vn 0.339300 -0.934900 -0.104300
vn -0.311200 0.945400 0.096500
vn 0.324300 0.016700 0.945800
vn -0.250600 0.018600 -0.967900
vn -0.004900 -0.999700 0.022700
vn 0.131600 0.983000 -0.127900
vn -0.847700 0.502900 0.169100
vn 0.968500 -0.085200 -0.234000
vn -0.681100 0.687300 0.252400
vn 0.709700 0.704200 -0.020600
vn -0.679500 -0.732400 -0.044100
vn -0.173500 0.074200 -0.982000
vn 0.175900 0.013200 0.984300
vn 0.057600 -0.291200 0.954900
vn 0.255900 0.079800 -0.963400
vn 0.691600 -0.677900 -0.249300
vn -0.718400 0.666700 0.198400
vn -0.004800 -0.999500 0.032100
vn 0.162900 0.984900 0.059100
vn -0.908600 0.056900 0.413700
vn 0.972200 -0.083800 -0.218600
vn 0.875800 0.418100 -0.241400
vn 0.350800 -0.844900 -0.403800
vn -0.281600 0.860200 0.425100
vn 0.402100 -0.640000 0.654800
vn -0.258600 0.620100 -0.740700
usemtl Material
s off
f 34/1/1 3/2/1 4/3/1
f 8/4/2 7/2/2 36/5/2
f 34/6/3 36/1/3 7/2/3
f 33/1/4 4/2/4 8/3/4
f 6/7/5 5/3/5 1/2/5
f 11/4/6 10/2/6 9/3/6
f 17/3/7 9/3/7 10/2/7
f 20/7/8 18/4/8 11/4/8
f 17/3/9 20/7/9 12/7/9
f 19/2/10 10/2/10 11/4/10
f 1/2/11 14/2/11 15/4/11
f 5/3/12 6/7/12 16/7/12
f 6/7/13 2/4/13 15/4/13
f 5/3/14 13/3/14 14/2/14
f 21/2/15 19/2/15 18/4/15
f 23/3/16 22/7/16 20/7/16
f 22/7/17 24/4/17 18/4/17
f 23/3/18 17/3/18 19/2/18
f 14/2/19 13/3/19 23/3/19
f 15/4/20 24/4/20 22/7/20
f 13/3/21 16/7/21 22/7/21
f 14/2/22 21/2/22 24/4/22
f 28/3/23 27/2/23 34/1/23
f 36/5/24 31/2/24 32/4/24
f 34/6/25 27/3/25 31/2/25
f 32/3/26 28/2/26 33/1/26
f 26/4/27 25/2/27 29/3/27
f 40/7/28 37/3/28 38/2/28
f 47/2/29 38/2/29 37/3/29
f 48/7/30 40/7/30 39/4/30
f 37/3/31 40/7/31 48/7/31
f 39/4/32 38/2/32 47/2/32
f 43/4/33 42/2/33 25/2/33
f 41/3/34 44/7/34 30/7/34
f 30/7/35 44/7/35 43/4/35
f 42/2/36 41/3/36 29/3/36
f 46/4/37 47/2/37 49/2/37
f 51/3/38 45/3/38 48/7/38
f 50/7/39 48/7/39 46/4/39
f 47/2/40 45/3/40 51/3/40
f 42/2/41 49/2/41 51/3/41
f 50/7/42 52/4/42 43/4/42
f 51/3/43 50/7/43 44/7/43
f 43/4/44 52/4/44 49/2/44
f 33/6/45 34/1/45 4/3/45
f 35/8/46 8/4/46 36/5/46
f 3/3/47 34/6/47 7/2/47
f 35/6/48 33/1/48 8/3/48
f 2/4/49 6/7/49 1/2/49
f 12/7/6 11/4/6 9/3/6
f 19/2/7 17/3/7 10/2/7
f 12/7/8 20/7/8 11/4/8
f 9/3/9 17/3/9 12/7/9
f 18/4/10 19/2/10 11/4/10
f 2/4/50 1/2/50 15/4/50
f 13/3/51 5/3/51 16/7/51
f 16/7/52 6/7/52 15/4/52
f 1/2/53 5/3/53 14/2/53
f 24/4/15 21/2/15 18/4/15
f 17/3/16 23/3/16 20/7/16
f 20/7/17 22/7/17 18/4/17
f 21/2/18 23/3/18 19/2/18
f 21/2/54 14/2/54 23/3/54
f 16/7/55 15/4/55 22/7/55
f 23/3/56 13/3/56 22/7/56
f 15/4/57 14/2/57 24/4/57
f 33/6/58 28/3/58 34/1/58
f 35/8/59 36/5/59 32/4/59
f 36/1/60 34/6/60 31/2/60
f 35/6/61 32/3/61 33/1/61
f 30/7/27 26/4/27 29/3/27
f 39/4/62 40/7/62 38/2/62
f 45/3/29 47/2/29 37/3/29
f 46/4/30 48/7/30 39/4/30
f 45/3/31 37/3/31 48/7/31
f 46/4/32 39/4/32 47/2/32
f 26/4/33 43/4/33 25/2/33
f 29/3/34 41/3/34 30/7/34
f 26/4/35 30/7/35 43/4/35
f 25/2/36 42/2/36 29/3/36
f 52/4/37 46/4/37 49/2/37
f 50/7/38 51/3/38 48/7/38
f 52/4/39 50/7/39 46/4/39
f 49/2/40 47/2/40 51/3/40
f 41/3/63 42/2/63 51/3/63
f 44/7/64 50/7/64 43/4/64
f 41/3/65 51/3/65 44/7/65
f 42/2/66 43/4/66 49/2/66
