# Blender v2.76 (sub 0) OBJ File: 'handsAttack.blend'
# www.blender.org
mtllib handsAttack_000004.mtl
o Cube
v 0.511197 -0.068052 -2.031761
v 0.601336 -0.013862 -2.523627
v 0.144764 -0.358911 -2.436671
v 0.496417 -0.500819 -2.218540
v 0.179094 -0.445767 -2.071835
v 0.256204 -0.388683 -2.565736
v 0.401147 0.071811 -2.423298
v 0.689905 -0.031218 -2.222720
v 4.602148 -0.371294 -0.674584
v 4.407967 -0.148900 -0.723890
v 4.514661 -0.117347 -1.001768
v 4.708843 -0.339739 -0.952462
v 2.451934 -2.475565 -1.514939
v 2.461835 -1.997907 -1.541333
v 2.631106 -1.977952 -2.160535
v 2.621139 -2.455610 -2.134153
v 4.321835 -0.897281 -0.604412
v 4.105450 -0.269176 -1.413662
v 3.841551 -0.347220 -0.726363
v 4.585733 -0.819237 -1.291710
v 3.633954 -0.859361 -1.068357
v 3.997168 -1.089739 -1.344287
v 3.868367 -1.127830 -1.008835
v 3.762756 -0.821270 -1.403808
v -0.429788 0.089624 1.959523
v -0.156261 0.419388 2.238483
v -0.482605 0.060818 2.461066
v -0.375002 -0.167266 2.362357
v -0.579209 -0.147939 2.386860
v -0.305682 0.181825 2.665821
v -0.343422 0.426935 2.243940
v -0.235612 0.198914 2.145341
v 0.343276 -0.353677 0.002734
v -0.349472 -0.349472 -0.000446
v 0.403540 0.272577 0.034338
v -0.268113 0.404615 -0.042309
v 4.556299 -0.210308 1.550482
v 4.465919 -0.202848 1.265224
v 4.313168 0.048629 1.320198
v 4.403548 0.041170 1.605455
v 1.742605 -2.043367 2.226319
v 1.931756 -1.742636 1.685354
v 2.278013 -1.325188 2.038489
v 2.088862 -1.625919 2.579455
v 4.322526 -0.678865 1.843683
v 3.721170 -0.038416 1.274103
v 4.098981 -0.660415 1.138132
v 3.944715 -0.056866 1.979652
v 3.582755 -0.826692 1.496193
v 3.507462 -0.532117 1.906914
v 3.691861 -0.835697 1.840551
v 3.398356 -0.523111 1.562555
vt 1.000000 0.500000
vt 1.000000 1.000000
vt 0.000000 1.000000
vt 1.000000 0.000000
vt 0.500000 1.000000
vt 0.000000 0.000000
vt 0.000000 0.500000
vt 0.500000 0.000000
vn -0.338500 -0.938700 -0.065000
vn 0.354800 0.934400 -0.030900
vn -0.816000 0.495000 -0.298600
vn 0.921200 -0.378800 0.088600
vn -0.748300 0.662200 -0.040300
vn 0.672400 0.661000 0.333200
vn -0.061800 0.164300 0.984500
vn 0.593100 0.358000 -0.721200
vn 0.861600 -0.421400 0.283000
vn -0.330300 0.943700 -0.019700
vn 0.662100 0.721100 0.204200
vn -0.627300 -0.756400 -0.185400
vn 0.150300 -0.027400 -0.988300
vn -0.188300 0.058100 0.980400
vn -0.822800 0.506100 -0.258500
vn 0.412900 -0.909100 0.055300
vn 0.134500 -0.101100 -0.985700
vn -0.544500 -0.301900 0.782600
vn -0.385100 0.058900 0.921000
vn 0.421400 0.170500 -0.890700
vn 0.650300 -0.744000 0.153700
vn -0.651700 0.740000 -0.166200
vn -0.900100 -0.435000 0.023800
vn 0.908000 0.418100 0.025800
vn -0.948400 0.300400 -0.101400
vn 0.937100 -0.179300 0.299400
vn -0.792700 0.606700 0.060100
vn 0.805200 0.541800 -0.241000
vn 0.786900 -0.557800 -0.263900
vn -0.150700 0.985800 0.073500
vn 0.595500 0.191100 0.780300
vn 0.040700 0.236900 -0.970700
vn 0.274200 0.478300 -0.834300
vn -0.310100 -0.450800 0.837000
vn 0.516900 0.658600 0.546900
vn -0.552800 -0.631100 -0.544100
vn -0.533000 -0.141400 -0.834200
vn 0.042100 -0.188900 0.981100
vn -0.731500 0.635000 0.248400
vn 0.240600 -0.965300 -0.101500
vn 0.463200 -0.869900 -0.169500
vn -0.518500 0.834600 0.186100
vn 0.400600 0.043200 0.915200
vn -0.375400 -0.025500 -0.926500
vn -0.006400 -0.997800 0.065700
vn 0.203400 0.973400 -0.105200
vn -0.975600 0.094300 -0.198300
vn 0.985100 -0.101800 0.138700
vn -0.731000 0.679800 -0.059100
vn 0.662400 0.721700 0.200900
vn -0.626200 -0.754800 -0.195400
vn 0.130500 -0.057400 -0.989800
vn -0.186900 0.060300 0.980500
vn -0.316800 -0.066900 0.946100
vn 0.539400 -0.057700 -0.840100
vn 0.648400 -0.743300 0.164600
vn -0.653700 0.740800 -0.154800
vn -0.006400 -0.997000 0.076800
vn 0.182300 0.979200 0.089400
vn -0.993900 0.105400 -0.033800
vn 0.952700 -0.106000 0.284800
vn 0.595500 0.191200 0.780300
vn 0.457400 -0.835500 -0.304500
vn -0.498700 0.819800 0.281400
vn 0.541500 -0.757500 0.364600
vn -0.473900 0.763800 -0.438200
usemtl Material
s off
f 34/1/1 3/2/1 4/3/1
f 8/4/2 7/2/2 36/5/2
f 36/1/3 7/2/3 3/3/3
f 33/1/4 4/2/4 8/3/4
f 6/6/5 5/3/5 1/2/5
f 12/6/6 11/4/6 10/2/6
f 19/2/7 17/3/7 9/3/7
f 18/4/8 11/4/8 12/6/8
f 17/3/9 20/6/9 12/6/9
f 19/2/10 10/2/10 11/4/10
f 1/2/11 14/2/11 15/4/11
f 5/3/12 6/6/12 16/6/12
f 6/6/13 2/4/13 15/4/13
f 5/3/14 13/3/14 14/2/14
f 21/2/15 19/2/15 18/4/15
f 23/3/16 22/6/16 20/6/16
f 24/4/17 18/4/17 20/6/17
f 23/3/18 17/3/18 19/2/18
f 14/2/19 13/3/19 23/3/19
f 15/4/20 24/4/20 22/6/20
f 13/3/21 16/6/21 22/6/21
f 14/2/22 21/2/22 24/4/22
f 28/3/23 27/2/23 34/1/23
f 36/5/24 31/2/24 32/4/24
f 34/7/25 27/3/25 31/2/25
f 32/3/26 28/2/26 33/1/26
f 30/6/27 26/4/27 25/2/27
f 37/3/28 38/2/28 39/4/28
f 47/2/29 38/2/29 37/3/29
f 48/6/30 40/6/30 39/4/30
f 37/3/31 40/6/31 48/6/31
f 39/4/32 38/2/32 47/2/32
f 43/4/33 42/2/33 25/2/33
f 29/3/34 41/3/34 44/6/34
f 30/6/35 44/6/35 43/4/35
f 42/2/36 41/3/36 29/3/36
f 46/4/37 47/2/37 49/2/37
f 51/3/38 45/3/38 48/6/38
f 48/6/39 46/4/39 52/4/39
f 47/2/40 45/3/40 51/3/40
f 42/2/41 49/2/41 51/3/41
f 50/6/42 52/4/42 43/4/42
f 51/3/43 50/6/43 44/6/43
f 43/4/44 52/4/44 49/2/44
f 33/7/45 34/1/45 4/3/45
f 35/8/46 8/4/46 36/5/46
f 34/7/47 36/1/47 3/3/47
f 35/7/48 33/1/48 8/3/48
f 2/4/49 6/6/49 1/2/49
f 9/3/6 12/6/6 10/2/6
f 10/2/7 19/2/7 9/3/7
f 20/6/8 18/4/8 12/6/8
f 9/3/9 17/3/9 12/6/9
f 18/4/10 19/2/10 11/4/10
f 2/4/50 1/2/50 15/4/50
f 13/3/51 5/3/51 16/6/51
f 16/6/52 6/6/52 15/4/52
f 1/2/53 5/3/53 14/2/53
f 24/4/15 21/2/15 18/4/15
f 17/3/16 23/3/16 20/6/16
f 22/6/17 24/4/17 20/6/17
f 21/2/18 23/3/18 19/2/18
f 21/2/54 14/2/54 23/3/54
f 16/6/55 15/4/55 22/6/55
f 23/3/56 13/3/56 22/6/56
f 15/4/57 14/2/57 24/4/57
f 33/7/58 28/3/58 34/1/58
f 35/8/59 36/5/59 32/4/59
f 36/1/60 34/7/60 31/2/60
f 35/7/61 32/3/61 33/1/61
f 29/3/27 30/6/27 25/2/27
f 40/6/28 37/3/28 39/4/28
f 45/3/29 47/2/29 37/3/29
f 46/4/30 48/6/30 39/4/30
f 45/3/62 37/3/62 48/6/62
f 46/4/32 39/4/32 47/2/32
f 26/4/33 43/4/33 25/2/33
f 30/6/34 29/3/34 44/6/34
f 26/4/35 30/6/35 43/4/35
f 25/2/36 42/2/36 29/3/36
f 52/4/37 46/4/37 49/2/37
f 50/6/38 51/3/38 48/6/38
f 50/6/39 48/6/39 52/4/39
f 49/2/40 47/2/40 51/3/40
f 41/3/63 42/2/63 51/3/63
f 44/6/64 50/6/64 43/4/64
f 41/3/65 51/3/65 44/6/65
f 42/2/66 43/4/66 49/2/66
