# Blender v2.76 (sub 0) OBJ File: 'handsBlock.blend'
# www.blender.org
mtllib handsBlock_000005.mtl
o Cube
v 0.624638 -0.084279 -1.977216
v 0.779662 -0.006877 -2.450336
v 0.341981 -0.381835 -2.421791
v 0.656805 -0.525034 -2.173541
v 0.343873 -0.493150 -2.071003
v 0.486343 -0.414019 -2.548210
v 0.576239 0.063229 -2.377692
v 0.848035 -0.053409 -2.164257
v 4.546779 -0.027033 -0.076658
v 4.346198 0.180477 -0.156045
v 4.490550 0.220889 -0.415130
v 4.691131 0.013379 -0.335742
v 2.712733 -2.289934 -1.214600
v 2.682836 -1.807790 -1.238001
v 2.939462 -1.762872 -1.825695
v 2.969297 -2.245022 -1.802316
v 4.298882 -0.572667 -0.045124
v 4.159806 0.040539 -0.882298
v 3.802768 -0.059415 -0.241482
v 4.655920 -0.472712 -0.685941
v 3.687080 -0.584334 -0.606751
v 4.103479 -0.786052 -0.823679
v 3.929220 -0.834837 -0.510914
v 3.861340 -0.535548 -0.919516
v -0.662094 0.118029 1.924255
v -0.375650 0.456603 2.178614
v -0.672680 0.097816 2.402774
v -0.577492 -0.138712 2.338928
v -0.770067 -0.120512 2.363367
v -0.483624 0.218062 2.617727
v -0.549366 0.463130 2.183245
v -0.453969 0.226665 2.119516
v 0.342731 -0.353772 0.003799
v -0.349472 -0.349472 -0.000446
v 0.401680 0.269716 0.055728
v -0.260755 0.405917 -0.056498
v 4.149534 0.098729 1.043729
v 4.029619 0.096277 0.769484
v 3.861896 0.333750 0.840699
v 3.981811 0.336202 1.114944
v 1.580286 -1.956112 2.023272
v 1.716969 -1.654142 1.467400
v 2.079576 -1.225542 1.789393
v 1.942893 -1.527512 2.345264
v 3.989723 -0.386519 1.358622
v 3.278284 0.194779 0.856451
v 3.693127 -0.392583 0.680309
v 3.574880 0.200842 1.534763
v 3.233662 -0.601066 1.089909
v 3.175950 -0.311433 1.506943
v 3.378422 -0.598107 1.420974
v 3.031190 -0.314392 1.175879
vt 1.000000 0.500000
vt 1.000000 1.000000
vt 0.000000 1.000000
vt 1.000000 0.000000
vt 0.500000 1.000000
vt 0.000000 0.000000
vt 0.000000 0.500000
vt 0.500000 0.000000
vn -0.353700 -0.931200 -0.088600
vn 0.391000 0.920400 0.005100
vn -0.810200 0.462200 -0.360400
vn 0.913500 -0.373600 0.161200
vn -0.800400 0.582300 -0.142400
vn 0.564300 0.707900 0.424800
vn -0.220100 0.155700 0.963000
vn 0.665900 0.403700 -0.627300
vn 0.838500 -0.357200 0.411500
vn -0.392700 0.916500 -0.075800
vn 0.547300 0.781800 0.298800
vn -0.511200 -0.810100 -0.287000
vn 0.292200 0.019300 -0.956200
vn -0.322400 0.025900 0.946200
vn -0.810200 0.444500 -0.382100
vn 0.466200 -0.876100 0.123100
vn 0.287300 -0.087200 -0.953900
vn -0.631300 -0.344400 0.694900
vn -0.509800 0.010100 0.860300
vn 0.535100 0.203500 -0.819900
vn 0.679600 -0.691900 0.243800
vn -0.672700 0.690000 -0.267200
vn -0.931500 -0.359100 -0.058400
vn 0.931700 0.345900 0.111200
vn -0.960100 0.221700 -0.170400
vn 0.923900 -0.088800 0.372300
vn -0.800900 0.586300 0.121600
vn 0.724900 0.608700 -0.322400
vn 0.801200 -0.488300 -0.345900
vn -0.228400 0.969300 0.091200
vn 0.654400 0.248000 0.714300
vn -0.081600 0.233000 -0.969100
vn 0.193000 0.479700 -0.855900
vn -0.229300 -0.453200 0.861400
vn 0.542000 0.675400 0.500100
vn -0.578300 -0.648800 -0.494600
vn -0.602500 -0.193400 -0.774300
vn 0.160600 -0.177800 0.970900
vn -0.754700 0.570000 0.324900
vn 0.312700 -0.941200 -0.128300
vn 0.519000 -0.826100 -0.219500
vn -0.582000 0.774600 0.247600
vn 0.496400 0.091700 0.863200
vn -0.484300 -0.080800 -0.871200
vn -0.006700 -0.997000 0.077500
vn 0.216300 0.971400 -0.097900
vn -0.957200 0.092000 -0.274600
vn 0.971300 -0.109400 0.211200
vn -0.782800 0.601900 -0.158000
vn 0.545600 0.780000 0.306400
vn -0.511600 -0.810500 -0.285300
vn 0.267100 -0.030200 -0.963200
vn -0.330300 0.010300 0.943800
vn -0.447200 -0.091900 0.889700
vn 0.650700 0.003400 -0.759300
vn 0.672100 -0.690800 0.266700
vn -0.680200 0.691200 -0.244200
vn -0.006700 -0.996000 0.089100
vn 0.184700 0.978000 0.097000
vn -0.985800 0.106200 -0.129700
vn 0.918100 -0.118300 0.378200
vn 0.503100 -0.805300 -0.313800
vn -0.571600 0.771700 0.278700
vn 0.635700 -0.728900 0.254300
vn -0.592900 0.740100 -0.317500
usemtl Material
s off
f 34/1/1 3/2/1 4/3/1
f 8/4/2 7/2/2 36/5/2
f 36/1/3 7/2/3 3/3/3
f 33/1/4 4/2/4 8/3/4
f 6/6/5 5/3/5 1/2/5
f 11/4/6 10/2/6 9/3/6
f 19/2/7 17/3/7 9/3/7
f 20/6/8 18/4/8 11/4/8
f 20/6/9 12/6/9 9/3/9
f 19/2/10 10/2/10 11/4/10
f 1/2/11 14/2/11 15/4/11
f 5/3/12 6/6/12 16/6/12
f 6/6/13 2/4/13 15/4/13
f 5/3/14 13/3/14 14/2/14
f 21/2/15 19/2/15 18/4/15
f 23/3/16 22/6/16 20/6/16
f 22/6/17 24/4/17 18/4/17
f 21/2/18 23/3/18 17/3/18
f 14/2/19 13/3/19 23/3/19
f 15/4/20 24/4/20 22/6/20
f 13/3/21 16/6/21 22/6/21
f 14/2/22 21/2/22 24/4/22
f 28/3/23 27/2/23 34/1/23
f 36/5/24 31/2/24 32/4/24
f 34/7/25 27/3/25 31/2/25
f 32/3/26 28/2/26 33/1/26
f 26/4/27 25/2/27 29/3/27
f 40/6/28 37/3/28 38/2/28
f 38/2/29 37/3/29 45/3/29
f 48/6/30 40/6/30 39/4/30
f 37/3/31 40/6/31 48/6/31
f 39/4/32 38/2/32 47/2/32
f 43/4/33 42/2/33 25/2/33
f 41/3/34 44/6/34 30/6/34
f 30/6/35 44/6/35 43/4/35
f 42/2/36 41/3/36 29/3/36
f 46/4/37 47/2/37 49/2/37
f 51/3/38 45/3/38 48/6/38
f 50/6/39 48/6/39 46/4/39
f 47/2/40 45/3/40 51/3/40
f 42/2/41 49/2/41 51/3/41
f 50/6/42 52/4/42 43/4/42
f 51/3/43 50/6/43 44/6/43
f 43/4/44 52/4/44 49/2/44
f 33/7/45 34/1/45 4/3/45
f 35/8/46 8/4/46 36/5/46
f 34/7/47 36/1/47 3/3/47
f 35/7/48 33/1/48 8/3/48
f 2/4/49 6/6/49 1/2/49
f 12/6/6 11/4/6 9/3/6
f 10/2/7 19/2/7 9/3/7
f 12/6/8 20/6/8 11/4/8
f 17/3/9 20/6/9 9/3/9
f 18/4/10 19/2/10 11/4/10
f 2/4/50 1/2/50 15/4/50
f 13/3/51 5/3/51 16/6/51
f 16/6/52 6/6/52 15/4/52
f 1/2/53 5/3/53 14/2/53
f 24/4/15 21/2/15 18/4/15
f 17/3/16 23/3/16 20/6/16
f 20/6/17 22/6/17 18/4/17
f 19/2/18 21/2/18 17/3/18
f 21/2/54 14/2/54 23/3/54
f 16/6/55 15/4/55 22/6/55
f 23/3/56 13/3/56 22/6/56
f 15/4/57 14/2/57 24/4/57
f 33/7/58 28/3/58 34/1/58
f 35/8/59 36/5/59 32/4/59
f 36/1/60 34/7/60 31/2/60
f 35/7/61 32/3/61 33/1/61
f 30/6/27 26/4/27 29/3/27
f 39/4/28 40/6/28 38/2/28
f 47/2/29 38/2/29 45/3/29
f 46/4/30 48/6/30 39/4/30
f 45/3/31 37/3/31 48/6/31
f 46/4/32 39/4/32 47/2/32
f 26/4/33 43/4/33 25/2/33
f 29/3/34 41/3/34 30/6/34
f 26/4/35 30/6/35 43/4/35
f 25/2/36 42/2/36 29/3/36
f 52/4/37 46/4/37 49/2/37
f 50/6/38 51/3/38 48/6/38
f 52/4/39 50/6/39 46/4/39
f 49/2/40 47/2/40 51/3/40
f 41/3/62 42/2/62 51/3/62
f 44/6/63 50/6/63 43/4/63
f 41/3/64 51/3/64 44/6/64
f 42/2/65 43/4/65 49/2/65
