# Blender v2.76 (sub 0) OBJ File: 'handsBlock.blend'
# www.blender.org
mtllib handsBlock_000065.mtl
o Cube
v 0.514802 -0.107443 -1.961053
v 0.732108 0.079839 -2.375262
v 0.404574 -0.368385 -2.430827
v 0.660964 -0.532882 -2.180292
v 0.418349 -0.567403 -2.145264
v 0.624465 -0.381938 -2.566458
v 0.553911 0.101948 -2.343848
v 0.835299 -0.056481 -2.162655
v 3.671634 0.934000 0.858239
v 3.434270 1.075621 0.743357
v 3.608315 1.195277 0.531256
v 3.845680 1.053656 0.646138
v 3.015148 -1.615538 -0.829434
v 2.827712 -1.169706 -0.831825
v 3.173766 -0.964694 -1.333297
v 3.361152 -1.410548 -1.330944
v 3.625046 0.338972 0.795517
v 3.468434 0.985210 -0.013232
v 3.037954 0.689254 0.511373
v 4.055526 0.634929 0.270912
v 3.190762 0.210546 0.099265
v 3.687410 0.184031 -0.018096
v 3.477305 0.039584 0.237948
v 3.400867 0.354995 -0.156781
v -0.743007 0.064261 1.971654
v -0.475987 0.475359 2.116841
v -0.633104 0.121819 2.382829
v -0.528207 -0.150967 2.373562
v -0.671476 -0.144994 2.432605
v -0.404456 0.266104 2.577792
v -0.599507 0.472487 2.152398
v -0.494400 0.199785 2.143219
v 0.342731 -0.353772 0.003799
v -0.349472 -0.349472 -0.000446
v 0.401680 0.269716 0.055728
v -0.260755 0.405917 -0.056498
v 3.524186 0.878592 -0.276761
v 3.336192 0.825544 -0.503565
v 3.148358 1.032426 -0.396263
v 3.336353 1.085476 -0.169459
v 1.826182 -1.520958 1.495764
v 1.735631 -1.256063 0.912248
v 2.073650 -0.735654 1.096040
v 2.164202 -1.000550 1.679556
v 3.565100 0.406016 0.090880
v 2.635535 0.786507 -0.204690
v 3.100119 0.274805 -0.470091
v 3.100517 0.917718 0.356280
v 2.827775 0.024562 0.064279
v 2.827970 0.338349 0.467607
v 3.054720 0.088602 0.338074
v 2.601026 0.274309 0.193813
vt 1.000000 0.500000
vt 1.000000 1.000000
vt 0.000000 1.000000
vt 1.000000 0.000000
vt 0.500000 1.000000
vt 0.000000 0.500000
vt 0.000000 0.000000
vt 0.500000 0.000000
vn -0.442100 -0.887500 -0.130300
vn 0.466100 0.883400 0.048600
vn -0.935100 0.084300 -0.344200
vn 0.924600 -0.344400 0.163000
vn -0.900600 0.310600 -0.304000
vn 0.181800 0.785100 0.592100
vn -0.462300 -0.057100 0.884900
vn 0.606000 0.677400 -0.417000
vn 0.800300 -0.124500 0.586500
vn -0.656700 0.744800 -0.118700
vn 0.168300 0.866300 0.470300
vn -0.128100 -0.883000 -0.451500
vn 0.466900 0.243200 -0.850200
vn -0.507800 -0.209000 0.835700
vn -0.810700 0.211300 -0.546000
vn 0.699800 -0.689900 0.185000
vn 0.498400 0.141400 -0.855400
vn -0.609200 -0.620100 0.494400
vn -0.655200 -0.271700 0.704900
vn 0.596400 0.474500 -0.647400
vn 0.805800 -0.465800 0.365600
vn -0.793800 0.469500 -0.386500
vn -0.933100 -0.357400 -0.040400
vn 0.926500 0.352700 0.131500
vn -0.992500 0.015500 -0.121200
vn 0.934400 0.128300 0.332400
vn -0.841200 0.431200 0.326300
vn 0.460200 0.700600 -0.545300
vn 0.758300 -0.358100 -0.544800
vn -0.394700 0.911700 0.113900
vn 0.758800 0.439600 0.480600
vn -0.395200 0.114000 -0.911500
vn -0.158900 0.419000 -0.894000
vn 0.120800 -0.399400 0.908800
vn 0.503100 0.813700 0.291300
vn -0.541200 -0.794100 -0.276500
vn -0.738400 -0.382400 -0.555400
vn 0.457900 -0.044800 0.887900
vn -0.737900 0.444700 0.507700
vn 0.457400 -0.871900 -0.175200
vn 0.600800 -0.729200 -0.327500
vn -0.641200 0.669600 0.374800
vn 0.685300 0.271800 0.675600
vn -0.678500 -0.259600 -0.687200
vn -0.006700 -0.996700 0.080800
vn 0.216700 0.971100 -0.100400
vn -0.898400 0.337300 -0.281400
vn 0.972400 -0.109100 0.206100
vn -0.887900 0.336800 -0.313500
vn 0.165600 0.863100 0.477100
vn -0.128700 -0.883700 -0.450000
vn 0.462400 0.189700 -0.866200
vn -0.509200 -0.225800 0.830500
vn -0.569400 -0.351500 0.743100
vn 0.757700 0.315400 -0.571400
vn 0.793600 -0.470400 0.385800
vn -0.806000 0.465100 -0.366100
vn -0.006700 -0.996500 0.082800
vn 0.182100 0.977000 0.110900
vn -0.982600 0.104000 -0.153800
vn 0.913800 -0.118700 0.388300
vn 0.457400 -0.871800 -0.175200
vn 0.555300 -0.721400 -0.413700
vn -0.622200 0.672000 0.401600
vn 0.821100 -0.564100 0.087100
vn -0.800900 0.576900 -0.160400
usemtl Material
s off
f 34/1/1 3/2/1 4/3/1
f 8/4/2 7/2/2 36/5/2
f 34/6/3 36/1/3 7/2/3
f 33/1/4 4/2/4 8/3/4
f 6/7/5 5/3/5 1/2/5
f 12/7/6 11/4/6 10/2/6
f 17/3/7 9/3/7 10/2/7
f 20/7/8 18/4/8 11/4/8
f 17/3/9 20/7/9 12/7/9
f 19/2/10 10/2/10 11/4/10
f 1/2/11 14/2/11 15/4/11
f 5/3/12 6/7/12 16/7/12
f 6/7/13 2/4/13 15/4/13
f 5/3/14 13/3/14 14/2/14
f 21/2/15 19/2/15 18/4/15
f 23/3/16 22/7/16 20/7/16
f 22/7/17 24/4/17 18/4/17
f 23/3/18 17/3/18 19/2/18
f 14/2/19 13/3/19 23/3/19
f 15/4/20 24/4/20 22/7/20
f 13/3/21 16/7/21 22/7/21
f 14/2/22 21/2/22 24/4/22
f 28/3/23 27/2/23 34/1/23
f 36/5/24 31/2/24 32/4/24
f 34/6/25 27/3/25 31/2/25
f 32/3/26 28/2/26 33/1/26
f 26/4/27 25/2/27 29/3/27
f 40/7/28 37/3/28 38/2/28
f 47/2/29 38/2/29 37/3/29
f 48/7/30 40/7/30 39/4/30
f 37/3/31 40/7/31 48/7/31
f 39/4/32 38/2/32 47/2/32
f 43/4/33 42/2/33 25/2/33
f 41/3/34 44/7/34 30/7/34
f 44/7/35 43/4/35 26/4/35
f 42/2/36 41/3/36 29/3/36
f 46/4/37 47/2/37 49/2/37
f 51/3/38 45/3/38 48/7/38
f 50/7/39 48/7/39 46/4/39
f 47/2/40 45/3/40 51/3/40
f 42/2/41 49/2/41 51/3/41
f 50/7/42 52/4/42 43/4/42
f 51/3/43 50/7/43 44/7/43
f 43/4/44 52/4/44 49/2/44
f 33/6/45 34/1/45 4/3/45
f 35/8/46 8/4/46 36/5/46
f 3/3/47 34/6/47 7/2/47
f 35/6/48 33/1/48 8/3/48
f 2/4/49 6/7/49 1/2/49
f 9/3/6 12/7/6 10/2/6
f 19/2/7 17/3/7 10/2/7
f 12/7/8 20/7/8 11/4/8
f 9/3/9 17/3/9 12/7/9
f 18/4/10 19/2/10 11/4/10
f 2/4/50 1/2/50 15/4/50
f 13/3/51 5/3/51 16/7/51
f 16/7/52 6/7/52 15/4/52
f 1/2/53 5/3/53 14/2/53
f 24/4/15 21/2/15 18/4/15
f 17/3/16 23/3/16 20/7/16
f 20/7/17 22/7/17 18/4/17
f 21/2/18 23/3/18 19/2/18
f 21/2/54 14/2/54 23/3/54
f 16/7/55 15/4/55 22/7/55
f 23/3/56 13/3/56 22/7/56
f 15/4/57 14/2/57 24/4/57
f 33/6/58 28/3/58 34/1/58
f 35/8/59 36/5/59 32/4/59
f 36/1/60 34/6/60 31/2/60
f 35/6/61 32/3/61 33/1/61
f 30/7/27 26/4/27 29/3/27
f 39/4/28 40/7/28 38/2/28
f 45/3/29 47/2/29 37/3/29
f 46/4/30 48/7/30 39/4/30
f 45/3/31 37/3/31 48/7/31
f 46/4/32 39/4/32 47/2/32
f 26/4/33 43/4/33 25/2/33
f 29/3/34 41/3/34 30/7/34
f 30/7/35 44/7/35 26/4/35
f 25/2/36 42/2/36 29/3/36
f 52/4/37 46/4/37 49/2/37
f 50/7/38 51/3/38 48/7/38
f 52/4/39 50/7/39 46/4/39
f 49/2/62 47/2/62 51/3/62
f 41/3/63 42/2/63 51/3/63
f 44/7/64 50/7/64 43/4/64
f 41/3/65 51/3/65 44/7/65
f 42/2/66 43/4/66 49/2/66
