# Blender v2.76 (sub 0) OBJ File: 'handsAttack.blend'
# www.blender.org
mtllib handsAttack_000022.mtl
o Cube
v -1.382826 0.087690 -1.587985
v -1.724191 0.197075 -1.921600
v -1.935997 -0.173777 -1.523103
v -1.551311 -0.301496 -1.709501
v -1.639005 -0.280455 -1.364672
v -1.988818 -0.170758 -1.684849
v -1.765967 0.262521 -1.683515
v -1.445418 0.181759 -1.814682
v 2.171784 -0.281630 -3.231218
v 2.049847 -0.144648 -2.994653
v 1.897384 0.036276 -3.178003
v 2.019322 -0.100706 -3.414568
v -0.060290 -2.375919 -3.083515
v -0.023658 -1.994736 -2.978922
v -0.418149 -1.780982 -3.404656
v -0.454827 -2.162177 -3.509185
v 1.985254 -0.850188 -3.277155
v 1.306557 -0.063885 -3.145535
v 1.683656 -0.511379 -2.692039
v 1.608155 -0.402694 -3.730651
v 1.215540 -0.869630 -2.965664
v 1.178691 -0.816584 -3.472580
v 1.362742 -1.034993 -3.251242
v 1.031490 -0.651220 -3.187003
v 1.969501 0.050477 0.785668
v 2.063469 0.451477 1.088571
v 2.000845 -0.014213 1.422589
v 2.077872 -0.208591 1.047661
v 1.991003 -0.260601 1.190821
v 2.084972 0.140398 1.493723
v 1.978179 0.396664 1.220485
v 2.055300 0.202405 0.845529
v 0.341203 -0.351240 -0.012048
v -0.349472 -0.349472 -0.000446
v 0.269376 0.319885 -0.196667
v -0.240829 0.371403 0.155131
v 7.887829 0.062286 -0.009404
v 7.770899 0.099498 -0.282422
v 7.720122 0.388093 -0.221340
v 7.837053 0.350881 0.051678
v 4.927561 -0.717482 0.769944
v 4.900340 -0.323689 0.257062
v 5.019294 0.183936 0.640506
v 5.046515 -0.209858 1.153387
v 7.547452 -0.297943 0.329035
v 7.132648 0.507900 -0.195160
v 7.258238 -0.205904 -0.346240
v 7.421863 0.415861 0.480115
v 6.764449 -0.185556 0.075781
v 6.844309 0.117909 0.479102
v 6.905606 -0.230478 0.405364
v 6.703152 0.162831 0.149518
vt 1.000000 0.500000
vt 1.000000 1.000000
vt 0.000000 1.000000
vt 1.000000 0.000000
vt 0.500000 1.000000
vt 0.000000 0.500000
vt 0.000000 0.000000
vt 0.500000 0.000000
vn -0.246900 -0.957900 0.146700
vn 0.164400 0.967200 -0.193700
vn -0.768800 -0.022000 0.639100
vn 0.659800 -0.132800 -0.739600
vn -0.384500 0.659400 0.646000
vn 0.758000 0.652100 0.013100
vn 0.767400 -0.297600 0.567900
vn -0.168400 0.812900 -0.557500
vn 0.673700 -0.162800 -0.720800
vn -0.074800 0.678000 0.731200
vn 0.688800 0.655900 -0.308900
vn -0.557700 -0.751800 0.351700
vn -0.709400 0.058300 -0.702400
vn 0.520200 -0.272100 0.809500
vn -0.619100 0.237100 0.748700
vn 0.156900 -0.634600 -0.756700
vn -0.716200 0.376900 -0.587400
vn 0.254000 -0.774500 0.579400
vn 0.367300 -0.278800 0.887300
vn -0.429200 0.667900 -0.608000
vn 0.462600 -0.542500 -0.701200
vn -0.416700 0.449600 0.790100
vn -0.184700 -0.887500 0.422200
vn 0.034600 0.994800 -0.095600
vn -0.402800 0.386000 0.829900
vn 0.507700 -0.357600 -0.783800
vn -0.982100 0.120700 0.144800
vn 0.904800 0.234400 -0.355600
vn 0.513300 -0.793100 -0.327900
vn 0.201600 0.978300 0.047000
vn 0.716300 -0.021600 0.697400
vn -0.001400 0.206800 -0.978400
vn -0.064300 0.611000 -0.789000
vn 0.019800 -0.605600 0.795500
vn 0.161500 0.786900 0.595600
vn -0.206000 -0.781400 -0.589000
vn -0.647900 0.046900 -0.760300
vn 0.096200 -0.189900 0.977100
vn -0.437400 0.846800 0.302700
vn -0.114300 -0.989700 -0.086000
vn 0.196100 -0.956900 -0.214400
vn 0.046100 0.992200 0.115500
vn 0.368900 -0.129900 0.920400
vn -0.108800 0.187500 -0.976200
vn -0.003000 -0.999700 -0.026000
vn 0.024200 0.993600 -0.110400
vn -0.583200 0.470700 0.662000
vn 0.668200 -0.295100 -0.683000
vn -0.389300 0.680000 0.621300
vn 0.605000 0.693200 -0.391800
vn -0.659300 -0.706900 0.256200
vn -0.573500 0.267500 -0.774300
vn 0.686400 -0.037100 0.726300
vn 0.527700 -0.588400 0.612700
vn -0.207300 0.277200 -0.938200
vn 0.368600 -0.490000 -0.790000
vn -0.495900 0.499500 0.710300
vn 0.001300 -0.973800 0.227200
vn 0.287100 0.873400 -0.393400
vn -0.503400 -0.109100 0.857100
vn 0.486500 -0.182900 -0.854300
vn 0.904800 0.234500 -0.355600
vn -0.000400 -0.793200 -0.609000
vn 0.082100 0.792600 0.604200
vn 0.287200 -0.619300 0.730800
vn -0.212400 0.620200 -0.755100
usemtl Material
s off
f 34/1/1 3/2/1 4/3/1
f 8/4/2 7/2/2 36/5/2
f 34/6/3 36/1/3 7/2/3
f 35/6/4 33/1/4 4/2/4
f 6/7/5 5/3/5 1/2/5
f 12/7/6 11/4/6 10/2/6
f 19/2/7 17/3/7 9/3/7
f 18/4/8 11/4/8 12/7/8
f 17/3/9 20/7/9 12/7/9
f 19/2/10 10/2/10 11/4/10
f 1/2/11 14/2/11 15/4/11
f 5/3/12 6/7/12 16/7/12
f 6/7/13 2/4/13 15/4/13
f 5/3/14 13/3/14 14/2/14
f 21/2/15 19/2/15 18/4/15
f 23/3/16 22/7/16 20/7/16
f 24/4/17 18/4/17 20/7/17
f 21/2/18 23/3/18 17/3/18
f 14/2/19 13/3/19 23/3/19
f 15/4/20 24/4/20 22/7/20
f 13/3/21 16/7/21 22/7/21
f 14/2/22 21/2/22 24/4/22
f 33/6/23 28/3/23 27/2/23
f 35/8/24 36/5/24 31/2/24
f 27/3/25 31/2/25 36/1/25
f 32/3/26 28/2/26 33/1/26
f 26/4/27 25/2/27 29/3/27
f 40/7/28 37/3/28 38/2/28
f 38/2/29 37/3/29 45/3/29
f 48/7/30 40/7/30 39/4/30
f 37/3/31 40/7/31 48/7/31
f 39/4/32 38/2/32 47/2/32
f 43/4/33 42/2/33 25/2/33
f 29/3/34 41/3/34 44/7/34
f 44/7/35 43/4/35 26/4/35
f 42/2/36 41/3/36 29/3/36
f 52/4/37 46/4/37 47/2/37
f 51/3/38 45/3/38 48/7/38
f 50/7/39 48/7/39 46/4/39
f 47/2/40 45/3/40 51/3/40
f 49/2/41 51/3/41 41/3/41
f 50/7/42 52/4/42 43/4/42
f 51/3/43 50/7/43 44/7/43
f 52/4/44 49/2/44 42/2/44
f 33/6/45 34/1/45 4/3/45
f 35/8/46 8/4/46 36/5/46
f 3/3/47 34/6/47 7/2/47
f 8/3/48 35/6/48 4/2/48
f 2/4/49 6/7/49 1/2/49
f 9/3/6 12/7/6 10/2/6
f 10/2/7 19/2/7 9/3/7
f 20/7/8 18/4/8 12/7/8
f 9/3/9 17/3/9 12/7/9
f 18/4/10 19/2/10 11/4/10
f 2/4/50 1/2/50 15/4/50
f 13/3/51 5/3/51 16/7/51
f 16/7/52 6/7/52 15/4/52
f 1/2/53 5/3/53 14/2/53
f 24/4/15 21/2/15 18/4/15
f 17/3/16 23/3/16 20/7/16
f 22/7/17 24/4/17 20/7/17
f 19/2/18 21/2/18 17/3/18
f 21/2/54 14/2/54 23/3/54
f 16/7/55 15/4/55 22/7/55
f 23/3/56 13/3/56 22/7/56
f 15/4/57 14/2/57 24/4/57
f 34/1/58 33/6/58 27/2/58
f 32/4/59 35/8/59 31/2/59
f 34/6/60 27/3/60 36/1/60
f 35/6/61 32/3/61 33/1/61
f 30/7/27 26/4/27 29/3/27
f 39/4/62 40/7/62 38/2/62
f 47/2/29 38/2/29 45/3/29
f 46/4/30 48/7/30 39/4/30
f 45/3/31 37/3/31 48/7/31
f 46/4/32 39/4/32 47/2/32
f 26/4/33 43/4/33 25/2/33
f 30/7/34 29/3/34 44/7/34
f 30/7/35 44/7/35 26/4/35
f 25/2/36 42/2/36 29/3/36
f 49/2/37 52/4/37 47/2/37
f 50/7/38 51/3/38 48/7/38
f 52/4/39 50/7/39 46/4/39
f 49/2/40 47/2/40 51/3/40
f 42/2/63 49/2/63 41/3/63
f 44/7/64 50/7/64 43/4/64
f 41/3/65 51/3/65 44/7/65
f 43/4/66 52/4/66 42/2/66
