# Blender v2.76 (sub 0) OBJ File: 'handsBlock.blend'
# www.blender.org
mtllib handsBlock_000104.mtl
o Cube
v 0.645658 -0.084401 -1.983514
v 0.783136 -0.025823 -2.464694
v 0.329987 -0.381815 -2.418232
v 0.656516 -0.523326 -2.172254
v 0.334852 -0.475499 -2.055916
v 0.459738 -0.414443 -2.540645
v 0.577987 0.054723 -2.384194
v 0.850494 -0.053348 -2.164941
v 4.647639 -0.251730 -0.264576
v 4.457478 -0.032908 -0.339085
v 4.591903 -0.006716 -0.605243
v 4.782064 -0.225537 -0.530734
v 2.619346 -2.408848 -1.270674
v 2.619778 -1.926275 -1.302738
v 2.851075 -1.908840 -1.902284
v 2.850580 -2.391415 -1.870240
v 4.366559 -0.779203 -0.210458
v 4.228701 -0.173189 -1.053053
v 3.896217 -0.237972 -0.394745
v 4.699042 -0.714419 -0.868767
v 3.729751 -0.760559 -0.743366
v 4.121587 -0.993100 -0.974722
v 3.959311 -1.024718 -0.653420
v 3.892027 -0.728940 -1.064668
v -0.643833 0.126722 1.918414
v -0.359096 0.450127 2.193577
v -0.681448 0.094028 2.405034
v -0.585406 -0.134917 2.330788
v -0.785903 -0.112927 2.347092
v -0.501166 0.210478 2.622255
v -0.541092 0.459897 2.190718
v -0.444843 0.231011 2.116594
v 0.342731 -0.353772 0.003799
v -0.349472 -0.349472 -0.000446
v 0.401680 0.269716 0.055728
v -0.260755 0.405917 -0.056498
v 4.205448 -0.075537 1.309307
v 4.101281 -0.069592 1.028755
v 3.939324 0.173520 1.094040
v 4.043492 0.167576 1.374593
v 1.505419 -2.037419 2.111658
v 1.685263 -1.734047 1.568996
v 2.045711 -1.324649 1.917324
v 1.865866 -1.628021 2.459986
v 4.008943 -0.557968 1.607313
v 3.350714 0.058046 1.074878
v 3.751294 -0.543265 0.913401
v 3.608362 0.043341 1.768790
v 3.261440 -0.738302 1.293333
v 3.191679 -0.451996 1.710824
v 3.387191 -0.745479 1.632011
v 3.065928 -0.444819 1.372144
vt 1.000000 0.500000
vt 1.000000 1.000000
vt 0.000000 1.000000
vt 1.000000 0.000000
vt 0.500000 1.000000
vt 0.000000 0.000000
vt 0.000000 0.500000
vt 0.500000 0.000000
vn -0.342500 -0.935800 -0.083700
vn 0.372600 0.928000 -0.005700
vn -0.798700 0.481800 -0.360500
vn 0.911400 -0.378700 0.160900
vn -0.766700 0.631100 -0.118000
vn 0.628300 0.676700 0.383900
vn -0.164400 0.187000 0.968500
vn 0.660800 0.347700 -0.665200
vn 0.831800 -0.404200 0.380300
vn -0.335400 0.938900 -0.077000
vn 0.610300 0.749200 0.257200
vn -0.575600 -0.779700 -0.246500
vn 0.247900 -0.017000 -0.968600
vn -0.275500 0.064000 0.959200
vn -0.796600 0.490000 -0.354100
vn 0.413500 -0.902500 0.120000
vn 0.236200 -0.122900 -0.963900
vn -0.619200 -0.289600 0.729800
vn -0.467300 0.059000 0.882100
vn 0.508300 0.153200 -0.847400
vn 0.643900 -0.730700 0.227100
vn -0.638200 0.727900 -0.250700
vn -0.927300 -0.369600 -0.059800
vn 0.928400 0.355700 0.107300
vn -0.949100 0.259400 -0.178800
vn 0.916600 -0.130900 0.377900
vn -0.782700 0.616500 0.085300
vn 0.765600 0.583000 -0.271900
vn 0.799500 -0.515800 -0.307800
vn -0.194600 0.976500 0.092900
vn 0.622200 0.212100 0.753600
vn -0.017200 0.248600 -0.968500
vn 0.260100 0.482600 -0.836300
vn -0.295500 -0.454700 0.840200
vn 0.539100 0.646400 0.540000
vn -0.574500 -0.618400 -0.536100
vn -0.564800 -0.158800 -0.809800
vn 0.098100 -0.196700 0.975600
vn -0.748700 0.595800 0.290600
vn 0.281900 -0.951300 -0.124800
vn 0.497500 -0.843500 -0.202600
vn -0.564000 0.794200 0.226200
vn 0.449900 0.060400 0.891000
vn -0.436900 -0.049900 -0.898100
vn -0.006700 -0.997000 0.076700
vn 0.216300 0.971400 -0.097600
vn -0.958300 0.092500 -0.270500
vn 0.971100 -0.109500 0.212200
vn -0.748500 0.649300 -0.134800
vn 0.608800 0.747700 0.265000
vn -0.575900 -0.780000 -0.244800
vn 0.219300 -0.064900 -0.973500
vn -0.284500 0.048900 0.957400
vn -0.410300 -0.046400 0.910800
vn 0.613400 -0.053000 -0.788000
vn 0.637500 -0.728700 0.250200
vn -0.644500 0.730000 -0.227400
vn -0.006700 -0.995800 0.091000
vn 0.185100 0.978200 0.094400
vn -0.986300 0.106500 -0.125600
vn 0.919300 -0.118200 0.375400
vn 0.487800 -0.820800 -0.297200
vn -0.555500 0.790500 0.257800
vn 0.590800 -0.757200 0.278500
vn -0.544100 0.767500 -0.339000
usemtl Material
s off
f 34/1/1 3/2/1 4/3/1
f 8/4/2 7/2/2 36/5/2
f 36/1/3 7/2/3 3/3/3
f 33/1/4 4/2/4 8/3/4
f 6/6/5 5/3/5 1/2/5
f 12/6/6 11/4/6 10/2/6
f 17/3/7 9/3/7 10/2/7
f 20/6/8 18/4/8 11/4/8
f 17/3/9 20/6/9 12/6/9
f 18/4/10 19/2/10 10/2/10
f 1/2/11 14/2/11 15/4/11
f 5/3/12 6/6/12 16/6/12
f 6/6/13 2/4/13 15/4/13
f 5/3/14 13/3/14 14/2/14
f 21/2/15 19/2/15 18/4/15
f 23/3/16 22/6/16 20/6/16
f 24/4/17 18/4/17 20/6/17
f 23/3/18 17/3/18 19/2/18
f 14/2/19 13/3/19 23/3/19
f 15/4/20 24/4/20 22/6/20
f 13/3/21 16/6/21 22/6/21
f 14/2/22 21/2/22 24/4/22
f 28/3/23 27/2/23 34/1/23
f 36/5/24 31/2/24 32/4/24
f 34/7/25 27/3/25 31/2/25
f 32/3/26 28/2/26 33/1/26
f 26/4/27 25/2/27 29/3/27
f 37/3/28 38/2/28 39/4/28
f 47/2/29 38/2/29 37/3/29
f 40/6/30 39/4/30 46/4/30
f 45/3/31 37/3/31 40/6/31
f 39/4/32 38/2/32 47/2/32
f 43/4/33 42/2/33 25/2/33
f 29/3/34 41/3/34 44/6/34
f 44/6/35 43/4/35 26/4/35
f 42/2/36 41/3/36 29/3/36
f 46/4/37 47/2/37 49/2/37
f 51/3/38 45/3/38 48/6/38
f 50/6/39 48/6/39 46/4/39
f 47/2/40 45/3/40 51/3/40
f 42/2/41 49/2/41 51/3/41
f 50/6/42 52/4/42 43/4/42
f 51/3/43 50/6/43 44/6/43
f 43/4/44 52/4/44 49/2/44
f 33/7/45 34/1/45 4/3/45
f 35/8/46 8/4/46 36/5/46
f 34/7/47 36/1/47 3/3/47
f 35/7/48 33/1/48 8/3/48
f 2/4/49 6/6/49 1/2/49
f 9/3/6 12/6/6 10/2/6
f 19/2/7 17/3/7 10/2/7
f 12/6/8 20/6/8 11/4/8
f 9/3/9 17/3/9 12/6/9
f 11/4/10 18/4/10 10/2/10
f 2/4/50 1/2/50 15/4/50
f 13/3/51 5/3/51 16/6/51
f 16/6/52 6/6/52 15/4/52
f 1/2/53 5/3/53 14/2/53
f 24/4/15 21/2/15 18/4/15
f 17/3/16 23/3/16 20/6/16
f 22/6/17 24/4/17 20/6/17
f 21/2/18 23/3/18 19/2/18
f 21/2/54 14/2/54 23/3/54
f 16/6/55 15/4/55 22/6/55
f 23/3/56 13/3/56 22/6/56
f 15/4/57 14/2/57 24/4/57
f 33/7/58 28/3/58 34/1/58
f 35/8/59 36/5/59 32/4/59
f 36/1/60 34/7/60 31/2/60
f 35/7/61 32/3/61 33/1/61
f 30/6/27 26/4/27 29/3/27
f 40/6/28 37/3/28 39/4/28
f 45/3/29 47/2/29 37/3/29
f 48/6/30 40/6/30 46/4/30
f 48/6/31 45/3/31 40/6/31
f 46/4/32 39/4/32 47/2/32
f 26/4/33 43/4/33 25/2/33
f 30/6/34 29/3/34 44/6/34
f 30/6/35 44/6/35 26/4/35
f 25/2/36 42/2/36 29/3/36
f 52/4/37 46/4/37 49/2/37
f 50/6/38 51/3/38 48/6/38
f 52/4/39 50/6/39 46/4/39
f 49/2/40 47/2/40 51/3/40
f 41/3/62 42/2/62 51/3/62
f 44/6/63 50/6/63 43/4/63
f 41/3/64 51/3/64 44/6/64
f 42/2/65 43/4/65 49/2/65
