# Blender v2.76 (sub 0) OBJ File: 'handsBlock.blend'
# www.blender.org
mtllib handsBlock_000087.mtl
o Cube
v 0.602128 -0.085783 -1.971621
v 0.773923 0.012569 -2.434956
v 0.354819 -0.380927 -2.424946
v 0.657296 -0.526790 -2.174922
v 0.355411 -0.510817 -2.086845
v 0.514772 -0.411515 -2.554851
v 0.573462 0.071945 -2.370738
v 0.845408 -0.053664 -2.163660
v 4.414867 0.198957 0.121352
v 4.204340 0.393888 0.036051
v 4.357800 0.449867 -0.214773
v 4.568327 0.254937 -0.129471
v 2.799999 -2.158950 -1.148223
v 2.737687 -1.679604 -1.164013
v 3.018489 -1.604123 -1.737346
v 3.080740 -2.083479 -1.721582
v 4.204424 -0.362999 0.130330
v 4.063274 0.257596 -0.701033
v 3.683710 0.119139 -0.080651
v 4.583988 -0.224542 -0.490052
v 3.622617 -0.404267 -0.460991
v 4.062016 -0.572007 -0.660808
v 3.876763 -0.639585 -0.358017
v 3.807871 -0.336689 -0.763782
v -0.680571 0.108181 1.931649
v -0.394263 0.462470 2.163785
v -0.663758 0.102147 2.399801
v -0.568502 -0.142238 2.347066
v -0.752083 -0.127558 2.379637
v -0.465775 0.226731 2.611773
v -0.558668 0.466059 2.175839
v -0.463202 0.221741 2.123214
v 0.342731 -0.353772 0.003799
v -0.349472 -0.349472 -0.000446
v 0.401680 0.269716 0.055728
v -0.260755 0.405917 -0.056498
v 4.066905 0.275596 0.765084
v 3.931173 0.263725 0.498566
v 3.757990 0.495104 0.576458
v 3.893722 0.506976 0.842975
v 1.650120 -1.868673 1.924464
v 1.740646 -1.570251 1.357357
v 2.103083 -1.121757 1.651218
v 2.012557 -1.420179 2.218325
v 3.946855 -0.210766 1.095541
v 3.182793 0.332161 0.628996
v 3.611139 -0.240130 0.436340
v 3.518509 0.361524 1.288197
v 3.186044 -0.460991 0.875499
v 3.140834 -0.167340 1.291265
v 3.349898 -0.446659 1.197236
v 2.976981 -0.181671 0.969527
vt 1.000000 0.500000
vt 1.000000 1.000000
vt 0.000000 1.000000
vt 1.000000 0.000000
vt 0.500000 1.000000
vt 0.000000 0.500000
vt 0.000000 0.000000
vt 0.500000 0.000000
vn -0.367700 -0.925100 -0.094800
vn 0.409300 0.912300 0.015900
vn -0.933500 0.083800 -0.348600
vn 0.915700 -0.367900 0.161400
vn -0.831300 0.528900 -0.170900
vn 0.492400 0.735500 0.465400
vn -0.276400 0.118800 0.953700
vn 0.665500 0.462400 -0.585900
vn 0.840700 -0.307700 0.445700
vn -0.451600 0.888800 -0.077900
vn 0.476500 0.810700 0.340100
vn -0.439100 -0.836800 -0.327100
vn 0.335800 0.060600 -0.940000
vn -0.368500 -0.017300 0.929500
vn -0.820000 0.396000 -0.413300
vn 0.519800 -0.844400 0.129500
vn 0.338200 -0.046100 -0.940000
vn -0.638400 -0.402300 0.656200
vn -0.550000 -0.044000 0.834000
vn 0.558300 0.257900 -0.788500
vn 0.713700 -0.648700 0.264100
vn -0.705600 0.647900 -0.287100
vn -0.934300 -0.352100 -0.056100
vn 0.933400 0.339900 0.115400
vn -0.970200 0.181000 -0.161100
vn 0.929700 -0.044200 0.365500
vn -0.816600 0.554200 0.161300
vn 0.678000 0.633200 -0.373500
vn 0.799400 -0.460000 -0.386600
vn -0.263700 0.960300 0.091500
vn 0.684400 0.286600 0.670400
vn -0.148700 0.213700 -0.965500
vn 0.121300 0.473500 -0.872400
vn -0.158300 -0.448400 0.879700
vn 0.541400 0.705400 0.457600
vn -0.578400 -0.680200 -0.450300
vn -0.638500 -0.230800 -0.734200
vn 0.225200 -0.155200 0.961900
vn -0.757700 0.543200 0.361700
vn 0.344400 -0.929200 -0.134000
vn 0.539800 -0.807200 -0.239000
vn -0.598800 0.753500 0.271400
vn 0.542300 0.126300 0.830600
vn -0.531100 -0.115000 -0.839400
vn -0.006700 -0.996900 0.078200
vn 0.216400 0.971400 -0.098300
vn -0.858400 0.445000 -0.255100
vn 0.971500 -0.109400 0.210200
vn -0.814400 0.550000 -0.185200
vn 0.474500 0.808700 0.347600
vn -0.439500 -0.837200 -0.325400
vn 0.314500 0.009600 -0.949200
vn -0.375200 -0.033300 0.926300
vn -0.482000 -0.142200 0.864600
vn 0.684600 0.065000 -0.726000
vn 0.705000 -0.648700 0.286600
vn -0.714200 0.648000 -0.264500
vn -0.006700 -0.996200 0.087300
vn 0.184200 0.977800 0.099700
vn -0.985300 0.105700 -0.134300
vn 0.917000 -0.118400 0.380900
vn 0.799300 -0.460000 -0.386600
vn 0.517500 -0.788500 -0.332300
vn -0.586500 0.751600 0.301900
vn 0.680100 -0.697500 0.225700
vn -0.641600 0.709500 -0.291400
usemtl Material
s off
f 34/1/1 3/2/1 4/3/1
f 8/4/2 7/2/2 36/5/2
f 34/6/3 36/1/3 7/2/3
f 33/1/4 4/2/4 8/3/4
f 6/7/5 5/3/5 1/2/5
f 12/7/6 11/4/6 10/2/6
f 17/3/7 9/3/7 10/2/7
f 20/7/8 18/4/8 11/4/8
f 20/7/9 12/7/9 9/3/9
f 19/2/10 10/2/10 11/4/10
f 1/2/11 14/2/11 15/4/11
f 5/3/12 6/7/12 16/7/12
f 6/7/13 2/4/13 15/4/13
f 5/3/14 13/3/14 14/2/14
f 21/2/15 19/2/15 18/4/15
f 23/3/16 22/7/16 20/7/16
f 22/7/17 24/4/17 18/4/17
f 23/3/18 17/3/18 19/2/18
f 14/2/19 13/3/19 23/3/19
f 15/4/20 24/4/20 22/7/20
f 13/3/21 16/7/21 22/7/21
f 14/2/22 21/2/22 24/4/22
f 28/3/23 27/2/23 34/1/23
f 36/5/24 31/2/24 32/4/24
f 34/6/25 27/3/25 31/2/25
f 32/3/26 28/2/26 33/1/26
f 30/7/27 26/4/27 25/2/27
f 40/7/28 37/3/28 38/2/28
f 38/2/29 37/3/29 45/3/29
f 48/7/30 40/7/30 39/4/30
f 37/3/31 40/7/31 48/7/31
f 39/4/32 38/2/32 47/2/32
f 43/4/33 42/2/33 25/2/33
f 41/3/34 44/7/34 30/7/34
f 30/7/35 44/7/35 43/4/35
f 42/2/36 41/3/36 29/3/36
f 52/4/37 46/4/37 47/2/37
f 51/3/38 45/3/38 48/7/38
f 50/7/39 48/7/39 46/4/39
f 47/2/40 45/3/40 51/3/40
f 42/2/41 49/2/41 51/3/41
f 50/7/42 52/4/42 43/4/42
f 51/3/43 50/7/43 44/7/43
f 43/4/44 52/4/44 49/2/44
f 33/6/45 34/1/45 4/3/45
f 35/8/46 8/4/46 36/5/46
f 3/3/47 34/6/47 7/2/47
f 35/6/48 33/1/48 8/3/48
f 2/4/49 6/7/49 1/2/49
f 9/3/6 12/7/6 10/2/6
f 19/2/7 17/3/7 10/2/7
f 12/7/8 20/7/8 11/4/8
f 17/3/9 20/7/9 9/3/9
f 18/4/10 19/2/10 11/4/10
f 2/4/50 1/2/50 15/4/50
f 13/3/51 5/3/51 16/7/51
f 16/7/52 6/7/52 15/4/52
f 1/2/53 5/3/53 14/2/53
f 24/4/15 21/2/15 18/4/15
f 17/3/16 23/3/16 20/7/16
f 20/7/17 22/7/17 18/4/17
f 21/2/18 23/3/18 19/2/18
f 21/2/54 14/2/54 23/3/54
f 16/7/55 15/4/55 22/7/55
f 23/3/56 13/3/56 22/7/56
f 15/4/57 14/2/57 24/4/57
f 33/6/58 28/3/58 34/1/58
f 35/8/59 36/5/59 32/4/59
f 36/1/60 34/6/60 31/2/60
f 35/6/61 32/3/61 33/1/61
f 29/3/27 30/7/27 25/2/27
f 39/4/28 40/7/28 38/2/28
f 47/2/62 38/2/62 45/3/62
f 46/4/30 48/7/30 39/4/30
f 45/3/31 37/3/31 48/7/31
f 46/4/32 39/4/32 47/2/32
f 26/4/33 43/4/33 25/2/33
f 29/3/34 41/3/34 30/7/34
f 26/4/35 30/7/35 43/4/35
f 25/2/36 42/2/36 29/3/36
f 49/2/37 52/4/37 47/2/37
f 50/7/38 51/3/38 48/7/38
f 52/4/39 50/7/39 46/4/39
f 49/2/40 47/2/40 51/3/40
f 41/3/63 42/2/63 51/3/63
f 44/7/64 50/7/64 43/4/64
f 41/3/65 51/3/65 44/7/65
f 42/2/66 43/4/66 49/2/66
