# Blender v2.76 (sub 0) OBJ File: 'handsBlock.blend'
# www.blender.org
mtllib handsBlock_000107.mtl
o Cube
v 0.650044 -0.084617 -1.984963
v 0.783625 -0.029875 -2.467690
v 0.327484 -0.381701 -2.417412
v 0.656477 -0.522961 -2.171985
v 0.333189 -0.471671 -2.052732
v 0.454179 -0.414291 -2.538895
v 0.578246 0.052902 -2.385552
v 0.851009 -0.053357 -2.165100
v 4.665887 -0.300332 -0.304168
v 4.478042 -0.079203 -0.377739
v 4.610217 -0.055939 -0.645292
v 4.798062 -0.277067 -0.571721
v 2.598367 -2.433236 -1.281634
v 2.605136 -1.950847 -1.315701
v 2.830802 -1.939015 -1.917525
v 2.823970 -2.421404 -1.883478
v 4.378106 -0.823649 -0.245145
v 4.240415 -0.219174 -1.088872
v 3.913494 -0.276715 -0.427112
v 4.705025 -0.766107 -0.906905
v 3.736457 -0.798347 -0.771936
v 4.122781 -1.037204 -1.006109
v 3.963221 -1.065289 -0.683122
v 3.896017 -0.770261 -1.094922
v -0.639890 0.128474 1.917328
v -0.355742 0.448648 2.196844
v -0.683335 0.093269 2.405441
v -0.586999 -0.134061 2.329019
v -0.789090 -0.111215 2.343554
v -0.504941 0.208959 2.623070
v -0.539416 0.459159 2.192350
v -0.442873 0.231888 2.116050
v 0.342731 -0.353772 0.003799
v -0.349472 -0.349472 -0.000446
v 0.401680 0.269716 0.055728
v -0.260755 0.405917 -0.056498
v 4.214442 -0.113096 1.365471
v 4.113687 -0.105448 1.083716
v 3.953020 0.138836 1.147802
v 4.053775 0.131188 1.429557
v 1.488556 -2.054361 2.129631
v 1.677426 -1.750938 1.590073
v 2.037128 -1.345631 1.943911
v 1.848259 -1.649054 2.483470
v 4.010324 -0.594715 1.659651
v 3.363728 0.028412 1.121273
v 3.761118 -0.575798 0.962764
v 3.612934 0.009494 1.818160
v 3.265131 -0.767787 1.336237
v 3.192807 -0.482122 1.753731
v 3.386762 -0.777020 1.676368
v 3.071177 -0.472889 1.413600
vt 1.000000 0.500000
vt 1.000000 1.000000
vt 0.000000 1.000000
vt 1.000000 0.000000
vt 0.500000 1.000000
vt 0.000000 0.000000
vt 0.000000 0.500000
vt 0.500000 0.000000
vn -0.340400 -0.936600 -0.082800
vn 0.368700 0.929500 -0.008100
vn -0.796200 0.485900 -0.360500
vn 0.911000 -0.379700 0.160900
vn -0.759000 0.641200 -0.113200
vn 0.641200 0.669500 0.375000
vn -0.152300 0.193100 0.969300
vn 0.659000 0.335900 -0.673000
vn 0.829800 -0.414200 0.373900
vn -0.323200 0.943100 -0.077600
vn 0.623100 0.741700 0.248200
vn -0.588700 -0.772600 -0.237700
vn 0.238200 -0.024300 -0.970900
vn -0.265300 0.071600 0.961500
vn -0.793200 0.499500 -0.348400
vn 0.402200 -0.907700 0.119800
vn 0.225100 -0.130100 -0.965600
vn -0.616000 -0.278100 0.737000
vn -0.457900 0.069000 0.886300
vn 0.502100 0.142700 -0.853000
vn 0.635900 -0.738600 0.223900
vn -0.630500 0.735700 -0.247500
vn -0.926200 -0.372300 -0.060000
vn 0.927500 0.358300 0.106500
vn -0.946600 0.267200 -0.180500
vn 0.914800 -0.139700 0.379000
vn -0.778400 0.622900 0.077800
vn 0.773700 0.577300 -0.261000
vn 0.798800 -0.521600 -0.299800
vn -0.187400 0.977800 0.093600
vn 0.614900 0.204600 0.761600
vn -0.003600 0.251600 -0.967800
vn 0.274100 0.482800 -0.831700
vn -0.309400 -0.454600 0.835200
vn 0.538000 0.640200 0.548300
vn -0.573300 -0.612000 -0.544800
vn -0.556400 -0.151700 -0.816900
vn 0.084700 -0.200300 0.976100
vn -0.747100 0.601300 0.283500
vn 0.275400 -0.953300 -0.124300
vn 0.492700 -0.847100 -0.199200
vn -0.559900 0.798300 0.221900
vn 0.439700 0.054000 0.896500
vn -0.426600 -0.043500 -0.903400
vn -0.006700 -0.997000 0.076600
vn 0.216300 0.971400 -0.097600
vn -0.958500 0.092600 -0.269700
vn 0.971000 -0.109500 0.212400
vn -0.740800 0.659000 -0.130300
vn 0.621600 0.740300 0.256000
vn -0.589000 -0.772900 -0.236000
vn 0.208900 -0.071800 -0.975300
vn -0.274500 0.056700 0.959900
vn -0.402000 -0.037100 0.914900
vn 0.604900 -0.064600 -0.793600
vn 0.629800 -0.736400 0.247100
vn -0.636500 0.737900 -0.224200
vn -0.006700 -0.995800 0.091400
vn 0.185200 0.978200 0.093900
vn -0.986400 0.106600 -0.124800
vn 0.919600 -0.118200 0.374800
vn 0.484300 -0.824000 -0.293900
vn -0.551900 0.794400 0.253600
vn 0.581100 -0.763000 0.283300
vn -0.533500 0.773000 -0.343100
usemtl Material
s off
f 34/1/1 3/2/1 4/3/1
f 8/4/2 7/2/2 36/5/2
f 36/1/3 7/2/3 3/3/3
f 33/1/4 4/2/4 8/3/4
f 6/6/5 5/3/5 1/2/5
f 12/6/6 11/4/6 10/2/6
f 19/2/7 17/3/7 9/3/7
f 20/6/8 18/4/8 11/4/8
f 17/3/9 20/6/9 12/6/9
f 19/2/10 10/2/10 11/4/10
f 1/2/11 14/2/11 15/4/11
f 5/3/12 6/6/12 16/6/12
f 6/6/13 2/4/13 15/4/13
f 5/3/14 13/3/14 14/2/14
f 24/4/15 21/2/15 19/2/15
f 23/3/16 22/6/16 20/6/16
f 24/4/17 18/4/17 20/6/17
f 23/3/18 17/3/18 19/2/18
f 14/2/19 13/3/19 23/3/19
f 15/4/20 24/4/20 22/6/20
f 13/3/21 16/6/21 22/6/21
f 14/2/22 21/2/22 24/4/22
f 28/3/23 27/2/23 34/1/23
f 36/5/24 31/2/24 32/4/24
f 34/7/25 27/3/25 31/2/25
f 32/3/26 28/2/26 33/1/26
f 26/4/27 25/2/27 29/3/27
f 37/3/28 38/2/28 39/4/28
f 38/2/29 37/3/29 45/3/29
f 40/6/30 39/4/30 46/4/30
f 45/3/31 37/3/31 40/6/31
f 39/4/32 38/2/32 47/2/32
f 43/4/33 42/2/33 25/2/33
f 41/3/34 44/6/34 30/6/34
f 30/6/35 44/6/35 43/4/35
f 42/2/36 41/3/36 29/3/36
f 52/4/37 46/4/37 47/2/37
f 45/3/38 48/6/38 50/6/38
f 50/6/39 48/6/39 46/4/39
f 47/2/40 45/3/40 51/3/40
f 42/2/41 49/2/41 51/3/41
f 50/6/42 52/4/42 43/4/42
f 51/3/43 50/6/43 44/6/43
f 43/4/44 52/4/44 49/2/44
f 33/7/45 34/1/45 4/3/45
f 35/8/46 8/4/46 36/5/46
f 34/7/47 36/1/47 3/3/47
f 35/7/48 33/1/48 8/3/48
f 2/4/49 6/6/49 1/2/49
f 9/3/6 12/6/6 10/2/6
f 10/2/7 19/2/7 9/3/7
f 12/6/8 20/6/8 11/4/8
f 9/3/9 17/3/9 12/6/9
f 18/4/10 19/2/10 11/4/10
f 2/4/50 1/2/50 15/4/50
f 13/3/51 5/3/51 16/6/51
f 16/6/52 6/6/52 15/4/52
f 1/2/53 5/3/53 14/2/53
f 18/4/15 24/4/15 19/2/15
f 17/3/16 23/3/16 20/6/16
f 22/6/17 24/4/17 20/6/17
f 21/2/18 23/3/18 19/2/18
f 21/2/54 14/2/54 23/3/54
f 16/6/55 15/4/55 22/6/55
f 23/3/56 13/3/56 22/6/56
f 15/4/57 14/2/57 24/4/57
f 33/7/58 28/3/58 34/1/58
f 35/8/59 36/5/59 32/4/59
f 36/1/60 34/7/60 31/2/60
f 35/7/61 32/3/61 33/1/61
f 30/6/27 26/4/27 29/3/27
f 40/6/28 37/3/28 39/4/28
f 47/2/29 38/2/29 45/3/29
f 48/6/30 40/6/30 46/4/30
f 48/6/31 45/3/31 40/6/31
f 46/4/32 39/4/32 47/2/32
f 26/4/33 43/4/33 25/2/33
f 29/3/34 41/3/34 30/6/34
f 26/4/35 30/6/35 43/4/35
f 25/2/36 42/2/36 29/3/36
f 49/2/37 52/4/37 47/2/37
f 51/3/38 45/3/38 50/6/38
f 52/4/39 50/6/39 46/4/39
f 49/2/40 47/2/40 51/3/40
f 41/3/62 42/2/62 51/3/62
f 44/6/63 50/6/63 43/4/63
f 41/3/64 51/3/64 44/6/64
f 42/2/65 43/4/65 49/2/65
