# Blender v2.76 (sub 0) OBJ File: 'handsBlock.blend'
# www.blender.org
mtllib handsBlock_000075.mtl
o Cube
v 0.556028 -0.094026 -1.963796
v 0.755791 0.049729 -2.403449
v 0.381095 -0.376125 -2.429333
v 0.658877 -0.530150 -2.177754
v 0.384970 -0.543101 -2.118298
v 0.572801 -0.399907 -2.563833
v 0.564911 0.088552 -2.356525
v 0.840056 -0.054782 -2.162865
v 4.069199 0.615569 0.516668
v 3.842135 0.783266 0.417092
v 4.009436 0.872198 0.185365
v 4.236500 0.704501 0.284941
v 2.938463 -1.879193 -0.992292
v 2.809972 -1.412969 -0.997757
v 3.130977 -1.271319 -1.536411
v 3.259413 -1.737559 -1.530979
v 3.941512 0.030052 0.484608
v 3.793697 0.664793 -0.334831
v 3.379896 0.444830 0.238318
v 4.355312 0.250015 -0.088541
v 3.431299 -0.062811 -0.164178
v 3.907372 -0.157895 -0.323708
v 3.705408 -0.265252 -0.043971
v 3.633263 0.044547 -0.443916
v -0.715282 0.086208 1.950440
v -0.435371 0.471228 2.136961
v -0.646832 0.111927 2.391958
v -0.548379 -0.147822 2.362026
v -0.711827 -0.138715 2.409546
v -0.431917 0.246305 2.596067
v -0.579211 0.470429 2.162444
v -0.480547 0.210756 2.132612
v 0.342731 -0.353772 0.003799
v -0.349472 -0.349472 -0.000446
v 0.401680 0.269716 0.055728
v -0.260755 0.405917 -0.056498
v 3.825710 0.609592 0.208916
v 3.660652 0.576976 -0.038648
v 3.478452 0.795635 0.054022
v 3.643511 0.828252 0.301585
v 1.761760 -1.687368 1.707911
v 1.757385 -1.402638 1.126731
v 2.111722 -0.915242 1.362847
v 2.116097 -1.199972 1.944028
v 3.789035 0.126863 0.563584
v 2.930135 0.587015 0.180470
v 3.380784 0.046188 -0.048737
v 3.338386 0.667689 0.792790
v 3.032200 -0.193864 0.444426
v 3.011507 0.109473 0.855151
v 3.231455 -0.154489 0.743282
v 2.812251 0.070098 0.556295
vt 1.000000 0.500000
vt 1.000000 1.000000
vt 0.000000 1.000000
vt 1.000000 0.000000
vt 0.500000 1.000000
vt 0.000000 0.500000
vt 0.000000 0.000000
vt 0.500000 0.000000
vn -0.403000 -0.908400 -0.111200
vn 0.442200 0.896200 0.035100
vn -0.934100 0.084000 -0.346900
vn 0.920400 -0.355900 0.162100
vn -0.878100 0.415900 -0.236500
vn 0.334900 0.773200 0.538500
vn -0.381200 0.032500 0.923900
vn 0.645800 0.578400 -0.498400
vn 0.829200 -0.209200 0.518400
vn -0.564600 0.820100 -0.092900
vn 0.320500 0.851600 0.414900
vn -0.281100 -0.872800 -0.399000
vn 0.412600 0.152400 -0.898100
vn -0.450100 -0.113700 0.885700
vn -0.824600 0.297900 -0.481000
vn 0.620400 -0.769300 0.152700
vn 0.430200 0.047300 -0.901500
vn -0.634400 -0.518700 0.573100
vn -0.615700 -0.160700 0.771400
vn 0.589000 0.371200 -0.717900
vn 0.770500 -0.555300 0.313100
vn -0.760100 0.556700 -0.335100
vn -0.935800 -0.349100 -0.049000
vn 0.932200 0.340000 0.123900
vn -0.985400 0.095600 -0.140900
vn 0.935800 0.046600 0.349500
vn -0.836800 0.489200 0.246000
vn 0.570400 0.674200 -0.469100
vn 0.784500 -0.404700 -0.469800
vn -0.333800 0.937400 0.099100
vn 0.731900 0.366400 0.574400
vn -0.281200 0.166200 -0.945100
vn -0.025700 0.450900 -0.892200
vn -0.012200 -0.428800 0.903300
vn 0.528400 0.764000 0.370300
vn -0.566300 -0.741800 -0.359200
vn -0.699100 -0.309300 -0.644700
vn 0.351300 -0.101700 0.930700
vn -0.753600 0.490200 0.437900
vn 0.405800 -0.901200 -0.151800
vn 0.575900 -0.767000 -0.282900
vn -0.625700 0.709800 0.323700
vn 0.624600 0.200600 0.754800
vn -0.615600 -0.188700 -0.765200
vn -0.006700 -0.996800 0.079600
vn 0.216500 0.971200 -0.099300
vn -0.880400 0.390400 -0.269100
vn 0.972000 -0.109200 0.208000
vn -0.863100 0.439800 -0.248300
vn 0.318100 0.848900 0.422100
vn -0.281700 -0.873300 -0.397400
vn 0.399800 0.099500 -0.911200
vn -0.454000 -0.130300 0.881400
vn -0.537600 -0.249800 0.805300
vn 0.735000 0.194900 -0.649500
vn 0.759700 -0.557600 0.334500
vn -0.770800 0.554500 -0.313500
vn -0.006700 -0.996400 0.084500
vn 0.183100 0.977400 0.105500
vn -0.984000 0.104900 -0.144300
vn 0.915100 -0.118600 0.385400
vn 0.570400 0.674200 -0.469200
vn 0.541000 -0.753600 -0.373300
vn -0.609700 0.710000 0.352400
vn 0.760600 -0.629600 0.158300
vn -0.731500 0.642500 -0.228500
usemtl Material
s off
f 34/1/1 3/2/1 4/3/1
f 8/4/2 7/2/2 36/5/2
f 34/6/3 36/1/3 7/2/3
f 33/1/4 4/2/4 8/3/4
f 6/7/5 5/3/5 1/2/5
f 11/4/6 10/2/6 9/3/6
f 17/3/7 9/3/7 10/2/7
f 20/7/8 18/4/8 11/4/8
f 20/7/9 12/7/9 9/3/9
f 19/2/10 10/2/10 11/4/10
f 1/2/11 14/2/11 15/4/11
f 5/3/12 6/7/12 16/7/12
f 6/7/13 2/4/13 15/4/13
f 5/3/14 13/3/14 14/2/14
f 21/2/15 19/2/15 18/4/15
f 23/3/16 22/7/16 20/7/16
f 22/7/17 24/4/17 18/4/17
f 23/3/18 17/3/18 19/2/18
f 14/2/19 13/3/19 23/3/19
f 15/4/20 24/4/20 22/7/20
f 13/3/21 16/7/21 22/7/21
f 14/2/22 21/2/22 24/4/22
f 28/3/23 27/2/23 34/1/23
f 36/5/24 31/2/24 32/4/24
f 34/6/25 27/3/25 31/2/25
f 32/3/26 28/2/26 33/1/26
f 26/4/27 25/2/27 29/3/27
f 37/3/28 38/2/28 39/4/28
f 47/2/29 38/2/29 37/3/29
f 48/7/30 40/7/30 39/4/30
f 37/3/31 40/7/31 48/7/31
f 39/4/32 38/2/32 47/2/32
f 26/4/33 43/4/33 42/2/33
f 29/3/34 41/3/34 44/7/34
f 30/7/35 44/7/35 43/4/35
f 42/2/36 41/3/36 29/3/36
f 46/4/37 47/2/37 49/2/37
f 51/3/38 45/3/38 48/7/38
f 48/7/39 46/4/39 52/4/39
f 47/2/40 45/3/40 51/3/40
f 42/2/41 49/2/41 51/3/41
f 50/7/42 52/4/42 43/4/42
f 51/3/43 50/7/43 44/7/43
f 43/4/44 52/4/44 49/2/44
f 33/6/45 34/1/45 4/3/45
f 35/8/46 8/4/46 36/5/46
f 3/3/47 34/6/47 7/2/47
f 35/6/48 33/1/48 8/3/48
f 2/4/49 6/7/49 1/2/49
f 12/7/6 11/4/6 9/3/6
f 19/2/7 17/3/7 10/2/7
f 12/7/8 20/7/8 11/4/8
f 17/3/9 20/7/9 9/3/9
f 18/4/10 19/2/10 11/4/10
f 2/4/50 1/2/50 15/4/50
f 13/3/51 5/3/51 16/7/51
f 16/7/52 6/7/52 15/4/52
f 1/2/53 5/3/53 14/2/53
f 24/4/15 21/2/15 18/4/15
f 17/3/16 23/3/16 20/7/16
f 20/7/17 22/7/17 18/4/17
f 21/2/18 23/3/18 19/2/18
f 21/2/54 14/2/54 23/3/54
f 16/7/55 15/4/55 22/7/55
f 23/3/56 13/3/56 22/7/56
f 15/4/57 14/2/57 24/4/57
f 33/6/58 28/3/58 34/1/58
f 35/8/59 36/5/59 32/4/59
f 36/1/60 34/6/60 31/2/60
f 35/6/61 32/3/61 33/1/61
f 30/7/27 26/4/27 29/3/27
f 40/7/62 37/3/62 39/4/62
f 45/3/29 47/2/29 37/3/29
f 46/4/30 48/7/30 39/4/30
f 45/3/31 37/3/31 48/7/31
f 46/4/32 39/4/32 47/2/32
f 25/2/33 26/4/33 42/2/33
f 30/7/34 29/3/34 44/7/34
f 26/4/35 30/7/35 43/4/35
f 25/2/36 42/2/36 29/3/36
f 52/4/37 46/4/37 49/2/37
f 50/7/38 51/3/38 48/7/38
f 50/7/39 48/7/39 52/4/39
f 49/2/40 47/2/40 51/3/40
f 41/3/63 42/2/63 51/3/63
f 44/7/64 50/7/64 43/4/64
f 41/3/65 51/3/65 44/7/65
f 42/2/66 43/4/66 49/2/66
