# Blender v2.76 (sub 0) OBJ File: 'handsAttack.blend'
# www.blender.org
mtllib handsAttack_000044.mtl
o Cube
v -0.076115 -0.006079 -2.097773
v -0.127259 0.070036 -2.588737
v -0.545448 -0.280500 -2.390465
v -0.142817 -0.423316 -2.284684
v -0.412716 -0.378679 -2.059216
v -0.477547 -0.300048 -2.547303
v -0.296141 0.150383 -2.433763
v 0.035924 0.049640 -2.326596
v 4.080581 -0.309251 -1.708880
v 3.867717 -0.103326 -1.665522
v 3.887865 -0.021996 -1.952881
v 4.100729 -0.227920 -1.996239
v 1.895946 -2.455579 -2.243516
v 1.888987 -1.998674 -2.223103
v 1.874145 -1.912522 -2.855338
v 1.881032 -2.369428 -2.875739
v 3.863720 -0.865931 -1.651948
v 3.387062 -0.155439 -2.255457
v 3.337227 -0.356600 -1.544708
v 3.913554 -0.664769 -2.362696
v 3.070420 -0.833908 -1.895901
v 3.351708 -0.984316 -2.295137
v 3.327386 -1.082497 -1.948241
v 3.094742 -0.735726 -2.242797
v 0.394411 -0.028265 1.945240
v 0.619895 0.351481 2.202788
v 0.351048 -0.031686 2.490602
v 0.485016 -0.265934 2.311499
v 0.296005 -0.268530 2.385659
v 0.521488 0.111216 2.643206
v 0.442920 0.340177 2.257992
v 0.577084 0.106016 2.078944
v 0.344491 -0.353146 -0.001751
v -0.349472 -0.349472 -0.000446
v 0.393313 0.285586 -0.048182
v -0.284623 0.397349 0.017550
v 5.818065 -0.224490 1.619623
v 5.736966 -0.222558 1.331499
v 5.608394 0.045066 1.369482
v 5.689493 0.043135 1.657606
v 2.882756 -1.781654 2.217077
v 3.007329 -1.477503 1.659552
v 3.292768 -0.996783 1.985580
v 3.168195 -1.300935 2.543105
v 5.530819 -0.652699 1.926688
v 5.012224 0.014013 1.307996
v 5.330231 -0.647923 1.214048
v 5.212812 0.009236 2.020634
v 4.790156 -0.744858 1.562284
v 4.732848 -0.424117 1.955957
v 4.888057 -0.747189 1.910104
v 4.634947 -0.421786 1.608137
vt 1.000000 0.500000
vt 1.000000 1.000000
vt 0.000000 1.000000
vt 1.000000 0.000000
vt 0.500000 1.000000
vt 0.000000 0.500000
vt 0.000000 0.000000
vt 0.500000 0.000000
vn -0.334300 -0.942400 0.000200
vn 0.317400 0.943400 -0.096500
vn -0.996200 0.086600 -0.004000
vn 0.914000 -0.361700 -0.184000
vn -0.716100 0.667900 0.202700
vn 0.699800 0.673000 0.239500
vn 0.214600 0.016300 0.976600
vn 0.338300 0.515500 -0.787300
vn 0.929800 -0.366100 -0.038400
vn -0.376800 0.897900 0.227700
vn 0.712300 0.697500 0.078300
vn -0.661700 -0.749000 -0.032800
vn -0.125000 0.007200 -0.992100
vn 0.040100 -0.044000 0.998200
vn -0.890600 0.450100 0.064900
vn 0.464000 -0.860400 -0.211000
vn -0.149200 0.053600 -0.987300
vn -0.277400 -0.463900 0.841300
vn -0.158800 -0.046500 0.986200
vn 0.139200 0.339800 -0.930200
vn 0.704400 -0.700900 -0.112100
vn -0.714700 0.684500 0.143600
vn -0.722800 -0.630200 0.283600
vn 0.757800 0.610400 -0.230500
vn -0.910300 0.356600 0.210500
vn 0.962100 -0.268400 -0.048300
vn -0.876600 0.476900 0.064300
vn 0.861400 0.447800 -0.239500
vn 0.734900 -0.644400 -0.211200
vn -0.054300 0.998300 0.022000
vn 0.589200 0.171000 0.789700
vn 0.091400 0.182900 -0.978900
vn 0.172600 0.480600 -0.859800
vn -0.212300 -0.459000 0.862700
vn 0.421100 0.753400 0.505100
vn -0.460800 -0.731800 -0.502200
vn -0.520600 -0.130400 -0.843800
vn -0.004600 -0.142700 0.989800
vn -0.671700 0.715000 0.193900
vn 0.146500 -0.988100 -0.047900
vn 0.372600 -0.921300 -0.111000
vn -0.365400 0.924500 0.109000
vn 0.337200 0.028400 0.941000
vn -0.272900 0.005400 -0.962000
vn -0.005200 -0.999500 0.031800
vn 0.149600 0.980800 -0.125000
vn -0.858700 0.505400 0.085000
vn 0.985600 -0.085900 -0.145700
vn -0.704300 0.686800 0.179800
vn 0.705700 0.707600 0.036200
vn -0.670100 -0.737400 -0.084700
vn -0.100800 0.042900 -0.994000
vn 0.087700 0.023800 0.995900
vn -0.033300 -0.238800 0.970500
vn 0.328100 0.047100 -0.943500
vn 0.700400 -0.698200 -0.148500
vn -0.718000 0.687200 0.110500
vn -0.005200 -0.999300 0.038000
vn 0.168700 0.983300 0.068400
vn -0.947900 0.074800 0.309700
vn 0.992300 -0.082600 -0.092700
vn 0.378500 -0.845500 -0.376700
vn -0.332800 0.857100 0.393200
vn 0.436800 -0.668000 0.602500
vn -0.305800 0.652100 -0.693700
usemtl Material
s off
f 34/1/1 3/2/1 4/3/1
f 8/4/2 7/2/2 36/5/2
f 34/6/3 36/1/3 7/2/3
f 33/1/4 4/2/4 8/3/4
f 6/7/5 5/3/5 1/2/5
f 11/4/6 10/2/6 9/3/6
f 17/3/7 9/3/7 10/2/7
f 20/7/8 18/4/8 11/4/8
f 17/3/9 20/7/9 12/7/9
f 19/2/10 10/2/10 11/4/10
f 1/2/11 14/2/11 15/4/11
f 5/3/12 6/7/12 16/7/12
f 6/7/13 2/4/13 15/4/13
f 5/3/14 13/3/14 14/2/14
f 21/2/15 19/2/15 18/4/15
f 22/7/16 20/7/16 17/3/16
f 22/7/17 24/4/17 18/4/17
f 23/3/18 17/3/18 19/2/18
f 14/2/19 13/3/19 23/3/19
f 15/4/20 24/4/20 22/7/20
f 13/3/21 16/7/21 22/7/21
f 14/2/22 21/2/22 24/4/22
f 28/3/23 27/2/23 34/1/23
f 36/5/24 31/2/24 32/4/24
f 34/6/25 27/3/25 31/2/25
f 32/3/26 28/2/26 33/1/26
f 30/7/27 26/4/27 25/2/27
f 40/7/28 37/3/28 38/2/28
f 38/2/29 37/3/29 45/3/29
f 48/7/30 40/7/30 39/4/30
f 45/3/31 37/3/31 40/7/31
f 39/4/32 38/2/32 47/2/32
f 26/4/33 43/4/33 42/2/33
f 41/3/34 44/7/34 30/7/34
f 44/7/35 43/4/35 26/4/35
f 42/2/36 41/3/36 29/3/36
f 46/4/37 47/2/37 49/2/37
f 45/3/38 48/7/38 50/7/38
f 50/7/39 48/7/39 46/4/39
f 49/2/40 47/2/40 45/3/40
f 42/2/41 49/2/41 51/3/41
f 50/7/42 52/4/42 43/4/42
f 51/3/43 50/7/43 44/7/43
f 43/4/44 52/4/44 49/2/44
f 33/6/45 34/1/45 4/3/45
f 35/8/46 8/4/46 36/5/46
f 3/3/47 34/6/47 7/2/47
f 35/6/48 33/1/48 8/3/48
f 2/4/49 6/7/49 1/2/49
f 12/7/6 11/4/6 9/3/6
f 19/2/7 17/3/7 10/2/7
f 12/7/8 20/7/8 11/4/8
f 9/3/9 17/3/9 12/7/9
f 18/4/10 19/2/10 11/4/10
f 2/4/50 1/2/50 15/4/50
f 13/3/51 5/3/51 16/7/51
f 16/7/52 6/7/52 15/4/52
f 1/2/53 5/3/53 14/2/53
f 24/4/15 21/2/15 18/4/15
f 23/3/16 22/7/16 17/3/16
f 20/7/17 22/7/17 18/4/17
f 21/2/18 23/3/18 19/2/18
f 21/2/54 14/2/54 23/3/54
f 16/7/55 15/4/55 22/7/55
f 23/3/56 13/3/56 22/7/56
f 15/4/57 14/2/57 24/4/57
f 33/6/58 28/3/58 34/1/58
f 35/8/59 36/5/59 32/4/59
f 36/1/60 34/6/60 31/2/60
f 35/6/61 32/3/61 33/1/61
f 29/3/27 30/7/27 25/2/27
f 39/4/28 40/7/28 38/2/28
f 47/2/29 38/2/29 45/3/29
f 46/4/30 48/7/30 39/4/30
f 48/7/31 45/3/31 40/7/31
f 46/4/32 39/4/32 47/2/32
f 25/2/33 26/4/33 42/2/33
f 29/3/34 41/3/34 30/7/34
f 30/7/35 44/7/35 26/4/35
f 25/2/36 42/2/36 29/3/36
f 52/4/37 46/4/37 49/2/37
f 51/3/38 45/3/38 50/7/38
f 52/4/39 50/7/39 46/4/39
f 51/3/40 49/2/40 45/3/40
f 41/3/62 42/2/62 51/3/62
f 44/7/63 50/7/63 43/4/63
f 41/3/64 51/3/64 44/7/64
f 42/2/65 43/4/65 49/2/65
