# Blender v2.76 (sub 0) OBJ File: 'handsBlock.blend'
# www.blender.org
mtllib handsBlock_000020.mtl
o Cube
v 0.422090 -0.163529 -1.973117
v 0.646841 0.134181 -2.311823
v 0.457293 -0.336221 -2.423775
v 0.668544 -0.537848 -2.186028
v 0.523177 -0.602485 -2.200932
v 0.739678 -0.309009 -2.549193
v 0.514806 0.125841 -2.315478
v 0.824729 -0.063298 -2.164328
v 2.398551 1.418160 1.575187
v 2.157254 1.493754 1.415009
v 2.322320 1.687885 1.257967
v 2.563617 1.612292 1.418147
v 2.985587 -0.964863 -0.362840
v 2.666613 -0.601984 -0.384727
v 3.022275 -0.236525 -0.776138
v 3.341218 -0.599435 -0.754301
v 2.564730 0.851279 1.469389
v 2.376184 1.518414 0.684782
v 1.967912 1.038252 1.073203
v 2.973002 1.331442 1.080966
v 2.352216 0.688182 0.683194
v 2.842772 0.831280 0.686984
v 2.643506 0.596926 0.876562
v 2.551481 0.922536 0.493616
v -0.792996 0.003353 2.040009
v -0.586974 0.468903 2.086897
v -0.607337 0.149754 2.352478
v -0.471946 -0.150254 2.392354
v -0.558949 -0.143543 2.470153
v -0.352926 0.322007 2.517041
v -0.654960 0.469247 2.137457
v -0.519372 0.169339 2.177392
v 0.342731 -0.353772 0.003799
v -0.349472 -0.349472 -0.000446
v 0.401680 0.269716 0.055728
v -0.260755 0.405917 -0.056498
v 2.452238 1.374374 -1.353545
v 2.225256 1.265746 -1.515641
v 2.034878 1.443564 -1.368220
v 2.261859 1.552192 -1.206123
v 1.822245 -1.116143 0.923151
v 1.525964 -0.930187 0.378634
v 1.786767 -0.340848 0.437989
v 2.083048 -0.526804 0.982507
v 2.686394 0.955297 -0.993395
v 1.654104 1.126429 -1.029692
v 2.124982 0.686617 -1.394321
v 2.215517 1.395107 -0.628768
v 2.063510 0.442931 -0.795002
v 2.107697 0.788725 -0.421358
v 2.337519 0.574066 -0.599322
v 1.833688 0.657591 -0.617038
vt 1.000000 0.500000
vt 1.000000 1.000000
vt 0.000000 1.000000
vt 0.500000 0.000000
vt 1.000000 0.000000
vt 0.000000 0.500000
vt 0.000000 0.000000
vt 0.500000 1.000000
vn -0.557500 -0.808100 -0.190000
vn 0.530000 0.847600 -0.026100
vn -0.939000 0.085600 -0.333000
vn 0.934500 -0.315100 0.165500
vn -0.868300 0.055800 -0.492800
vn -0.214600 0.718000 0.662100
vn -0.591400 -0.312100 0.743500
vn 0.421800 0.879500 -0.220400
vn 0.655800 0.051700 0.753200
vn -0.825300 0.515700 -0.230000
vn -0.228400 0.806400 0.545400
vn 0.267100 -0.812300 -0.518500
vn 0.527000 0.484400 -0.698300
vn -0.573000 -0.462900 0.676300
vn -0.702400 0.021600 -0.711500
vn 0.833200 -0.459400 0.307800
vn 0.590600 0.398800 -0.701500
vn -0.459800 -0.836600 0.297800
vn -0.660800 -0.550000 0.510700
vn 0.527900 0.715600 -0.457500
vn 0.819400 -0.239300 0.520900
vn -0.805100 0.249300 -0.538200
vn -0.910800 -0.412700 -0.012300
vn 0.893600 0.423700 0.148300
vn -0.979300 -0.190900 -0.066800
vn 0.903800 0.323000 0.280800
vn -0.792500 0.297100 0.532700
vn 0.143000 0.717900 -0.681300
vn 0.640800 -0.262100 -0.721600
vn -0.527800 0.829400 0.183300
vn 0.753100 0.617000 0.228300
vn -0.640100 -0.049800 -0.766600
vn -0.475600 0.294000 -0.829100
vn 0.439700 -0.280500 0.853200
vn 0.384900 0.917100 0.103800
vn -0.420800 -0.903600 -0.079600
vn -0.765800 -0.564500 -0.308100
vn 0.678600 0.126800 0.723500
vn -0.649300 0.346900 0.676800
vn 0.562200 -0.784600 -0.261400
vn 0.627000 -0.633200 -0.453700
vn -0.640100 0.572100 0.512900
vn 0.770800 0.458100 0.442800
vn -0.770000 -0.446000 -0.456300
vn -0.006700 -0.996500 0.082800
vn 0.209200 0.976600 -0.049300
vn -0.932100 0.188500 -0.309300
vn 0.973400 -0.108800 0.201800
vn -0.863200 0.085600 -0.497500
vn -0.231200 0.801700 0.551200
vn 0.266400 -0.813300 -0.517200
vn 0.543800 0.434700 -0.717800
vn -0.567600 -0.478400 0.670000
vn -0.563400 -0.603900 0.563700
vn 0.712900 0.605200 -0.354200
vn 0.805400 -0.250100 0.537400
vn -0.819200 0.238600 -0.521600
vn -0.006700 -0.996600 0.082600
vn 0.179600 0.975900 0.124100
vn -0.978600 0.101700 -0.178800
vn 0.912800 -0.118800 0.390700
vn 0.559500 -0.642400 -0.523800
vn -0.615500 0.580500 0.533100
vn 0.911900 -0.390900 -0.125400
vn -0.915200 0.400100 0.048900
usemtl Material
s off
f 34/1/1 3/2/1 4/3/1
f 35/4/2 8/5/2 7/2/2
f 34/6/3 36/1/3 7/2/3
f 33/1/4 4/2/4 8/3/4
f 6/7/5 5/3/5 1/2/5
f 11/5/6 10/2/6 9/3/6
f 19/2/7 17/3/7 9/3/7
f 18/5/8 11/5/8 12/7/8
f 20/7/9 12/7/9 9/3/9
f 19/2/10 10/2/10 11/5/10
f 1/2/11 14/2/11 15/5/11
f 5/3/12 6/7/12 16/7/12
f 6/7/13 2/5/13 15/5/13
f 5/3/14 13/3/14 14/2/14
f 21/2/15 19/2/15 18/5/15
f 23/3/16 22/7/16 20/7/16
f 24/5/17 18/5/17 20/7/17
f 23/3/18 17/3/18 19/2/18
f 14/2/19 13/3/19 23/3/19
f 15/5/20 24/5/20 22/7/20
f 13/3/21 16/7/21 22/7/21
f 14/2/22 21/2/22 24/5/22
f 28/3/23 27/2/23 34/1/23
f 36/8/24 31/2/24 32/5/24
f 34/6/25 27/3/25 31/2/25
f 32/3/26 28/2/26 33/1/26
f 26/5/27 25/2/27 29/3/27
f 37/3/28 38/2/28 39/5/28
f 47/2/29 38/2/29 37/3/29
f 48/7/30 40/7/30 39/5/30
f 45/3/31 37/3/31 40/7/31
f 39/5/32 38/2/32 47/2/32
f 26/5/33 43/5/33 42/2/33
f 41/3/34 44/7/34 30/7/34
f 30/7/35 44/7/35 43/5/35
f 42/2/36 41/3/36 29/3/36
f 46/5/37 47/2/37 49/2/37
f 51/3/38 45/3/38 48/7/38
f 50/7/39 48/7/39 46/5/39
f 47/2/40 45/3/40 51/3/40
f 42/2/41 49/2/41 51/3/41
f 50/7/42 52/5/42 43/5/42
f 51/3/43 50/7/43 44/7/43
f 43/5/44 52/5/44 49/2/44
f 33/6/45 34/1/45 4/3/45
f 36/8/46 35/4/46 7/2/46
f 3/3/47 34/6/47 7/2/47
f 35/6/48 33/1/48 8/3/48
f 2/5/49 6/7/49 1/2/49
f 12/7/6 11/5/6 9/3/6
f 10/2/7 19/2/7 9/3/7
f 20/7/8 18/5/8 12/7/8
f 17/3/9 20/7/9 9/3/9
f 18/5/10 19/2/10 11/5/10
f 2/5/50 1/2/50 15/5/50
f 13/3/51 5/3/51 16/7/51
f 16/7/52 6/7/52 15/5/52
f 1/2/53 5/3/53 14/2/53
f 24/5/15 21/2/15 18/5/15
f 17/3/16 23/3/16 20/7/16
f 22/7/17 24/5/17 20/7/17
f 21/2/18 23/3/18 19/2/18
f 21/2/54 14/2/54 23/3/54
f 16/7/55 15/5/55 22/7/55
f 23/3/56 13/3/56 22/7/56
f 15/5/57 14/2/57 24/5/57
f 33/6/58 28/3/58 34/1/58
f 35/4/59 36/8/59 32/5/59
f 36/1/60 34/6/60 31/2/60
f 35/6/61 32/3/61 33/1/61
f 30/7/27 26/5/27 29/3/27
f 40/7/28 37/3/28 39/5/28
f 45/3/29 47/2/29 37/3/29
f 46/5/30 48/7/30 39/5/30
f 48/7/31 45/3/31 40/7/31
f 46/5/32 39/5/32 47/2/32
f 25/2/33 26/5/33 42/2/33
f 29/3/34 41/3/34 30/7/34
f 26/5/35 30/7/35 43/5/35
f 25/2/36 42/2/36 29/3/36
f 52/5/37 46/5/37 49/2/37
f 50/7/38 51/3/38 48/7/38
f 52/5/39 50/7/39 46/5/39
f 49/2/40 47/2/40 51/3/40
f 41/3/62 42/2/62 51/3/62
f 44/7/63 50/7/63 43/5/63
f 41/3/64 51/3/64 44/7/64
f 42/2/65 43/5/65 49/2/65
