# Blender v2.76 (sub 0) OBJ File: 'handsAttack.blend'
# www.blender.org
mtllib handsAttack_000010.mtl
o Cube
v -0.248744 0.010130 -2.085281
v -0.340284 0.091853 -2.568307
v -0.741465 -0.260783 -2.339591
v -0.330205 -0.402988 -2.268919
v -0.582505 -0.361444 -2.023124
v -0.687595 -0.277383 -2.501822
v -0.497225 0.170459 -2.399130
v -0.157733 0.071105 -2.320924
v 3.888200 -0.294693 -1.969623
v 3.676613 -0.095091 -1.899009
v 3.671529 -0.000080 -2.182810
v 3.883116 -0.199680 -2.253424
v 1.696652 -2.446451 -2.420108
v 1.689179 -1.996899 -2.386230
v 1.620848 -1.892717 -3.010552
v 1.628251 -2.342271 -3.044410
v 3.685238 -0.857439 -1.921814
v 3.149327 -0.128749 -2.449105
v 3.161902 -0.363750 -1.747158
v 3.672662 -0.622437 -2.623761
v 2.873982 -0.829136 -2.097675
v 3.123270 -0.955394 -2.525520
v 3.129408 -1.070091 -2.182919
v 2.867845 -0.714438 -2.440276
v 0.633527 -0.046926 1.883440
v 0.842390 0.343539 2.138967
v 0.594769 -0.048516 2.441839
v 0.731243 -0.281937 2.237440
v 0.550363 -0.291253 2.324766
v 0.759226 0.099212 2.580293
v 0.672053 0.326404 2.207716
v 0.808716 0.093077 2.003356
v 0.344556 -0.352949 -0.003115
v -0.349472 -0.349472 -0.000446
v 0.385145 0.289789 -0.071172
v -0.285554 0.394650 0.035777
v 6.164976 -0.205255 1.556413
v 6.084218 -0.202561 1.268199
v 5.963582 0.068957 1.304540
v 6.044341 0.066264 1.592753
v 3.205937 -1.677512 2.136466
v 3.311213 -1.368219 1.577792
v 3.575613 -0.873930 1.901264
v 3.470336 -1.183223 2.459937
v 5.864932 -0.623039 1.865593
v 5.366807 0.055192 1.242616
v 5.665186 -0.616377 1.152733
v 5.566554 0.048530 1.955477
v 5.122182 -0.695329 1.500955
v 5.074043 -0.370807 1.892752
v 5.219673 -0.698580 1.848882
v 4.976552 -0.367555 1.544824
vt 1.000000 0.500000
vt 1.000000 1.000000
vt 0.000000 1.000000
vt 1.000000 0.000000
vt 0.500000 1.000000
vt 0.000000 0.500000
vt 0.000000 0.000000
vt 0.500000 0.000000
vn -0.329700 -0.943900 0.019500
vn 0.303000 0.946200 -0.113500
vn -0.993500 0.081500 0.078900
vn 0.898000 -0.355200 -0.259600
vn -0.693600 0.668100 0.269600
vn 0.707100 0.674200 0.213000
vn 0.295000 -0.025200 0.955200
vn 0.263800 0.558000 -0.786800
vn 0.928700 -0.346200 -0.132500
vn -0.370000 0.879000 0.300900
vn 0.721600 0.691300 0.036400
vn -0.663600 -0.748000 0.014300
vn -0.204400 0.016100 -0.978700
vn 0.106000 -0.073000 0.991700
vn -0.888800 0.429600 0.159700
vn 0.457700 -0.840600 -0.289600
vn -0.231700 0.096800 -0.968000
vn -0.199400 -0.507800 0.838100
vn -0.091000 -0.076300 0.992900
vn 0.056600 0.385800 -0.920900
vn 0.702400 -0.685600 -0.191400
vn -0.710800 0.663100 0.234700
vn -0.654400 -0.677200 0.336400
vn 0.696100 0.658400 -0.286200
vn -0.882100 0.366600 0.295900
vn 0.944300 -0.291000 -0.153700
vn -0.898100 0.434000 0.071000
vn 0.874500 0.420800 -0.241100
vn 0.715700 -0.667100 -0.206800
vn -0.024700 0.999600 0.016300
vn 0.593300 0.158000 0.789300
vn 0.097600 0.174500 -0.979800
vn 0.142300 0.487600 -0.861400
vn -0.183000 -0.467900 0.864600
vn 0.388100 0.773400 0.501300
vn -0.428800 -0.753700 -0.498100
vn -0.523500 -0.119700 -0.843500
vn -0.009600 -0.136900 0.990500
vn -0.650400 0.735600 0.189100
vn 0.117300 -0.992200 -0.042100
vn 0.342500 -0.933700 -0.104700
vn -0.316300 0.943600 0.097400
vn 0.325300 0.018000 0.945500
vn -0.252400 0.017300 -0.967500
vn -0.004900 -0.999700 0.023500
vn 0.133300 0.982800 -0.127700
vn -0.849000 0.503100 0.161400
vn 0.970400 -0.085200 -0.225900
vn -0.683600 0.687200 0.245800
vn 0.707100 0.674200 0.213100
vn 0.709500 0.704500 -0.015300
vn -0.678700 -0.732800 -0.047900
vn -0.166800 0.071300 -0.983400
vn 0.167800 0.014200 0.985700
vn 0.049200 -0.286400 0.956900
vn 0.262600 0.076800 -0.961800
vn 0.692900 -0.679900 -0.240000
vn -0.718800 0.668700 0.190300
vn -0.004900 -0.999500 0.032500
vn 0.163500 0.984700 0.060000
vn -0.912700 0.058700 0.404300
vn 0.974800 -0.083500 -0.206900
vn -0.523600 -0.119700 -0.843500
vn 0.353500 -0.845000 -0.401200
vn -0.286400 0.860100 0.422200
vn 0.405200 -0.642400 0.650500
vn -0.262700 0.622800 -0.737000
usemtl Material
s off
f 34/1/1 3/2/1 4/3/1
f 8/4/2 7/2/2 36/5/2
f 34/6/3 36/1/3 7/2/3
f 33/1/4 4/2/4 8/3/4
f 6/7/5 5/3/5 1/2/5
f 11/4/6 10/2/6 9/3/6
f 19/2/7 17/3/7 9/3/7
f 20/7/8 18/4/8 11/4/8
f 17/3/9 20/7/9 12/7/9
f 19/2/10 10/2/10 11/4/10
f 1/2/11 14/2/11 15/4/11
f 5/3/12 6/7/12 16/7/12
f 6/7/13 2/4/13 15/4/13
f 5/3/14 13/3/14 14/2/14
f 21/2/15 19/2/15 18/4/15
f 23/3/16 22/7/16 20/7/16
f 24/4/17 18/4/17 20/7/17
f 23/3/18 17/3/18 19/2/18
f 14/2/19 13/3/19 23/3/19
f 15/4/20 24/4/20 22/7/20
f 13/3/21 16/7/21 22/7/21
f 14/2/22 21/2/22 24/4/22
f 28/3/23 27/2/23 34/1/23
f 36/5/24 31/2/24 32/4/24
f 34/6/25 27/3/25 31/2/25
f 32/3/26 28/2/26 33/1/26
f 30/7/27 26/4/27 25/2/27
f 37/3/28 38/2/28 39/4/28
f 38/2/29 37/3/29 45/3/29
f 48/7/30 40/7/30 39/4/30
f 37/3/31 40/7/31 48/7/31
f 39/4/32 38/2/32 47/2/32
f 43/4/33 42/2/33 25/2/33
f 41/3/34 44/7/34 30/7/34
f 30/7/35 44/7/35 43/4/35
f 42/2/36 41/3/36 29/3/36
f 46/4/37 47/2/37 49/2/37
f 45/3/38 48/7/38 50/7/38
f 48/7/39 46/4/39 52/4/39
f 47/2/40 45/3/40 51/3/40
f 42/2/41 49/2/41 51/3/41
f 50/7/42 52/4/42 43/4/42
f 51/3/43 50/7/43 44/7/43
f 43/4/44 52/4/44 49/2/44
f 33/6/45 34/1/45 4/3/45
f 35/8/46 8/4/46 36/5/46
f 3/3/47 34/6/47 7/2/47
f 35/6/48 33/1/48 8/3/48
f 2/4/49 6/7/49 1/2/49
f 12/7/50 11/4/50 9/3/50
f 10/2/7 19/2/7 9/3/7
f 12/7/8 20/7/8 11/4/8
f 9/3/9 17/3/9 12/7/9
f 18/4/10 19/2/10 11/4/10
f 2/4/51 1/2/51 15/4/51
f 13/3/52 5/3/52 16/7/52
f 16/7/53 6/7/53 15/4/53
f 1/2/54 5/3/54 14/2/54
f 24/4/15 21/2/15 18/4/15
f 17/3/16 23/3/16 20/7/16
f 22/7/17 24/4/17 20/7/17
f 21/2/18 23/3/18 19/2/18
f 21/2/55 14/2/55 23/3/55
f 16/7/56 15/4/56 22/7/56
f 23/3/57 13/3/57 22/7/57
f 15/4/58 14/2/58 24/4/58
f 33/6/59 28/3/59 34/1/59
f 35/8/60 36/5/60 32/4/60
f 36/1/61 34/6/61 31/2/61
f 35/6/62 32/3/62 33/1/62
f 29/3/27 30/7/27 25/2/27
f 40/7/28 37/3/28 39/4/28
f 47/2/29 38/2/29 45/3/29
f 46/4/30 48/7/30 39/4/30
f 45/3/31 37/3/31 48/7/31
f 46/4/32 39/4/32 47/2/32
f 26/4/33 43/4/33 25/2/33
f 29/3/34 41/3/34 30/7/34
f 26/4/35 30/7/35 43/4/35
f 25/2/36 42/2/36 29/3/36
f 52/4/63 46/4/63 49/2/63
f 51/3/38 45/3/38 50/7/38
f 50/7/39 48/7/39 52/4/39
f 49/2/40 47/2/40 51/3/40
f 41/3/64 42/2/64 51/3/64
f 44/7/65 50/7/65 43/4/65
f 41/3/66 51/3/66 44/7/66
f 42/2/67 43/4/67 49/2/67
