# Blender v2.76 (sub 0) OBJ File: 'handsBlock.blend'
# www.blender.org
mtllib handsBlock_000003.mtl
o Cube
v 0.646096 -0.084419 -1.983656
v 0.783189 -0.026227 -2.464993
v 0.329737 -0.381805 -2.418151
v 0.656512 -0.523290 -2.172227
v 0.334682 -0.475118 -2.055598
v 0.459182 -0.414432 -2.540473
v 0.578014 0.054542 -2.384330
v 0.850546 -0.053348 -2.164957
v 4.649508 -0.256562 -0.268530
v 4.459577 -0.037509 -0.342943
v 4.593779 -0.011610 -0.609241
v 4.783711 -0.230663 -0.534828
v 2.617272 -2.411293 -1.271782
v 2.618337 -1.928735 -1.304043
v 2.849077 -1.911862 -1.903820
v 2.847948 -2.394422 -1.871578
v 4.367754 -0.783625 -0.213923
v 4.229915 -0.177765 -1.056632
v 3.897980 -0.241822 -0.397975
v 4.699687 -0.719567 -0.872580
v 3.730456 -0.764321 -0.746221
v 4.121747 -0.997495 -0.977862
v 3.959739 -1.028760 -0.656391
v 3.892463 -0.733056 -1.067694
v -0.643441 0.126898 1.918303
v -0.358759 0.449981 2.193901
v -0.681636 0.093951 2.405076
v -0.585567 -0.134832 2.330612
v -0.786223 -0.112758 2.346740
v -0.501542 0.210325 2.622338
v -0.540924 0.459824 2.190880
v -0.444647 0.231099 2.116538
v 0.342731 -0.353772 0.003799
v -0.349472 -0.349472 -0.000446
v 0.401680 0.269716 0.055728
v -0.260755 0.405917 -0.056498
v 4.206390 -0.079274 1.314912
v 4.102561 -0.073157 1.034238
v 3.940732 0.170072 1.099403
v 4.044561 0.163957 1.380077
v 1.503752 -2.039113 2.113463
v 1.684500 -1.735732 1.571105
v 2.044877 -1.326742 1.919984
v 1.864130 -1.630123 2.462342
v 4.009122 -0.561628 1.612540
v 3.352048 0.055100 1.079504
v 3.752313 -0.546500 0.918326
v 3.608858 0.039973 1.773718
v 3.261842 -0.741237 1.297616
v 3.191826 -0.454995 1.715109
v 3.387183 -0.748619 1.636442
v 3.066485 -0.447612 1.376282
vt 1.000000 0.500000
vt 1.000000 1.000000
vt 0.000000 1.000000
vt 1.000000 0.000000
vt 0.500000 1.000000
vt 0.000000 0.000000
vt 0.000000 0.500000
vt 0.500000 0.000000
vn -0.342300 -0.935900 -0.083600
vn 0.372200 0.928100 -0.006000
vn -0.798400 0.482200 -0.360500
vn 0.911400 -0.378800 0.160900
vn -0.765900 0.632100 -0.117500
vn 0.629600 0.676000 0.383000
vn -0.163200 0.187600 0.968600
vn 0.660600 0.346500 -0.666000
vn 0.831600 -0.405200 0.379700
vn -0.334200 0.939300 -0.077100
vn 0.611600 0.748500 0.256300
vn -0.576900 -0.779000 -0.245600
vn 0.247000 -0.017800 -0.968900
vn -0.274500 0.064700 0.959400
vn -0.796200 0.490900 -0.353500
vn 0.412400 -0.903100 0.120000
vn 0.235100 -0.123700 -0.964100
vn -0.618900 -0.288500 0.730600
vn -0.466400 0.060000 0.882500
vn 0.507700 0.152100 -0.848000
vn 0.643100 -0.731500 0.226700
vn -0.637400 0.728700 -0.250400
vn -0.927200 -0.369800 -0.059900
vn 0.928300 0.355900 0.107200
vn -0.948800 0.260100 -0.179000
vn 0.916400 -0.131800 0.378000
vn -0.782300 0.617200 0.084500
vn 0.766400 0.582500 -0.270800
vn 0.799400 -0.516400 -0.307000
vn -0.193900 0.976600 0.093000
vn 0.621400 0.211300 0.754400
vn -0.015900 0.248900 -0.968400
vn 0.261500 0.482600 -0.835900
vn -0.296900 -0.454700 0.839700
vn 0.539000 0.645800 0.540800
vn -0.574400 -0.617800 -0.537000
vn -0.564000 -0.158100 -0.810500
vn 0.096700 -0.197000 0.975600
vn -0.748500 0.596400 0.289900
vn 0.281300 -0.951500 -0.124800
vn 0.497000 -0.843900 -0.202200
vn -0.563600 0.794600 0.225800
vn 0.448900 0.059800 0.891600
vn -0.435900 -0.049200 -0.898700
vn -0.006700 -0.997000 0.076700
vn 0.216300 0.971400 -0.097600
vn -0.958300 0.092500 -0.270400
vn 0.971100 -0.109500 0.212200
vn -0.747800 0.650200 -0.134400
vn 0.610100 0.747000 0.264100
vn -0.577300 -0.779300 -0.243900
vn 0.218300 -0.065600 -0.973700
vn -0.283600 0.049700 0.957700
vn -0.409400 -0.045500 0.911200
vn 0.612600 -0.054100 -0.788500
vn 0.636700 -0.729500 0.249900
vn -0.643700 0.730800 -0.227100
vn -0.006700 -0.995800 0.091000
vn 0.185100 0.978200 0.094400
vn -0.986400 0.106500 -0.125500
vn 0.919300 -0.118200 0.375300
vn 0.487400 -0.821100 -0.296900
vn -0.555200 0.790900 0.257400
vn 0.589900 -0.757800 0.279000
vn -0.543100 0.768000 -0.339400
usemtl Material
s off
f 34/1/1 3/2/1 4/3/1
f 8/4/2 7/2/2 36/5/2
f 36/1/3 7/2/3 3/3/3
f 33/1/4 4/2/4 8/3/4
f 6/6/5 5/3/5 1/2/5
f 11/4/6 10/2/6 9/3/6
f 19/2/7 17/3/7 9/3/7
f 20/6/8 18/4/8 11/4/8
f 17/3/9 20/6/9 12/6/9
f 19/2/10 10/2/10 11/4/10
f 1/2/11 14/2/11 15/4/11
f 5/3/12 6/6/12 16/6/12
f 6/6/13 2/4/13 15/4/13
f 5/3/14 13/3/14 14/2/14
f 21/2/15 19/2/15 18/4/15
f 23/3/16 22/6/16 20/6/16
f 22/6/17 24/4/17 18/4/17
f 23/3/18 17/3/18 19/2/18
f 14/2/19 13/3/19 23/3/19
f 15/4/20 24/4/20 22/6/20
f 13/3/21 16/6/21 22/6/21
f 14/2/22 21/2/22 24/4/22
f 28/3/23 27/2/23 34/1/23
f 36/5/24 31/2/24 32/4/24
f 34/7/25 27/3/25 31/2/25
f 32/3/26 28/2/26 33/1/26
f 26/4/27 25/2/27 29/3/27
f 40/6/28 37/3/28 38/2/28
f 47/2/29 38/2/29 37/3/29
f 40/6/30 39/4/30 46/4/30
f 37/3/31 40/6/31 48/6/31
f 39/4/32 38/2/32 47/2/32
f 26/4/33 43/4/33 42/2/33
f 41/3/34 44/6/34 30/6/34
f 30/6/35 44/6/35 43/4/35
f 42/2/36 41/3/36 29/3/36
f 52/4/37 46/4/37 47/2/37
f 51/3/38 45/3/38 48/6/38
f 50/6/39 48/6/39 46/4/39
f 47/2/40 45/3/40 51/3/40
f 42/2/41 49/2/41 51/3/41
f 50/6/42 52/4/42 43/4/42
f 51/3/43 50/6/43 44/6/43
f 43/4/44 52/4/44 49/2/44
f 33/7/45 34/1/45 4/3/45
f 35/8/46 8/4/46 36/5/46
f 34/7/47 36/1/47 3/3/47
f 35/7/48 33/1/48 8/3/48
f 2/4/49 6/6/49 1/2/49
f 12/6/6 11/4/6 9/3/6
f 10/2/7 19/2/7 9/3/7
f 12/6/8 20/6/8 11/4/8
f 9/3/9 17/3/9 12/6/9
f 18/4/10 19/2/10 11/4/10
f 2/4/50 1/2/50 15/4/50
f 13/3/51 5/3/51 16/6/51
f 16/6/52 6/6/52 15/4/52
f 1/2/53 5/3/53 14/2/53
f 24/4/15 21/2/15 18/4/15
f 17/3/16 23/3/16 20/6/16
f 20/6/17 22/6/17 18/4/17
f 21/2/18 23/3/18 19/2/18
f 21/2/54 14/2/54 23/3/54
f 16/6/55 15/4/55 22/6/55
f 23/3/56 13/3/56 22/6/56
f 15/4/57 14/2/57 24/4/57
f 33/7/58 28/3/58 34/1/58
f 35/8/59 36/5/59 32/4/59
f 36/1/60 34/7/60 31/2/60
f 35/7/61 32/3/61 33/1/61
f 30/6/27 26/4/27 29/3/27
f 39/4/28 40/6/28 38/2/28
f 45/3/29 47/2/29 37/3/29
f 48/6/30 40/6/30 46/4/30
f 45/3/31 37/3/31 48/6/31
f 46/4/32 39/4/32 47/2/32
f 25/2/33 26/4/33 42/2/33
f 29/3/34 41/3/34 30/6/34
f 26/4/35 30/6/35 43/4/35
f 25/2/36 42/2/36 29/3/36
f 49/2/37 52/4/37 47/2/37
f 50/6/38 51/3/38 48/6/38
f 52/4/39 50/6/39 46/4/39
f 49/2/40 47/2/40 51/3/40
f 41/3/62 42/2/62 51/3/62
f 44/6/63 50/6/63 43/4/63
f 41/3/64 51/3/64 44/6/64
f 42/2/65 43/4/65 49/2/65
