# Blender v2.76 (sub 0) OBJ File: 'handsBlock.blend'
# www.blender.org
mtllib handsBlock_000086.mtl
o Cube
v 0.598658 -0.086162 -1.970862
v 0.772856 0.015490 -2.432585
v 0.356797 -0.380703 -2.425373
v 0.657388 -0.527054 -2.175134
v 0.357359 -0.513429 -2.089258
v 0.519148 -0.410944 -2.555742
v 0.572952 0.073252 -2.369667
v 0.845004 -0.053720 -2.163580
v 4.392381 0.232466 0.151578
v 4.180430 0.425416 0.065303
v 4.335155 0.483825 -0.184185
v 4.547107 0.290875 -0.097911
v 2.812297 -2.138435 -1.137422
v 2.744996 -1.659732 -1.152189
v 3.029258 -1.579439 -1.723159
v 3.096499 -2.058152 -1.708418
v 4.187882 -0.331724 0.157225
v 4.046343 0.289982 -0.673241
v 3.663647 0.145514 -0.056163
v 4.570577 -0.187256 -0.459853
v 3.610987 -0.377296 -0.438576
v 4.053635 -0.539712 -0.635607
v 3.866852 -0.610222 -0.334427
v 3.797771 -0.306785 -0.739755
v -0.683326 0.106613 1.932892
v -0.397214 0.463280 2.161604
v -0.662423 0.102840 2.399294
v -0.567070 -0.142733 2.348270
v -0.749217 -0.128549 2.382044
v -0.463105 0.228118 2.610757
v -0.560143 0.466463 2.174750
v -0.464579 0.220957 2.123836
v 0.342731 -0.353772 0.003799
v -0.349472 -0.349472 -0.000446
v 0.401680 0.269716 0.055728
v -0.260755 0.405917 -0.056498
v 4.052121 0.302013 0.722605
v 3.914043 0.288650 0.457366
v 3.740082 0.519084 0.536317
v 3.878160 0.532448 0.801556
v 1.659970 -1.855149 1.908846
v 1.743379 -1.557457 1.340266
v 2.105568 -1.105954 1.629792
v 2.022158 -1.403646 2.198373
v 3.938248 -0.184352 1.055238
v 3.166456 0.352549 0.594478
v 3.596728 -0.217404 0.399201
v 3.507976 0.385601 1.250514
v 3.177099 -0.439995 0.842722
v 3.133783 -0.145683 1.258224
v 3.343786 -0.423862 1.162915
v 2.967096 -0.161816 0.938030
vt 1.000000 0.500000
vt 1.000000 1.000000
vt 0.000000 1.000000
vt 1.000000 0.000000
vt 0.500000 1.000000
vt 0.000000 0.500000
vt 0.000000 0.000000
vt 0.500000 0.000000
vn -0.370100 -0.924000 -0.095900
vn 0.412000 0.911000 0.017500
vn -0.933600 0.083800 -0.348500
vn 0.916100 -0.367000 0.161500
vn -0.835600 0.520500 -0.175500
vn 0.481000 0.739200 0.471400
vn -0.284800 0.112800 0.951900
vn 0.664900 0.471300 -0.579500
vn 0.840500 -0.300200 0.451000
vn -0.460400 0.884200 -0.078500
vn 0.465200 0.814700 0.346200
vn -0.427600 -0.840400 -0.333000
vn 0.342100 0.067100 -0.937300
vn -0.375300 -0.024200 0.926600
vn -0.821000 0.388600 -0.418200
vn 0.527700 -0.839300 0.130800
vn 0.345700 -0.039500 -0.937500
vn -0.639000 -0.411200 0.650100
vn -0.555700 -0.052500 0.829700
vn 0.561400 0.266400 -0.783500
vn 0.718600 -0.641900 0.267400
vn -0.710300 0.641200 -0.290400
vn -0.934600 -0.351300 -0.055700
vn 0.933500 0.339300 0.116000
vn -0.971600 0.174700 -0.159600
vn 0.930500 -0.037300 0.364400
vn -0.818700 0.549300 0.167500
vn 0.670400 0.636700 -0.381100
vn 0.798800 -0.455700 -0.392900
vn -0.269000 0.958700 0.091800
vn 0.688600 0.292500 0.663500
vn -0.158900 0.210500 -0.964600
vn 0.110300 0.472300 -0.874500
vn -0.147400 -0.447400 0.882100
vn 0.540900 0.709900 0.451000
vn -0.578000 -0.685000 -0.443400
vn -0.643700 -0.236600 -0.727800
vn 0.235000 -0.151600 0.960100
vn -0.757900 0.539100 0.367400
vn 0.349100 -0.927300 -0.135000
vn 0.542800 -0.804200 -0.242100
vn -0.601200 0.750200 0.275200
vn 0.549000 0.131700 0.825400
vn -0.538000 -0.120300 -0.834300
vn -0.006700 -0.996900 0.078300
vn 0.216400 0.971300 -0.098300
vn -0.860200 0.441000 -0.256200
vn 0.971600 -0.109300 0.210000
vn -0.818800 0.541900 -0.189600
vn 0.840500 -0.300100 0.451000
vn -0.460400 0.884200 -0.078600
vn 0.463200 0.812600 0.353700
vn -0.428100 -0.840800 -0.331300
vn 0.321500 0.016000 -0.946800
vn -0.381700 -0.040300 0.923400
vn -0.486900 -0.150100 0.860500
vn 0.689300 0.074600 -0.720600
vn 0.709700 -0.642100 0.289800
vn -0.719100 0.641200 -0.267800
vn -0.006700 -0.996200 0.087100
vn 0.184100 0.977800 0.100200
vn -0.985200 0.105700 -0.135100
vn 0.916900 -0.118400 0.381200
vn 0.519500 -0.785900 -0.335300
vn -0.588600 0.748500 0.305500
vn 0.686600 -0.692600 0.221100
vn -0.648900 0.704600 -0.287200
usemtl Material
s off
f 34/1/1 3/2/1 4/3/1
f 8/4/2 7/2/2 36/5/2
f 34/6/3 36/1/3 7/2/3
f 33/1/4 4/2/4 8/3/4
f 6/7/5 5/3/5 1/2/5
f 12/7/6 11/4/6 10/2/6
f 17/3/7 9/3/7 10/2/7
f 20/7/8 18/4/8 11/4/8
f 20/7/9 12/7/9 9/3/9
f 19/2/10 10/2/10 11/4/10
f 1/2/11 14/2/11 15/4/11
f 5/3/12 6/7/12 16/7/12
f 6/7/13 2/4/13 15/4/13
f 5/3/14 13/3/14 14/2/14
f 21/2/15 19/2/15 18/4/15
f 23/3/16 22/7/16 20/7/16
f 24/4/17 18/4/17 20/7/17
f 23/3/18 17/3/18 19/2/18
f 14/2/19 13/3/19 23/3/19
f 15/4/20 24/4/20 22/7/20
f 13/3/21 16/7/21 22/7/21
f 14/2/22 21/2/22 24/4/22
f 28/3/23 27/2/23 34/1/23
f 36/5/24 31/2/24 32/4/24
f 34/6/25 27/3/25 31/2/25
f 32/3/26 28/2/26 33/1/26
f 30/7/27 26/4/27 25/2/27
f 37/3/28 38/2/28 39/4/28
f 47/2/29 38/2/29 37/3/29
f 48/7/30 40/7/30 39/4/30
f 45/3/31 37/3/31 40/7/31
f 39/4/32 38/2/32 47/2/32
f 43/4/33 42/2/33 25/2/33
f 29/3/34 41/3/34 44/7/34
f 30/7/35 44/7/35 43/4/35
f 42/2/36 41/3/36 29/3/36
f 52/4/37 46/4/37 47/2/37
f 45/3/38 48/7/38 50/7/38
f 50/7/39 48/7/39 46/4/39
f 47/2/40 45/3/40 51/3/40
f 42/2/41 49/2/41 51/3/41
f 50/7/42 52/4/42 43/4/42
f 51/3/43 50/7/43 44/7/43
f 43/4/44 52/4/44 49/2/44
f 33/6/45 34/1/45 4/3/45
f 35/8/46 8/4/46 36/5/46
f 3/3/47 34/6/47 7/2/47
f 35/6/48 33/1/48 8/3/48
f 2/4/49 6/7/49 1/2/49
f 9/3/6 12/7/6 10/2/6
f 19/2/7 17/3/7 10/2/7
f 12/7/8 20/7/8 11/4/8
f 17/3/50 20/7/50 9/3/50
f 18/4/51 19/2/51 11/4/51
f 2/4/52 1/2/52 15/4/52
f 13/3/53 5/3/53 16/7/53
f 16/7/54 6/7/54 15/4/54
f 1/2/55 5/3/55 14/2/55
f 24/4/15 21/2/15 18/4/15
f 17/3/16 23/3/16 20/7/16
f 22/7/17 24/4/17 20/7/17
f 21/2/18 23/3/18 19/2/18
f 21/2/56 14/2/56 23/3/56
f 16/7/57 15/4/57 22/7/57
f 23/3/58 13/3/58 22/7/58
f 15/4/59 14/2/59 24/4/59
f 33/6/60 28/3/60 34/1/60
f 35/8/61 36/5/61 32/4/61
f 36/1/62 34/6/62 31/2/62
f 35/6/63 32/3/63 33/1/63
f 29/3/27 30/7/27 25/2/27
f 40/7/28 37/3/28 39/4/28
f 45/3/29 47/2/29 37/3/29
f 46/4/30 48/7/30 39/4/30
f 48/7/31 45/3/31 40/7/31
f 46/4/32 39/4/32 47/2/32
f 26/4/33 43/4/33 25/2/33
f 30/7/34 29/3/34 44/7/34
f 26/4/35 30/7/35 43/4/35
f 25/2/36 42/2/36 29/3/36
f 49/2/37 52/4/37 47/2/37
f 51/3/38 45/3/38 50/7/38
f 52/4/39 50/7/39 46/4/39
f 49/2/40 47/2/40 51/3/40
f 41/3/64 42/2/64 51/3/64
f 44/7/65 50/7/65 43/4/65
f 41/3/66 51/3/66 44/7/66
f 42/2/67 43/4/67 49/2/67
