# Blender v2.76 (sub 0) OBJ File: 'handsAttack.blend'
# www.blender.org
mtllib handsAttack_000002.mtl
o Cube
v 0.621963 -0.080917 -1.999591
v 0.739414 -0.031419 -2.486836
v 0.279075 -0.375772 -2.422263
v 0.617199 -0.516948 -2.184252
v 0.293179 -0.459946 -2.054187
v 0.397928 -0.407526 -2.544375
v 0.534990 0.055138 -2.397954
v 0.812278 -0.047880 -2.180702
v 4.674670 -0.384742 -0.450635
v 4.488272 -0.160160 -0.517075
v 4.611059 -0.138758 -0.789217
v 4.797458 -0.363340 -0.722777
v 2.534280 -2.476600 -1.354469
v 2.550251 -1.995765 -1.389530
v 2.754243 -1.989384 -1.998980
v 2.738207 -2.470218 -1.963936
v 4.379896 -0.902949 -0.381851
v 4.222560 -0.294539 -1.219291
v 3.918860 -0.347473 -0.546182
v 4.683596 -0.850015 -1.054961
v 3.720133 -0.865217 -0.884993
v 4.093379 -1.110493 -1.133314
v 3.945152 -1.136329 -0.804788
v 3.868361 -0.839380 -1.213519
v -0.583215 0.120836 1.928081
v -0.302513 0.439034 2.213278
v -0.637029 0.084019 2.421384
v -0.537307 -0.141361 2.336614
v -0.742158 -0.118156 2.351166
v -0.461456 0.200042 2.636363
v -0.489401 0.449883 2.208964
v -0.389472 0.224561 2.124316
v 0.342874 -0.353750 0.003541
v -0.349472 -0.349472 -0.000446
v 0.402308 0.270400 0.050463
v -0.262682 0.405619 -0.053056
v 4.308932 -0.189819 1.489977
v 4.215505 -0.180000 1.205775
v 4.058570 0.067688 1.265922
v 4.151998 0.057869 1.550124
v 1.526852 -2.075588 2.180004
v 1.728057 -1.773050 1.644422
v 2.083397 -1.370243 2.005451
v 1.882192 -1.672782 2.541033
v 4.087134 -0.666931 1.778650
v 3.467893 -0.030017 1.224479
v 3.856052 -0.642646 1.075710
v 3.698975 -0.054303 1.927418
v 3.346782 -0.823907 1.436450
v 3.270117 -0.536754 1.852144
v 3.459567 -0.835760 1.779534
v 3.157333 -0.524901 1.509058
vt 1.000000 0.500000
vt 1.000000 1.000000
vt 0.000000 1.000000
vt 1.000000 0.000000
vt 0.500000 1.000000
vt 0.000000 0.000000
vt 0.000000 0.500000
vt 0.500000 0.000000
vn -0.337300 -0.938200 -0.077300
vn 0.359900 0.932800 -0.017000
vn -0.798200 0.493500 -0.345300
vn 0.913500 -0.381000 0.143000
vn -0.746000 0.659900 -0.088800
vn 0.666300 0.657200 0.352300
vn -0.113600 0.194000 0.974400
vn 0.640100 0.325300 -0.696000
vn 0.835300 -0.429600 0.343100
vn -0.308800 0.948900 -0.064700
vn 0.649800 0.726000 0.225100
vn -0.615900 -0.758600 -0.212700
vn 0.203200 -0.034800 -0.978500
vn -0.232200 0.078400 0.969500
vn -0.796200 0.514200 -0.318800
vn 0.390000 -0.914900 0.104000
vn 0.187600 -0.132300 -0.973300
vn -0.593800 -0.268400 0.758500
vn -0.426800 0.079900 0.900800
vn 0.473600 0.135600 -0.870300
vn 0.628900 -0.750600 0.202600
vn -0.625800 0.747300 -0.223600
vn -0.919100 -0.392000 -0.039000
vn 0.922300 0.377100 0.085100
vn -0.944200 0.286100 -0.163300
vn 0.918400 -0.161500 0.361200
vn -0.775800 0.627800 0.063200
vn 0.792300 0.560500 -0.241100
vn 0.794600 -0.538700 -0.279800
vn -0.168600 0.981600 0.089400
vn 0.599700 0.191300 0.777000
vn 0.026300 0.251600 -0.967500
vn 0.293200 0.481600 -0.825900
vn -0.328400 -0.453100 0.828800
vn 0.531300 0.636400 0.559100
vn -0.566500 -0.608000 -0.556300
vn -0.538800 -0.139600 -0.830800
vn 0.055800 -0.202100 0.977800
vn -0.740900 0.617200 0.264900
vn 0.257800 -0.959000 -0.117900
vn 0.478900 -0.857700 -0.187100
vn -0.544300 0.813000 0.207000
vn 0.415800 0.042900 0.908400
vn -0.399400 -0.030600 -0.916300
vn -0.006600 -0.997300 0.073600
vn 0.213100 0.971900 -0.099500
vn -0.963500 0.093200 -0.251100
vn 0.975000 -0.107500 0.194500
vn -0.728000 0.677300 -0.106700
vn 0.649000 0.725200 0.230100
vn -0.615700 -0.758400 -0.213900
vn 0.175200 -0.077400 -0.981500
vn -0.239100 0.067900 0.968600
vn -0.369600 -0.032000 0.928700
vn 0.577000 -0.078500 -0.812900
vn 0.624400 -0.748700 0.222800
vn -0.630300 0.749300 -0.203100
vn -0.006700 -0.996100 0.088200
vn 0.184600 0.978500 0.092100
vn -0.989100 0.106600 -0.101200
vn 0.928900 -0.114900 0.352100
vn 0.472800 -0.831400 -0.292000
vn -0.533400 0.806400 0.255100
vn 0.558000 -0.769900 0.309700
vn -0.504600 0.778900 -0.372400
usemtl Material
s off
f 34/1/1 3/2/1 4/3/1
f 8/4/2 7/2/2 36/5/2
f 36/1/3 7/2/3 3/3/3
f 33/1/4 4/2/4 8/3/4
f 6/6/5 5/3/5 1/2/5
f 12/6/6 11/4/6 10/2/6
f 19/2/7 17/3/7 9/3/7
f 20/6/8 18/4/8 11/4/8
f 17/3/9 20/6/9 12/6/9
f 19/2/10 10/2/10 11/4/10
f 1/2/11 14/2/11 15/4/11
f 5/3/12 6/6/12 16/6/12
f 6/6/13 2/4/13 15/4/13
f 5/3/14 13/3/14 14/2/14
f 21/2/15 19/2/15 18/4/15
f 22/6/16 20/6/16 17/3/16
f 22/6/17 24/4/17 18/4/17
f 23/3/18 17/3/18 19/2/18
f 14/2/19 13/3/19 23/3/19
f 15/4/20 24/4/20 22/6/20
f 13/3/21 16/6/21 22/6/21
f 14/2/22 21/2/22 24/4/22
f 28/3/23 27/2/23 34/1/23
f 36/5/24 31/2/24 32/4/24
f 34/7/25 27/3/25 31/2/25
f 32/3/26 28/2/26 33/1/26
f 26/4/27 25/2/27 29/3/27
f 37/3/28 38/2/28 39/4/28
f 38/2/29 37/3/29 45/3/29
f 48/6/30 40/6/30 39/4/30
f 37/3/31 40/6/31 48/6/31
f 39/4/32 38/2/32 47/2/32
f 43/4/33 42/2/33 25/2/33
f 41/3/34 44/6/34 30/6/34
f 44/6/35 43/4/35 26/4/35
f 42/2/36 41/3/36 29/3/36
f 46/4/37 47/2/37 49/2/37
f 51/3/38 45/3/38 48/6/38
f 50/6/39 48/6/39 46/4/39
f 47/2/40 45/3/40 51/3/40
f 42/2/41 49/2/41 51/3/41
f 50/6/42 52/4/42 43/4/42
f 51/3/43 50/6/43 44/6/43
f 43/4/44 52/4/44 49/2/44
f 33/7/45 34/1/45 4/3/45
f 35/8/46 8/4/46 36/5/46
f 34/7/47 36/1/47 3/3/47
f 35/7/48 33/1/48 8/3/48
f 2/4/49 6/6/49 1/2/49
f 9/3/6 12/6/6 10/2/6
f 10/2/7 19/2/7 9/3/7
f 12/6/8 20/6/8 11/4/8
f 9/3/9 17/3/9 12/6/9
f 18/4/10 19/2/10 11/4/10
f 2/4/50 1/2/50 15/4/50
f 13/3/51 5/3/51 16/6/51
f 16/6/52 6/6/52 15/4/52
f 1/2/53 5/3/53 14/2/53
f 24/4/15 21/2/15 18/4/15
f 23/3/16 22/6/16 17/3/16
f 20/6/17 22/6/17 18/4/17
f 21/2/18 23/3/18 19/2/18
f 21/2/54 14/2/54 23/3/54
f 16/6/55 15/4/55 22/6/55
f 23/3/56 13/3/56 22/6/56
f 15/4/57 14/2/57 24/4/57
f 33/7/58 28/3/58 34/1/58
f 35/8/59 36/5/59 32/4/59
f 36/1/60 34/7/60 31/2/60
f 35/7/61 32/3/61 33/1/61
f 30/6/27 26/4/27 29/3/27
f 40/6/28 37/3/28 39/4/28
f 47/2/29 38/2/29 45/3/29
f 46/4/30 48/6/30 39/4/30
f 45/3/31 37/3/31 48/6/31
f 46/4/32 39/4/32 47/2/32
f 26/4/33 43/4/33 25/2/33
f 29/3/34 41/3/34 30/6/34
f 30/6/35 44/6/35 26/4/35
f 25/2/36 42/2/36 29/3/36
f 52/4/37 46/4/37 49/2/37
f 50/6/38 51/3/38 48/6/38
f 52/4/39 50/6/39 46/4/39
f 49/2/40 47/2/40 51/3/40
f 41/3/62 42/2/62 51/3/62
f 44/6/63 50/6/63 43/4/63
f 41/3/64 51/3/64 44/6/64
f 42/2/65 43/4/65 49/2/65
