# Blender v2.76 (sub 0) OBJ File: 'handsAttack.blend'
# www.blender.org
mtllib handsAttack_000028.mtl
o Cube
v -1.287296 0.083781 -1.665581
v -1.608965 0.191550 -2.020000
v -1.843554 -0.177500 -1.633179
v -1.449449 -0.307289 -1.795685
v -1.555321 -0.284537 -1.456358
v -1.886217 -0.176211 -1.798045
v -1.663654 0.258217 -1.785611
v -1.335752 0.175065 -1.897521
v 2.353481 -0.273296 -3.157692
v 2.217491 -0.129065 -2.933416
v 2.075135 0.044545 -3.131380
v 2.211125 -0.099686 -3.355657
v 0.125027 -2.381217 -3.070730
v 0.154532 -1.992269 -2.969984
v -0.215437 -1.787469 -3.424524
v -0.244992 -2.176427 -3.525210
v 2.172300 -0.844231 -3.194685
v 1.483843 -0.058091 -3.129607
v 1.835944 -0.487493 -2.639964
v 1.820198 -0.414828 -3.684329
v 1.385944 -0.857764 -2.927617
v 1.378259 -0.822298 -3.437342
v 1.550110 -1.031878 -3.198361
v 1.214093 -0.648184 -3.166598
v 1.884072 0.024414 0.929621
v 1.986861 0.429633 1.223922
v 1.905650 -0.028935 1.561452
v 1.994054 -0.229229 1.200269
v 1.896455 -0.277986 1.341667
v 1.999244 0.127233 1.635967
v 1.891461 0.377745 1.353063
v 1.979970 0.177569 0.991855
v 0.341792 -0.351412 -0.011324
v -0.349472 -0.349472 -0.000446
v 0.283984 0.317244 -0.188543
v -0.248711 0.373730 0.145477
v 7.799433 0.032151 0.217426
v 7.688963 0.064326 -0.058903
v 7.630546 0.352331 -0.002014
v 7.741016 0.320156 0.274314
v 4.822280 -0.816350 0.942968
v 4.806603 -0.433543 0.421361
v 4.936723 0.079423 0.793915
v 4.952400 -0.303385 1.315523
v 7.457922 -0.332069 0.550407
v 7.040201 0.459859 0.007650
v 7.184689 -0.252488 -0.133058
v 7.313434 0.380278 0.691114
v 6.679657 -0.238718 0.275719
v 6.742495 0.070118 0.677973
v 6.813015 -0.277559 0.609299
v 6.609137 0.108959 0.344394
vt 1.000000 0.500000
vt 1.000000 1.000000
vt 0.000000 1.000000
vt 1.000000 0.000000
vt 0.500000 1.000000
vt 0.000000 0.500000
vt 0.000000 0.000000
vt 0.500000 0.000000
vn -0.258800 -0.956300 0.136100
vn 0.180000 0.965200 -0.189700
vn -0.806400 -0.007000 0.591300
vn 0.698500 -0.126300 -0.704300
vn -0.423800 0.660500 0.619800
vn 0.753300 0.656800 0.034300
vn 0.734500 -0.273300 0.621100
vn -0.139300 0.792300 -0.594000
vn 0.715000 -0.183200 -0.674800
vn -0.119800 0.702100 0.701900
vn 0.700900 0.658700 -0.273700
vn -0.577300 -0.750800 0.321000
vn -0.668200 0.056000 -0.741900
vn 0.486800 -0.253500 0.835900
vn -0.662300 0.258700 0.703100
vn 0.203100 -0.659100 -0.724100
vn -0.682600 0.352200 -0.640400
vn 0.223300 -0.752600 0.619400
vn 0.327600 -0.260100 0.908300
vn -0.395600 0.644500 -0.654300
vn 0.501800 -0.558700 -0.660300
vn -0.462800 0.474400 0.748800
vn -0.246000 -0.871900 0.423300
vn 0.049000 0.994700 -0.090100
vn -0.452200 0.394200 0.800100
vn 0.569000 -0.359300 -0.739700
vn -0.979300 0.148100 0.138100
vn 0.908700 0.250300 -0.334100
vn 0.538300 -0.785000 -0.306600
vn 0.179700 0.982800 0.042600
vn 0.698000 0.000100 0.716100
vn 0.020000 0.197600 -0.980100
vn -0.046400 0.594700 -0.802600
vn 0.002000 -0.588000 0.808900
vn 0.178800 0.795700 0.578600
vn -0.223200 -0.789000 -0.572400
vn -0.628500 0.026100 -0.777400
vn 0.074500 -0.178700 0.981100
vn -0.462900 0.840100 0.282900
vn -0.091100 -0.992700 -0.079200
vn 0.224400 -0.953600 -0.200800
vn 0.012200 0.993800 0.110800
vn 0.354000 -0.111600 0.928600
vn -0.094400 0.174500 -0.980100
vn -0.003100 -0.999800 -0.021600
vn 0.033500 0.992900 -0.114400
vn -0.623800 0.474800 0.620800
vn 0.704400 -0.301700 -0.642500
vn -0.427200 0.681000 0.594800
vn 0.625600 0.693800 -0.356800
vn -0.668500 -0.708900 0.224800
vn -0.541500 0.249000 -0.803000
vn 0.643400 -0.033700 0.764800
vn 0.495400 -0.562400 0.662000
vn -0.164400 0.258900 -0.951800
vn 0.418100 -0.512500 -0.750100
vn -0.533700 0.518500 0.668000
vn 0.000400 -0.979700 0.200500
vn 0.341900 0.855000 -0.390000
vn -0.558600 -0.088600 0.824700
vn 0.553700 -0.168300 -0.815500
vn 0.037700 -0.805100 -0.592000
vn 0.042100 0.806100 0.590300
vn 0.288700 -0.609500 0.738400
vn -0.215900 0.609000 -0.763200
usemtl Material
s off
f 34/1/1 3/2/1 4/3/1
f 8/4/2 7/2/2 36/5/2
f 34/6/3 36/1/3 7/2/3
f 35/6/4 33/1/4 4/2/4
f 6/7/5 5/3/5 1/2/5
f 12/7/6 11/4/6 10/2/6
f 19/2/7 17/3/7 9/3/7
f 20/7/8 18/4/8 11/4/8
f 17/3/9 20/7/9 12/7/9
f 19/2/10 10/2/10 11/4/10
f 1/2/11 14/2/11 15/4/11
f 5/3/12 6/7/12 16/7/12
f 6/7/13 2/4/13 15/4/13
f 5/3/14 13/3/14 14/2/14
f 21/2/15 19/2/15 18/4/15
f 23/3/16 22/7/16 20/7/16
f 22/7/17 24/4/17 18/4/17
f 23/3/18 17/3/18 19/2/18
f 14/2/19 13/3/19 23/3/19
f 15/4/20 24/4/20 22/7/20
f 13/3/21 16/7/21 22/7/21
f 14/2/22 21/2/22 24/4/22
f 33/6/23 28/3/23 27/2/23
f 35/8/24 36/5/24 31/2/24
f 27/3/25 31/2/25 36/1/25
f 32/3/26 28/2/26 33/1/26
f 30/7/27 26/4/27 25/2/27
f 37/3/28 38/2/28 39/4/28
f 38/2/29 37/3/29 45/3/29
f 48/7/30 40/7/30 39/4/30
f 45/3/31 37/3/31 40/7/31
f 39/4/32 38/2/32 47/2/32
f 43/4/33 42/2/33 25/2/33
f 29/3/34 41/3/34 44/7/34
f 30/7/35 44/7/35 43/4/35
f 42/2/36 41/3/36 29/3/36
f 46/4/37 47/2/37 49/2/37
f 51/3/38 45/3/38 48/7/38
f 50/7/39 48/7/39 46/4/39
f 47/2/40 45/3/40 51/3/40
f 49/2/41 51/3/41 41/3/41
f 50/7/42 52/4/42 43/4/42
f 51/3/43 50/7/43 44/7/43
f 52/4/44 49/2/44 42/2/44
f 33/6/45 34/1/45 4/3/45
f 35/8/46 8/4/46 36/5/46
f 3/3/47 34/6/47 7/2/47
f 8/3/48 35/6/48 4/2/48
f 2/4/49 6/7/49 1/2/49
f 9/3/6 12/7/6 10/2/6
f 10/2/7 19/2/7 9/3/7
f 12/7/8 20/7/8 11/4/8
f 9/3/9 17/3/9 12/7/9
f 18/4/10 19/2/10 11/4/10
f 2/4/50 1/2/50 15/4/50
f 13/3/51 5/3/51 16/7/51
f 16/7/52 6/7/52 15/4/52
f 1/2/53 5/3/53 14/2/53
f 24/4/15 21/2/15 18/4/15
f 17/3/16 23/3/16 20/7/16
f 20/7/17 22/7/17 18/4/17
f 21/2/18 23/3/18 19/2/18
f 21/2/54 14/2/54 23/3/54
f 16/7/55 15/4/55 22/7/55
f 23/3/56 13/3/56 22/7/56
f 15/4/57 14/2/57 24/4/57
f 34/1/58 33/6/58 27/2/58
f 32/4/59 35/8/59 31/2/59
f 34/6/60 27/3/60 36/1/60
f 35/6/61 32/3/61 33/1/61
f 29/3/27 30/7/27 25/2/27
f 40/7/28 37/3/28 39/4/28
f 47/2/29 38/2/29 45/3/29
f 46/4/30 48/7/30 39/4/30
f 48/7/31 45/3/31 40/7/31
f 46/4/32 39/4/32 47/2/32
f 26/4/33 43/4/33 25/2/33
f 30/7/34 29/3/34 44/7/34
f 26/4/35 30/7/35 43/4/35
f 25/2/36 42/2/36 29/3/36
f 52/4/37 46/4/37 49/2/37
f 50/7/38 51/3/38 48/7/38
f 52/4/39 50/7/39 46/4/39
f 49/2/40 47/2/40 51/3/40
f 42/2/62 49/2/62 41/3/62
f 44/7/63 50/7/63 43/4/63
f 41/3/64 51/3/64 44/7/64
f 43/4/65 52/4/65 42/2/65
