# Blender v2.76 (sub 0) OBJ File: 'handsAttack.blend'
# www.blender.org
mtllib handsAttack_000017.mtl
o Cube
v -1.190247 0.079138 -1.735573
v -1.491574 0.185100 -2.109117
v -1.747593 -0.182165 -1.734812
v -1.345699 -0.313856 -1.873595
v -1.468951 -0.289354 -1.540539
v -1.780213 -0.182604 -1.902087
v -1.558578 0.252987 -1.879007
v -1.224620 0.167613 -1.971751
v 2.529066 -0.267610 -3.075893
v 2.380317 -0.116536 -2.864596
v 2.248907 0.049728 -3.075982
v 2.397656 -0.101345 -3.287278
v 0.304266 -2.387004 -3.047015
v 0.327254 -1.990719 -2.950778
v -0.016956 -1.795006 -3.431699
v -0.039997 -2.191301 -3.527879
v 2.351642 -0.840242 -3.103752
v 1.658704 -0.055345 -3.103968
v 1.983731 -0.466580 -2.581133
v 2.026616 -0.429007 -3.626588
v 1.551536 -0.848220 -2.880973
v 1.572468 -0.829881 -3.391230
v 1.731104 -1.030593 -3.136048
v 1.392900 -0.647507 -3.136154
v 1.789993 0.002037 1.064715
v 1.902123 0.410334 1.351248
v 1.802611 -0.041167 1.690834
v 1.901080 -0.246880 1.343910
v 1.793154 -0.292222 1.482785
v 1.905284 0.116075 1.769317
v 1.797068 0.361503 1.476928
v 1.895651 0.155906 1.129982
v 0.342319 -0.351580 -0.010578
v -0.349472 -0.349472 -0.000446
v 0.297710 0.314576 -0.179674
v -0.255760 0.376018 0.135530
v 7.694689 0.003289 0.425726
v 7.589961 0.030786 0.146671
v 7.524227 0.317961 0.199638
v 7.628956 0.290465 0.478692
v 4.705565 -0.913275 1.106755
v 4.701563 -0.540773 0.577522
v 4.843508 -0.023911 0.940242
v 4.847510 -0.396413 1.469475
v 7.353310 -0.365248 0.754059
v 6.931692 0.413055 0.194856
v 7.094275 -0.297239 0.063850
v 7.190727 0.345045 0.885066
v 6.579790 -0.290703 0.460847
v 6.626866 0.022778 0.861660
v 6.706218 -0.323897 0.797719
v 6.500438 0.055972 0.524787
vt 1.000000 0.500000
vt 1.000000 1.000000
vt 0.000000 1.000000
vt 1.000000 0.000000
vt 0.500000 1.000000
vt 0.000000 0.500000
vt 0.000000 0.000000
vt 0.500000 0.000000
vn -0.269600 -0.954800 0.125200
vn 0.194900 0.963200 -0.184900
vn -0.839900 0.006800 0.542700
vn 0.734500 -0.120400 -0.667900
vn -0.460500 0.661600 0.591800
vn 0.748500 0.660900 0.054500
vn 0.699000 -0.249200 0.670300
vn -0.107600 0.771400 -0.627200
vn 0.752200 -0.202600 -0.627000
vn -0.160800 0.724700 0.670000
vn 0.710600 0.661600 -0.239400
vn -0.594400 -0.749900 0.290300
vn -0.626000 0.053400 -0.778000
vn 0.452600 -0.235100 0.860200
vn -0.701500 0.279200 0.655700
vn 0.245100 -0.682100 -0.688900
vn -0.646300 0.327600 -0.689200
vn 0.189900 -0.730500 0.656000
vn 0.287600 -0.241700 0.926700
vn -0.359200 0.620800 -0.696800
vn 0.537000 -0.574000 -0.618100
vn -0.504700 0.497800 0.705300
vn -0.307100 -0.854300 0.419400
vn 0.062300 0.994500 -0.084500
vn -0.499100 0.401200 0.768100
vn 0.625800 -0.359300 -0.692300
vn -0.975600 0.175900 0.131200
vn 0.910700 0.266600 -0.315500
vn 0.561500 -0.776000 -0.287200
vn 0.158000 0.986700 0.037900
vn 0.681200 0.021000 0.731800
vn 0.038400 0.189700 -0.981100
vn -0.028300 0.579400 -0.814600
vn -0.015900 -0.571400 0.820500
vn 0.197200 0.802400 0.563300
vn -0.241400 -0.794400 -0.557300
vn -0.610800 0.006200 -0.791700
vn 0.055600 -0.168800 0.984100
vn -0.486800 0.832500 0.264700
vn -0.068500 -0.995000 -0.072300
vn 0.250800 -0.949700 -0.187700
vn -0.021400 0.994100 0.106000
vn 0.341600 -0.094300 0.935100
vn -0.246900 0.120800 -0.961500
vn -0.003300 -0.999800 -0.017300
vn 0.043000 0.992100 -0.117900
vn -0.660400 0.478600 0.578600
vn 0.737400 -0.308000 -0.601100
vn -0.462500 0.682000 0.566500
vn 0.643500 0.694400 -0.322100
vn -0.675800 -0.711000 0.194500
vn -0.508500 0.230900 -0.829500
vn 0.599500 -0.030100 0.799800
vn 0.460200 -0.536400 0.707500
vn -0.121700 0.240800 -0.962900
vn 0.463100 -0.533600 -0.707600
vn -0.567600 0.536500 0.624500
vn -0.000400 -0.983700 0.179800
vn 0.396100 0.834900 -0.382200
vn -0.610300 -0.069100 0.789200
vn 0.617000 -0.154500 -0.771600
vn 0.072900 -0.815300 -0.574400
vn 0.004000 0.817800 0.575600
vn 0.292100 -0.601800 0.743300
vn -0.128300 0.593100 -0.794900
usemtl Material
s off
f 34/1/1 3/2/1 4/3/1
f 8/4/2 7/2/2 36/5/2
f 34/6/3 36/1/3 7/2/3
f 35/6/4 33/1/4 4/2/4
f 6/7/5 5/3/5 1/2/5
f 12/7/6 11/4/6 10/2/6
f 19/2/7 17/3/7 9/3/7
f 20/7/8 18/4/8 11/4/8
f 17/3/9 20/7/9 12/7/9
f 19/2/10 10/2/10 11/4/10
f 1/2/11 14/2/11 15/4/11
f 5/3/12 6/7/12 16/7/12
f 6/7/13 2/4/13 15/4/13
f 5/3/14 13/3/14 14/2/14
f 21/2/15 19/2/15 18/4/15
f 23/3/16 22/7/16 20/7/16
f 24/4/17 18/4/17 20/7/17
f 23/3/18 17/3/18 19/2/18
f 14/2/19 13/3/19 23/3/19
f 15/4/20 24/4/20 22/7/20
f 13/3/21 16/7/21 22/7/21
f 14/2/22 21/2/22 24/4/22
f 33/6/23 28/3/23 27/2/23
f 35/8/24 36/5/24 31/2/24
f 27/3/25 31/2/25 36/1/25
f 32/3/26 28/2/26 33/1/26
f 26/4/27 25/2/27 29/3/27
f 37/3/28 38/2/28 39/4/28
f 47/2/29 38/2/29 37/3/29
f 48/7/30 40/7/30 39/4/30
f 37/3/31 40/7/31 48/7/31
f 39/4/32 38/2/32 47/2/32
f 43/4/33 42/2/33 25/2/33
f 41/3/34 44/7/34 30/7/34
f 30/7/35 44/7/35 43/4/35
f 42/2/36 41/3/36 29/3/36
f 46/4/37 47/2/37 49/2/37
f 45/3/38 48/7/38 50/7/38
f 48/7/39 46/4/39 52/4/39
f 47/2/40 45/3/40 51/3/40
f 49/2/41 51/3/41 41/3/41
f 50/7/42 52/4/42 43/4/42
f 51/3/43 50/7/43 44/7/43
f 43/4/44 52/4/44 49/2/44
f 33/6/45 34/1/45 4/3/45
f 35/8/46 8/4/46 36/5/46
f 3/3/47 34/6/47 7/2/47
f 8/3/48 35/6/48 4/2/48
f 2/4/49 6/7/49 1/2/49
f 9/3/6 12/7/6 10/2/6
f 10/2/7 19/2/7 9/3/7
f 12/7/8 20/7/8 11/4/8
f 9/3/9 17/3/9 12/7/9
f 18/4/10 19/2/10 11/4/10
f 2/4/50 1/2/50 15/4/50
f 13/3/51 5/3/51 16/7/51
f 16/7/52 6/7/52 15/4/52
f 1/2/53 5/3/53 14/2/53
f 24/4/15 21/2/15 18/4/15
f 17/3/16 23/3/16 20/7/16
f 22/7/17 24/4/17 20/7/17
f 21/2/18 23/3/18 19/2/18
f 21/2/54 14/2/54 23/3/54
f 16/7/55 15/4/55 22/7/55
f 23/3/56 13/3/56 22/7/56
f 15/4/57 14/2/57 24/4/57
f 34/1/58 33/6/58 27/2/58
f 32/4/59 35/8/59 31/2/59
f 34/6/60 27/3/60 36/1/60
f 35/6/61 32/3/61 33/1/61
f 30/7/27 26/4/27 29/3/27
f 40/7/28 37/3/28 39/4/28
f 45/3/29 47/2/29 37/3/29
f 46/4/30 48/7/30 39/4/30
f 45/3/31 37/3/31 48/7/31
f 46/4/32 39/4/32 47/2/32
f 26/4/33 43/4/33 25/2/33
f 29/3/34 41/3/34 30/7/34
f 26/4/35 30/7/35 43/4/35
f 25/2/36 42/2/36 29/3/36
f 52/4/37 46/4/37 49/2/37
f 51/3/38 45/3/38 50/7/38
f 50/7/39 48/7/39 52/4/39
f 49/2/40 47/2/40 51/3/40
f 42/2/62 49/2/62 41/3/62
f 44/7/63 50/7/63 43/4/63
f 41/3/64 51/3/64 44/7/64
f 42/2/65 43/4/65 49/2/65
