# Blender v2.76 (sub 0) OBJ File: 'handsBlock.blend'
# www.blender.org
mtllib handsBlock_000039.mtl
o Cube
v 0.437703 -0.150882 -1.968832
v 0.665156 0.126682 -2.322513
v 0.448425 -0.343461 -2.426249
v 0.666911 -0.537157 -2.185058
v 0.501846 -0.598995 -2.192172
v 0.720396 -0.325309 -2.554963
v 0.523167 0.122588 -2.320238
v 0.826493 -0.061780 -2.163781
v 2.659780 1.365286 1.460776
v 2.416769 1.452911 1.309569
v 2.586331 1.633836 1.141905
v 2.829341 1.546211 1.293112
v 3.015528 -1.081577 -0.453817
v 2.718580 -0.700144 -0.469157
v 3.078397 -0.363923 -0.882371
v 3.375310 -0.745386 -0.867079
v 2.786373 0.787544 1.359033
v 2.604706 1.451772 0.570348
v 2.185314 1.004275 0.985041
v 3.205764 1.235041 0.944338
v 2.530207 0.624687 0.585909
v 3.028260 0.737318 0.566044
v 2.823566 0.518907 0.768444
v 2.734900 0.843099 0.383509
v -0.786023 0.015174 2.025783
v -0.565609 0.471971 2.090087
v -0.611090 0.144284 2.358876
v -0.482893 -0.151348 2.390046
v -0.580842 -0.145736 2.465544
v -0.360428 0.311061 2.529848
v -0.644286 0.470782 2.139047
v -0.515889 0.175248 2.170280
v 0.342731 -0.353772 0.003799
v -0.349472 -0.349472 -0.000446
v 0.401680 0.269716 0.055728
v -0.260755 0.405917 -0.056498
v 2.684088 1.303541 -1.172012
v 2.462175 1.205587 -1.347385
v 2.270966 1.388679 -1.207699
v 2.492879 1.486635 -1.032328
v 1.841510 -1.188937 1.032648
v 1.581771 -0.985241 0.475957
v 1.860794 -0.406983 0.557359
v 2.120532 -0.610679 1.114050
v 2.882977 0.871517 -0.806005
v 1.861168 1.082095 -0.894273
v 2.334102 0.629236 -1.239767
v 2.410043 1.324376 -0.460511
v 2.231777 0.380749 -0.648050
v 2.268842 0.720028 -0.267718
v 2.499667 0.499000 -0.436343
v 2.000952 0.601777 -0.479426
vt 1.000000 0.500000
vt 1.000000 1.000000
vt 0.000000 1.000000
vt 1.000000 0.000000
vt 0.500000 1.000000
vt 0.000000 0.500000
vt 0.000000 0.000000
vt 0.500000 0.000000
vn -0.535300 -0.825600 -0.178100
vn 0.494500 0.866900 0.062800
vn -0.938200 0.085300 -0.335600
vn 0.932800 -0.320500 0.165000
vn -0.884000 0.100900 -0.456400
vn -0.141400 0.740900 0.656600
vn -0.576200 -0.262600 0.774000
vn 0.464500 0.848000 -0.255200
vn 0.690000 0.023800 0.723400
vn -0.801700 0.561600 -0.204700
vn -0.154900 0.828000 0.538900
vn 0.194200 -0.835800 -0.513500
vn 0.524500 0.439200 -0.729400
vn -0.570000 -0.415300 0.709000
vn -0.730100 0.052900 -0.681300
vn 0.816300 -0.504700 0.281000
vn 0.582600 0.349800 -0.733600
vn -0.496400 -0.801500 0.333300
vn -0.670100 -0.499600 0.549000
vn 0.550000 0.673900 -0.493300
vn 0.825200 -0.280600 0.490200
vn -0.811200 0.289300 -0.508200
vn -0.916600 -0.399400 -0.018100
vn 0.901700 0.407100 0.145500
vn -0.985300 -0.152300 -0.077400
vn 0.912300 0.288100 0.291200
vn -0.808100 0.320400 0.494300
vn 0.205700 0.720200 -0.662500
vn 0.668100 -0.277400 -0.690400
vn -0.505600 0.846500 0.167000
vn 0.762300 0.585200 0.276500
vn -0.599800 -0.016100 -0.800000
vn -0.419500 0.321900 -0.848700
vn 0.382900 -0.307400 0.871100
vn 0.412700 0.900500 0.136900
vn -0.449300 -0.886000 -0.114500
vn -0.768800 -0.531200 -0.356000
vn 0.643400 0.092100 0.760000
vn -0.671100 0.363000 0.646400
vn 0.545700 -0.802100 -0.242500
vn 0.626300 -0.651000 -0.428900
vn -0.644700 0.589600 0.486500
vn 0.762600 0.423100 0.489300
vn -0.760600 -0.410900 -0.502600
vn -0.006700 -0.996600 0.082500
vn 0.217100 0.970700 -0.103400
vn -0.927300 0.218000 -0.304500
vn 0.973200 -0.108900 0.202500
vn -0.877300 0.130300 -0.461900
vn -0.157700 0.823500 0.544900
vn 0.193600 -0.836800 -0.512200
vn 0.537400 0.388300 -0.748600
vn -0.565900 -0.431200 0.702700
vn -0.574000 -0.558500 0.598800
vn 0.732300 0.554100 -0.395900
vn 0.811400 -0.290200 0.507400
vn -0.825100 0.279900 -0.490800
vn -0.006700 -0.996600 0.082200
vn 0.180100 0.976100 0.121700
vn -0.979400 0.102100 -0.174100
vn 0.912800 -0.118800 0.390800
vn 0.562300 -0.656700 -0.502600
vn -0.621000 0.596800 0.508100
vn 0.902100 -0.423600 -0.082600
vn -0.901000 0.433900 0.006200
usemtl Material
s off
f 34/1/1 3/2/1 4/3/1
f 8/4/2 7/2/2 36/5/2
f 34/6/3 36/1/3 7/2/3
f 33/1/4 4/2/4 8/3/4
f 6/7/5 5/3/5 1/2/5
f 12/7/6 11/4/6 10/2/6
f 17/3/7 9/3/7 10/2/7
f 20/7/8 18/4/8 11/4/8
f 17/3/9 20/7/9 12/7/9
f 19/2/10 10/2/10 11/4/10
f 1/2/11 14/2/11 15/4/11
f 5/3/12 6/7/12 16/7/12
f 6/7/13 2/4/13 15/4/13
f 5/3/14 13/3/14 14/2/14
f 21/2/15 19/2/15 18/4/15
f 23/3/16 22/7/16 20/7/16
f 24/4/17 18/4/17 20/7/17
f 23/3/18 17/3/18 19/2/18
f 14/2/19 13/3/19 23/3/19
f 15/4/20 24/4/20 22/7/20
f 13/3/21 16/7/21 22/7/21
f 14/2/22 21/2/22 24/4/22
f 28/3/23 27/2/23 34/1/23
f 36/5/24 31/2/24 32/4/24
f 34/6/25 27/3/25 31/2/25
f 32/3/26 28/2/26 33/1/26
f 26/4/27 25/2/27 29/3/27
f 40/7/28 37/3/28 38/2/28
f 47/2/29 38/2/29 37/3/29
f 48/7/30 40/7/30 39/4/30
f 37/3/31 40/7/31 48/7/31
f 39/4/32 38/2/32 47/2/32
f 43/4/33 42/2/33 25/2/33
f 41/3/34 44/7/34 30/7/34
f 30/7/35 44/7/35 43/4/35
f 42/2/36 41/3/36 29/3/36
f 52/4/37 46/4/37 47/2/37
f 51/3/38 45/3/38 48/7/38
f 48/7/39 46/4/39 52/4/39
f 47/2/40 45/3/40 51/3/40
f 42/2/41 49/2/41 51/3/41
f 50/7/42 52/4/42 43/4/42
f 51/3/43 50/7/43 44/7/43
f 43/4/44 52/4/44 49/2/44
f 33/6/45 34/1/45 4/3/45
f 35/8/46 8/4/46 36/5/46
f 3/3/47 34/6/47 7/2/47
f 35/6/48 33/1/48 8/3/48
f 2/4/49 6/7/49 1/2/49
f 9/3/6 12/7/6 10/2/6
f 19/2/7 17/3/7 10/2/7
f 12/7/8 20/7/8 11/4/8
f 9/3/9 17/3/9 12/7/9
f 18/4/10 19/2/10 11/4/10
f 2/4/50 1/2/50 15/4/50
f 13/3/51 5/3/51 16/7/51
f 16/7/52 6/7/52 15/4/52
f 1/2/53 5/3/53 14/2/53
f 24/4/15 21/2/15 18/4/15
f 17/3/16 23/3/16 20/7/16
f 22/7/17 24/4/17 20/7/17
f 21/2/18 23/3/18 19/2/18
f 21/2/54 14/2/54 23/3/54
f 16/7/55 15/4/55 22/7/55
f 23/3/56 13/3/56 22/7/56
f 15/4/57 14/2/57 24/4/57
f 33/6/58 28/3/58 34/1/58
f 35/8/59 36/5/59 32/4/59
f 36/1/60 34/6/60 31/2/60
f 35/6/61 32/3/61 33/1/61
f 30/7/27 26/4/27 29/3/27
f 39/4/28 40/7/28 38/2/28
f 45/3/29 47/2/29 37/3/29
f 46/4/30 48/7/30 39/4/30
f 45/3/31 37/3/31 48/7/31
f 46/4/32 39/4/32 47/2/32
f 26/4/33 43/4/33 25/2/33
f 29/3/34 41/3/34 30/7/34
f 26/4/35 30/7/35 43/4/35
f 25/2/36 42/2/36 29/3/36
f 49/2/37 52/4/37 47/2/37
f 50/7/38 51/3/38 48/7/38
f 50/7/39 48/7/39 52/4/39
f 49/2/40 47/2/40 51/3/40
f 41/3/62 42/2/62 51/3/62
f 44/7/63 50/7/63 43/4/63
f 41/3/64 51/3/64 44/7/64
f 42/2/65 43/4/65 49/2/65
