# Blender v2.76 (sub 0) OBJ File: 'handsBlock.blend'
# www.blender.org
mtllib handsBlock_000002.mtl
o Cube
v 0.652717 -0.084783 -1.985869
v 0.783882 -0.032362 -2.469515
v 0.325958 -0.381613 -2.416899
v 0.656457 -0.522737 -2.171822
v 0.332214 -0.469313 -2.050784
v 0.450790 -0.414157 -2.537799
v 0.578385 0.051784 -2.386379
v 0.851322 -0.053367 -2.165199
v 4.676522 -0.330245 -0.328361
v 4.490114 -0.107720 -0.401375
v 4.620887 -0.086233 -0.669763
v 4.807296 -0.308756 -0.596750
v 2.585325 -2.448023 -1.288186
v 2.595956 -1.965795 -1.323506
v 2.818132 -1.957353 -1.926684
v 2.807437 -2.439581 -1.891383
v 4.384698 -0.850966 -0.266317
v 4.247090 -0.247434 -1.110731
v 3.923638 -0.300580 -0.446904
v 4.708150 -0.797819 -0.930144
v 3.740163 -0.821547 -0.789359
v 4.123061 -1.064235 -1.025214
v 3.965194 -1.090174 -0.701218
v 3.898031 -0.795607 -1.113354
v -0.637464 0.129532 1.916690
v -0.353715 0.447725 2.198860
v -0.684495 0.092812 2.405678
v -0.587960 -0.133527 2.327928
v -0.791011 -0.110149 2.341374
v -0.507262 0.208044 2.623544
v -0.538403 0.458698 2.193357
v -0.441660 0.232416 2.115731
v 0.342731 -0.353772 0.003799
v -0.349472 -0.349472 -0.000446
v 0.401680 0.269716 0.055728
v -0.260755 0.405917 -0.056498
v 4.219456 -0.136196 1.399834
v 4.120803 -0.127518 1.117367
v 3.960937 0.117479 1.180728
v 4.059589 0.108801 1.463195
v 1.478061 -2.064683 2.140506
v 1.672435 -1.761271 1.602900
v 2.031633 -1.358472 1.960099
v 1.837259 -1.661884 2.497705
v 4.010707 -0.617280 1.691630
v 3.371291 0.010158 1.149695
v 3.766701 -0.595816 0.992980
v 3.615296 -0.011307 1.848346
v 3.267013 -0.785905 1.362468
v 3.193116 -0.500622 1.779948
v 3.386105 -0.796381 1.703460
v 3.074024 -0.490146 1.438956
vt 1.000000 0.500000
vt 1.000000 1.000000
vt 0.000000 1.000000
vt 1.000000 0.000000
vt 0.500000 1.000000
vt 0.000000 0.000000
vt 0.000000 0.500000
vt 0.500000 0.000000
vn -0.339100 -0.937100 -0.082300
vn 0.366200 0.930500 -0.009500
vn -0.794800 0.488300 -0.360500
vn 0.910700 -0.380400 0.160900
vn -0.754200 0.647300 -0.110300
vn 0.649100 0.665000 0.369500
vn -0.144900 0.196800 0.969700
vn 0.657800 0.328700 -0.677700
vn 0.828500 -0.420200 0.370100
vn -0.315700 0.945600 -0.078100
vn 0.630800 0.737100 0.242600
vn -0.596600 -0.768200 -0.232300
vn 0.232200 -0.028700 -0.972200
vn -0.259000 0.076200 0.962900
vn -0.791000 0.505300 -0.345000
vn 0.395300 -0.910700 0.119700
vn 0.218200 -0.134300 -0.966600
vn -0.614000 -0.271100 0.741300
vn -0.452000 0.075100 0.888900
vn 0.498200 0.136400 -0.856300
vn 0.631000 -0.743400 0.221900
vn -0.625700 0.740400 -0.245600
vn -0.925500 -0.374100 -0.060100
vn 0.926900 0.360000 0.105900
vn -0.945000 0.272000 -0.181600
vn 0.913700 -0.145100 0.379600
vn -0.775700 0.626800 0.073300
vn 0.778500 0.573800 -0.254300
vn 0.798200 -0.525200 -0.294900
vn -0.183100 0.978600 0.094000
vn 0.610300 0.200000 0.766500
vn 0.004800 0.253300 -0.967400
vn 0.282700 0.482900 -0.828800
vn -0.317800 -0.454500 0.832100
vn 0.537300 0.636400 0.553400
vn -0.572400 -0.608000 -0.550100
vn -0.551200 -0.147300 -0.821200
vn 0.076600 -0.202500 0.976300
vn -0.746000 0.604600 0.279100
vn 0.271300 -0.954500 -0.124100
vn 0.489800 -0.849300 -0.197100
vn -0.557400 0.800800 0.219300
vn 0.433400 0.050100 0.899800
vn -0.420200 -0.039700 -0.906600
vn -0.006700 -0.997000 0.076500
vn 0.216300 0.971500 -0.097500
vn -0.958600 0.092600 -0.269200
vn 0.971000 -0.109500 0.212500
vn -0.736000 0.664900 -0.127500
vn 0.629300 0.735700 0.250400
vn -0.596900 -0.768500 -0.230500
vn 0.202500 -0.076000 -0.976300
vn -0.268300 0.061300 0.961400
vn -0.396800 -0.031400 0.917400
vn 0.599700 -0.071600 -0.797000
vn 0.625000 -0.741100 0.245200
vn -0.631600 0.742700 -0.222300
vn -0.006700 -0.995800 0.091700
vn 0.185300 0.978200 0.093600
vn -0.986500 0.106600 -0.124200
vn 0.919700 -0.118100 0.374400
vn 0.482200 -0.826000 -0.291800
vn -0.549600 0.796800 0.251000
vn 0.575000 -0.766500 0.286100
vn -0.527000 0.776400 -0.345600
usemtl Material
s off
f 34/1/1 3/2/1 4/3/1
f 8/4/2 7/2/2 36/5/2
f 36/1/3 7/2/3 3/3/3
f 33/1/4 4/2/4 8/3/4
f 6/6/5 5/3/5 1/2/5
f 12/6/6 11/4/6 10/2/6
f 19/2/7 17/3/7 9/3/7
f 20/6/8 18/4/8 11/4/8
f 17/3/9 20/6/9 12/6/9
f 18/4/10 19/2/10 10/2/10
f 1/2/11 14/2/11 15/4/11
f 5/3/12 6/6/12 16/6/12
f 6/6/13 2/4/13 15/4/13
f 5/3/14 13/3/14 14/2/14
f 21/2/15 19/2/15 18/4/15
f 23/3/16 22/6/16 20/6/16
f 22/6/17 24/4/17 18/4/17
f 23/3/18 17/3/18 19/2/18
f 14/2/19 13/3/19 23/3/19
f 15/4/20 24/4/20 22/6/20
f 13/3/21 16/6/21 22/6/21
f 14/2/22 21/2/22 24/4/22
f 28/3/23 27/2/23 34/1/23
f 36/5/24 31/2/24 32/4/24
f 34/7/25 27/3/25 31/2/25
f 32/3/26 28/2/26 33/1/26
f 30/6/27 26/4/27 25/2/27
f 37/3/28 38/2/28 39/4/28
f 38/2/29 37/3/29 45/3/29
f 40/6/30 39/4/30 46/4/30
f 45/3/31 37/3/31 40/6/31
f 39/4/32 38/2/32 47/2/32
f 43/4/33 42/2/33 25/2/33
f 29/3/34 41/3/34 44/6/34
f 44/6/35 43/4/35 26/4/35
f 42/2/36 41/3/36 29/3/36
f 52/4/37 46/4/37 47/2/37
f 51/3/38 45/3/38 48/6/38
f 48/6/39 46/4/39 52/4/39
f 47/2/40 45/3/40 51/3/40
f 42/2/41 49/2/41 51/3/41
f 50/6/42 52/4/42 43/4/42
f 51/3/43 50/6/43 44/6/43
f 43/4/44 52/4/44 49/2/44
f 33/7/45 34/1/45 4/3/45
f 35/8/46 8/4/46 36/5/46
f 34/7/47 36/1/47 3/3/47
f 35/7/48 33/1/48 8/3/48
f 2/4/49 6/6/49 1/2/49
f 9/3/6 12/6/6 10/2/6
f 10/2/7 19/2/7 9/3/7
f 12/6/8 20/6/8 11/4/8
f 9/3/9 17/3/9 12/6/9
f 11/4/10 18/4/10 10/2/10
f 2/4/50 1/2/50 15/4/50
f 13/3/51 5/3/51 16/6/51
f 16/6/52 6/6/52 15/4/52
f 1/2/53 5/3/53 14/2/53
f 24/4/15 21/2/15 18/4/15
f 17/3/16 23/3/16 20/6/16
f 20/6/17 22/6/17 18/4/17
f 21/2/18 23/3/18 19/2/18
f 21/2/54 14/2/54 23/3/54
f 16/6/55 15/4/55 22/6/55
f 23/3/56 13/3/56 22/6/56
f 15/4/57 14/2/57 24/4/57
f 33/7/58 28/3/58 34/1/58
f 35/8/59 36/5/59 32/4/59
f 36/1/60 34/7/60 31/2/60
f 35/7/61 32/3/61 33/1/61
f 29/3/27 30/6/27 25/2/27
f 40/6/28 37/3/28 39/4/28
f 47/2/29 38/2/29 45/3/29
f 48/6/30 40/6/30 46/4/30
f 48/6/31 45/3/31 40/6/31
f 46/4/32 39/4/32 47/2/32
f 26/4/33 43/4/33 25/2/33
f 30/6/34 29/3/34 44/6/34
f 30/6/35 44/6/35 26/4/35
f 25/2/36 42/2/36 29/3/36
f 49/2/37 52/4/37 47/2/37
f 50/6/38 51/3/38 48/6/38
f 50/6/39 48/6/39 52/4/39
f 49/2/40 47/2/40 51/3/40
f 41/3/62 42/2/62 51/3/62
f 44/6/63 50/6/63 43/4/63
f 41/3/64 51/3/64 44/6/64
f 42/2/65 43/4/65 49/2/65
