# Blender v2.76 (sub 0) OBJ File: 'handsBlock.blend'
# www.blender.org
mtllib handsBlock_000051.mtl
o Cube
v 0.465434 -0.132039 -1.963770
v 0.693213 0.111494 -2.341492
v 0.432663 -0.354260 -2.429189
v 0.664413 -0.535765 -2.183341
v 0.468116 -0.590063 -2.175918
v 0.686012 -0.349717 -2.561976
v 0.536010 0.115939 -2.328712
v 0.829645 -0.059502 -2.163109
v 3.070808 1.238971 1.250412
v 2.827439 1.346936 1.113621
v 3.001613 1.505154 0.928618
v 3.244982 1.397191 1.065408
v 3.040484 -1.280809 -0.601385
v 2.782799 -0.871604 -0.608788
v 3.143470 -0.584808 -1.057032
v 3.401114 -0.994040 -1.049674
v 3.131335 0.648859 1.159491
v 2.960190 1.307232 0.363576
v 2.529392 0.915895 0.821158
v 3.562133 1.040196 0.701906
v 2.804766 0.492758 0.411929
v 3.308818 0.553426 0.353726
v 3.098558 0.362426 0.577059
v 3.015027 0.683758 0.188596
v -0.772024 0.034344 2.003659
v -0.530790 0.475155 2.097844
v -0.618406 0.135461 2.368752
v -0.500618 -0.152180 2.384982
v -0.616293 -0.147407 2.455427
v -0.375058 0.293405 2.549613
v -0.626889 0.472378 2.142916
v -0.508897 0.184830 2.159220
v 0.342731 -0.353772 0.003799
v -0.349472 -0.349472 -0.000446
v 0.401680 0.269716 0.055728
v -0.260755 0.405917 -0.056498
v 3.036594 1.163638 -0.850558
v 2.825365 1.083104 -1.046753
v 2.634114 1.275112 -0.919662
v 2.845343 1.355647 -0.723468
v 1.854507 -1.312676 1.211828
v 1.657366 -1.082598 0.639937
v 1.962746 -0.524575 0.759166
v 2.159886 -0.754654 1.331058
v 3.176084 0.713148 -0.479393
v 2.180597 0.988863 -0.650313
v 2.653633 0.513953 -0.964657
v 2.703048 1.188058 -0.165052
v 2.484986 0.261161 -0.390201
v 2.509104 0.590173 0.000063
v 2.739980 0.358382 -0.153358
v 2.254111 0.492952 -0.236780
vt 1.000000 0.500000
vt 1.000000 1.000000
vt 0.000000 1.000000
vt 1.000000 0.000000
vt 0.500000 1.000000
vt 0.000000 0.500000
vt 0.000000 0.000000
vt 0.500000 0.000000
vn -0.498700 -0.852100 -0.158900
vn 0.487000 0.871400 0.059600
vn -0.936800 0.084800 -0.339300
vn 0.929800 -0.329500 0.164200
vn -0.900300 0.178600 -0.397000
vn -0.018600 0.768400 0.639600
vn -0.541900 -0.182000 0.820500
vn 0.527200 0.789200 -0.315100
vn 0.739600 -0.027800 0.672500
vn -0.754300 0.634900 -0.167100
vn -0.031900 0.853400 0.520300
vn 0.072000 -0.864400 -0.497500
vn 0.511500 0.364100 -0.778300
vn -0.555700 -0.336200 0.760400
vn -0.768700 0.109300 -0.630200
vn 0.780000 -0.577800 0.240200
vn 0.559900 0.269200 -0.783600
vn -0.548500 -0.737700 0.393700
vn -0.675100 -0.414100 0.610600
vn 0.577300 0.601100 -0.552600
vn 0.826400 -0.350400 0.440700
vn -0.813000 0.357200 -0.459900
vn -0.924500 -0.380100 -0.027100
vn 0.913100 0.382700 0.140400
vn -0.991600 -0.088300 -0.094500
vn 0.923500 0.228800 0.307700
vn -0.827400 0.360800 0.430400
vn 0.306200 0.718400 -0.624600
vn 0.707900 -0.305500 -0.636800
vn -0.466000 0.873100 0.143300
vn 0.769300 0.531000 0.355400
vn -0.527300 0.036700 -0.848900
vn -0.323300 0.363600 -0.873700
vn 0.285800 -0.347200 0.893200
vn 0.453000 0.870200 0.193900
vn -0.490500 -0.853800 -0.174400
vn -0.765400 -0.475300 -0.433900
vn 0.578700 0.037200 0.814700
vn -0.701900 0.391900 0.594800
vn 0.515200 -0.829900 -0.214000
vn 0.620800 -0.680600 -0.389000
vn -0.647900 0.619400 0.443300
vn 0.741100 0.365200 0.563400
vn -0.737200 -0.352900 -0.576200
vn -0.006700 -0.996600 0.081900
vn 0.216900 0.970800 -0.102200
vn -0.917700 0.265000 -0.296000
vn 0.972900 -0.109000 0.203800
vn -0.891100 0.207000 -0.403900
vn -0.018600 0.768400 0.639700
vn -0.034700 0.849400 0.526700
vn 0.071300 -0.865300 -0.496100
vn 0.517700 0.311600 -0.796800
vn -0.553600 -0.352700 0.754400
vn -0.581900 -0.481100 0.655600
vn 0.753300 0.465900 -0.464200
vn 0.813000 -0.358000 0.459200
vn -0.826500 0.349600 -0.441300
vn -0.006700 -0.996600 0.082000
vn 0.180800 0.976400 0.117700
vn -0.980700 0.102800 -0.166400
vn 0.912900 -0.118800 0.390400
vn 0.563300 -0.680900 -0.468100
vn -0.625800 0.624700 0.467000
vn 0.878500 -0.477600 -0.014800
vn -0.870100 0.489200 -0.060900
usemtl Material
s off
f 34/1/1 3/2/1 4/3/1
f 8/4/2 7/2/2 36/5/2
f 34/6/3 36/1/3 7/2/3
f 33/1/4 4/2/4 8/3/4
f 6/7/5 5/3/5 1/2/5
f 12/7/6 11/4/6 10/2/6
f 17/3/7 9/3/7 10/2/7
f 20/7/8 18/4/8 11/4/8
f 17/3/9 20/7/9 12/7/9
f 19/2/10 10/2/10 11/4/10
f 1/2/11 14/2/11 15/4/11
f 5/3/12 6/7/12 16/7/12
f 6/7/13 2/4/13 15/4/13
f 5/3/14 13/3/14 14/2/14
f 21/2/15 19/2/15 18/4/15
f 23/3/16 22/7/16 20/7/16
f 24/4/17 18/4/17 20/7/17
f 23/3/18 17/3/18 19/2/18
f 14/2/19 13/3/19 23/3/19
f 15/4/20 24/4/20 22/7/20
f 13/3/21 16/7/21 22/7/21
f 14/2/22 21/2/22 24/4/22
f 28/3/23 27/2/23 34/1/23
f 36/5/24 31/2/24 32/4/24
f 34/6/25 27/3/25 31/2/25
f 32/3/26 28/2/26 33/1/26
f 26/4/27 25/2/27 29/3/27
f 37/3/28 38/2/28 39/4/28
f 38/2/29 37/3/29 45/3/29
f 48/7/30 40/7/30 39/4/30
f 37/3/31 40/7/31 48/7/31
f 39/4/32 38/2/32 47/2/32
f 43/4/33 42/2/33 25/2/33
f 41/3/34 44/7/34 30/7/34
f 44/7/35 43/4/35 26/4/35
f 42/2/36 41/3/36 29/3/36
f 52/4/37 46/4/37 47/2/37
f 51/3/38 45/3/38 48/7/38
f 48/7/39 46/4/39 52/4/39
f 49/2/40 47/2/40 45/3/40
f 42/2/41 49/2/41 51/3/41
f 50/7/42 52/4/42 43/4/42
f 51/3/43 50/7/43 44/7/43
f 43/4/44 52/4/44 49/2/44
f 33/6/45 34/1/45 4/3/45
f 35/8/46 8/4/46 36/5/46
f 3/3/47 34/6/47 7/2/47
f 35/6/48 33/1/48 8/3/48
f 2/4/49 6/7/49 1/2/49
f 9/3/50 12/7/50 10/2/50
f 19/2/7 17/3/7 10/2/7
f 12/7/8 20/7/8 11/4/8
f 9/3/9 17/3/9 12/7/9
f 18/4/10 19/2/10 11/4/10
f 2/4/51 1/2/51 15/4/51
f 13/3/52 5/3/52 16/7/52
f 16/7/53 6/7/53 15/4/53
f 1/2/54 5/3/54 14/2/54
f 24/4/15 21/2/15 18/4/15
f 17/3/16 23/3/16 20/7/16
f 22/7/17 24/4/17 20/7/17
f 21/2/18 23/3/18 19/2/18
f 21/2/55 14/2/55 23/3/55
f 16/7/56 15/4/56 22/7/56
f 23/3/57 13/3/57 22/7/57
f 15/4/58 14/2/58 24/4/58
f 33/6/59 28/3/59 34/1/59
f 35/8/60 36/5/60 32/4/60
f 36/1/61 34/6/61 31/2/61
f 35/6/62 32/3/62 33/1/62
f 30/7/27 26/4/27 29/3/27
f 40/7/28 37/3/28 39/4/28
f 47/2/29 38/2/29 45/3/29
f 46/4/30 48/7/30 39/4/30
f 45/3/31 37/3/31 48/7/31
f 46/4/32 39/4/32 47/2/32
f 26/4/33 43/4/33 25/2/33
f 29/3/34 41/3/34 30/7/34
f 30/7/35 44/7/35 26/4/35
f 25/2/36 42/2/36 29/3/36
f 49/2/37 52/4/37 47/2/37
f 50/7/38 51/3/38 48/7/38
f 50/7/39 48/7/39 52/4/39
f 51/3/40 49/2/40 45/3/40
f 41/3/63 42/2/63 51/3/63
f 44/7/64 50/7/64 43/4/64
f 41/3/65 51/3/65 44/7/65
f 42/2/66 43/4/66 49/2/66
