# Blender v2.76 (sub 0) OBJ File: 'handsBlock.blend'
# www.blender.org
mtllib handsBlock_000058.mtl
o Cube
v 0.488183 -0.119434 -1.961623
v 0.712706 0.097564 -2.357056
v 0.419724 -0.361493 -2.430454
v 0.662682 -0.534494 -2.181935
v 0.443723 -0.580582 -2.162037
v 0.657700 -0.366160 -2.565179
v 0.544964 0.109798 -2.335680
v 0.832244 -0.057963 -2.162795
v 3.366265 1.109826 1.072215
v 3.124718 1.233662 0.946053
v 3.300018 1.373847 0.748029
v 3.541564 1.250012 0.874189
v 3.038723 -1.437884 -0.711392
v 2.813358 -1.009981 -0.715190
v 3.169587 -0.761751 -1.189259
v 3.394907 -1.189679 -1.185502
v 3.375943 0.515018 0.993017
v 3.212090 1.168042 0.191185
v 2.778508 0.821309 0.680975
v 3.809525 0.861750 0.503225
v 2.997236 0.369445 0.268274
v 3.500446 0.389184 0.181520
v 3.288827 0.219954 0.420573
v 3.208854 0.538676 0.029220
v -0.759250 0.048702 1.987894
v -0.504563 0.476019 2.105855
v -0.624933 0.128893 2.375722
v -0.513870 -0.152001 2.380067
v -0.642799 -0.147056 2.445604
v -0.388113 0.280262 2.563565
v -0.613785 0.472813 2.146914
v -0.502515 0.192007 2.151338
v 0.342731 -0.353772 0.003799
v -0.349472 -0.349472 -0.000446
v 0.401680 0.269716 0.055728
v -0.260755 0.405917 -0.056498
v 3.280644 1.037553 -0.586765
v 3.079512 0.970162 -0.797953
v 2.889341 1.169154 -0.680337
v 3.090474 1.236546 -0.469151
v 1.848720 -1.410199 1.347404
v 1.701305 -1.162390 0.767990
v 2.023712 -0.621450 0.917316
v 2.171128 -0.869259 1.496730
v 3.373769 0.575382 -0.215433
v 2.405930 0.900880 -0.446872
v 2.876293 0.408694 -0.737778
v 2.903407 1.067567 0.075473
v 2.657910 0.155637 -0.180450
v 2.671144 0.477214 0.216475
v 2.900714 0.236992 0.074493
v 2.428339 0.395859 -0.038468
vt 1.000000 0.500000
vt 1.000000 1.000000
vt 0.000000 1.000000
vt 1.000000 0.000000
vt 0.500000 1.000000
vt 0.000000 0.500000
vt 0.000000 0.000000
vt 0.500000 0.000000
vn -0.471300 -0.870000 -0.144900
vn 0.478500 0.876400 0.055300
vn -0.935900 0.084600 -0.341900
vn 0.927400 -0.336500 0.163600
vn -0.904500 0.240300 -0.352300
vn 0.076300 0.780700 0.620200
vn -0.507900 -0.121800 0.852800
vn 0.568100 0.738700 -0.362700
vn 0.771500 -0.071600 0.632200
vn -0.711200 0.688500 -0.142200
vn 0.063000 0.863900 0.499700
vn -0.022700 -0.877600 -0.478800
vn 0.494000 0.306600 -0.813600
vn -0.536800 -0.275700 0.797400
vn -0.791800 0.156000 -0.590500
vn 0.745300 -0.632000 0.212300
vn 0.534500 0.208100 -0.819200
vn -0.581000 -0.684000 0.441000
vn -0.670000 -0.347000 0.656300
vn 0.590300 0.542300 -0.597800
vn 0.820200 -0.404800 0.404200
vn -0.807300 0.410100 -0.424300
vn -0.929200 -0.367900 -0.033700
vn 0.920300 0.366800 0.136300
vn -0.993500 -0.039200 -0.107300
vn 0.929900 0.181900 0.319800
vn -0.836600 0.393400 0.381100
vn 0.380600 0.712300 -0.589800
vn 0.734000 -0.329300 -0.594000
vn -0.433300 0.892100 0.128000
vn 0.767600 0.488200 0.415200
vn -0.466900 0.074600 -0.881100
vn -0.246700 0.391700 -0.886400
vn 0.208800 -0.373900 0.903700
vn 0.479100 0.844500 0.239300
vn -0.517000 -0.826700 -0.222000
vn -0.756000 -0.431600 -0.492200
vn 0.524000 -0.002700 0.851700
vn -0.721100 0.416000 0.554000
vn 0.489100 -0.850300 -0.194400
vn 0.613100 -0.703600 -0.359400
vn -0.646600 0.642900 0.410600
vn 0.717900 0.320900 0.617800
vn -0.712600 -0.308600 -0.630100
vn -0.006700 -0.996700 0.081400
vn 0.216800 0.970900 -0.101300
vn -0.909100 0.299800 -0.289300
vn 0.972700 -0.109000 0.204900
vn -0.893500 0.267700 -0.360400
vn 0.568200 0.738700 -0.362700
vn 0.060200 0.860300 0.506300
vn -0.023300 -0.878400 -0.477400
vn 0.495100 0.253400 -0.831000
vn -0.536400 -0.292400 0.791700
vn -0.580000 -0.420200 0.697900
vn 0.760000 0.395600 -0.515600
vn 0.807200 -0.411000 0.423600
vn -0.820300 0.404100 -0.404800
vn -0.006700 -0.996600 0.082200
vn 0.181400 0.976700 0.114500
vn -0.981600 0.103400 -0.160400
vn 0.913300 -0.118800 0.389600
vn 0.561000 -0.699900 -0.442100
vn -0.625800 0.646800 0.435900
vn 0.854200 -0.518700 0.034700
vn -0.840200 0.531000 -0.109500
usemtl Material
s off
f 34/1/1 3/2/1 4/3/1
f 8/4/2 7/2/2 36/5/2
f 34/6/3 36/1/3 7/2/3
f 33/1/4 4/2/4 8/3/4
f 6/7/5 5/3/5 1/2/5
f 11/4/6 10/2/6 9/3/6
f 17/3/7 9/3/7 10/2/7
f 18/4/8 11/4/8 12/7/8
f 17/3/9 20/7/9 12/7/9
f 18/4/10 19/2/10 10/2/10
f 1/2/11 14/2/11 15/4/11
f 5/3/12 6/7/12 16/7/12
f 6/7/13 2/4/13 15/4/13
f 5/3/14 13/3/14 14/2/14
f 21/2/15 19/2/15 18/4/15
f 23/3/16 22/7/16 20/7/16
f 22/7/17 24/4/17 18/4/17
f 23/3/18 17/3/18 19/2/18
f 14/2/19 13/3/19 23/3/19
f 15/4/20 24/4/20 22/7/20
f 13/3/21 16/7/21 22/7/21
f 14/2/22 21/2/22 24/4/22
f 28/3/23 27/2/23 34/1/23
f 36/5/24 31/2/24 32/4/24
f 34/6/25 27/3/25 31/2/25
f 32/3/26 28/2/26 33/1/26
f 26/4/27 25/2/27 29/3/27
f 40/7/28 37/3/28 38/2/28
f 47/2/29 38/2/29 37/3/29
f 48/7/30 40/7/30 39/4/30
f 37/3/31 40/7/31 48/7/31
f 39/4/32 38/2/32 47/2/32
f 43/4/33 42/2/33 25/2/33
f 29/3/34 41/3/34 44/7/34
f 30/7/35 44/7/35 43/4/35
f 42/2/36 41/3/36 29/3/36
f 52/4/37 46/4/37 47/2/37
f 51/3/38 45/3/38 48/7/38
f 48/7/39 46/4/39 52/4/39
f 47/2/40 45/3/40 51/3/40
f 42/2/41 49/2/41 51/3/41
f 50/7/42 52/4/42 43/4/42
f 51/3/43 50/7/43 44/7/43
f 43/4/44 52/4/44 49/2/44
f 33/6/45 34/1/45 4/3/45
f 35/8/46 8/4/46 36/5/46
f 3/3/47 34/6/47 7/2/47
f 35/6/48 33/1/48 8/3/48
f 2/4/49 6/7/49 1/2/49
f 12/7/6 11/4/6 9/3/6
f 19/2/7 17/3/7 10/2/7
f 20/7/50 18/4/50 12/7/50
f 9/3/9 17/3/9 12/7/9
f 11/4/10 18/4/10 10/2/10
f 2/4/51 1/2/51 15/4/51
f 13/3/52 5/3/52 16/7/52
f 16/7/53 6/7/53 15/4/53
f 1/2/54 5/3/54 14/2/54
f 24/4/15 21/2/15 18/4/15
f 17/3/16 23/3/16 20/7/16
f 20/7/17 22/7/17 18/4/17
f 21/2/18 23/3/18 19/2/18
f 21/2/55 14/2/55 23/3/55
f 16/7/56 15/4/56 22/7/56
f 23/3/57 13/3/57 22/7/57
f 15/4/58 14/2/58 24/4/58
f 33/6/59 28/3/59 34/1/59
f 35/8/60 36/5/60 32/4/60
f 36/1/61 34/6/61 31/2/61
f 35/6/62 32/3/62 33/1/62
f 30/7/27 26/4/27 29/3/27
f 39/4/28 40/7/28 38/2/28
f 45/3/29 47/2/29 37/3/29
f 46/4/30 48/7/30 39/4/30
f 45/3/31 37/3/31 48/7/31
f 46/4/32 39/4/32 47/2/32
f 26/4/33 43/4/33 25/2/33
f 30/7/34 29/3/34 44/7/34
f 26/4/35 30/7/35 43/4/35
f 25/2/36 42/2/36 29/3/36
f 49/2/37 52/4/37 47/2/37
f 50/7/38 51/3/38 48/7/38
f 50/7/39 48/7/39 52/4/39
f 49/2/40 47/2/40 51/3/40
f 41/3/63 42/2/63 51/3/63
f 44/7/64 50/7/64 43/4/64
f 41/3/65 51/3/65 44/7/65
f 42/2/66 43/4/66 49/2/66
