# Blender v2.76 (sub 0) OBJ File: 'handsAttack.blend'
# www.blender.org
mtllib handsAttack_000046.mtl
o Cube
v 0.101400 -0.023711 -2.095652
v 0.092339 0.046258 -2.591196
v -0.340631 -0.302333 -2.425304
v 0.050141 -0.445371 -2.284392
v -0.236131 -0.397569 -2.081136
v -0.258867 -0.324932 -2.575297
v -0.087530 0.128318 -2.451703
v 0.234418 0.026484 -2.315455
v 4.260626 -0.326148 -1.421236
v 4.049592 -0.114419 -1.406012
v 4.095910 -0.047540 -1.694070
v 4.306944 -0.259268 -1.709294
v 2.084175 -2.463690 -2.044243
v 2.079771 -1.999829 -2.037932
v 2.120362 -1.932813 -2.672814
v 2.124696 -2.396675 -2.679121
v 4.027102 -0.875257 -1.357139
v 3.619695 -0.186154 -2.031960
v 3.505134 -0.351573 -1.319482
v 4.141662 -0.709839 -2.069618
v 3.258311 -0.840316 -1.669557
v 3.568982 -1.015175 -2.035677
v 3.513069 -1.095912 -1.687936
v 3.314225 -0.759580 -2.017298
v 0.145519 -0.001288 1.981456
v 0.387076 0.365464 2.243225
v 0.098412 -0.009311 2.513489
v 0.227230 -0.243147 2.359708
v 0.031575 -0.238929 2.419548
v 0.273132 0.127824 2.681317
v 0.204989 0.360050 2.283892
v 0.334009 0.126294 2.130181
v 0.344285 -0.353331 -0.000365
v -0.349472 -0.349472 -0.000446
v 0.399291 0.281424 -0.023866
v -0.281796 0.399869 -0.000957
v 5.448059 -0.234635 1.644122
v 5.365421 -0.232329 1.356439
v 5.229131 0.030956 1.397700
v 5.311770 0.028650 1.685383
v 2.542401 -1.876222 2.263772
v 2.686642 -1.575393 1.709194
v 2.992428 -1.111122 2.040567
v 2.848187 -1.411951 2.595146
v 5.175328 -0.674191 1.948377
v 4.633835 -0.017285 1.338880
v 4.970932 -0.668488 1.236827
v 4.838232 -0.022989 2.050429
v 4.435831 -0.784881 1.586776
v 4.371064 -0.469832 1.983872
v 4.535591 -0.787665 1.934063
v 4.271305 -0.467048 1.636585
vt 1.000000 0.500000
vt 1.000000 1.000000
vt 0.000000 1.000000
vt 1.000000 0.000000
vt 0.500000 1.000000
vt 0.000000 0.500000
vt 0.000000 0.000000
vt 0.500000 0.000000
vn -0.337500 -0.941100 -0.019500
vn 0.330500 0.940600 -0.078000
vn -0.992000 0.089500 -0.088600
vn 0.924100 -0.367700 -0.104200
vn -0.733200 0.667100 0.131800
vn 0.692100 0.670600 0.267000
vn 0.131300 0.059700 0.989500
vn 0.415600 0.470200 -0.778600
vn 0.921100 -0.384900 0.058700
vn -0.374300 0.914800 0.152200
vn 0.699900 0.704200 0.119100
vn -0.655900 -0.750600 -0.080200
vn -0.042600 -0.002500 -0.999100
vn -0.028200 -0.013900 0.999500
vn -0.882500 0.469200 -0.032900
vn 0.460500 -0.878100 -0.129800
vn -0.063600 0.008400 -0.997900
vn -0.358400 -0.417200 0.835200
vn -0.228000 -0.015400 0.973500
vn 0.224800 0.290900 -0.930000
vn 0.698100 -0.715400 -0.031000
vn -0.708300 0.704200 0.049600
vn -0.787000 -0.577100 0.218300
vn 0.814200 0.557100 -0.163800
vn -0.931600 0.343100 0.119600
vn 0.968200 -0.243000 0.059400
vn -0.852700 0.519000 0.059700
vn 0.846400 0.475700 -0.239300
vn 0.752700 -0.620100 -0.221200
vn -0.083900 0.996000 0.032100
vn 0.588000 0.180800 0.788400
vn 0.080800 0.195000 -0.977500
vn 0.203500 0.476500 -0.855300
vn -0.242100 -0.452900 0.858000
vn 0.453000 0.728900 0.513200
vn -0.491700 -0.705400 -0.510500
vn -0.521000 -0.137700 -0.842400
vn 0.004900 -0.152300 0.988300
vn -0.691700 0.692700 0.204200
vn 0.175600 -0.982700 -0.058300
vn 0.401600 -0.907600 -0.122600
vn -0.414100 0.901400 0.126200
vn 0.352900 0.036200 0.935000
vn -0.298900 -0.005200 -0.954300
vn -0.005600 -0.999100 0.041000
vn 0.166100 0.978700 -0.120800
vn -0.861900 0.507000 0.006700
vn 0.994200 -0.088400 -0.061700
vn -0.719600 0.685600 0.110000
vn 0.697500 0.711200 0.087700
vn -0.659100 -0.742300 -0.120400
vn -0.032000 0.013300 -0.999400
vn 0.005000 0.034200 0.999400
vn -0.119000 -0.188700 0.974800
vn 0.393900 0.016200 -0.919000
vn 0.697500 -0.714600 -0.053800
vn -0.708700 0.704900 0.029100
vn -0.005600 -0.998900 0.046400
vn 0.173300 0.981900 0.076000
vn -0.973900 0.088100 0.209000
vn 0.996100 -0.085400 0.024000
vn 0.402700 -0.844400 -0.353300
vn -0.380800 0.850700 0.362400
vn 0.470100 -0.696500 0.542100
vn -0.354700 0.686600 -0.634600
usemtl Material
s off
f 34/1/1 3/2/1 4/3/1
f 8/4/2 7/2/2 36/5/2
f 34/6/3 36/1/3 7/2/3
f 33/1/4 4/2/4 8/3/4
f 6/7/5 5/3/5 1/2/5
f 12/7/6 11/4/6 10/2/6
f 17/3/7 9/3/7 10/2/7
f 20/7/8 18/4/8 11/4/8
f 17/3/9 20/7/9 12/7/9
f 19/2/10 10/2/10 11/4/10
f 1/2/11 14/2/11 15/4/11
f 5/3/12 6/7/12 16/7/12
f 6/7/13 2/4/13 15/4/13
f 5/3/14 13/3/14 14/2/14
f 24/4/15 21/2/15 19/2/15
f 23/3/16 22/7/16 20/7/16
f 22/7/17 24/4/17 18/4/17
f 23/3/18 17/3/18 19/2/18
f 14/2/19 13/3/19 23/3/19
f 15/4/20 24/4/20 22/7/20
f 13/3/21 16/7/21 22/7/21
f 14/2/22 21/2/22 24/4/22
f 28/3/23 27/2/23 34/1/23
f 36/5/24 31/2/24 32/4/24
f 34/6/25 27/3/25 31/2/25
f 32/3/26 28/2/26 33/1/26
f 30/7/27 26/4/27 25/2/27
f 37/3/28 38/2/28 39/4/28
f 47/2/29 38/2/29 37/3/29
f 48/7/30 40/7/30 39/4/30
f 45/3/31 37/3/31 40/7/31
f 39/4/32 38/2/32 47/2/32
f 43/4/33 42/2/33 25/2/33
f 29/3/34 41/3/34 44/7/34
f 44/7/35 43/4/35 26/4/35
f 42/2/36 41/3/36 29/3/36
f 52/4/37 46/4/37 47/2/37
f 51/3/38 45/3/38 48/7/38
f 48/7/39 46/4/39 52/4/39
f 47/2/40 45/3/40 51/3/40
f 42/2/41 49/2/41 51/3/41
f 50/7/42 52/4/42 43/4/42
f 51/3/43 50/7/43 44/7/43
f 43/4/44 52/4/44 49/2/44
f 33/6/45 34/1/45 4/3/45
f 35/8/46 8/4/46 36/5/46
f 3/3/47 34/6/47 7/2/47
f 35/6/48 33/1/48 8/3/48
f 2/4/49 6/7/49 1/2/49
f 9/3/6 12/7/6 10/2/6
f 19/2/7 17/3/7 10/2/7
f 12/7/8 20/7/8 11/4/8
f 9/3/9 17/3/9 12/7/9
f 18/4/10 19/2/10 11/4/10
f 2/4/50 1/2/50 15/4/50
f 13/3/51 5/3/51 16/7/51
f 16/7/52 6/7/52 15/4/52
f 1/2/53 5/3/53 14/2/53
f 18/4/15 24/4/15 19/2/15
f 17/3/16 23/3/16 20/7/16
f 20/7/17 22/7/17 18/4/17
f 21/2/18 23/3/18 19/2/18
f 21/2/54 14/2/54 23/3/54
f 16/7/55 15/4/55 22/7/55
f 23/3/56 13/3/56 22/7/56
f 15/4/57 14/2/57 24/4/57
f 33/6/58 28/3/58 34/1/58
f 35/8/59 36/5/59 32/4/59
f 36/1/60 34/6/60 31/2/60
f 35/6/61 32/3/61 33/1/61
f 29/3/27 30/7/27 25/2/27
f 40/7/28 37/3/28 39/4/28
f 45/3/29 47/2/29 37/3/29
f 46/4/30 48/7/30 39/4/30
f 48/7/31 45/3/31 40/7/31
f 46/4/32 39/4/32 47/2/32
f 26/4/33 43/4/33 25/2/33
f 30/7/34 29/3/34 44/7/34
f 30/7/35 44/7/35 26/4/35
f 25/2/36 42/2/36 29/3/36
f 49/2/37 52/4/37 47/2/37
f 50/7/38 51/3/38 48/7/38
f 50/7/39 48/7/39 52/4/39
f 49/2/40 47/2/40 51/3/40
f 41/3/62 42/2/62 51/3/62
f 44/7/63 50/7/63 43/4/63
f 41/3/64 51/3/64 44/7/64
f 42/2/65 43/4/65 49/2/65
