# Blender v2.76 (sub 0) OBJ File: 'handsBlock.blend'
# www.blender.org
mtllib handsBlock_000099.mtl
o Cube
v 0.636105 -0.084159 -1.980520
v 0.781787 -0.017116 -2.458169
v 0.335438 -0.381930 -2.419924
v 0.656627 -0.524111 -2.172839
v 0.338738 -0.483661 -2.062809
v 0.471836 -0.414484 -2.544250
v 0.577296 0.058633 -2.381238
v 0.849376 -0.053354 -2.164615
v 4.604524 -0.147946 -0.178804
v 4.409489 0.065789 -0.255452
v 4.548599 0.098404 -0.518474
v 4.743635 -0.115330 -0.441826
v 2.663239 -2.355220 -1.245911
v 2.649880 -1.872575 -1.273848
v 2.893025 -1.842779 -1.868197
v 2.906321 -2.325427 -1.840281
v 4.338306 -0.684028 -0.135136
v 4.199982 -0.074710 -0.975269
v 3.855910 -0.155383 -0.324716
v 4.682377 -0.603356 -0.785689
v 3.712496 -0.679486 -0.681217
v 4.115871 -0.898129 -0.906205
v 3.947940 -0.937503 -0.588687
v 3.880428 -0.640112 -0.998733
v -0.652258 0.122832 1.920938
v -0.366521 0.453194 2.186637
v -0.677408 0.095719 2.404069
v -0.581867 -0.136704 2.334555
v -0.778821 -0.116499 2.354624
v -0.493084 0.213863 2.620322
v -0.544803 0.461428 2.187252
v -0.449053 0.229066 2.117857
v 0.342731 -0.353772 0.003799
v -0.349472 -0.349472 -0.000446
v 0.401680 0.269716 0.055728
v -0.260755 0.405917 -0.056498
v 4.182632 0.004809 1.187905
v 4.071186 0.006986 0.910109
v 3.906525 0.247540 0.978053
v 4.017972 0.245364 1.255849
v 1.540641 -2.000495 2.071950
v 1.700855 -1.697526 1.522949
v 2.062569 -1.279322 1.859296
v 1.902356 -1.582291 2.408297
v 4.002756 -0.479121 1.493877
v 3.319837 0.121246 0.974833
v 3.727104 -0.473738 0.806781
v 3.595489 0.115862 1.661928
v 3.250858 -0.675120 1.200455
v 3.186620 -0.387353 1.617828
v 3.385396 -0.677747 1.535808
v 3.052083 -0.384725 1.282475
vt 1.000000 0.500000
vt 1.000000 1.000000
vt 0.000000 1.000000
vt 1.000000 0.000000
vt 0.500000 1.000000
vt 0.000000 0.000000
vt 0.000000 0.500000
vt 0.500000 0.000000
vn -0.347400 -0.933800 -0.085800
vn 0.381100 0.924500 -0.000700
vn -0.803900 0.473000 -0.360500
vn 0.912400 -0.376400 0.161000
vn -0.782600 0.609100 -0.128800
vn 0.599500 0.691600 0.402900
vn -0.190100 0.173100 0.966400
vn 0.663800 0.373300 -0.648100
vn 0.835400 -0.382800 0.394400
vn -0.361700 0.929200 -0.076100
vn 0.582100 0.764700 0.276500
vn -0.546700 -0.794200 -0.265300
vn 0.268500 -0.000800 -0.963300
vn -0.297300 0.047000 0.953600
vn -0.803300 0.469200 -0.366700
vn 0.437800 -0.890900 0.121100
vn 0.259900 -0.107000 -0.959700
vn -0.625400 -0.314600 0.714100
vn -0.487200 0.037000 0.872500
vn 0.521100 0.176000 -0.835200
vn 0.660600 -0.713200 0.234400
vn -0.654300 0.710900 -0.257900
vn -0.929400 -0.364300 -0.059300
vn 0.930100 0.350700 0.109100
vn -0.954300 0.242300 -0.175000
vn 0.920100 -0.111700 0.375400
vn -0.791400 0.602800 0.101700
vn 0.747500 0.595100 -0.295200
vn 0.800700 -0.503200 -0.325200
vn -0.210000 0.973400 0.091900
vn 0.637400 0.228400 0.735900
vn -0.046700 0.241800 -0.969200
vn 0.229600 0.481700 -0.845800
vn -0.265400 -0.454400 0.850400
vn 0.540800 0.659700 0.521900
vn -0.576700 -0.632400 -0.517300
vn -0.582500 -0.174500 -0.793900
vn 0.126700 -0.188300 0.973900
vn -0.751800 0.584000 0.306200
vn 0.296000 -0.946800 -0.126200
vn 0.507500 -0.835600 -0.210100
vn -0.572500 0.785300 0.235800
vn 0.471500 0.074500 0.878700
vn -0.458900 -0.063800 -0.886200
vn -0.006700 -0.997000 0.077100
vn 0.216300 0.971400 -0.097700
vn -0.957800 0.092300 -0.272400
vn 0.971200 -0.109500 0.211700
vn -0.764700 0.627900 -0.145100
vn 0.580500 0.763100 0.284200
vn -0.547100 -0.794500 -0.263600
vn 0.241500 -0.049400 -0.969200
vn -0.305800 0.031600 0.951600
vn -0.427600 -0.066900 0.901500
vn 0.631100 -0.027500 -0.775200
vn 0.653600 -0.711700 0.257500
vn -0.661200 0.712600 -0.234800
vn -0.006700 -0.995900 0.090100
vn 0.184900 0.978100 0.095600
vn -0.986100 0.106400 -0.127500
vn 0.918800 -0.118200 0.376700
vn 0.495000 -0.813800 -0.304600
vn -0.563100 0.782000 0.267200
vn 0.611600 -0.744400 0.267800
vn -0.566700 0.755200 -0.329500
usemtl Material
s off
f 34/1/1 3/2/1 4/3/1
f 8/4/2 7/2/2 36/5/2
f 36/1/3 7/2/3 3/3/3
f 33/1/4 4/2/4 8/3/4
f 6/6/5 5/3/5 1/2/5
f 11/4/6 10/2/6 9/3/6
f 17/3/7 9/3/7 10/2/7
f 20/6/8 18/4/8 11/4/8
f 17/3/9 20/6/9 12/6/9
f 18/4/10 19/2/10 10/2/10
f 1/2/11 14/2/11 15/4/11
f 5/3/12 6/6/12 16/6/12
f 6/6/13 2/4/13 15/4/13
f 5/3/14 13/3/14 14/2/14
f 24/4/15 21/2/15 19/2/15
f 23/3/16 22/6/16 20/6/16
f 24/4/17 18/4/17 20/6/17
f 23/3/18 17/3/18 19/2/18
f 14/2/19 13/3/19 23/3/19
f 15/4/20 24/4/20 22/6/20
f 13/3/21 16/6/21 22/6/21
f 14/2/22 21/2/22 24/4/22
f 28/3/23 27/2/23 34/1/23
f 36/5/24 31/2/24 32/4/24
f 34/7/25 27/3/25 31/2/25
f 32/3/26 28/2/26 33/1/26
f 26/4/27 25/2/27 29/3/27
f 37/3/28 38/2/28 39/4/28
f 47/2/29 38/2/29 37/3/29
f 40/6/30 39/4/30 46/4/30
f 37/3/31 40/6/31 48/6/31
f 39/4/32 38/2/32 47/2/32
f 43/4/33 42/2/33 25/2/33
f 41/3/34 44/6/34 30/6/34
f 44/6/35 43/4/35 26/4/35
f 42/2/36 41/3/36 29/3/36
f 52/4/37 46/4/37 47/2/37
f 51/3/38 45/3/38 48/6/38
f 48/6/39 46/4/39 52/4/39
f 49/2/40 47/2/40 45/3/40
f 42/2/41 49/2/41 51/3/41
f 50/6/42 52/4/42 43/4/42
f 51/3/43 50/6/43 44/6/43
f 43/4/44 52/4/44 49/2/44
f 33/7/45 34/1/45 4/3/45
f 35/8/46 8/4/46 36/5/46
f 34/7/47 36/1/47 3/3/47
f 35/7/48 33/1/48 8/3/48
f 2/4/49 6/6/49 1/2/49
f 12/6/6 11/4/6 9/3/6
f 19/2/7 17/3/7 10/2/7
f 12/6/8 20/6/8 11/4/8
f 9/3/9 17/3/9 12/6/9
f 11/4/10 18/4/10 10/2/10
f 2/4/50 1/2/50 15/4/50
f 13/3/51 5/3/51 16/6/51
f 16/6/52 6/6/52 15/4/52
f 1/2/53 5/3/53 14/2/53
f 18/4/15 24/4/15 19/2/15
f 17/3/16 23/3/16 20/6/16
f 22/6/17 24/4/17 20/6/17
f 21/2/18 23/3/18 19/2/18
f 21/2/54 14/2/54 23/3/54
f 16/6/55 15/4/55 22/6/55
f 23/3/56 13/3/56 22/6/56
f 15/4/57 14/2/57 24/4/57
f 33/7/58 28/3/58 34/1/58
f 35/8/59 36/5/59 32/4/59
f 36/1/60 34/7/60 31/2/60
f 35/7/61 32/3/61 33/1/61
f 30/6/27 26/4/27 29/3/27
f 40/6/28 37/3/28 39/4/28
f 45/3/29 47/2/29 37/3/29
f 48/6/30 40/6/30 46/4/30
f 45/3/31 37/3/31 48/6/31
f 46/4/32 39/4/32 47/2/32
f 26/4/33 43/4/33 25/2/33
f 29/3/34 41/3/34 30/6/34
f 30/6/35 44/6/35 26/4/35
f 25/2/36 42/2/36 29/3/36
f 49/2/37 52/4/37 47/2/37
f 50/6/38 51/3/38 48/6/38
f 50/6/39 48/6/39 52/4/39
f 51/3/40 49/2/40 45/3/40
f 41/3/62 42/2/62 51/3/62
f 44/6/63 50/6/63 43/4/63
f 41/3/64 51/3/64 44/6/64
f 42/2/65 43/4/65 49/2/65
