# Blender v2.76 (sub 0) OBJ File: 'handsBlock.blend'
# www.blender.org
mtllib handsBlock_000084.mtl
o Cube
v 0.591473 -0.087072 -1.969379
v 0.770492 0.021475 -2.427675
v 0.360894 -0.380168 -2.426208
v 0.657593 -0.527594 -2.175575
v 0.361536 -0.518744 -2.094233
v 0.528208 -0.409605 -2.557477
v 0.571827 0.075931 -2.367450
v 0.844168 -0.053851 -2.163425
v 4.343979 0.300762 0.213939
v 4.129173 0.489573 0.125597
v 4.286406 0.553041 -0.121072
v 4.501212 0.364230 -0.032731
v 2.836802 -2.095663 -1.114568
v 2.759171 -1.618468 -1.127343
v 3.050375 -1.528120 -1.693290
v 3.127947 -2.005326 -1.680541
v 4.151941 -0.267818 0.212816
v 4.009540 0.356165 -0.615793
v 3.620643 0.199185 -0.005687
v 4.540837 -0.110838 -0.397291
v 3.585469 -0.322088 -0.392187
v 4.034590 -0.473401 -0.583317
v 3.844781 -0.550018 -0.285540
v 3.775279 -0.245470 -0.689962
v -0.688956 0.103323 1.935554
v -0.403398 0.464878 2.157172
v -0.659691 0.104297 2.398199
v -0.564060 -0.143721 2.350722
v -0.743196 -0.130522 2.386947
v -0.457639 0.231034 2.608565
v -0.563233 0.467261 2.172537
v -0.467392 0.219312 2.125167
v 0.342731 -0.353772 0.003799
v -0.349472 -0.349472 -0.000446
v 0.401680 0.269716 0.055728
v -0.260755 0.405917 -0.056498
v 4.019766 0.356047 0.634970
v 3.876901 0.339559 0.372457
v 3.701379 0.568030 0.453629
v 3.844245 0.584519 0.716142
v 1.679616 -1.827084 1.876156
v 1.748278 -1.531061 1.304740
v 2.109765 -1.073368 1.585286
v 2.041102 -1.369391 2.156702
v 3.918733 -0.130179 0.971926
v 3.131243 0.394137 0.523399
v 3.565373 -0.170961 0.322629
v 3.484603 0.434919 1.172695
v 3.157213 -0.396982 0.775029
v 3.117793 -0.101269 1.189922
v 3.329679 -0.377078 1.091932
v 2.945328 -0.121173 0.873018
vt 1.000000 0.500000
vt 1.000000 1.000000
vt 0.000000 1.000000
vt 1.000000 0.000000
vt 0.500000 1.000000
vt 0.000000 0.500000
vt 0.000000 0.000000
vt 0.500000 0.000000
vn -0.375100 -0.921800 -0.098200
vn 0.417400 0.908500 0.020700
vn -0.933600 0.083800 -0.348300
vn 0.916800 -0.365200 0.161600
vn -0.844100 0.503200 -0.185200
vn 0.457200 0.746400 0.483500
vn -0.301900 0.100100 0.948100
vn 0.663200 0.489700 -0.566000
vn 0.839900 -0.284600 0.462100
vn -0.478600 0.874400 -0.080100
vn 0.441700 0.822400 0.358600
vn -0.403800 -0.847400 -0.344900
vn 0.355000 0.080900 -0.931400
vn -0.388900 -0.038600 0.920500
vn -0.822900 0.373200 -0.428500
vn 0.544100 -0.828300 0.133700
vn 0.360900 -0.025600 -0.932300
vn -0.639700 -0.429500 0.637500
vn -0.567100 -0.070300 0.820600
vn 0.567400 0.283900 -0.772900
vn 0.728400 -0.627700 0.274500
vn -0.719700 0.627400 -0.297300
vn -0.935100 -0.350100 -0.054700
vn 0.933600 0.338500 0.117400
vn -0.974400 0.161600 -0.156600
vn 0.931800 -0.023100 0.362100
vn -0.822700 0.539100 0.180400
vn 0.654500 0.643700 -0.396600
vn 0.797300 -0.446900 -0.405800
vn -0.280100 0.955500 0.092400
vn 0.697000 0.304900 0.649000
vn -0.179900 0.203700 -0.962400
vn 0.087400 0.469500 -0.878600
vn -0.124700 -0.445100 0.886800
vn 0.539800 0.719200 0.437500
vn -0.577000 -0.694800 -0.429300
vn -0.654100 -0.248700 -0.714400
vn 0.255100 -0.143800 0.956200
vn -0.758000 0.530700 0.379200
vn 0.359000 -0.923200 -0.137400
vn 0.548900 -0.798100 -0.248600
vn -0.605900 0.743500 0.283100
vn 0.562700 0.143000 0.814200
vn -0.552000 -0.131500 -0.823400
vn -0.006700 -0.996900 0.078500
vn 0.216400 0.971300 -0.098500
vn -0.863700 0.432700 -0.258400
vn 0.971600 -0.109300 0.209700
vn -0.827500 0.525000 -0.198900
vn 0.439600 0.820200 0.366000
vn -0.404200 -0.847800 -0.343300
vn 0.335600 0.029400 -0.941500
vn -0.395000 -0.054900 0.917100
vn -0.496700 -0.166500 0.851800
vn 0.698500 0.094600 -0.709300
vn 0.719200 -0.628200 0.296800
vn -0.728900 0.627000 -0.274900
vn -0.006700 -0.996200 0.086600
vn 0.183900 0.977700 0.101000
vn -0.985000 0.105500 -0.136600
vn 0.916500 -0.118500 0.382000
vn 0.523600 -0.780500 -0.341400
vn -0.592700 0.742000 0.313200
vn 0.699900 -0.682300 0.211200
vn -0.663600 0.694500 -0.278100
usemtl Material
s off
f 34/1/1 3/2/1 4/3/1
f 8/4/2 7/2/2 36/5/2
f 34/6/3 36/1/3 7/2/3
f 33/1/4 4/2/4 8/3/4
f 6/7/5 5/3/5 1/2/5
f 12/7/6 11/4/6 10/2/6
f 17/3/7 9/3/7 10/2/7
f 18/4/8 11/4/8 12/7/8
f 17/3/9 20/7/9 12/7/9
f 19/2/10 10/2/10 11/4/10
f 1/2/11 14/2/11 15/4/11
f 5/3/12 6/7/12 16/7/12
f 6/7/13 2/4/13 15/4/13
f 5/3/14 13/3/14 14/2/14
f 24/4/15 21/2/15 19/2/15
f 23/3/16 22/7/16 20/7/16
f 24/4/17 18/4/17 20/7/17
f 23/3/18 17/3/18 19/2/18
f 14/2/19 13/3/19 23/3/19
f 15/4/20 24/4/20 22/7/20
f 13/3/21 16/7/21 22/7/21
f 14/2/22 21/2/22 24/4/22
f 28/3/23 27/2/23 34/1/23
f 36/5/24 31/2/24 32/4/24
f 34/6/25 27/3/25 31/2/25
f 32/3/26 28/2/26 33/1/26
f 30/7/27 26/4/27 25/2/27
f 40/7/28 37/3/28 38/2/28
f 38/2/29 37/3/29 45/3/29
f 48/7/30 40/7/30 39/4/30
f 45/3/31 37/3/31 40/7/31
f 39/4/32 38/2/32 47/2/32
f 43/4/33 42/2/33 25/2/33
f 29/3/34 41/3/34 44/7/34
f 30/7/35 44/7/35 43/4/35
f 42/2/36 41/3/36 29/3/36
f 52/4/37 46/4/37 47/2/37
f 45/3/38 48/7/38 50/7/38
f 48/7/39 46/4/39 52/4/39
f 47/2/40 45/3/40 51/3/40
f 42/2/41 49/2/41 51/3/41
f 50/7/42 52/4/42 43/4/42
f 51/3/43 50/7/43 44/7/43
f 43/4/44 52/4/44 49/2/44
f 33/6/45 34/1/45 4/3/45
f 35/8/46 8/4/46 36/5/46
f 3/3/47 34/6/47 7/2/47
f 35/6/48 33/1/48 8/3/48
f 2/4/49 6/7/49 1/2/49
f 9/3/6 12/7/6 10/2/6
f 19/2/7 17/3/7 10/2/7
f 20/7/8 18/4/8 12/7/8
f 9/3/9 17/3/9 12/7/9
f 18/4/10 19/2/10 11/4/10
f 2/4/50 1/2/50 15/4/50
f 13/3/51 5/3/51 16/7/51
f 16/7/52 6/7/52 15/4/52
f 1/2/53 5/3/53 14/2/53
f 18/4/15 24/4/15 19/2/15
f 17/3/16 23/3/16 20/7/16
f 22/7/17 24/4/17 20/7/17
f 21/2/18 23/3/18 19/2/18
f 21/2/54 14/2/54 23/3/54
f 16/7/55 15/4/55 22/7/55
f 23/3/56 13/3/56 22/7/56
f 15/4/57 14/2/57 24/4/57
f 33/6/58 28/3/58 34/1/58
f 35/8/59 36/5/59 32/4/59
f 36/1/60 34/6/60 31/2/60
f 35/6/61 32/3/61 33/1/61
f 29/3/27 30/7/27 25/2/27
f 39/4/28 40/7/28 38/2/28
f 47/2/29 38/2/29 45/3/29
f 46/4/30 48/7/30 39/4/30
f 48/7/31 45/3/31 40/7/31
f 46/4/32 39/4/32 47/2/32
f 26/4/33 43/4/33 25/2/33
f 30/7/34 29/3/34 44/7/34
f 26/4/35 30/7/35 43/4/35
f 25/2/36 42/2/36 29/3/36
f 49/2/37 52/4/37 47/2/37
f 51/3/38 45/3/38 50/7/38
f 50/7/39 48/7/39 52/4/39
f 49/2/40 47/2/40 51/3/40
f 41/3/62 42/2/62 51/3/62
f 44/7/63 50/7/63 43/4/63
f 41/3/64 51/3/64 44/7/64
f 42/2/65 43/4/65 49/2/65
