# Blender v2.76 (sub 0) OBJ File: 'handsBlock.blend'
# www.blender.org
mtllib handsBlock_000034.mtl
o Cube
v 0.430413 -0.156582 -1.970688
v 0.656858 0.130290 -2.317522
v 0.452567 -0.340198 -2.425176
v 0.667651 -0.537489 -2.185511
v 0.511569 -0.600780 -2.196301
v 0.729407 -0.317956 -2.552453
v 0.519377 0.124157 -2.318014
v 0.825669 -0.062465 -2.164019
v 2.540813 1.391817 1.514606
v 2.298449 1.473884 1.359295
v 2.466104 1.660932 1.196506
v 2.708467 1.578866 1.351815
v 3.003152 -1.027537 -0.412134
v 2.695911 -0.654473 -0.430321
v 3.054159 -0.304743 -0.833564
v 3.361367 -0.677837 -0.815426
v 2.685648 0.818754 1.410763
v 2.500866 1.484378 0.623981
v 2.086192 1.021735 1.026622
v 3.100322 1.281397 1.008122
v 2.449460 0.655424 0.631403
v 2.944428 0.782159 0.622374
v 2.742038 0.556356 0.818891
v 2.651850 0.881228 0.434885
v -0.789370 0.009761 2.032243
v -0.575403 0.470668 2.088477
v -0.609301 0.146786 2.355975
v -0.477882 -0.150901 2.391179
v -0.570820 -0.144840 2.467805
v -0.356852 0.316068 2.524040
v -0.649179 0.470131 2.138244
v -0.517561 0.172542 2.173510
v 0.342731 -0.353772 0.003799
v -0.349472 -0.349472 -0.000446
v 0.401680 0.269716 0.055728
v -0.260755 0.405917 -0.056498
v 2.579261 1.337414 -1.256693
v 2.354886 1.234565 -1.426027
v 2.163982 1.415221 -1.282797
v 2.388357 1.518071 -1.113463
v 1.833734 -1.155275 0.982414
v 1.557070 -0.959566 0.431037
v 1.827932 -0.376104 0.502223
v 2.104595 -0.571813 1.053601
v 2.794426 0.911174 -0.893120
v 1.767283 1.103620 -0.957682
v 2.239461 0.656788 -1.311944
v 2.322249 1.358006 -0.538857
v 2.155848 0.410300 -0.716465
v 2.196254 0.752545 -0.339142
v 2.426711 0.534459 -0.512047
v 1.925392 0.628386 -0.543559
vt 1.000000 0.500000
vt 1.000000 1.000000
vt 0.000000 1.000000
vt 1.000000 0.000000
vt 0.500000 1.000000
vt 0.000000 0.500000
vt 0.000000 0.000000
vt 0.500000 0.000000
vn -0.545500 -0.817700 -0.183600
vn 0.495900 0.866100 0.063200
vn -0.938600 0.085400 -0.334400
vn 0.933600 -0.318000 0.165200
vn -0.877400 0.080000 -0.473100
vn -0.175100 0.731000 0.659500
vn -0.583700 -0.285300 0.760200
vn 0.445400 0.862900 -0.239000
vn 0.674600 0.036900 0.737200
vn -0.813000 0.540700 -0.216100
vn -0.188800 0.818700 0.542300
vn 0.227800 -0.825600 -0.516300
vn 0.526200 0.460000 -0.715200
vn -0.571900 -0.437200 0.694100
vn -0.717800 0.038300 -0.695200
vn 0.824500 -0.484000 0.293100
vn 0.586800 0.372300 -0.719000
vn -0.480100 -0.818000 0.316900
vn -0.666400 -0.522900 0.531500
vn 0.540300 0.693300 -0.476800
vn 0.823000 -0.261500 0.504200
vn -0.808900 0.270800 -0.521900
vn -0.914000 -0.405300 -0.015400
vn 0.898100 0.414600 0.146800
vn -0.982800 -0.170100 -0.072500
vn 0.908500 0.304200 0.286400
vn -0.801300 0.309500 0.511900
vn 0.177000 0.719500 -0.671600
vn 0.655800 -0.270200 -0.704900
vn -0.516000 0.838700 0.174300
vn 0.758600 0.599900 0.254400
vn -0.618700 -0.031400 -0.785000
vn -0.445500 0.309300 -0.840100
vn 0.409200 -0.295300 0.863300
vn 0.400300 0.908300 0.121600
vn -0.436600 -0.894300 -0.098400
vn -0.767900 -0.546600 -0.334100
vn 0.660000 0.107900 0.743500
vn -0.661400 0.355500 0.660500
vn 0.553500 -0.794200 -0.251000
vn 0.626900 -0.642800 -0.440200
vn -0.642800 0.581500 0.498600
vn 0.766800 0.439200 0.468100
vn -0.765400 -0.427000 -0.481500
vn -0.006700 -0.996600 0.082600
vn 0.217100 0.970600 -0.103800
vn -0.929600 0.204500 -0.306700
vn 0.973300 -0.108900 0.202200
vn -0.871400 0.109600 -0.478200
vn -0.191600 0.814100 0.548200
vn 0.227200 -0.826600 -0.515000
vn 0.540900 0.409600 -0.734600
vn -0.567200 -0.453000 0.687800
vn -0.569700 -0.579500 0.582800
vn 0.724000 0.577800 -0.376800
vn 0.809100 -0.271700 0.521100
vn -0.822900 0.260800 -0.504800
vn -0.006700 -0.996600 0.082400
vn 0.179900 0.976000 0.122900
vn -0.979100 0.101900 -0.176300
vn 0.912800 -0.118800 0.390800
vn 0.561200 -0.650100 -0.512300
vn -0.618700 0.589300 0.519600
vn 0.907000 -0.408600 -0.102100
vn -0.907900 0.418400 0.025700
usemtl Material
s off
f 34/1/1 3/2/1 4/3/1
f 8/4/2 7/2/2 36/5/2
f 34/6/3 36/1/3 7/2/3
f 33/1/4 4/2/4 8/3/4
f 6/7/5 5/3/5 1/2/5
f 12/7/6 11/4/6 10/2/6
f 17/3/7 9/3/7 10/2/7
f 18/4/8 11/4/8 12/7/8
f 17/3/9 20/7/9 12/7/9
f 19/2/10 10/2/10 11/4/10
f 1/2/11 14/2/11 15/4/11
f 5/3/12 6/7/12 16/7/12
f 6/7/13 2/4/13 15/4/13
f 5/3/14 13/3/14 14/2/14
f 21/2/15 19/2/15 18/4/15
f 23/3/16 22/7/16 20/7/16
f 22/7/17 24/4/17 18/4/17
f 23/3/18 17/3/18 19/2/18
f 14/2/19 13/3/19 23/3/19
f 15/4/20 24/4/20 22/7/20
f 13/3/21 16/7/21 22/7/21
f 14/2/22 21/2/22 24/4/22
f 28/3/23 27/2/23 34/1/23
f 36/5/24 31/2/24 32/4/24
f 34/6/25 27/3/25 31/2/25
f 32/3/26 28/2/26 33/1/26
f 26/4/27 25/2/27 29/3/27
f 37/3/28 38/2/28 39/4/28
f 47/2/29 38/2/29 37/3/29
f 48/7/30 40/7/30 39/4/30
f 37/3/31 40/7/31 48/7/31
f 39/4/32 38/2/32 47/2/32
f 43/4/33 42/2/33 25/2/33
f 41/3/34 44/7/34 30/7/34
f 30/7/35 44/7/35 43/4/35
f 42/2/36 41/3/36 29/3/36
f 46/4/37 47/2/37 49/2/37
f 51/3/38 45/3/38 48/7/38
f 48/7/39 46/4/39 52/4/39
f 47/2/40 45/3/40 51/3/40
f 42/2/41 49/2/41 51/3/41
f 50/7/42 52/4/42 43/4/42
f 51/3/43 50/7/43 44/7/43
f 43/4/44 52/4/44 49/2/44
f 33/6/45 34/1/45 4/3/45
f 35/8/46 8/4/46 36/5/46
f 3/3/47 34/6/47 7/2/47
f 35/6/48 33/1/48 8/3/48
f 2/4/49 6/7/49 1/2/49
f 9/3/6 12/7/6 10/2/6
f 19/2/7 17/3/7 10/2/7
f 20/7/8 18/4/8 12/7/8
f 9/3/9 17/3/9 12/7/9
f 18/4/10 19/2/10 11/4/10
f 2/4/50 1/2/50 15/4/50
f 13/3/51 5/3/51 16/7/51
f 16/7/52 6/7/52 15/4/52
f 1/2/53 5/3/53 14/2/53
f 24/4/15 21/2/15 18/4/15
f 17/3/16 23/3/16 20/7/16
f 20/7/17 22/7/17 18/4/17
f 21/2/18 23/3/18 19/2/18
f 21/2/54 14/2/54 23/3/54
f 16/7/55 15/4/55 22/7/55
f 23/3/56 13/3/56 22/7/56
f 15/4/57 14/2/57 24/4/57
f 33/6/58 28/3/58 34/1/58
f 35/8/59 36/5/59 32/4/59
f 36/1/60 34/6/60 31/2/60
f 35/6/61 32/3/61 33/1/61
f 30/7/27 26/4/27 29/3/27
f 40/7/28 37/3/28 39/4/28
f 45/3/29 47/2/29 37/3/29
f 46/4/30 48/7/30 39/4/30
f 45/3/31 37/3/31 48/7/31
f 46/4/32 39/4/32 47/2/32
f 26/4/33 43/4/33 25/2/33
f 29/3/34 41/3/34 30/7/34
f 26/4/35 30/7/35 43/4/35
f 25/2/36 42/2/36 29/3/36
f 52/4/37 46/4/37 49/2/37
f 50/7/38 51/3/38 48/7/38
f 50/7/39 48/7/39 52/4/39
f 49/2/40 47/2/40 51/3/40
f 41/3/62 42/2/62 51/3/62
f 44/7/63 50/7/63 43/4/63
f 41/3/64 51/3/64 44/7/64
f 42/2/65 43/4/65 49/2/65
