# Blender v2.76 (sub 0) OBJ File: 'handsBlock.blend'
# www.blender.org
mtllib handsBlock_000042.mtl
o Cube
v 0.443260 -0.146761 -1.967575
v 0.671204 0.123816 -2.326317
v 0.445268 -0.345822 -2.426977
v 0.666372 -0.536894 -2.184714
v 0.494690 -0.597466 -2.188981
v 0.713518 -0.330633 -2.556677
v 0.525932 0.121338 -2.321934
v 0.827123 -0.061284 -2.163618
v 2.747192 1.343060 1.419301
v 2.503854 1.434860 1.271127
v 2.674661 1.611163 1.099843
v 2.918000 1.519364 1.248017
v 3.023217 -1.122271 -0.484725
v 2.734123 -0.734779 -0.498123
v 3.094734 -0.408701 -0.918708
v 3.383791 -0.796223 -0.905357
v 2.860142 0.762180 1.319381
v 2.680745 1.425301 0.529248
v 2.258273 0.989235 0.952895
v 3.282613 1.198245 0.895733
v 2.589188 0.600074 0.551156
v 3.089140 0.702086 0.523260
v 2.882943 0.489255 0.730030
v 2.795385 0.812906 0.344387
v -0.783372 0.019187 2.021054
v -0.558338 0.472823 2.091442
v -0.612493 0.142432 2.360996
v -0.486606 -0.151620 2.389123
v -0.588269 -0.146281 2.463700
v -0.363235 0.307355 2.534089
v -0.640654 0.471209 2.139723
v -0.514565 0.177254 2.167916
v 0.342731 -0.353772 0.003799
v -0.349472 -0.349472 -0.000446
v 0.401680 0.269716 0.055728
v -0.260755 0.405917 -0.056498
v 2.760308 1.276853 -1.107530
v 2.540376 1.182533 -1.287335
v 2.349023 1.367454 -1.150283
v 2.568955 1.461776 -0.970479
v 1.846122 -1.214247 1.069987
v 1.599140 -1.004782 0.509643
v 1.884010 -0.430525 0.598748
v 2.130992 -0.639990 1.159092
v 2.946992 0.840702 -0.739994
v 1.929727 1.064793 -0.845733
v 2.403017 0.607411 -1.184720
v 2.473701 1.298084 -0.401009
v 2.286817 0.357662 -0.596103
v 2.321316 0.694761 -0.213597
v 2.552315 0.471525 -0.379046
v 2.055817 0.580898 -0.430654
vt 1.000000 0.500000
vt 1.000000 1.000000
vt 0.000000 1.000000
vt 1.000000 0.000000
vt 0.500000 1.000000
vt 0.000000 0.500000
vt 0.000000 0.000000
vt 0.500000 0.000000
vn -0.527700 -0.831400 -0.174100
vn 0.493300 0.867600 0.062300
vn -0.937900 0.085200 -0.336400
vn 0.932200 -0.322400 0.164800
vn -0.888400 0.116700 -0.444000
vn -0.116100 0.747700 0.653800
vn -0.570100 -0.245700 0.784000
vn 0.478400 0.836500 -0.267400
vn 0.701000 0.013600 0.713100
vn -0.792700 0.577100 -0.196400
vn -0.129500 0.834300 0.535800
vn 0.169100 -0.842800 -0.511000
vn 0.522700 0.423700 -0.739800
vn -0.568000 -0.398900 0.719900
vn -0.738900 0.064200 -0.670800
vn 0.809600 -0.520000 0.272100
vn 0.578900 0.333000 -0.744300
vn -0.508100 -0.788900 0.345700
vn -0.672200 -0.482100 0.561900
vn 0.556600 0.659200 -0.505600
vn 0.826400 -0.294900 0.479800
vn -0.812400 0.303300 -0.498000
vn -0.918400 -0.395100 -0.020000
vn 0.904300 0.401700 0.144500
vn -0.987000 -0.139000 -0.081000
vn 0.914900 0.276000 0.294700
vn -0.812800 0.328600 0.481100
vn 0.226800 0.720400 -0.655400
vn 0.676900 -0.282900 -0.679500
vn -0.497700 0.852200 0.161700
vn 0.764600 0.574100 0.292900
vn -0.585400 -0.004900 -0.810800
vn -0.399900 0.331000 -0.854700
vn 0.363100 -0.316100 0.876500
vn 0.421600 0.894500 0.148500
vn -0.458500 -0.879600 -0.126700
vn -0.768900 -0.519700 -0.372300
vn 0.630600 0.080500 0.771900
vn -0.678000 0.368800 0.635900
vn 0.539700 -0.808000 -0.236300
vn 0.625600 -0.657100 -0.420500
vn -0.645900 0.595700 0.477500
vn 0.759000 0.411100 0.505000
vn -0.756600 -0.398900 -0.518200
vn -0.006700 -0.996600 0.082400
vn 0.217100 0.970700 -0.103200
vn -0.925400 0.227900 -0.302800
vn 0.973100 -0.108900 0.202800
vn -0.881100 0.146000 -0.449800
vn -0.132400 0.830000 0.541900
vn 0.168400 -0.843700 -0.509700
vn 0.534200 0.372400 -0.758900
vn -0.564300 -0.415000 0.713700
vn -0.576600 -0.542700 0.610700
vn 0.737800 0.536200 -0.410200
vn 0.812600 -0.304100 0.497300
vn -0.826300 0.294200 -0.480400
vn -0.006700 -0.996600 0.082100
vn 0.180200 0.976200 0.120900
vn -0.979700 0.102300 -0.172500
vn 0.912800 -0.118800 0.390800
vn -0.585400 -0.004900 -0.810700
vn 0.562900 -0.661600 -0.495400
vn -0.622400 0.602500 0.499600
vn 0.897900 -0.434800 -0.068300
vn -0.895300 0.445400 -0.008000
usemtl Material
s off
f 34/1/1 3/2/1 4/3/1
f 8/4/2 7/2/2 36/5/2
f 34/6/3 36/1/3 7/2/3
f 33/1/4 4/2/4 8/3/4
f 6/7/5 5/3/5 1/2/5
f 12/7/6 11/4/6 10/2/6
f 17/3/7 9/3/7 10/2/7
f 20/7/8 18/4/8 11/4/8
f 17/3/9 20/7/9 12/7/9
f 19/2/10 10/2/10 11/4/10
f 1/2/11 14/2/11 15/4/11
f 5/3/12 6/7/12 16/7/12
f 6/7/13 2/4/13 15/4/13
f 5/3/14 13/3/14 14/2/14
f 21/2/15 19/2/15 18/4/15
f 22/7/16 20/7/16 17/3/16
f 22/7/17 24/4/17 18/4/17
f 23/3/18 17/3/18 19/2/18
f 14/2/19 13/3/19 23/3/19
f 15/4/20 24/4/20 22/7/20
f 13/3/21 16/7/21 22/7/21
f 14/2/22 21/2/22 24/4/22
f 28/3/23 27/2/23 34/1/23
f 36/5/24 31/2/24 32/4/24
f 34/6/25 27/3/25 31/2/25
f 32/3/26 28/2/26 33/1/26
f 26/4/27 25/2/27 29/3/27
f 40/7/28 37/3/28 38/2/28
f 38/2/29 37/3/29 45/3/29
f 48/7/30 40/7/30 39/4/30
f 37/3/31 40/7/31 48/7/31
f 39/4/32 38/2/32 47/2/32
f 26/4/33 43/4/33 42/2/33
f 41/3/34 44/7/34 30/7/34
f 30/7/35 44/7/35 43/4/35
f 42/2/36 41/3/36 29/3/36
f 46/4/37 47/2/37 49/2/37
f 51/3/38 45/3/38 48/7/38
f 48/7/39 46/4/39 52/4/39
f 49/2/40 47/2/40 45/3/40
f 42/2/41 49/2/41 51/3/41
f 50/7/42 52/4/42 43/4/42
f 51/3/43 50/7/43 44/7/43
f 43/4/44 52/4/44 49/2/44
f 33/6/45 34/1/45 4/3/45
f 35/8/46 8/4/46 36/5/46
f 3/3/47 34/6/47 7/2/47
f 35/6/48 33/1/48 8/3/48
f 2/4/49 6/7/49 1/2/49
f 9/3/6 12/7/6 10/2/6
f 19/2/7 17/3/7 10/2/7
f 12/7/8 20/7/8 11/4/8
f 9/3/9 17/3/9 12/7/9
f 18/4/10 19/2/10 11/4/10
f 2/4/50 1/2/50 15/4/50
f 13/3/51 5/3/51 16/7/51
f 16/7/52 6/7/52 15/4/52
f 1/2/53 5/3/53 14/2/53
f 24/4/15 21/2/15 18/4/15
f 23/3/16 22/7/16 17/3/16
f 20/7/17 22/7/17 18/4/17
f 21/2/18 23/3/18 19/2/18
f 21/2/54 14/2/54 23/3/54
f 16/7/55 15/4/55 22/7/55
f 23/3/56 13/3/56 22/7/56
f 15/4/57 14/2/57 24/4/57
f 33/6/58 28/3/58 34/1/58
f 35/8/59 36/5/59 32/4/59
f 36/1/60 34/6/60 31/2/60
f 35/6/61 32/3/61 33/1/61
f 30/7/27 26/4/27 29/3/27
f 39/4/28 40/7/28 38/2/28
f 47/2/29 38/2/29 45/3/29
f 46/4/30 48/7/30 39/4/30
f 45/3/31 37/3/31 48/7/31
f 46/4/62 39/4/62 47/2/62
f 25/2/33 26/4/33 42/2/33
f 29/3/34 41/3/34 30/7/34
f 26/4/35 30/7/35 43/4/35
f 25/2/36 42/2/36 29/3/36
f 52/4/37 46/4/37 49/2/37
f 50/7/38 51/3/38 48/7/38
f 50/7/39 48/7/39 52/4/39
f 51/3/40 49/2/40 45/3/40
f 41/3/63 42/2/63 51/3/63
f 44/7/64 50/7/64 43/4/64
f 41/3/65 51/3/65 44/7/65
f 42/2/66 43/4/66 49/2/66
