# Blender v2.76 (sub 0) OBJ File: 'handsBlock.blend'
# www.blender.org
mtllib handsBlock_000004.mtl
o Cube
v 0.636731 -0.084165 -1.980710
v 0.781887 -0.017682 -2.458596
v 0.335081 -0.381928 -2.419817
v 0.656618 -0.524060 -2.172801
v 0.338473 -0.483134 -2.062359
v 0.471044 -0.414493 -2.544022
v 0.577347 0.058380 -2.381432
v 0.849449 -0.053352 -2.164635
v 4.607490 -0.154662 -0.184407
v 4.412767 0.059409 -0.260911
v 4.551579 0.091601 -0.524143
v 4.746302 -0.122469 -0.447638
v 2.660437 -2.358756 -1.247571
v 2.647981 -1.876102 -1.275769
v 2.890366 -1.847123 -1.870469
v 2.902759 -2.329780 -1.842292
v 4.340287 -0.690197 -0.140064
v 4.201998 -0.081095 -0.980357
v 3.858663 -0.160720 -0.329286
v 4.683620 -0.610572 -0.791135
v 3.713737 -0.684748 -0.685287
v 4.116376 -0.904308 -0.910702
v 3.948804 -0.943170 -0.592932
v 3.881309 -0.645884 -1.003056
v -0.651713 0.123090 1.920766
v -0.366029 0.452999 2.187084
v -0.677670 0.095606 2.404136
v -0.582102 -0.136590 2.334311
v -0.779291 -0.116272 2.354137
v -0.493608 0.213638 2.620455
v -0.544558 0.461331 2.187475
v -0.448781 0.229195 2.117771
v 0.342731 -0.353772 0.003799
v -0.349472 -0.349472 -0.000446
v 0.401680 0.269716 0.055728
v -0.260755 0.405917 -0.056498
v 4.184262 -0.000398 1.195825
v 4.073287 0.002028 0.917843
v 3.908799 0.242751 0.985611
v 4.019776 0.240325 1.263593
v 1.538394 -2.002917 2.074576
v 1.699894 -1.699909 1.525974
v 2.061540 -1.282278 1.863105
v 1.900040 -1.585285 2.411708
v 4.003294 -0.484240 1.501290
v 3.321967 0.117159 0.981350
v 3.728806 -0.478241 0.813733
v 3.596454 0.111158 1.668905
v 3.251657 -0.679218 1.206520
v 3.187060 -0.391550 1.623905
v 3.385627 -0.682147 1.542097
v 3.053091 -0.388621 1.288328
vt 1.000000 0.500000
vt 1.000000 1.000000
vt 0.000000 1.000000
vt 1.000000 0.000000
vt 0.500000 1.000000
vt 0.000000 0.000000
vt 0.000000 0.500000
vt 0.500000 0.000000
vn -0.347000 -0.933900 -0.085700
vn 0.380600 0.924800 -0.001000
vn -0.803600 0.473600 -0.360500
vn 0.912300 -0.376500 0.161000
vn -0.781600 0.610500 -0.128100
vn 0.601400 0.690600 0.401600
vn -0.188400 0.174000 0.966500
vn 0.663600 0.371600 -0.649200
vn 0.835200 -0.384200 0.393500
vn -0.360000 0.929800 -0.076100
vn 0.584000 0.763700 0.275200
vn -0.548600 -0.793300 -0.264000
vn 0.267200 -0.001800 -0.963600
vn -0.295900 0.048100 0.954000
vn -0.802900 0.470600 -0.365900
vn 0.436200 -0.891700 0.121000
vn 0.258300 -0.108100 -0.960000
vn -0.625000 -0.313000 0.715100
vn -0.485900 0.038500 0.873100
vn 0.520300 0.174500 -0.836000
vn 0.659500 -0.714400 0.233900
vn -0.653300 0.712000 -0.257400
vn -0.929300 -0.364600 -0.059300
vn 0.930000 0.351000 0.109000
vn -0.954000 0.243400 -0.175300
vn 0.919900 -0.112900 0.375600
vn -0.790900 0.603700 0.100600
vn 0.748700 0.594300 -0.293700
vn 0.800600 -0.504000 -0.324000
vn -0.209000 0.973600 0.091900
vn 0.636400 0.227300 0.737100
vn -0.044800 0.242200 -0.969200
vn 0.231600 0.481700 -0.845200
vn -0.267400 -0.454400 0.849700
vn 0.540700 0.658800 0.523100
vn -0.576600 -0.631500 -0.518500
vn -0.581300 -0.173400 -0.795000
vn 0.124900 -0.188900 0.974000
vn -0.751600 0.584800 0.305200
vn 0.295100 -0.947100 -0.126100
vn 0.506800 -0.836200 -0.209600
vn -0.571900 0.785900 0.235200
vn 0.470100 0.073600 0.879500
vn -0.457500 -0.062900 -0.887000
vn -0.006700 -0.997000 0.077000
vn 0.216300 0.971400 -0.097700
vn -0.957800 0.092300 -0.272200
vn 0.971200 -0.109500 0.211800
vn -0.763600 0.629300 -0.144400
vn 0.582300 0.762100 0.282900
vn -0.549000 -0.793600 -0.262400
vn 0.240000 -0.050400 -0.969500
vn -0.304500 0.032800 0.952000
vn -0.426500 -0.065600 0.902100
vn 0.630000 -0.029100 -0.776100
vn 0.652600 -0.712800 0.257000
vn -0.660100 0.713700 -0.234300
vn -0.006700 -0.995900 0.090100
vn 0.184900 0.978100 0.095500
vn -0.986100 0.106400 -0.127300
vn 0.918800 -0.118200 0.376600
vn 0.494500 -0.814200 -0.304100
vn -0.562600 0.782500 0.266600
vn 0.610300 -0.745300 0.268600
vn -0.565200 0.756000 -0.330200
usemtl Material
s off
f 34/1/1 3/2/1 4/3/1
f 8/4/2 7/2/2 36/5/2
f 36/1/3 7/2/3 3/3/3
f 33/1/4 4/2/4 8/3/4
f 6/6/5 5/3/5 1/2/5
f 12/6/6 11/4/6 10/2/6
f 17/3/7 9/3/7 10/2/7
f 20/6/8 18/4/8 11/4/8
f 17/3/9 20/6/9 12/6/9
f 19/2/10 10/2/10 11/4/10
f 1/2/11 14/2/11 15/4/11
f 5/3/12 6/6/12 16/6/12
f 6/6/13 2/4/13 15/4/13
f 5/3/14 13/3/14 14/2/14
f 24/4/15 21/2/15 19/2/15
f 23/3/16 22/6/16 20/6/16
f 24/4/17 18/4/17 20/6/17
f 23/3/18 17/3/18 19/2/18
f 14/2/19 13/3/19 23/3/19
f 15/4/20 24/4/20 22/6/20
f 13/3/21 16/6/21 22/6/21
f 14/2/22 21/2/22 24/4/22
f 28/3/23 27/2/23 34/1/23
f 36/5/24 31/2/24 32/4/24
f 34/7/25 27/3/25 31/2/25
f 32/3/26 28/2/26 33/1/26
f 26/4/27 25/2/27 29/3/27
f 37/3/28 38/2/28 39/4/28
f 47/2/29 38/2/29 37/3/29
f 48/6/30 40/6/30 39/4/30
f 37/3/31 40/6/31 48/6/31
f 39/4/32 38/2/32 47/2/32
f 43/4/33 42/2/33 25/2/33
f 41/3/34 44/6/34 30/6/34
f 30/6/35 44/6/35 43/4/35
f 42/2/36 41/3/36 29/3/36
f 46/4/37 47/2/37 49/2/37
f 51/3/38 45/3/38 48/6/38
f 50/6/39 48/6/39 46/4/39
f 49/2/40 47/2/40 45/3/40
f 42/2/41 49/2/41 51/3/41
f 50/6/42 52/4/42 43/4/42
f 51/3/43 50/6/43 44/6/43
f 43/4/44 52/4/44 49/2/44
f 33/7/45 34/1/45 4/3/45
f 35/8/46 8/4/46 36/5/46
f 34/7/47 36/1/47 3/3/47
f 35/7/48 33/1/48 8/3/48
f 2/4/49 6/6/49 1/2/49
f 9/3/6 12/6/6 10/2/6
f 19/2/7 17/3/7 10/2/7
f 12/6/8 20/6/8 11/4/8
f 9/3/9 17/3/9 12/6/9
f 18/4/10 19/2/10 11/4/10
f 2/4/50 1/2/50 15/4/50
f 13/3/51 5/3/51 16/6/51
f 16/6/52 6/6/52 15/4/52
f 1/2/53 5/3/53 14/2/53
f 18/4/15 24/4/15 19/2/15
f 17/3/16 23/3/16 20/6/16
f 22/6/17 24/4/17 20/6/17
f 21/2/18 23/3/18 19/2/18
f 21/2/54 14/2/54 23/3/54
f 16/6/55 15/4/55 22/6/55
f 23/3/56 13/3/56 22/6/56
f 15/4/57 14/2/57 24/4/57
f 33/7/58 28/3/58 34/1/58
f 35/8/59 36/5/59 32/4/59
f 36/1/60 34/7/60 31/2/60
f 35/7/61 32/3/61 33/1/61
f 30/6/27 26/4/27 29/3/27
f 40/6/28 37/3/28 39/4/28
f 45/3/29 47/2/29 37/3/29
f 46/4/30 48/6/30 39/4/30
f 45/3/31 37/3/31 48/6/31
f 46/4/32 39/4/32 47/2/32
f 26/4/33 43/4/33 25/2/33
f 29/3/34 41/3/34 30/6/34
f 26/4/35 30/6/35 43/4/35
f 25/2/36 42/2/36 29/3/36
f 52/4/37 46/4/37 49/2/37
f 50/6/38 51/3/38 48/6/38
f 52/4/39 50/6/39 46/4/39
f 51/3/40 49/2/40 45/3/40
f 41/3/62 42/2/62 51/3/62
f 44/6/63 50/6/63 43/4/63
f 41/3/64 51/3/64 44/6/64
f 42/2/65 43/4/65 49/2/65
