# Blender v2.76 (sub 0) OBJ File: 'handsBlock.blend'
# www.blender.org
mtllib handsBlock_000056.mtl
o Cube
v 0.481233 -0.123040 -1.962106
v 0.707054 0.101946 -2.352301
v 0.423678 -0.359423 -2.430166
v 0.663184 -0.534894 -2.182364
v 0.450894 -0.583664 -2.166325
v 0.666359 -0.361444 -2.564419
v 0.542364 0.111733 -2.333550
v 0.831449 -0.058405 -2.162871
v 3.279583 1.151477 1.127139
v 3.037298 1.270533 0.997834
v 3.212482 1.416177 0.803684
v 3.454767 1.297121 0.932989
v 3.041172 -1.390441 -0.678733
v 2.805923 -0.967900 -0.683383
v 3.163951 -0.708057 -1.149812
v 3.399155 -1.130624 -1.145205
v 3.304509 0.557635 1.044115
v 3.138543 1.212340 0.244089
v 2.705247 0.852105 0.724296
v 3.737805 0.917869 0.563908
v 2.941248 0.408417 0.312242
v 3.445211 0.440514 0.233962
v 3.233731 0.264694 0.468338
v 3.152727 0.584237 0.077867
v -0.763266 0.044428 1.992511
v -0.512383 0.475904 2.103265
v -0.622892 0.130844 2.373688
v -0.509928 -0.152129 2.381634
v -0.634915 -0.147310 2.448738
v -0.384032 0.284166 2.559493
v -0.617692 0.472754 2.145622
v -0.504522 0.189871 2.153646
v 0.342731 -0.353772 0.003799
v -0.349472 -0.349472 -0.000446
v 0.401680 0.269716 0.055728
v -0.260755 0.405917 -0.056498
v 3.209873 1.077068 -0.667428
v 3.005540 1.005755 -0.874209
v 2.814945 1.202640 -0.753769
v 3.019278 1.273953 -0.546988
v 1.851891 -1.380722 1.306925
v 1.689412 -1.138000 0.729388
v 2.007004 -0.591796 0.869593
v 2.169484 -0.834517 1.447128
v 3.316973 0.618172 -0.295800
v 2.340165 0.928760 -0.509357
v 2.811580 0.441788 -0.807249
v 2.845558 1.105144 0.002091
v 2.608006 0.188532 -0.244430
v 2.624590 0.512298 0.150585
v 2.854674 0.274621 0.005193
v 2.377922 0.426210 -0.099039
vt 1.000000 0.500000
vt 1.000000 1.000000
vt 0.000000 1.000000
vt 1.000000 0.000000
vt 0.500000 1.000000
vt 0.000000 0.500000
vt 0.000000 0.000000
vt 0.500000 0.000000
vn -0.479400 -0.864800 -0.149000
vn 0.481300 0.874700 0.056700
vn -0.936200 0.084600 -0.341100
vn 0.928100 -0.334400 0.163700
vn -0.904000 0.221600 -0.365600
vn 0.047800 0.777800 0.626600
vn -0.518800 -0.139700 0.843400
vn 0.556500 0.754300 -0.348300
vn 0.762500 -0.058100 0.644400
vn -0.724700 0.672700 -0.149300
vn 0.034500 0.861600 0.506500
vn 0.005800 -0.874500 -0.485000
vn 0.499900 0.323800 -0.803300
vn -0.543200 -0.293800 0.786500
vn -0.785500 0.141700 -0.602500
vn 0.756300 -0.615900 0.220400
vn 0.542800 0.226300 -0.808800
vn -0.572000 -0.700500 0.426700
vn -0.672300 -0.367200 0.642800
vn 0.587100 0.560200 -0.584300
vn 0.822700 -0.388400 0.415000
vn -0.809600 0.394200 -0.434900
vn -0.928000 -0.371300 -0.031700
vn 0.918300 0.371300 0.137600
vn -0.993200 -0.053900 -0.103500
vn 0.928200 0.196100 0.316200
vn -0.834400 0.383500 0.395900
vn 0.358500 0.714600 -0.600700
vn 0.726600 -0.322000 -0.607000
vn -0.443300 0.886600 0.132300
vn 0.768800 0.501200 0.397300
vn -0.485500 0.063400 -0.872000
vn -0.269900 0.383600 -0.883200
vn 0.232100 -0.366300 0.901100
vn 0.471700 0.852400 0.225500
vn -0.509500 -0.835100 -0.207600
vn -0.759400 -0.444700 -0.474800
vn 0.540900 0.009100 0.841100
vn -0.715700 0.408600 0.566300
vn 0.497100 -0.844300 -0.200100
vn 0.615700 -0.696700 -0.368200
vn -0.647300 0.635800 0.420400
vn 0.725400 0.334200 0.601700
vn -0.720600 -0.321800 -0.614200
vn -0.006700 -0.996600 0.081600
vn 0.216800 0.970900 -0.101600
vn -0.911800 0.289400 -0.291300
vn 0.972800 -0.109000 0.204600
vn -0.893500 0.249400 -0.373300
vn 0.031700 0.857800 0.513000
vn 0.005100 -0.875300 -0.483600
vn 0.502600 0.270800 -0.821000
vn -0.542300 -0.310400 0.780700
vn -0.581300 -0.438600 0.685300
vn 0.758900 0.416900 -0.500300
vn 0.809600 -0.395100 0.434100
vn -0.822800 0.387700 -0.415600
vn -0.006700 -0.996600 0.082100
vn 0.181200 0.976600 0.115500
vn -0.981300 0.103200 -0.162200
vn 0.913200 -0.118800 0.389900
vn 0.562000 -0.694200 -0.449800
vn -0.626100 0.640100 0.445200
vn 0.862100 -0.506400 0.020100
vn -0.849700 0.518500 -0.095200
usemtl Material
s off
f 34/1/1 3/2/1 4/3/1
f 8/4/2 7/2/2 36/5/2
f 34/6/3 36/1/3 7/2/3
f 33/1/4 4/2/4 8/3/4
f 6/7/5 5/3/5 1/2/5
f 11/4/6 10/2/6 9/3/6
f 17/3/7 9/3/7 10/2/7
f 20/7/8 18/4/8 11/4/8
f 17/3/9 20/7/9 12/7/9
f 19/2/10 10/2/10 11/4/10
f 1/2/11 14/2/11 15/4/11
f 5/3/12 6/7/12 16/7/12
f 6/7/13 2/4/13 15/4/13
f 5/3/14 13/3/14 14/2/14
f 24/4/15 21/2/15 19/2/15
f 23/3/16 22/7/16 20/7/16
f 24/4/17 18/4/17 20/7/17
f 23/3/18 17/3/18 19/2/18
f 14/2/19 13/3/19 23/3/19
f 15/4/20 24/4/20 22/7/20
f 13/3/21 16/7/21 22/7/21
f 14/2/22 21/2/22 24/4/22
f 28/3/23 27/2/23 34/1/23
f 36/5/24 31/2/24 32/4/24
f 34/6/25 27/3/25 31/2/25
f 32/3/26 28/2/26 33/1/26
f 26/4/27 25/2/27 29/3/27
f 37/3/28 38/2/28 39/4/28
f 47/2/29 38/2/29 37/3/29
f 48/7/30 40/7/30 39/4/30
f 45/3/31 37/3/31 40/7/31
f 39/4/32 38/2/32 47/2/32
f 26/4/33 43/4/33 42/2/33
f 41/3/34 44/7/34 30/7/34
f 44/7/35 43/4/35 26/4/35
f 42/2/36 41/3/36 29/3/36
f 52/4/37 46/4/37 47/2/37
f 51/3/38 45/3/38 48/7/38
f 50/7/39 48/7/39 46/4/39
f 47/2/40 45/3/40 51/3/40
f 42/2/41 49/2/41 51/3/41
f 50/7/42 52/4/42 43/4/42
f 51/3/43 50/7/43 44/7/43
f 43/4/44 52/4/44 49/2/44
f 33/6/45 34/1/45 4/3/45
f 35/8/46 8/4/46 36/5/46
f 3/3/47 34/6/47 7/2/47
f 35/6/48 33/1/48 8/3/48
f 2/4/49 6/7/49 1/2/49
f 12/7/6 11/4/6 9/3/6
f 19/2/7 17/3/7 10/2/7
f 12/7/8 20/7/8 11/4/8
f 9/3/9 17/3/9 12/7/9
f 18/4/10 19/2/10 11/4/10
f 2/4/50 1/2/50 15/4/50
f 13/3/51 5/3/51 16/7/51
f 16/7/52 6/7/52 15/4/52
f 1/2/53 5/3/53 14/2/53
f 18/4/15 24/4/15 19/2/15
f 17/3/16 23/3/16 20/7/16
f 22/7/17 24/4/17 20/7/17
f 21/2/18 23/3/18 19/2/18
f 21/2/54 14/2/54 23/3/54
f 16/7/55 15/4/55 22/7/55
f 23/3/56 13/3/56 22/7/56
f 15/4/57 14/2/57 24/4/57
f 33/6/58 28/3/58 34/1/58
f 35/8/59 36/5/59 32/4/59
f 36/1/60 34/6/60 31/2/60
f 35/6/61 32/3/61 33/1/61
f 30/7/27 26/4/27 29/3/27
f 40/7/28 37/3/28 39/4/28
f 45/3/29 47/2/29 37/3/29
f 46/4/30 48/7/30 39/4/30
f 48/7/31 45/3/31 40/7/31
f 46/4/32 39/4/32 47/2/32
f 25/2/33 26/4/33 42/2/33
f 29/3/34 41/3/34 30/7/34
f 30/7/35 44/7/35 26/4/35
f 25/2/36 42/2/36 29/3/36
f 49/2/37 52/4/37 47/2/37
f 50/7/38 51/3/38 48/7/38
f 52/4/39 50/7/39 46/4/39
f 49/2/40 47/2/40 51/3/40
f 41/3/62 42/2/62 51/3/62
f 44/7/63 50/7/63 43/4/63
f 41/3/64 51/3/64 44/7/64
f 42/2/65 43/4/65 49/2/65
