# Blender v2.76 (sub 0) OBJ File: 'handsBlock.blend'
# www.blender.org
mtllib handsBlock_000100.mtl
o Cube
v 0.638240 -0.084186 -1.981170
v 0.782122 -0.019048 -2.459627
v 0.334220 -0.381920 -2.419557
v 0.656599 -0.523937 -2.172708
v 0.337839 -0.481858 -2.061274
v 0.469134 -0.414509 -2.543468
v 0.577466 0.057766 -2.381898
v 0.849625 -0.053349 -2.164685
v 4.614556 -0.170896 -0.197917
v 4.420589 0.043984 -0.274077
v 4.558678 0.075158 -0.537811
v 4.752644 -0.139720 -0.461652
v 2.653642 -2.367264 -1.251549
v 2.643364 -1.884597 -1.280382
v 2.883909 -1.857582 -1.875920
v 2.894125 -2.340252 -1.847109
v 4.344984 -0.705105 -0.151942
v 4.206778 -0.096521 -0.992625
v 3.865233 -0.173628 -0.340310
v 4.686529 -0.627998 -0.804256
v 3.716663 -0.697459 -0.695096
v 4.117515 -0.919224 -0.921534
v 3.950817 -0.956858 -0.603158
v 3.883362 -0.659825 -1.013472
v -0.650394 0.123710 1.920356
v -0.364848 0.452527 2.188167
v -0.678303 0.095336 2.404294
v -0.582666 -0.136314 2.333723
v -0.780420 -0.115719 2.352961
v -0.494874 0.213097 2.620773
v -0.543967 0.461095 2.188016
v -0.448122 0.229505 2.117565
v 0.342731 -0.353772 0.003799
v -0.349472 -0.349472 -0.000446
v 0.401680 0.269716 0.055728
v -0.260755 0.405917 -0.056498
v 4.188110 -0.012977 1.214929
v 4.078272 -0.009951 0.936501
v 3.914203 0.231176 1.003846
v 4.024042 0.228151 1.282274
v 1.532944 -2.008749 2.080891
v 1.697543 -1.705656 1.533258
v 2.059016 -1.289408 1.872279
v 1.894418 -1.592501 2.419913
v 4.004511 -0.496604 1.519164
v 3.327034 0.107279 0.997075
v 3.732837 -0.489120 0.830505
v 3.598708 0.099796 1.685733
v 3.253520 -0.689119 1.221147
v 3.188056 -0.401685 1.638558
v 3.386117 -0.692771 1.557261
v 3.055460 -0.398033 1.302444
vt 1.000000 0.500000
vt 1.000000 1.000000
vt 0.000000 1.000000
vt 1.000000 0.000000
vt 0.500000 1.000000
vt 0.000000 0.000000
vt 0.000000 0.500000
vt 0.500000 0.000000
vn -0.346200 -0.934300 -0.085300
vn 0.379200 0.925300 -0.001800
vn -0.802800 0.475000 -0.360500
vn 0.912200 -0.376900 0.161000
vn -0.779100 0.614000 -0.126400
vn 0.606000 0.688300 0.398700
vn -0.184400 0.176300 0.966900
vn 0.663200 0.367600 -0.651900
vn 0.834700 -0.387500 0.391200
vn -0.355900 0.931400 -0.076200
vn 0.588500 0.761300 0.272200
vn -0.553200 -0.791100 -0.261100
vn 0.264000 -0.004400 -0.964500
vn -0.292500 0.050800 0.954900
vn -0.801900 0.473900 -0.363900
vn 0.432400 -0.893500 0.120800
vn 0.254600 -0.110600 -0.960700
vn -0.624100 -0.309000 0.717600
vn -0.482800 0.042000 0.874700
vn 0.518300 0.170900 -0.837900
vn 0.656900 -0.717100 0.232700
vn -0.650800 0.714700 -0.256300
vn -0.928900 -0.365400 -0.059400
vn 0.929800 0.351700 0.108700
vn -0.953200 0.246100 -0.175900
vn 0.919300 -0.116000 0.376000
vn -0.789500 0.605800 0.098000
vn 0.751600 0.592400 -0.290100
vn 0.800500 -0.506000 -0.321300
vn -0.206600 0.974100 0.092100
vn 0.634000 0.224800 0.739900
vn -0.040200 0.243300 -0.969100
vn 0.236400 0.481900 -0.843700
vn -0.272100 -0.454500 0.848200
vn 0.540500 0.656700 0.525900
vn -0.576300 -0.629300 -0.521500
vn -0.578600 -0.171000 -0.797500
vn 0.120400 -0.190200 0.974300
vn -0.751200 0.586600 0.302700
vn 0.292900 -0.947800 -0.125900
vn 0.505300 -0.837400 -0.208400
vn -0.570600 0.787300 0.233700
vn 0.466700 0.071400 0.881500
vn -0.454100 -0.060700 -0.888900
vn -0.006700 -0.997000 0.077000
vn 0.216300 0.971400 -0.097700
vn -0.957900 0.092300 -0.272000
vn 0.971200 -0.109500 0.211800
vn -0.761100 0.632700 -0.142800
vn 0.586900 0.759800 0.279900
vn -0.553600 -0.791400 -0.259400
vn 0.236600 -0.052900 -0.970200
vn -0.301100 0.035500 0.952900
vn -0.423800 -0.062300 0.903600
vn 0.627200 -0.033200 -0.778100
vn 0.650100 -0.715500 0.255800
vn -0.657500 0.716500 -0.233100
vn -0.006700 -0.995900 0.090300
vn 0.185000 0.978100 0.095300
vn -0.986200 0.106400 -0.127100
vn 0.918900 -0.118200 0.376400
vn 0.493400 -0.815300 -0.303000
vn -0.561500 0.783900 0.265100
vn 0.607000 -0.747300 0.270300
vn -0.561700 0.757900 -0.331700
usemtl Material
s off
f 34/1/1 3/2/1 4/3/1
f 8/4/2 7/2/2 36/5/2
f 36/1/3 7/2/3 3/3/3
f 33/1/4 4/2/4 8/3/4
f 6/6/5 5/3/5 1/2/5
f 12/6/6 11/4/6 10/2/6
f 17/3/7 9/3/7 10/2/7
f 18/4/8 11/4/8 12/6/8
f 17/3/9 20/6/9 12/6/9
f 18/4/10 19/2/10 10/2/10
f 1/2/11 14/2/11 15/4/11
f 5/3/12 6/6/12 16/6/12
f 6/6/13 2/4/13 15/4/13
f 5/3/14 13/3/14 14/2/14
f 24/4/15 21/2/15 19/2/15
f 23/3/16 22/6/16 20/6/16
f 24/4/17 18/4/17 20/6/17
f 23/3/18 17/3/18 19/2/18
f 14/2/19 13/3/19 23/3/19
f 15/4/20 24/4/20 22/6/20
f 13/3/21 16/6/21 22/6/21
f 14/2/22 21/2/22 24/4/22
f 28/3/23 27/2/23 34/1/23
f 36/5/24 31/2/24 32/4/24
f 34/7/25 27/3/25 31/2/25
f 32/3/26 28/2/26 33/1/26
f 26/4/27 25/2/27 29/3/27
f 37/3/28 38/2/28 39/4/28
f 47/2/29 38/2/29 37/3/29
f 40/6/30 39/4/30 46/4/30
f 45/3/31 37/3/31 40/6/31
f 39/4/32 38/2/32 47/2/32
f 43/4/33 42/2/33 25/2/33
f 41/3/34 44/6/34 30/6/34
f 30/6/35 44/6/35 43/4/35
f 42/2/36 41/3/36 29/3/36
f 52/4/37 46/4/37 47/2/37
f 51/3/38 45/3/38 48/6/38
f 50/6/39 48/6/39 46/4/39
f 47/2/40 45/3/40 51/3/40
f 42/2/41 49/2/41 51/3/41
f 50/6/42 52/4/42 43/4/42
f 51/3/43 50/6/43 44/6/43
f 43/4/44 52/4/44 49/2/44
f 33/7/45 34/1/45 4/3/45
f 35/8/46 8/4/46 36/5/46
f 34/7/47 36/1/47 3/3/47
f 35/7/48 33/1/48 8/3/48
f 2/4/49 6/6/49 1/2/49
f 9/3/6 12/6/6 10/2/6
f 19/2/7 17/3/7 10/2/7
f 20/6/8 18/4/8 12/6/8
f 9/3/9 17/3/9 12/6/9
f 11/4/10 18/4/10 10/2/10
f 2/4/50 1/2/50 15/4/50
f 13/3/51 5/3/51 16/6/51
f 16/6/52 6/6/52 15/4/52
f 1/2/53 5/3/53 14/2/53
f 18/4/15 24/4/15 19/2/15
f 17/3/16 23/3/16 20/6/16
f 22/6/17 24/4/17 20/6/17
f 21/2/18 23/3/18 19/2/18
f 21/2/54 14/2/54 23/3/54
f 16/6/55 15/4/55 22/6/55
f 23/3/56 13/3/56 22/6/56
f 15/4/57 14/2/57 24/4/57
f 33/7/58 28/3/58 34/1/58
f 35/8/59 36/5/59 32/4/59
f 36/1/60 34/7/60 31/2/60
f 35/7/61 32/3/61 33/1/61
f 30/6/27 26/4/27 29/3/27
f 40/6/28 37/3/28 39/4/28
f 45/3/29 47/2/29 37/3/29
f 48/6/30 40/6/30 46/4/30
f 48/6/31 45/3/31 40/6/31
f 46/4/32 39/4/32 47/2/32
f 26/4/33 43/4/33 25/2/33
f 29/3/34 41/3/34 30/6/34
f 26/4/35 30/6/35 43/4/35
f 25/2/36 42/2/36 29/3/36
f 49/2/37 52/4/37 47/2/37
f 50/6/38 51/3/38 48/6/38
f 52/4/39 50/6/39 46/4/39
f 49/2/40 47/2/40 51/3/40
f 41/3/62 42/2/62 51/3/62
f 44/6/63 50/6/63 43/4/63
f 41/3/64 51/3/64 44/6/64
f 42/2/65 43/4/65 49/2/65
