# Blender v2.76 (sub 0) OBJ File: 'handsBlock.blend'
# www.blender.org
mtllib handsBlock_000038.mtl
o Cube
v 0.436050 -0.152144 -1.969232
v 0.663311 0.127515 -2.321381
v 0.449364 -0.342739 -2.426018
v 0.667075 -0.537234 -2.185161
v 0.504015 -0.599423 -2.193114
v 0.722440 -0.323680 -2.554421
v 0.522324 0.122951 -2.319734
v 0.826306 -0.061932 -2.163832
v 2.633248 1.371568 1.473038
v 2.390362 1.457942 1.320914
v 2.559519 1.640249 1.154344
v 2.802405 1.553876 1.306468
v 3.012956 -1.069393 -0.444483
v 2.713673 -0.689814 -0.460438
v 3.073189 -0.350552 -0.871422
v 3.372437 -0.730160 -0.855515
v 2.763941 0.794830 1.370789
v 2.581582 1.459380 0.582537
v 2.163192 1.008465 0.994528
v 3.182332 1.245745 0.958796
v 2.512245 0.631813 0.596233
v 3.009659 0.747623 0.578794
v 2.805455 0.527545 0.779876
v 2.716450 0.851893 0.395151
v -0.786795 0.013962 2.027221
v -0.567803 0.471694 2.089705
v -0.610679 0.144843 2.358231
v -0.481772 -0.151256 2.390311
v -0.578599 -0.145551 2.466072
v -0.359607 0.312181 2.528556
v -0.645382 0.470644 2.138856
v -0.516275 0.174642 2.171000
v 0.342731 -0.353772 0.003799
v -0.349472 -0.349472 -0.000446
v 0.401680 0.269716 0.055728
v -0.260755 0.405917 -0.056498
v 2.660820 1.311336 -1.191196
v 2.438335 1.212284 -1.365223
v 2.247183 1.394828 -1.224743
v 2.469668 1.493881 -1.050716
v 1.839923 -1.181353 1.021389
v 1.576367 -0.979425 0.465849
v 1.853590 -0.399983 0.544946
v 2.117146 -0.601911 1.100487
v 2.863371 0.880586 -0.825698
v 1.840289 1.087095 -0.908672
v 2.313081 0.635592 -1.256131
v 2.390579 1.332088 -0.478240
v 2.214946 0.387523 -0.663530
v 2.252770 0.727464 -0.283863
v 2.483526 0.507098 -0.453448
v 1.984189 0.607889 -0.493946
vt 1.000000 0.500000
vt 1.000000 1.000000
vt 0.000000 1.000000
vt 1.000000 0.000000
vt 0.500000 1.000000
vt 0.000000 0.500000
vt 0.000000 0.000000
vt 0.500000 0.000000
vn -0.537600 -0.823900 -0.179300
vn 0.494900 0.866700 0.062900
vn -0.938200 0.085300 -0.335300
vn 0.932900 -0.320000 0.165100
vn -0.882600 0.096200 -0.460100
vn -0.149000 0.738800 0.657300
vn -0.578000 -0.267700 0.770900
vn 0.460300 0.851400 -0.251500
vn 0.686600 0.026800 0.726600
vn -0.804300 0.557000 -0.207200
vn -0.162500 0.826000 0.539700
vn 0.201800 -0.833600 -0.514200
vn 0.525000 0.443900 -0.726200
vn -0.570500 -0.420200 0.705700
vn -0.727400 0.049600 -0.684400
vn 0.818200 -0.500000 0.283700
vn 0.583600 0.354900 -0.730400
vn -0.492800 -0.805300 0.329600
vn -0.669400 -0.504900 0.545000
vn 0.547900 0.678300 -0.489600
vn 0.824800 -0.276300 0.493300
vn -0.810800 0.285200 -0.511200
vn -0.916000 -0.400700 -0.017500
vn 0.900900 0.408800 0.145800
vn -0.984800 -0.156300 -0.076300
vn 0.911400 0.291700 0.290100
vn -0.806700 0.317900 0.498200
vn 0.199300 0.720100 -0.664600
vn 0.665400 -0.275700 -0.693700
vn -0.507900 0.844700 0.168600
vn 0.761500 0.588500 0.271500
vn -0.604100 -0.019500 -0.796700
vn -0.425400 0.319100 -0.846900
vn 0.388900 -0.304700 0.869400
vn 0.410000 0.902300 0.133500
vn -0.446500 -0.887900 -0.110900
vn -0.768700 -0.534700 -0.351100
vn 0.647200 0.095600 0.756300
vn -0.669000 0.361300 0.649600
vn 0.547500 -0.800300 -0.244400
vn 0.626500 -0.649100 -0.431500
vn -0.644300 0.587800 0.489200
vn 0.763600 0.426700 0.484600
vn -0.761800 -0.414500 -0.497900
vn -0.006700 -0.996600 0.082500
vn 0.217100 0.970600 -0.103500
vn -0.927800 0.215000 -0.305000
vn 0.973200 -0.108900 0.202500
vn -0.876000 0.125700 -0.465600
vn -0.165400 0.821500 0.545700
vn 0.201100 -0.834600 -0.512900
vn 0.538200 0.393100 -0.745500
vn -0.566300 -0.436100 0.699400
vn -0.573100 -0.563200 0.595200
vn 0.730500 0.559400 -0.391600
vn 0.810900 -0.286000 0.510500
vn -0.824700 0.275600 -0.493900
vn -0.006700 -0.996600 0.082300
vn 0.180000 0.976100 0.122000
vn -0.979300 0.102100 -0.174600
vn 0.912800 -0.118800 0.390800
vn 0.388800 -0.304700 0.869400
vn 0.562100 -0.655200 -0.504800
vn -0.620500 0.595100 0.510700
vn 0.903200 -0.420300 -0.087000
vn -0.902600 0.430400 0.010600
usemtl Material
s off
f 34/1/1 3/2/1 4/3/1
f 8/4/2 7/2/2 36/5/2
f 34/6/3 36/1/3 7/2/3
f 33/1/4 4/2/4 8/3/4
f 6/7/5 5/3/5 1/2/5
f 11/4/6 10/2/6 9/3/6
f 17/3/7 9/3/7 10/2/7
f 20/7/8 18/4/8 11/4/8
f 17/3/9 20/7/9 12/7/9
f 19/2/10 10/2/10 11/4/10
f 1/2/11 14/2/11 15/4/11
f 5/3/12 6/7/12 16/7/12
f 6/7/13 2/4/13 15/4/13
f 5/3/14 13/3/14 14/2/14
f 21/2/15 19/2/15 18/4/15
f 23/3/16 22/7/16 20/7/16
f 22/7/17 24/4/17 18/4/17
f 23/3/18 17/3/18 19/2/18
f 14/2/19 13/3/19 23/3/19
f 15/4/20 24/4/20 22/7/20
f 13/3/21 16/7/21 22/7/21
f 14/2/22 21/2/22 24/4/22
f 28/3/23 27/2/23 34/1/23
f 36/5/24 31/2/24 32/4/24
f 34/6/25 27/3/25 31/2/25
f 32/3/26 28/2/26 33/1/26
f 30/7/27 26/4/27 25/2/27
f 37/3/28 38/2/28 39/4/28
f 38/2/29 37/3/29 45/3/29
f 48/7/30 40/7/30 39/4/30
f 45/3/31 37/3/31 40/7/31
f 39/4/32 38/2/32 47/2/32
f 26/4/33 43/4/33 42/2/33
f 41/3/34 44/7/34 30/7/34
f 30/7/35 44/7/35 43/4/35
f 42/2/36 41/3/36 29/3/36
f 52/4/37 46/4/37 47/2/37
f 51/3/38 45/3/38 48/7/38
f 50/7/39 48/7/39 46/4/39
f 47/2/40 45/3/40 51/3/40
f 42/2/41 49/2/41 51/3/41
f 50/7/42 52/4/42 43/4/42
f 51/3/43 50/7/43 44/7/43
f 43/4/44 52/4/44 49/2/44
f 33/6/45 34/1/45 4/3/45
f 35/8/46 8/4/46 36/5/46
f 3/3/47 34/6/47 7/2/47
f 35/6/48 33/1/48 8/3/48
f 2/4/49 6/7/49 1/2/49
f 12/7/6 11/4/6 9/3/6
f 19/2/7 17/3/7 10/2/7
f 12/7/8 20/7/8 11/4/8
f 9/3/9 17/3/9 12/7/9
f 18/4/10 19/2/10 11/4/10
f 2/4/50 1/2/50 15/4/50
f 13/3/51 5/3/51 16/7/51
f 16/7/52 6/7/52 15/4/52
f 1/2/53 5/3/53 14/2/53
f 24/4/15 21/2/15 18/4/15
f 17/3/16 23/3/16 20/7/16
f 20/7/17 22/7/17 18/4/17
f 21/2/18 23/3/18 19/2/18
f 21/2/54 14/2/54 23/3/54
f 16/7/55 15/4/55 22/7/55
f 23/3/56 13/3/56 22/7/56
f 15/4/57 14/2/57 24/4/57
f 33/6/58 28/3/58 34/1/58
f 35/8/59 36/5/59 32/4/59
f 36/1/60 34/6/60 31/2/60
f 35/6/61 32/3/61 33/1/61
f 29/3/27 30/7/27 25/2/27
f 40/7/28 37/3/28 39/4/28
f 47/2/29 38/2/29 45/3/29
f 46/4/30 48/7/30 39/4/30
f 48/7/31 45/3/31 40/7/31
f 46/4/32 39/4/32 47/2/32
f 25/2/33 26/4/33 42/2/33
f 29/3/62 41/3/62 30/7/62
f 26/4/35 30/7/35 43/4/35
f 25/2/36 42/2/36 29/3/36
f 49/2/37 52/4/37 47/2/37
f 50/7/38 51/3/38 48/7/38
f 52/4/39 50/7/39 46/4/39
f 49/2/40 47/2/40 51/3/40
f 41/3/63 42/2/63 51/3/63
f 44/7/64 50/7/64 43/4/64
f 41/3/65 51/3/65 44/7/65
f 42/2/66 43/4/66 49/2/66
