# Blender v2.76 (sub 0) OBJ File: 'handsBlock.blend'
# www.blender.org
mtllib handsBlock_000001.mtl
o Cube
v 0.656638 -0.085071 -1.987230
v 0.784202 -0.036032 -2.472193
v 0.323720 -0.381458 -2.416129
v 0.656433 -0.522406 -2.171582
v 0.330837 -0.465821 -2.047919
v 0.445818 -0.413903 -2.536151
v 0.578564 0.050134 -2.387593
v 0.851782 -0.053386 -2.165349
v 4.691450 -0.374526 -0.363932
v 4.507182 -0.149968 -0.436146
v 4.635856 -0.131078 -0.705742
v 4.820125 -0.355635 -0.633528
v 2.565839 -2.469609 -1.297615
v 2.582136 -1.987681 -1.334821
v 2.799110 -1.984181 -1.939940
v 2.782748 -2.466109 -1.902751
v 4.393747 -0.891353 -0.297409
v 4.256243 -0.289213 -1.142835
v 3.937982 -0.335936 -0.476022
v 4.712008 -0.844629 -0.964223
v 3.745073 -0.855817 -0.814923
v 4.122854 -1.104096 -1.053200
v 3.967519 -1.126900 -0.727747
v 3.900407 -0.833013 -1.140376
v -0.633874 0.131068 1.915785
v -0.350767 0.446339 2.201854
v -0.686211 0.092149 2.406009
v -0.589355 -0.132729 2.326311
v -0.793802 -0.108554 2.338141
v -0.510695 0.206716 2.624210
v -0.536929 0.458006 2.194852
v -0.439866 0.233184 2.115278
v 0.342731 -0.353772 0.003799
v -0.349472 -0.349472 -0.000446
v 0.401680 0.269716 0.055728
v -0.260755 0.405917 -0.056498
v 4.226168 -0.170374 1.450421
v 4.130631 -0.160197 1.166934
v 3.971960 0.085846 1.229241
v 4.067497 0.075669 1.512727
v 1.462368 -2.079821 2.156343
v 1.664820 -1.776483 1.621684
v 2.023205 -1.377383 1.983817
v 1.820752 -1.680721 2.518476
v 4.010637 -0.650619 1.738647
v 3.381883 -0.016887 1.191583
v 3.774336 -0.625447 1.037475
v 3.618184 -0.042060 1.892754
v 3.269267 -0.812690 1.401055
v 3.193054 -0.527954 1.818492
v 3.384599 -0.824975 1.743277
v 3.077723 -0.515669 1.476270
vt 1.000000 0.500000
vt 1.000000 1.000000
vt 0.000000 1.000000
vt 1.000000 0.000000
vt 0.500000 1.000000
vt 0.000000 0.000000
vt 0.000000 0.500000
vt 0.500000 0.000000
vn -0.337300 -0.937800 -0.081600
vn 0.362600 0.931900 -0.011700
vn -0.792600 0.491800 -0.360400
vn 0.910400 -0.381300 0.160800
vn -0.747100 0.656200 -0.106200
vn 0.660500 0.658200 0.361400
vn -0.134000 0.202000 0.970200
vn 0.655800 0.318000 -0.684600
vn 0.826500 -0.429200 0.364400
vn -0.304600 0.949200 -0.078900
vn 0.641900 0.730000 0.234400
vn -0.608000 -0.761600 -0.224200
vn 0.223300 -0.035100 -0.974100
vn -0.249500 0.082900 0.964800
vn -0.787700 0.513900 -0.339900
vn 0.385000 -0.915100 0.119600
vn 0.208100 -0.140500 -0.968000
vn -0.610800 -0.260700 0.747600
vn -0.443200 0.083900 0.892500
vn 0.492300 0.127100 -0.861100
vn 0.623600 -0.750300 0.219200
vn -0.618600 0.747200 -0.242900
vn -0.924300 -0.376800 -0.060200
vn 0.926000 0.362600 0.105200
vn -0.942700 0.279000 -0.183100
vn 0.912000 -0.153100 0.380600
vn -0.771700 0.632500 0.066600
vn 0.785600 0.568500 -0.244300
vn 0.797300 -0.530500 -0.287800
vn -0.176600 0.979700 0.094700
vn 0.603600 0.193400 0.773500
vn 0.017100 0.255800 -0.966600
vn 0.295300 0.482900 -0.824400
vn -0.330200 -0.454200 0.827400
vn 0.536100 0.630800 0.560900
vn -0.571100 -0.602200 -0.557900
vn -0.543500 -0.140900 -0.827500
vn 0.064500 -0.205700 0.976500
vn -0.744300 0.609600 0.272700
vn 0.265400 -0.956200 -0.123800
vn 0.485400 -0.852500 -0.194200
vn -0.553600 0.804400 0.215500
vn 0.424100 0.044400 0.904500
vn -0.410700 -0.034100 -0.911100
vn -0.006700 -0.997100 0.076300
vn 0.216300 0.971500 -0.097500
vn -0.958800 0.092700 -0.268400
vn 0.971000 -0.109500 0.212700
vn -0.728800 0.673500 -0.123600
vn 0.640600 0.728700 0.242200
vn -0.608400 -0.761900 -0.222500
vn 0.193000 -0.082000 -0.977800
vn -0.259100 0.068100 0.963400
vn -0.610800 -0.260700 0.747700
vn -0.389100 -0.023200 0.920900
vn 0.591700 -0.082000 -0.802000
vn 0.617900 -0.747900 0.242500
vn -0.624300 0.749700 -0.219500
vn -0.006800 -0.995700 0.092100
vn 0.185400 0.978300 0.093100
vn -0.986600 0.106700 -0.123500
vn 0.920000 -0.118100 0.373800
vn 0.479000 -0.828900 -0.288900
vn -0.546200 0.800300 0.247300
vn 0.566100 -0.771600 0.290200
vn -0.517400 0.781300 -0.349100
usemtl Material
s off
f 34/1/1 3/2/1 4/3/1
f 8/4/2 7/2/2 36/5/2
f 36/1/3 7/2/3 3/3/3
f 33/1/4 4/2/4 8/3/4
f 6/6/5 5/3/5 1/2/5
f 11/4/6 10/2/6 9/3/6
f 17/3/7 9/3/7 10/2/7
f 20/6/8 18/4/8 11/4/8
f 17/3/9 20/6/9 12/6/9
f 19/2/10 10/2/10 11/4/10
f 1/2/11 14/2/11 15/4/11
f 5/3/12 6/6/12 16/6/12
f 6/6/13 2/4/13 15/4/13
f 5/3/14 13/3/14 14/2/14
f 21/2/15 19/2/15 18/4/15
f 22/6/16 20/6/16 17/3/16
f 24/4/17 18/4/17 20/6/17
f 23/3/18 17/3/18 19/2/18
f 14/2/19 13/3/19 23/3/19
f 15/4/20 24/4/20 22/6/20
f 13/3/21 16/6/21 22/6/21
f 14/2/22 21/2/22 24/4/22
f 28/3/23 27/2/23 34/1/23
f 36/5/24 31/2/24 32/4/24
f 34/7/25 27/3/25 31/2/25
f 32/3/26 28/2/26 33/1/26
f 26/4/27 25/2/27 29/3/27
f 37/3/28 38/2/28 39/4/28
f 38/2/29 37/3/29 45/3/29
f 40/6/30 39/4/30 46/4/30
f 45/3/31 37/3/31 40/6/31
f 39/4/32 38/2/32 47/2/32
f 43/4/33 42/2/33 25/2/33
f 41/3/34 44/6/34 30/6/34
f 30/6/35 44/6/35 43/4/35
f 42/2/36 41/3/36 29/3/36
f 52/4/37 46/4/37 47/2/37
f 45/3/38 48/6/38 50/6/38
f 50/6/39 48/6/39 46/4/39
f 47/2/40 45/3/40 51/3/40
f 42/2/41 49/2/41 51/3/41
f 50/6/42 52/4/42 43/4/42
f 51/3/43 50/6/43 44/6/43
f 43/4/44 52/4/44 49/2/44
f 33/7/45 34/1/45 4/3/45
f 35/8/46 8/4/46 36/5/46
f 34/7/47 36/1/47 3/3/47
f 35/7/48 33/1/48 8/3/48
f 2/4/49 6/6/49 1/2/49
f 12/6/6 11/4/6 9/3/6
f 19/2/7 17/3/7 10/2/7
f 12/6/8 20/6/8 11/4/8
f 9/3/9 17/3/9 12/6/9
f 18/4/10 19/2/10 11/4/10
f 2/4/50 1/2/50 15/4/50
f 13/3/51 5/3/51 16/6/51
f 16/6/52 6/6/52 15/4/52
f 1/2/53 5/3/53 14/2/53
f 24/4/15 21/2/15 18/4/15
f 23/3/16 22/6/16 17/3/16
f 22/6/17 24/4/17 20/6/17
f 21/2/54 23/3/54 19/2/54
f 21/2/55 14/2/55 23/3/55
f 16/6/56 15/4/56 22/6/56
f 23/3/57 13/3/57 22/6/57
f 15/4/58 14/2/58 24/4/58
f 33/7/59 28/3/59 34/1/59
f 35/8/60 36/5/60 32/4/60
f 36/1/61 34/7/61 31/2/61
f 35/7/62 32/3/62 33/1/62
f 30/6/27 26/4/27 29/3/27
f 40/6/28 37/3/28 39/4/28
f 47/2/29 38/2/29 45/3/29
f 48/6/30 40/6/30 46/4/30
f 48/6/31 45/3/31 40/6/31
f 46/4/32 39/4/32 47/2/32
f 26/4/33 43/4/33 25/2/33
f 29/3/34 41/3/34 30/6/34
f 26/4/35 30/6/35 43/4/35
f 25/2/36 42/2/36 29/3/36
f 49/2/37 52/4/37 47/2/37
f 51/3/38 45/3/38 50/6/38
f 52/4/39 50/6/39 46/4/39
f 49/2/40 47/2/40 51/3/40
f 41/3/63 42/2/63 51/3/63
f 44/6/64 50/6/64 43/4/64
f 41/3/65 51/3/65 44/6/65
f 42/2/66 43/4/66 49/2/66
