# Blender v2.76 (sub 0) OBJ File: 'handsBlock.blend'
# www.blender.org
mtllib handsBlock_000055.mtl
o Cube
v 0.477887 -0.124851 -1.962392
v 0.704240 0.104017 -2.350013
v 0.425581 -0.358384 -2.429997
v 0.663434 -0.535082 -2.182571
v 0.454432 -0.585091 -2.168375
v 0.670524 -0.359080 -2.563987
v 0.541071 0.112646 -2.332525
v 0.831066 -0.058626 -2.162913
v 3.236763 1.170855 1.153432
v 2.994178 1.287589 1.022583
v 3.169237 1.435876 0.830330
v 3.411822 1.319142 0.961180
v 3.041767 -1.367437 -0.662721
v 2.801763 -0.947584 -0.667856
v 3.160523 -0.682099 -1.130532
v 3.400483 -1.101978 -1.125439
v 3.269117 0.577621 1.068641
v 3.102099 1.233121 0.269485
v 2.669112 0.866349 0.745000
v 3.702103 0.944393 0.593126
v 2.913439 0.426780 0.333384
v 3.417613 0.464870 0.259259
v 3.206284 0.285860 0.491345
v 3.124767 0.605791 0.101298
v -0.765164 0.042337 1.994794
v -0.516205 0.475803 2.102063
v -0.621925 0.131800 2.372679
v -0.507998 -0.152168 2.382369
v -0.631055 -0.147388 2.450206
v -0.382096 0.286079 2.557474
v -0.619602 0.472703 2.145022
v -0.505470 0.188825 2.154788
v 0.342731 -0.353772 0.003799
v -0.349472 -0.349472 -0.000446
v 0.401680 0.269716 0.055728
v -0.260755 0.405917 -0.056498
v 3.174655 1.095782 -0.706228
v 2.968816 1.022554 -0.910835
v 2.778045 1.218416 -0.789015
v 2.983884 1.291646 -0.584407
v 1.852990 -1.366437 1.287156
v 1.683221 -1.126265 0.710652
v 1.998377 -0.577541 0.846444
v 2.168146 -0.817713 1.422947
v 3.288538 0.638553 -0.334564
v 2.307573 0.941874 -0.539328
v 2.779422 0.457430 -0.840636
v 2.816689 1.122996 -0.033258
v 2.583093 0.204165 -0.275253
v 2.601282 0.529009 0.118804
v 2.831579 0.292566 -0.028254
v 2.352797 0.440609 -0.128195
vt 1.000000 0.500000
vt 1.000000 1.000000
vt 0.000000 1.000000
vt 1.000000 0.000000
vt 0.500000 1.000000
vt 0.000000 0.500000
vt 0.000000 0.000000
vt 0.500000 0.000000
vn -0.483400 -0.862300 -0.151100
vn 0.482600 0.874000 0.057400
vn -0.936300 0.084700 -0.340800
vn 0.928400 -0.333400 0.163800
vn -0.903500 0.212600 -0.372100
vn 0.033900 0.776200 0.629600
vn -0.523900 -0.148500 0.838800
vn 0.550700 0.761800 -0.341300
vn 0.757900 -0.051600 0.650300
vn -0.731100 0.664900 -0.152900
vn 0.020700 0.860200 0.509600
vn 0.019600 -0.872700 -0.487900
vn 0.502600 0.332200 -0.798200
vn -0.546100 -0.302600 0.781200
vn -0.782200 0.134800 -0.608300
vn 0.761500 -0.608000 0.224400
vn 0.546700 0.235200 -0.803600
vn -0.567300 -0.708400 0.419800
vn -0.673200 -0.377000 0.636100
vn 0.585400 0.568800 -0.577700
vn 0.823800 -0.380500 0.420300
vn -0.810600 0.386400 -0.440000
vn -0.927300 -0.373100 -0.030800
vn 0.917300 0.373500 0.138200
vn -0.992900 -0.061100 -0.101600
vn 0.927300 0.203000 0.314500
vn -0.833100 0.378700 0.403100
vn 0.347700 0.715500 -0.605900
vn 0.722900 -0.318400 -0.613200
vn -0.448100 0.883800 0.134500
vn 0.769100 0.507400 0.388600
vn -0.494400 0.057900 -0.867300
vn -0.281100 0.379600 -0.881400
vn 0.243400 -0.362400 0.899700
vn 0.468000 0.856200 0.218900
vn -0.505700 -0.839100 -0.200600
vn -0.760900 -0.451100 -0.466300
vn 0.548900 0.014900 0.835700
vn -0.713000 0.405100 0.572300
vn 0.501000 -0.841300 -0.202900
vn 0.616900 -0.693300 -0.372500
vn -0.647600 0.632400 0.425100
vn 0.728900 0.340600 0.593800
vn -0.724300 -0.328300 -0.606300
vn -0.006700 -0.996600 0.081700
vn 0.216900 0.970900 -0.101700
vn -0.913100 0.284400 -0.292300
vn 0.972800 -0.109000 0.204400
vn -0.893300 0.240500 -0.379700
vn 0.017900 0.856400 0.516100
vn 0.018900 -0.873500 -0.486400
vn 0.506000 0.279300 -0.816100
vn -0.544900 -0.319200 0.775300
vn -0.581700 -0.447500 0.679200
vn 0.758000 0.427200 -0.492800
vn 0.810500 -0.387300 0.439300
vn -0.823800 0.379700 -0.420900
vn -0.006700 -0.996600 0.082100
vn 0.181200 0.976600 0.115900
vn -0.981200 0.103100 -0.163100
vn 0.913100 -0.118800 0.390000
vn 0.562300 -0.691400 -0.453600
vn -0.626200 0.636900 0.449700
vn 0.865700 -0.500400 0.012900
vn -0.854200 0.512400 -0.088200
usemtl Material
s off
f 34/1/1 3/2/1 4/3/1
f 8/4/2 7/2/2 36/5/2
f 34/6/3 36/1/3 7/2/3
f 33/1/4 4/2/4 8/3/4
f 6/7/5 5/3/5 1/2/5
f 11/4/6 10/2/6 9/3/6
f 17/3/7 9/3/7 10/2/7
f 20/7/8 18/4/8 11/4/8
f 17/3/9 20/7/9 12/7/9
f 19/2/10 10/2/10 11/4/10
f 1/2/11 14/2/11 15/4/11
f 5/3/12 6/7/12 16/7/12
f 6/7/13 2/4/13 15/4/13
f 5/3/14 13/3/14 14/2/14
f 21/2/15 19/2/15 18/4/15
f 23/3/16 22/7/16 20/7/16
f 24/4/17 18/4/17 20/7/17
f 23/3/18 17/3/18 19/2/18
f 14/2/19 13/3/19 23/3/19
f 15/4/20 24/4/20 22/7/20
f 13/3/21 16/7/21 22/7/21
f 14/2/22 21/2/22 24/4/22
f 28/3/23 27/2/23 34/1/23
f 36/5/24 31/2/24 32/4/24
f 34/6/25 27/3/25 31/2/25
f 32/3/26 28/2/26 33/1/26
f 30/7/27 26/4/27 25/2/27
f 37/3/28 38/2/28 39/4/28
f 38/2/29 37/3/29 45/3/29
f 48/7/30 40/7/30 39/4/30
f 45/3/31 37/3/31 40/7/31
f 39/4/32 38/2/32 47/2/32
f 43/4/33 42/2/33 25/2/33
f 29/3/34 41/3/34 44/7/34
f 30/7/35 44/7/35 43/4/35
f 42/2/36 41/3/36 29/3/36
f 46/4/37 47/2/37 49/2/37
f 51/3/38 45/3/38 48/7/38
f 50/7/39 48/7/39 46/4/39
f 47/2/40 45/3/40 51/3/40
f 42/2/41 49/2/41 51/3/41
f 50/7/42 52/4/42 43/4/42
f 51/3/43 50/7/43 44/7/43
f 43/4/44 52/4/44 49/2/44
f 33/6/45 34/1/45 4/3/45
f 35/8/46 8/4/46 36/5/46
f 3/3/47 34/6/47 7/2/47
f 35/6/48 33/1/48 8/3/48
f 2/4/49 6/7/49 1/2/49
f 12/7/6 11/4/6 9/3/6
f 19/2/7 17/3/7 10/2/7
f 12/7/8 20/7/8 11/4/8
f 9/3/9 17/3/9 12/7/9
f 18/4/10 19/2/10 11/4/10
f 2/4/50 1/2/50 15/4/50
f 13/3/51 5/3/51 16/7/51
f 16/7/52 6/7/52 15/4/52
f 1/2/53 5/3/53 14/2/53
f 24/4/15 21/2/15 18/4/15
f 17/3/16 23/3/16 20/7/16
f 22/7/17 24/4/17 20/7/17
f 21/2/18 23/3/18 19/2/18
f 21/2/54 14/2/54 23/3/54
f 16/7/55 15/4/55 22/7/55
f 23/3/56 13/3/56 22/7/56
f 15/4/57 14/2/57 24/4/57
f 33/6/58 28/3/58 34/1/58
f 35/8/59 36/5/59 32/4/59
f 36/1/60 34/6/60 31/2/60
f 35/6/61 32/3/61 33/1/61
f 29/3/27 30/7/27 25/2/27
f 40/7/28 37/3/28 39/4/28
f 47/2/29 38/2/29 45/3/29
f 46/4/30 48/7/30 39/4/30
f 48/7/31 45/3/31 40/7/31
f 46/4/32 39/4/32 47/2/32
f 26/4/33 43/4/33 25/2/33
f 30/7/34 29/3/34 44/7/34
f 26/4/35 30/7/35 43/4/35
f 25/2/36 42/2/36 29/3/36
f 52/4/37 46/4/37 49/2/37
f 50/7/38 51/3/38 48/7/38
f 52/4/39 50/7/39 46/4/39
f 49/2/40 47/2/40 51/3/40
f 41/3/62 42/2/62 51/3/62
f 44/7/63 50/7/63 43/4/63
f 41/3/64 51/3/64 44/7/64
f 42/2/65 43/4/65 49/2/65
