# Blender v2.76 (sub 0) OBJ File: 'handsBlock.blend'
# www.blender.org
mtllib handsBlock_000033.mtl
o Cube
v 0.429241 -0.157530 -1.971009
v 0.655484 0.130853 -2.316720
v 0.453232 -0.339655 -2.424991
v 0.667773 -0.537541 -2.185583
v 0.513170 -0.601042 -2.196959
v 0.730854 -0.316734 -2.552020
v 0.518750 0.124401 -2.317657
v 0.825536 -0.062579 -2.164060
v 2.521217 1.395788 1.523190
v 2.278982 1.476951 1.367207
v 2.446300 1.664991 1.205214
v 2.688535 1.583828 1.361197
v 3.000908 -1.018781 -0.405310
v 2.692014 -0.647108 -0.423987
v 3.049952 -0.295184 -0.825596
v 3.358812 -0.666887 -0.806967
v 2.669023 0.823539 1.419042
v 2.483725 1.489382 0.632567
v 2.069885 1.024287 1.033237
v 3.082863 1.288634 1.018371
v 2.436109 0.660190 0.638701
v 2.930516 0.789211 0.631447
v 2.728532 0.562211 0.827003
v 2.638093 0.887191 0.443146
v -0.789894 0.008874 2.033310
v -0.577005 0.470439 2.088238
v -0.609019 0.147196 2.355495
v -0.477061 -0.150820 2.391352
v -0.569177 -0.144676 2.468152
v -0.356288 0.316889 2.523080
v -0.649980 0.470016 2.138125
v -0.517823 0.172099 2.174044
v 0.342731 -0.353772 0.003799
v -0.349472 -0.349472 -0.000446
v 0.401680 0.269716 0.055728
v -0.260755 0.405917 -0.056498
v 2.561874 1.342730 -1.270314
v 2.337118 1.239081 -1.438651
v 2.146276 1.419341 -1.294840
v 2.371032 1.522991 -1.126503
v 1.832291 -1.149814 0.974199
v 1.552886 -0.955436 0.423735
v 1.822381 -0.371142 0.493269
v 2.101787 -0.565521 1.043733
v 2.779685 0.917461 -0.907179
v 1.751755 1.106949 -0.967844
v 2.223779 0.661095 -1.323541
v 2.307661 1.363315 -0.551480
v 2.143230 0.414966 -0.727489
v 2.184170 0.757701 -0.350669
v 2.414551 0.540092 -0.524274
v 1.912848 0.632576 -0.553884
vt 1.000000 0.500000
vt 1.000000 1.000000
vt 0.000000 1.000000
vt 0.500000 0.000000
vt 1.000000 0.000000
vt 0.000000 0.500000
vt 0.000000 0.000000
vt 0.500000 1.000000
vn -0.547200 -0.816400 -0.184500
vn 0.529600 0.847800 -0.025800
vn -0.938600 0.085400 -0.334200
vn 0.933700 -0.317600 0.165300
vn -0.876200 0.076600 -0.475800
vn -0.180600 0.729300 0.660000
vn -0.584900 -0.289000 0.757900
vn 0.442100 0.865200 -0.236400
vn 0.672100 0.039000 0.739500
vn -0.814800 0.537200 -0.218000
vn -0.194300 0.817100 0.542800
vn 0.233300 -0.823800 -0.516600
vn 0.526400 0.463400 -0.712900
vn -0.572100 -0.440700 0.691700
vn -0.715700 0.035900 -0.697500
vn 0.825800 -0.480600 0.295100
vn 0.587400 0.376000 -0.716600
vn -0.477300 -0.820600 0.314200
vn -0.665700 -0.526700 0.528600
vn 0.538700 0.696400 -0.474200
vn 0.822600 -0.258400 0.506500
vn -0.808400 0.267800 -0.524100
vn -0.913600 -0.406300 -0.015000
vn 0.897500 0.415800 0.147000
vn -0.982300 -0.173000 -0.071800
vn 0.907900 0.306800 0.285700
vn -0.800100 0.307800 0.514800
vn 0.172300 0.719300 -0.673000
vn 0.653800 -0.269100 -0.707200
vn -0.517600 0.837400 0.175500
vn 0.757900 0.602300 0.250800
vn -0.621700 -0.033900 -0.782500
vn -0.449700 0.307200 -0.838700
vn 0.413500 -0.293300 0.862000
vn 0.398200 0.909500 0.119100
vn -0.434400 -0.895600 -0.095700
vn -0.767700 -0.549100 -0.330500
vn 0.662600 0.110500 0.740800
vn -0.659800 0.354300 0.662700
vn 0.554700 -0.792800 -0.252400
vn 0.626900 -0.641500 -0.442100
vn -0.642500 0.580200 0.500600
vn 0.767400 0.441800 0.464600
vn -0.766100 -0.429700 -0.478000
vn -0.006700 -0.996600 0.082700
vn 0.209200 0.976600 -0.049500
vn -0.929900 0.202300 -0.307100
vn 0.973300 -0.108900 0.202100
vn -0.870300 0.106300 -0.480900
vn -0.197100 0.812400 0.548700
vn 0.232600 -0.824800 -0.515300
vn 0.541300 0.413100 -0.732300
vn -0.567300 -0.456500 0.685400
vn -0.568900 -0.582900 0.580100
vn 0.722500 0.581700 -0.373700
vn 0.808600 -0.268600 0.523400
vn -0.822400 0.257700 -0.507200
vn -0.006700 -0.996600 0.082400
vn 0.179800 0.976000 0.123000
vn -0.979000 0.101900 -0.176600
vn 0.912800 -0.118800 0.390700
vn 0.561000 -0.649000 -0.513900
vn -0.618300 0.588000 0.521500
vn 0.907700 -0.406100 -0.105300
vn -0.909000 0.415800 0.028900
usemtl Material
s off
f 34/1/1 3/2/1 4/3/1
f 35/4/2 8/5/2 7/2/2
f 34/6/3 36/1/3 7/2/3
f 33/1/4 4/2/4 8/3/4
f 6/7/5 5/3/5 1/2/5
f 11/5/6 10/2/6 9/3/6
f 17/3/7 9/3/7 10/2/7
f 20/7/8 18/5/8 11/5/8
f 17/3/9 20/7/9 12/7/9
f 19/2/10 10/2/10 11/5/10
f 1/2/11 14/2/11 15/5/11
f 5/3/12 6/7/12 16/7/12
f 6/7/13 2/5/13 15/5/13
f 5/3/14 13/3/14 14/2/14
f 21/2/15 19/2/15 18/5/15
f 22/7/16 20/7/16 17/3/16
f 24/5/17 18/5/17 20/7/17
f 23/3/18 17/3/18 19/2/18
f 14/2/19 13/3/19 23/3/19
f 15/5/20 24/5/20 22/7/20
f 13/3/21 16/7/21 22/7/21
f 14/2/22 21/2/22 24/5/22
f 28/3/23 27/2/23 34/1/23
f 36/8/24 31/2/24 32/5/24
f 34/6/25 27/3/25 31/2/25
f 32/3/26 28/2/26 33/1/26
f 26/5/27 25/2/27 29/3/27
f 37/3/28 38/2/28 39/5/28
f 38/2/29 37/3/29 45/3/29
f 40/7/30 39/5/30 46/5/30
f 45/3/31 37/3/31 40/7/31
f 39/5/32 38/2/32 47/2/32
f 43/5/33 42/2/33 25/2/33
f 41/3/34 44/7/34 30/7/34
f 30/7/35 44/7/35 43/5/35
f 42/2/36 41/3/36 29/3/36
f 52/5/37 46/5/37 47/2/37
f 51/3/38 45/3/38 48/7/38
f 48/7/39 46/5/39 52/5/39
f 47/2/40 45/3/40 51/3/40
f 42/2/41 49/2/41 51/3/41
f 50/7/42 52/5/42 43/5/42
f 51/3/43 50/7/43 44/7/43
f 43/5/44 52/5/44 49/2/44
f 33/6/45 34/1/45 4/3/45
f 36/8/46 35/4/46 7/2/46
f 3/3/47 34/6/47 7/2/47
f 35/6/48 33/1/48 8/3/48
f 2/5/49 6/7/49 1/2/49
f 12/7/6 11/5/6 9/3/6
f 19/2/7 17/3/7 10/2/7
f 12/7/8 20/7/8 11/5/8
f 9/3/9 17/3/9 12/7/9
f 18/5/10 19/2/10 11/5/10
f 2/5/50 1/2/50 15/5/50
f 13/3/51 5/3/51 16/7/51
f 16/7/52 6/7/52 15/5/52
f 1/2/53 5/3/53 14/2/53
f 24/5/15 21/2/15 18/5/15
f 23/3/16 22/7/16 17/3/16
f 22/7/17 24/5/17 20/7/17
f 21/2/18 23/3/18 19/2/18
f 21/2/54 14/2/54 23/3/54
f 16/7/55 15/5/55 22/7/55
f 23/3/56 13/3/56 22/7/56
f 15/5/57 14/2/57 24/5/57
f 33/6/58 28/3/58 34/1/58
f 35/4/59 36/8/59 32/5/59
f 36/1/60 34/6/60 31/2/60
f 35/6/61 32/3/61 33/1/61
f 30/7/27 26/5/27 29/3/27
f 40/7/28 37/3/28 39/5/28
f 47/2/29 38/2/29 45/3/29
f 48/7/30 40/7/30 46/5/30
f 48/7/31 45/3/31 40/7/31
f 46/5/32 39/5/32 47/2/32
f 26/5/33 43/5/33 25/2/33
f 29/3/34 41/3/34 30/7/34
f 26/5/35 30/7/35 43/5/35
f 25/2/36 42/2/36 29/3/36
f 49/2/37 52/5/37 47/2/37
f 50/7/38 51/3/38 48/7/38
f 50/7/39 48/7/39 52/5/39
f 49/2/40 47/2/40 51/3/40
f 41/3/62 42/2/62 51/3/62
f 44/7/63 50/7/63 43/5/63
f 41/3/64 51/3/64 44/7/64
f 42/2/65 43/5/65 49/2/65
