# Blender v2.76 (sub 0) OBJ File: 'handsBlock.blend'
# www.blender.org
mtllib handsBlock_000006.mtl
o Cube
v 0.609940 -0.085072 -1.973430
v 0.776147 0.005917 -2.440294
v 0.350364 -0.381349 -2.423927
v 0.657104 -0.526189 -2.174442
v 0.351190 -0.504828 -2.081383
v 0.504913 -0.412621 -2.552714
v 0.574530 0.068965 -2.373151
v 0.846319 -0.053553 -2.163852
v 4.463407 0.122211 0.053002
v 4.256191 0.321562 -0.030168
v 4.406666 0.372099 -0.283938
v 4.613882 0.172749 -0.200768
v 2.771180 -2.204831 -1.171991
v 2.720112 -1.724244 -1.190230
v 2.992863 -1.659501 -1.768739
v 3.043870 -2.140096 -1.750524
v 4.239744 -0.434441 0.069618
v 4.099401 0.183626 -0.763761
v 3.727221 0.058628 -0.136091
v 4.611924 -0.309443 -0.558052
v 3.647155 -0.465764 -0.511518
v 4.078954 -0.645410 -0.717465
v 3.897303 -0.706417 -0.411117
v 3.828806 -0.404756 -0.817867
v -0.674279 0.111662 1.928951
v -0.387699 0.460555 2.168797
v -0.666803 0.100612 2.400897
v -0.571683 -0.141075 2.344306
v -0.758446 -0.125235 2.374120
v -0.471866 0.223657 2.613967
v -0.555388 0.465103 2.178343
v -0.460058 0.223482 2.121865
v 0.342731 -0.353772 0.003799
v -0.349472 -0.349472 -0.000446
v 0.401680 0.269716 0.055728
v -0.260755 0.405917 -0.056498
v 4.098202 0.215296 0.861182
v 3.967843 0.206745 0.591869
v 3.796474 0.440246 0.667405
v 3.926834 0.448798 0.936718
v 1.627054 -1.899078 1.959251
v 1.733600 -1.599190 1.395712
v 2.096381 -1.157527 1.699333
v 1.989835 -1.457416 2.262872
v 3.964293 -0.270898 1.186523
v 3.218004 0.285490 0.707239
v 3.641865 -0.292049 0.520410
v 3.540432 0.306641 1.373352
v 3.204626 -0.508843 0.949557
v 3.155120 -0.216639 1.365854
v 3.361994 -0.498520 1.274669
v 2.997753 -0.226962 1.040742
vt 1.000000 0.500000
vt 1.000000 1.000000
vt 0.000000 1.000000
vt 1.000000 0.000000
vt 0.500000 1.000000
vt 0.000000 0.000000
vt 0.000000 0.500000
vt 0.500000 0.000000
vn -0.362600 -0.927300 -0.092500
vn 0.403100 0.915100 0.012200
vn -0.818300 0.448000 -0.360200
vn 0.915000 -0.369900 0.161300
vn -0.821200 0.547500 -0.160700
vn 0.517700 0.726600 0.451700
vn -0.257300 0.132000 0.957300
vn 0.666400 0.442200 -0.600400
vn 0.840500 -0.324800 0.433700
vn -0.431400 0.898900 -0.076800
vn 0.501500 0.801400 0.326100
vn -0.464500 -0.828200 -0.313500
vn 0.321100 0.046000 -0.945900
vn -0.353000 -0.002000 0.935600
vn -0.817100 0.412800 -0.402300
vn 0.501500 -0.855800 0.126900
vn 0.321000 -0.060700 -0.945100
vn -0.636600 -0.382300 0.669800
vn -0.536600 -0.025000 0.843500
vn 0.550900 0.239000 -0.799600
vn 0.702400 -0.663900 0.256800
vn -0.694600 0.662700 -0.279900
vn -0.933500 -0.354000 -0.057000
vn 0.933000 0.341500 0.114000
vn -0.966900 0.195200 -0.164400
vn 0.927900 -0.059600 0.368000
vn -0.811600 0.565300 0.147400
vn 0.694700 0.625000 -0.356100
vn 0.800400 -0.469700 -0.372500
vn -0.251500 0.963600 0.091100
vn 0.674500 0.273200 0.685900
vn -0.125600 0.220700 -0.967200
vn 0.146200 0.476100 -0.867200
vn -0.183000 -0.450400 0.873900
vn 0.542000 0.695100 0.472400
vn -0.578800 -0.669400 -0.465700
vn -0.626500 -0.217700 -0.748400
vn 0.203000 -0.163300 0.965500
vn -0.757000 0.552400 0.348900
vn 0.333500 -0.933500 -0.131800
vn 0.532800 -0.813800 -0.232100
vn -0.593300 0.760800 0.263000
vn 0.526800 0.114200 0.842300
vn -0.515300 -0.103000 -0.850800
vn -0.006700 -0.996900 0.077900
vn 0.216300 0.971400 -0.098100
vn -0.956400 0.091700 -0.277400
vn 0.971400 -0.109400 0.210500
vn -0.804000 0.568200 -0.175500
vn 0.499500 0.799500 0.333700
vn -0.464900 -0.828600 -0.311900
vn 0.298500 -0.004500 -0.954400
vn -0.360100 -0.017900 0.932700
vn -0.470500 -0.124600 0.873600
vn 0.673600 0.043500 -0.737900
vn 0.694100 -0.663500 0.279400
vn -0.702900 0.663200 -0.257200
vn -0.006700 -0.996100 0.087900
vn 0.184300 0.977900 0.098800
vn -0.985500 0.105900 -0.132700
vn 0.917400 -0.118400 0.380000
vn 0.512700 -0.794400 -0.325800
vn -0.581600 0.758600 0.293700
vn 0.665100 -0.708500 0.236000
vn -0.625100 0.720300 -0.300800
usemtl Material
s off
f 34/1/1 3/2/1 4/3/1
f 8/4/2 7/2/2 36/5/2
f 36/1/3 7/2/3 3/3/3
f 33/1/4 4/2/4 8/3/4
f 6/6/5 5/3/5 1/2/5
f 11/4/6 10/2/6 9/3/6
f 19/2/7 17/3/7 9/3/7
f 20/6/8 18/4/8 11/4/8
f 17/3/9 20/6/9 12/6/9
f 19/2/10 10/2/10 11/4/10
f 1/2/11 14/2/11 15/4/11
f 5/3/12 6/6/12 16/6/12
f 6/6/13 2/4/13 15/4/13
f 5/3/14 13/3/14 14/2/14
f 21/2/15 19/2/15 18/4/15
f 23/3/16 22/6/16 20/6/16
f 22/6/17 24/4/17 18/4/17
f 23/3/18 17/3/18 19/2/18
f 14/2/19 13/3/19 23/3/19
f 15/4/20 24/4/20 22/6/20
f 13/3/21 16/6/21 22/6/21
f 14/2/22 21/2/22 24/4/22
f 28/3/23 27/2/23 34/1/23
f 36/5/24 31/2/24 32/4/24
f 34/7/25 27/3/25 31/2/25
f 32/3/26 28/2/26 33/1/26
f 30/6/27 26/4/27 25/2/27
f 40/6/28 37/3/28 38/2/28
f 38/2/29 37/3/29 45/3/29
f 48/6/30 40/6/30 39/4/30
f 37/3/31 40/6/31 48/6/31
f 39/4/32 38/2/32 47/2/32
f 26/4/33 43/4/33 42/2/33
f 41/3/34 44/6/34 30/6/34
f 30/6/35 44/6/35 43/4/35
f 42/2/36 41/3/36 29/3/36
f 52/4/37 46/4/37 47/2/37
f 51/3/38 45/3/38 48/6/38
f 48/6/39 46/4/39 52/4/39
f 47/2/40 45/3/40 51/3/40
f 42/2/41 49/2/41 51/3/41
f 50/6/42 52/4/42 43/4/42
f 51/3/43 50/6/43 44/6/43
f 43/4/44 52/4/44 49/2/44
f 33/7/45 34/1/45 4/3/45
f 35/8/46 8/4/46 36/5/46
f 34/7/47 36/1/47 3/3/47
f 35/7/48 33/1/48 8/3/48
f 2/4/49 6/6/49 1/2/49
f 12/6/6 11/4/6 9/3/6
f 10/2/7 19/2/7 9/3/7
f 12/6/8 20/6/8 11/4/8
f 9/3/9 17/3/9 12/6/9
f 18/4/10 19/2/10 11/4/10
f 2/4/50 1/2/50 15/4/50
f 13/3/51 5/3/51 16/6/51
f 16/6/52 6/6/52 15/4/52
f 1/2/53 5/3/53 14/2/53
f 24/4/15 21/2/15 18/4/15
f 17/3/16 23/3/16 20/6/16
f 20/6/17 22/6/17 18/4/17
f 21/2/18 23/3/18 19/2/18
f 21/2/54 14/2/54 23/3/54
f 16/6/55 15/4/55 22/6/55
f 23/3/56 13/3/56 22/6/56
f 15/4/57 14/2/57 24/4/57
f 33/7/58 28/3/58 34/1/58
f 35/8/59 36/5/59 32/4/59
f 36/1/60 34/7/60 31/2/60
f 35/7/61 32/3/61 33/1/61
f 29/3/27 30/6/27 25/2/27
f 39/4/28 40/6/28 38/2/28
f 47/2/29 38/2/29 45/3/29
f 46/4/30 48/6/30 39/4/30
f 45/3/31 37/3/31 48/6/31
f 46/4/32 39/4/32 47/2/32
f 25/2/33 26/4/33 42/2/33
f 29/3/34 41/3/34 30/6/34
f 26/4/35 30/6/35 43/4/35
f 25/2/36 42/2/36 29/3/36
f 49/2/37 52/4/37 47/2/37
f 50/6/38 51/3/38 48/6/38
f 50/6/39 48/6/39 52/4/39
f 49/2/40 47/2/40 51/3/40
f 41/3/62 42/2/62 51/3/62
f 44/6/63 50/6/63 43/4/63
f 41/3/64 51/3/64 44/6/64
f 42/2/65 43/4/65 49/2/65
