# Blender v2.76 (sub 0) OBJ File: 'handsAttack.blend'
# www.blender.org
mtllib handsAttack_000001.mtl
o Cube
v 0.649023 -0.084119 -1.990702
v 0.773178 -0.035797 -2.476566
v 0.312098 -0.380000 -2.417533
v 0.646713 -0.520967 -2.174735
v 0.321174 -0.463489 -2.048829
v 0.432718 -0.412242 -2.537857
v 0.567806 0.050969 -2.390540
v 0.842118 -0.052023 -2.169265
v 4.690956 -0.388097 -0.394332
v 4.506682 -0.163028 -0.464925
v 4.633373 -0.144155 -0.735460
v 4.817647 -0.369222 -0.664867
v 2.553208 -2.476677 -1.314070
v 2.570818 -1.995104 -1.351224
v 2.783274 -1.992104 -1.957911
v 2.765600 -2.473676 -1.920775
v 4.392540 -0.904292 -0.326116
v 4.250116 -0.300929 -1.169854
v 3.936760 -0.347613 -0.500719
v 4.705894 -0.857608 -0.995252
v 3.740083 -0.866677 -0.838706
v 4.115476 -1.115591 -1.080073
v 3.962537 -1.138376 -0.753487
v 3.893023 -0.843892 -1.165292
v -0.620453 0.128884 1.918722
v -0.338104 0.444159 2.205534
v -0.674480 0.089955 2.410005
v -0.576821 -0.134688 2.328573
v -0.781719 -0.110552 2.340674
v -0.499370 0.204723 2.627487
v -0.524816 0.455800 2.198825
v -0.426950 0.231213 2.117516
v 0.342767 -0.353767 0.003736
v -0.349472 -0.349472 -0.000446
v 0.401846 0.269884 0.054423
v -0.261240 0.405844 -0.055648
v 4.248212 -0.183782 1.472928
v 4.153980 -0.173329 1.189014
v 3.996038 0.073384 1.250520
v 4.090271 0.062931 1.534435
v 1.474369 -2.082579 2.166260
v 1.678515 -1.779477 1.632111
v 2.035940 -1.380372 1.995187
v 1.831795 -1.683474 2.529336
v 4.029445 -0.663029 1.760373
v 3.405720 -0.026958 1.210277
v 3.796370 -0.637173 1.058147
v 3.638795 -0.052814 1.912501
v 3.288929 -0.822211 1.419548
v 3.212022 -0.537001 1.836533
v 3.402687 -0.834830 1.762284
v 3.098265 -0.524381 1.493797
vt 1.000000 0.500000
vt 1.000000 1.000000
vt 0.000000 1.000000
vt 1.000000 0.000000
vt 0.500000 1.000000
vt 0.000000 0.000000
vt 0.000000 0.500000
vt 0.500000 0.000000
vn -0.336900 -0.938100 -0.080400
vn 0.361000 0.932500 -0.013500
vn -0.793500 0.493100 -0.356700
vn 0.911100 -0.381500 0.156400
vn -0.745100 0.659300 -0.100900
vn 0.664700 0.656200 0.357100
vn -0.126200 0.201300 0.971400
vn 0.651400 0.317200 -0.689200
vn 0.828200 -0.431500 0.357700
vn -0.302900 0.950000 -0.075600
vn 0.646600 0.727300 0.230000
vn -0.612800 -0.759200 -0.219300
vn 0.216100 -0.036600 -0.975700
vn -0.242900 0.083400 0.966500
vn -0.789000 0.516100 -0.333500
vn 0.383700 -0.916200 0.115800
vn 0.200500 -0.140000 -0.969600
vn -0.605700 -0.260100 0.751900
vn -0.437000 0.085100 0.895500
vn 0.486200 0.126900 -0.864600
vn 0.623200 -0.752100 0.214400
vn -0.618700 0.748900 -0.237500
vn -0.922800 -0.381300 -0.054900
vn 0.924900 0.366800 0.100000
vn -0.942500 0.282500 -0.178600
vn 0.913200 -0.157100 0.376000
vn -0.771700 0.632800 0.064100
vn 0.789000 0.565200 -0.241100
vn 0.796400 -0.533900 -0.284000
vn -0.173000 0.980500 0.093500
vn 0.600900 0.191200 0.776100
vn 0.022500 0.255400 -0.966600
vn 0.297900 0.482500 -0.823700
vn -0.332800 -0.453900 0.826600
vn 0.534600 0.630800 0.562300
vn -0.569600 -0.602200 -0.559400
vn -0.540300 -0.139000 -0.829900
vn 0.059300 -0.205600 0.976800
vn -0.743100 0.612700 0.269200
vn 0.262000 -0.957300 -0.122200
vn 0.482700 -0.854600 -0.191700
vn -0.550400 0.807500 0.212400
vn 0.419700 0.042600 0.906700
vn -0.405500 -0.031800 -0.913500
vn -0.006600 -0.997100 0.075600
vn 0.215500 0.971600 -0.098000
vn -0.960100 0.092900 -0.263900
vn 0.972000 -0.109000 0.208200
vn -0.726800 0.676600 -0.118400
vn 0.645400 0.726100 0.237100
vn -0.613000 -0.759300 -0.218300
vn 0.186200 -0.082300 -0.979100
vn -0.251800 0.069700 0.965300
vn -0.382400 -0.023300 0.923700
vn 0.586100 -0.083700 -0.805900
vn 0.617800 -0.749800 0.237000
vn -0.624000 0.751300 -0.214800
vn -0.006700 -0.995800 0.091200
vn 0.185200 0.978300 0.092700
vn -0.987300 0.106700 -0.117800
vn 0.922300 -0.117300 0.368300
vn 0.476700 -0.830200 -0.288900
vn -0.542200 0.802700 0.248300
vn 0.561800 -0.772500 0.296000
vn -0.511800 0.782000 -0.355800
usemtl Material
s off
f 34/1/1 3/2/1 4/3/1
f 8/4/2 7/2/2 36/5/2
f 36/1/3 7/2/3 3/3/3
f 33/1/4 4/2/4 8/3/4
f 6/6/5 5/3/5 1/2/5
f 11/4/6 10/2/6 9/3/6
f 19/2/7 17/3/7 9/3/7
f 20/6/8 18/4/8 11/4/8
f 17/3/9 20/6/9 12/6/9
f 19/2/10 10/2/10 11/4/10
f 1/2/11 14/2/11 15/4/11
f 5/3/12 6/6/12 16/6/12
f 6/6/13 2/4/13 15/4/13
f 5/3/14 13/3/14 14/2/14
f 24/4/15 21/2/15 19/2/15
f 23/3/16 22/6/16 20/6/16
f 22/6/17 24/4/17 18/4/17
f 23/3/18 17/3/18 19/2/18
f 14/2/19 13/3/19 23/3/19
f 15/4/20 24/4/20 22/6/20
f 13/3/21 16/6/21 22/6/21
f 14/2/22 21/2/22 24/4/22
f 28/3/23 27/2/23 34/1/23
f 36/5/24 31/2/24 32/4/24
f 34/7/25 27/3/25 31/2/25
f 32/3/26 28/2/26 33/1/26
f 30/6/27 26/4/27 25/2/27
f 37/3/28 38/2/28 39/4/28
f 47/2/29 38/2/29 37/3/29
f 40/6/30 39/4/30 46/4/30
f 45/3/31 37/3/31 40/6/31
f 39/4/32 38/2/32 47/2/32
f 43/4/33 42/2/33 25/2/33
f 41/3/34 44/6/34 30/6/34
f 30/6/35 44/6/35 43/4/35
f 42/2/36 41/3/36 29/3/36
f 52/4/37 46/4/37 47/2/37
f 51/3/38 45/3/38 48/6/38
f 48/6/39 46/4/39 52/4/39
f 47/2/40 45/3/40 51/3/40
f 42/2/41 49/2/41 51/3/41
f 50/6/42 52/4/42 43/4/42
f 51/3/43 50/6/43 44/6/43
f 43/4/44 52/4/44 49/2/44
f 33/7/45 34/1/45 4/3/45
f 35/8/46 8/4/46 36/5/46
f 34/7/47 36/1/47 3/3/47
f 35/7/48 33/1/48 8/3/48
f 2/4/49 6/6/49 1/2/49
f 12/6/6 11/4/6 9/3/6
f 10/2/7 19/2/7 9/3/7
f 12/6/8 20/6/8 11/4/8
f 9/3/9 17/3/9 12/6/9
f 18/4/10 19/2/10 11/4/10
f 2/4/50 1/2/50 15/4/50
f 13/3/51 5/3/51 16/6/51
f 16/6/52 6/6/52 15/4/52
f 1/2/53 5/3/53 14/2/53
f 18/4/15 24/4/15 19/2/15
f 17/3/16 23/3/16 20/6/16
f 20/6/17 22/6/17 18/4/17
f 21/2/18 23/3/18 19/2/18
f 21/2/54 14/2/54 23/3/54
f 16/6/55 15/4/55 22/6/55
f 23/3/56 13/3/56 22/6/56
f 15/4/57 14/2/57 24/4/57
f 33/7/58 28/3/58 34/1/58
f 35/8/59 36/5/59 32/4/59
f 36/1/60 34/7/60 31/2/60
f 35/7/61 32/3/61 33/1/61
f 29/3/27 30/6/27 25/2/27
f 40/6/28 37/3/28 39/4/28
f 45/3/29 47/2/29 37/3/29
f 48/6/30 40/6/30 46/4/30
f 48/6/31 45/3/31 40/6/31
f 46/4/32 39/4/32 47/2/32
f 26/4/33 43/4/33 25/2/33
f 29/3/34 41/3/34 30/6/34
f 26/4/35 30/6/35 43/4/35
f 25/2/36 42/2/36 29/3/36
f 49/2/37 52/4/37 47/2/37
f 50/6/38 51/3/38 48/6/38
f 50/6/39 48/6/39 52/4/39
f 49/2/40 47/2/40 51/3/40
f 41/3/62 42/2/62 51/3/62
f 44/6/63 50/6/63 43/4/63
f 41/3/64 51/3/64 44/6/64
f 42/2/65 43/4/65 49/2/65
