# Blender v2.76 (sub 0) OBJ File: 'handsAttack.blend'
# www.blender.org
mtllib handsAttack_000024.mtl
o Cube
v -1.372589 0.087306 -1.596750
v -1.711859 0.196526 -1.932696
v -1.926195 -0.174131 -1.535417
v -1.540408 -0.302082 -1.719227
v -1.630106 -0.280858 -1.374954
v -1.977913 -0.171299 -1.697536
v -1.755060 0.262103 -1.694980
v -1.433652 0.181075 -1.824064
v 2.191713 -0.280589 -3.223688
v 2.068193 -0.142803 -2.988415
v 1.916777 0.037332 -3.173401
v 2.040297 -0.100453 -3.408676
v -0.039975 -2.376463 -3.082691
v -0.004142 -1.994419 -2.978478
v -0.396049 -1.781627 -3.407445
v -0.431929 -2.163682 -3.511593
v 2.005840 -0.849439 -3.268673
v 1.325821 -0.063099 -3.144296
v 1.700329 -0.508642 -2.686751
v 1.631332 -0.403896 -3.726219
v 1.234184 -0.868225 -2.961985
v 1.200508 -0.817101 -3.469320
v 1.383295 -1.034558 -3.246005
v 1.051397 -0.650767 -3.185300
v 1.960716 0.047480 0.801643
v 2.055609 0.448992 1.103577
v 1.990965 -0.015926 1.438047
v 2.069286 -0.210967 1.064576
v 1.981240 -0.262634 1.207584
v 2.076133 0.138877 1.509517
v 1.969206 0.394489 1.235226
v 2.047621 0.199566 0.861727
v 0.341270 -0.351259 -0.011971
v -0.349472 -0.349472 -0.000446
v 0.270997 0.319601 -0.195827
v -0.241721 0.371656 0.154104
v 7.879118 0.058962 0.016007
v 7.762921 0.095613 -0.257399
v 7.711303 0.384156 -0.196781
v 7.827501 0.347505 0.076624
v 4.916764 -0.728246 0.789072
v 4.890781 -0.335673 0.275193
v 5.010906 0.172600 0.657410
v 5.036888 -0.219974 1.171289
v 7.538553 -0.301680 0.353816
v 7.123482 0.502649 -0.172490
v 7.251153 -0.211028 -0.322422
v 7.410882 0.411996 0.503747
v 6.756056 -0.191356 0.098099
v 6.834016 0.112725 0.501329
v 6.896327 -0.235600 0.428151
v 6.693745 0.156970 0.171275
vt 1.000000 0.500000
vt 1.000000 1.000000
vt 0.000000 1.000000
vt 1.000000 0.000000
vt 0.500000 1.000000
vt 0.000000 0.500000
vt 0.000000 0.000000
vt 0.500000 0.000000
vn -0.248300 -0.957700 0.145600
vn 0.166200 0.967000 -0.193300
vn -0.773100 -0.020300 0.633900
vn 0.664200 -0.132100 -0.735800
vn -0.388900 0.659500 0.643300
vn 0.757500 0.652600 0.015500
vn 0.764000 -0.295000 0.573900
vn -0.165400 0.810700 -0.561600
vn 0.678400 -0.165000 -0.716000
vn -0.079800 0.680700 0.728200
vn 0.690200 0.656200 -0.305100
vn -0.559900 -0.751700 0.348400
vn -0.705000 0.058000 -0.706800
vn 0.516600 -0.270100 0.812500
vn -0.623900 0.239500 0.743900
vn 0.162100 -0.637400 -0.753300
vn -0.712700 0.374200 -0.593300
vn 0.250900 -0.772100 0.583900
vn 0.363000 -0.276700 0.889700
vn -0.425700 0.665400 -0.613200
vn 0.467000 -0.544300 -0.696800
vn -0.421800 0.452300 0.785800
vn -0.191300 -0.885900 0.422500
vn 0.036200 0.994800 -0.095000
vn -0.408300 0.386900 0.826800
vn 0.514500 -0.357900 -0.779200
vn -0.981800 0.123700 0.144100
vn 0.905300 0.236100 -0.353100
vn 0.516100 -0.792300 -0.325500
vn 0.199200 0.978800 0.046500
vn 0.714300 -0.019200 0.699600
vn 0.001000 0.205800 -0.978600
vn -0.062400 0.609200 -0.790500
vn 0.017900 -0.603600 0.797100
vn 0.163300 0.787900 0.593700
vn -0.207800 -0.782300 -0.587200
vn -0.645700 0.044600 -0.762300
vn 0.093700 -0.188600 0.977600
vn -0.440200 0.846100 0.300500
vn -0.111700 -0.990100 -0.085200
vn 0.199200 -0.956500 -0.212900
vn 0.042400 0.992500 0.115000
vn 0.367100 -0.127900 0.921300
vn -0.107100 0.186000 -0.976700
vn -0.003000 -0.999700 -0.025500
vn 0.025200 0.993500 -0.110900
vn -0.587800 0.471100 0.657600
vn 0.672300 -0.295800 -0.678600
vn -0.393500 0.680100 0.618500
vn 0.607400 0.693200 -0.388000
vn -0.660400 -0.707100 0.252700
vn -0.570100 0.265500 -0.777500
vn 0.681800 -0.036700 0.730600
vn 0.524300 -0.585600 0.618200
vn -0.202700 0.275200 -0.939800
vn 0.374200 -0.492500 -0.785800
vn -0.500200 0.501600 0.705800
vn 0.001200 -0.974600 0.224000
vn 0.293000 0.871500 -0.393300
vn -0.509500 -0.106800 0.853800
vn 0.493900 -0.181300 -0.850400
vn 0.003800 -0.794600 -0.607200
vn 0.077700 0.794100 0.602700
vn 0.287200 -0.618100 0.731700
vn -0.212700 0.618900 -0.756100
usemtl Material
s off
f 34/1/1 3/2/1 4/3/1
f 8/4/2 7/2/2 36/5/2
f 34/6/3 36/1/3 7/2/3
f 35/6/4 33/1/4 4/2/4
f 6/7/5 5/3/5 1/2/5
f 12/7/6 11/4/6 10/2/6
f 19/2/7 17/3/7 9/3/7
f 20/7/8 18/4/8 11/4/8
f 17/3/9 20/7/9 12/7/9
f 19/2/10 10/2/10 11/4/10
f 1/2/11 14/2/11 15/4/11
f 5/3/12 6/7/12 16/7/12
f 6/7/13 2/4/13 15/4/13
f 5/3/14 13/3/14 14/2/14
f 24/4/15 21/2/15 19/2/15
f 23/3/16 22/7/16 20/7/16
f 22/7/17 24/4/17 18/4/17
f 23/3/18 17/3/18 19/2/18
f 14/2/19 13/3/19 23/3/19
f 15/4/20 24/4/20 22/7/20
f 13/3/21 16/7/21 22/7/21
f 14/2/22 21/2/22 24/4/22
f 33/6/23 28/3/23 27/2/23
f 35/8/24 36/5/24 31/2/24
f 27/3/25 31/2/25 36/1/25
f 32/3/26 28/2/26 33/1/26
f 30/7/27 26/4/27 25/2/27
f 37/3/28 38/2/28 39/4/28
f 38/2/29 37/3/29 45/3/29
f 48/7/30 40/7/30 39/4/30
f 45/3/31 37/3/31 40/7/31
f 39/4/32 38/2/32 47/2/32
f 43/4/33 42/2/33 25/2/33
f 29/3/34 41/3/34 44/7/34
f 30/7/35 44/7/35 43/4/35
f 42/2/36 41/3/36 29/3/36
f 52/4/37 46/4/37 47/2/37
f 51/3/38 45/3/38 48/7/38
f 48/7/39 46/4/39 52/4/39
f 49/2/40 47/2/40 45/3/40
f 49/2/41 51/3/41 41/3/41
f 50/7/42 52/4/42 43/4/42
f 51/3/43 50/7/43 44/7/43
f 52/4/44 49/2/44 42/2/44
f 33/6/45 34/1/45 4/3/45
f 35/8/46 8/4/46 36/5/46
f 3/3/47 34/6/47 7/2/47
f 8/3/48 35/6/48 4/2/48
f 2/4/49 6/7/49 1/2/49
f 9/3/6 12/7/6 10/2/6
f 10/2/7 19/2/7 9/3/7
f 12/7/8 20/7/8 11/4/8
f 9/3/9 17/3/9 12/7/9
f 18/4/10 19/2/10 11/4/10
f 2/4/50 1/2/50 15/4/50
f 13/3/51 5/3/51 16/7/51
f 16/7/52 6/7/52 15/4/52
f 1/2/53 5/3/53 14/2/53
f 18/4/15 24/4/15 19/2/15
f 17/3/16 23/3/16 20/7/16
f 20/7/17 22/7/17 18/4/17
f 21/2/18 23/3/18 19/2/18
f 21/2/54 14/2/54 23/3/54
f 16/7/55 15/4/55 22/7/55
f 23/3/56 13/3/56 22/7/56
f 15/4/57 14/2/57 24/4/57
f 34/1/58 33/6/58 27/2/58
f 32/4/59 35/8/59 31/2/59
f 34/6/60 27/3/60 36/1/60
f 35/6/61 32/3/61 33/1/61
f 29/3/27 30/7/27 25/2/27
f 40/7/28 37/3/28 39/4/28
f 47/2/29 38/2/29 45/3/29
f 46/4/30 48/7/30 39/4/30
f 48/7/31 45/3/31 40/7/31
f 46/4/32 39/4/32 47/2/32
f 26/4/33 43/4/33 25/2/33
f 30/7/34 29/3/34 44/7/34
f 26/4/35 30/7/35 43/4/35
f 25/2/36 42/2/36 29/3/36
f 49/2/37 52/4/37 47/2/37
f 50/7/38 51/3/38 48/7/38
f 50/7/39 48/7/39 52/4/39
f 51/3/40 49/2/40 45/3/40
f 42/2/62 49/2/62 41/3/62
f 44/7/63 50/7/63 43/4/63
f 41/3/64 51/3/64 44/7/64
f 43/4/65 52/4/65 42/2/65
