# Blender v2.76 (sub 0) OBJ File: 'handsBlock.blend'
# www.blender.org
mtllib handsBlock_000108.mtl
o Cube
v 0.651283 -0.084691 -1.985381
v 0.783748 -0.031026 -2.468536
v 0.326776 -0.381662 -2.417176
v 0.656468 -0.522857 -2.171910
v 0.332734 -0.470580 -2.051829
v 0.452608 -0.414233 -2.538390
v 0.578312 0.052385 -2.385935
v 0.851154 -0.053361 -2.165145
v 4.670863 -0.314170 -0.315377
v 4.483682 -0.092394 -0.388688
v 4.615210 -0.069954 -0.656629
v 4.802392 -0.291730 -0.583318
v 2.592346 -2.440098 -1.284683
v 2.600904 -1.957780 -1.319328
v 2.824959 -1.947521 -1.921783
v 2.816336 -2.429840 -1.887157
v 4.381204 -0.836290 -0.254956
v 4.243553 -0.232250 -1.099002
v 3.918233 -0.287753 -0.436281
v 4.706523 -0.780787 -0.917678
v 3.738211 -0.809084 -0.780012
v 4.122953 -1.049720 -1.014967
v 3.964175 -1.076809 -0.691511
v 3.896991 -0.781994 -1.103467
v -0.638768 0.128965 1.917030
v -0.354801 0.448222 2.197776
v -0.683872 0.093056 2.405551
v -0.587445 -0.133814 2.328514
v -0.789983 -0.110723 2.342546
v -0.506016 0.208533 2.623292
v -0.538946 0.458946 2.192815
v -0.442312 0.232133 2.115901
v 0.342731 -0.353772 0.003799
v -0.349472 -0.349472 -0.000446
v 0.401680 0.269716 0.055728
v -0.260755 0.405917 -0.056498
v 4.216811 -0.123785 1.381388
v 4.117029 -0.115658 1.099301
v 3.956732 0.128957 1.163050
v 4.056515 0.120830 1.445138
v 1.483711 -2.059147 2.134680
v 1.675132 -1.755725 1.596021
v 2.034605 -1.351579 1.951417
v 1.843185 -1.655001 2.490076
v 4.010546 -0.605159 1.674468
v 3.367269 0.019968 1.134435
v 3.763745 -0.585059 0.976759
v 3.614070 -0.000132 1.832144
v 3.266039 -0.776171 1.348389
v 3.192987 -0.490685 1.765879
v 3.386495 -0.785981 1.688921
v 3.072531 -0.480874 1.425346
vt 1.000000 0.500000
vt 1.000000 1.000000
vt 0.000000 1.000000
vt 1.000000 0.000000
vt 0.500000 1.000000
vt 0.000000 0.000000
vt 0.000000 0.500000
vt 0.500000 0.000000
vn -0.339800 -0.936900 -0.082600
vn 0.367500 0.930000 -0.008800
vn -0.795600 0.487000 -0.360500
vn 0.910900 -0.380000 0.160900
vn -0.756800 0.644000 -0.111900
vn 0.644900 0.667400 0.372500
vn -0.148900 0.194800 0.969500
vn 0.658400 0.332500 -0.675200
vn 0.829200 -0.417000 0.372100
vn -0.319700 0.944300 -0.077900
vn 0.626600 0.739600 0.245600
vn -0.592300 -0.770600 -0.235200
vn 0.235500 -0.026400 -0.971500
vn -0.262400 0.073800 0.962100
vn -0.792200 0.502200 -0.346800
vn 0.399000 -0.909100 0.119700
vn 0.221900 -0.132000 -0.966100
vn -0.615100 -0.274900 0.739000
vn -0.455100 0.071800 0.887500
vn 0.500300 0.139800 -0.854500
vn 0.633600 -0.740800 0.223000
vn -0.628300 0.737900 -0.246600
vn -0.925800 -0.373100 -0.060100
vn 0.927300 0.359000 0.106200
vn -0.945900 0.269400 -0.181000
vn 0.914300 -0.142200 0.379300
vn -0.777200 0.624700 0.075700
vn 0.775900 0.575700 -0.257900
vn 0.798500 -0.523300 -0.297500
vn -0.185400 0.978200 0.093800
vn 0.612800 0.202500 0.763900
vn 0.000300 0.252400 -0.967600
vn 0.278100 0.482900 -0.830400
vn -0.313300 -0.454600 0.833800
vn 0.537700 0.638400 0.550700
vn -0.572900 -0.610100 -0.547300
vn -0.554000 -0.149600 -0.818900
vn 0.081000 -0.201400 0.976200
vn -0.746600 0.602800 0.281500
vn 0.273500 -0.953800 -0.124200
vn 0.491300 -0.848100 -0.198200
vn -0.558800 0.799400 0.220700
vn 0.436800 0.052200 0.898000
vn -0.423600 -0.041800 -0.904900
vn -0.006700 -0.997000 0.076500
vn 0.216300 0.971400 -0.097600
vn -0.958600 0.092600 -0.269500
vn 0.971000 -0.109500 0.212400
vn -0.738600 0.661700 -0.129000
vn 0.625200 0.738200 0.253400
vn -0.592700 -0.770900 -0.233500
vn 0.206000 -0.073700 -0.975800
vn -0.271600 0.058800 0.960600
vn 0.221900 -0.132100 -0.966100
vn -0.399600 -0.034500 0.916000
vn 0.602500 -0.067900 -0.795200
vn 0.627600 -0.738600 0.246200
vn -0.634300 0.740200 -0.223300
vn -0.006700 -0.995800 0.091500
vn 0.185200 0.978200 0.093700
vn -0.986500 0.106600 -0.124500
vn 0.919600 -0.118100 0.374600
vn 0.483400 -0.825000 -0.292900
vn -0.550800 0.795600 0.252400
vn 0.578300 -0.764600 0.284600
vn -0.530500 0.774600 -0.344300
usemtl Material
s off
f 34/1/1 3/2/1 4/3/1
f 8/4/2 7/2/2 36/5/2
f 36/1/3 7/2/3 3/3/3
f 33/1/4 4/2/4 8/3/4
f 6/6/5 5/3/5 1/2/5
f 12/6/6 11/4/6 10/2/6
f 19/2/7 17/3/7 9/3/7
f 20/6/8 18/4/8 11/4/8
f 17/3/9 20/6/9 12/6/9
f 19/2/10 10/2/10 11/4/10
f 1/2/11 14/2/11 15/4/11
f 5/3/12 6/6/12 16/6/12
f 6/6/13 2/4/13 15/4/13
f 5/3/14 13/3/14 14/2/14
f 21/2/15 19/2/15 18/4/15
f 23/3/16 22/6/16 20/6/16
f 24/4/17 18/4/17 20/6/17
f 23/3/18 17/3/18 19/2/18
f 14/2/19 13/3/19 23/3/19
f 15/4/20 24/4/20 22/6/20
f 13/3/21 16/6/21 22/6/21
f 14/2/22 21/2/22 24/4/22
f 28/3/23 27/2/23 34/1/23
f 36/5/24 31/2/24 32/4/24
f 34/7/25 27/3/25 31/2/25
f 32/3/26 28/2/26 33/1/26
f 26/4/27 25/2/27 29/3/27
f 37/3/28 38/2/28 39/4/28
f 47/2/29 38/2/29 37/3/29
f 48/6/30 40/6/30 39/4/30
f 45/3/31 37/3/31 40/6/31
f 39/4/32 38/2/32 47/2/32
f 43/4/33 42/2/33 25/2/33
f 41/3/34 44/6/34 30/6/34
f 30/6/35 44/6/35 43/4/35
f 42/2/36 41/3/36 29/3/36
f 52/4/37 46/4/37 47/2/37
f 51/3/38 45/3/38 48/6/38
f 48/6/39 46/4/39 52/4/39
f 47/2/40 45/3/40 51/3/40
f 42/2/41 49/2/41 51/3/41
f 50/6/42 52/4/42 43/4/42
f 51/3/43 50/6/43 44/6/43
f 43/4/44 52/4/44 49/2/44
f 33/7/45 34/1/45 4/3/45
f 35/8/46 8/4/46 36/5/46
f 34/7/47 36/1/47 3/3/47
f 35/7/48 33/1/48 8/3/48
f 2/4/49 6/6/49 1/2/49
f 9/3/6 12/6/6 10/2/6
f 10/2/7 19/2/7 9/3/7
f 12/6/8 20/6/8 11/4/8
f 9/3/9 17/3/9 12/6/9
f 18/4/10 19/2/10 11/4/10
f 2/4/50 1/2/50 15/4/50
f 13/3/51 5/3/51 16/6/51
f 16/6/52 6/6/52 15/4/52
f 1/2/53 5/3/53 14/2/53
f 24/4/15 21/2/15 18/4/15
f 17/3/16 23/3/16 20/6/16
f 22/6/54 24/4/54 20/6/54
f 21/2/18 23/3/18 19/2/18
f 21/2/55 14/2/55 23/3/55
f 16/6/56 15/4/56 22/6/56
f 23/3/57 13/3/57 22/6/57
f 15/4/58 14/2/58 24/4/58
f 33/7/59 28/3/59 34/1/59
f 35/8/60 36/5/60 32/4/60
f 36/1/61 34/7/61 31/2/61
f 35/7/62 32/3/62 33/1/62
f 30/6/27 26/4/27 29/3/27
f 40/6/28 37/3/28 39/4/28
f 45/3/29 47/2/29 37/3/29
f 46/4/30 48/6/30 39/4/30
f 48/6/31 45/3/31 40/6/31
f 46/4/32 39/4/32 47/2/32
f 26/4/33 43/4/33 25/2/33
f 29/3/34 41/3/34 30/6/34
f 26/4/35 30/6/35 43/4/35
f 25/2/36 42/2/36 29/3/36
f 49/2/37 52/4/37 47/2/37
f 50/6/38 51/3/38 48/6/38
f 50/6/39 48/6/39 52/4/39
f 49/2/40 47/2/40 51/3/40
f 41/3/63 42/2/63 51/3/63
f 44/6/64 50/6/64 43/4/64
f 41/3/65 51/3/65 44/6/65
f 42/2/66 43/4/66 49/2/66
