# Blender v2.76 (sub 0) OBJ File: 'handsAttack.blend'
# www.blender.org
mtllib handsAttack_000021.mtl
o Cube
v -1.375603 0.087420 -1.594181
v -1.715491 0.196689 -1.929443
v -1.929084 -0.174026 -1.531804
v -1.543619 -0.301908 -1.716376
v -1.632728 -0.280739 -1.371938
v -1.981127 -0.171139 -1.693815
v -1.758273 0.262227 -1.691618
v -1.437116 0.181277 -1.821315
v 2.185857 -0.280892 -3.225914
v 2.062802 -0.143342 -2.990259
v 1.911077 0.037025 -3.174767
v 2.034133 -0.100525 -3.410422
v -0.045944 -2.376302 -3.082948
v -0.009877 -1.994512 -2.978623
v -0.402546 -1.781436 -3.406641
v -0.438660 -2.163238 -3.510902
v 1.999792 -0.849657 -3.271179
v 1.320156 -0.063326 -3.144674
v 1.695428 -0.509443 -2.688315
v 1.624519 -0.403540 -3.727537
v 1.228704 -0.868635 -2.963078
v 1.194096 -0.816946 -3.470293
v 1.377256 -1.034683 -3.247558
v 1.045545 -0.650897 -3.185814
v 1.963313 0.048358 0.796953
v 2.057933 0.449720 1.099170
v 1.993883 -0.015425 1.433510
v 2.071824 -0.210272 1.059609
v 1.984125 -0.262040 1.202663
v 2.078745 0.139322 1.504881
v 1.971857 0.395125 1.230899
v 2.049892 0.200397 0.856971
v 0.341250 -0.351253 -0.011993
v -0.349472 -0.349472 -0.000446
v 0.270521 0.319685 -0.196075
v -0.241460 0.371581 0.154407
v 7.881703 0.059938 0.008552
v 7.765292 0.096753 -0.264741
v 7.713921 0.385312 -0.203986
v 7.830333 0.348496 0.069306
v 4.919956 -0.725082 0.783455
v 4.893609 -0.332150 0.269868
v 5.013389 0.175934 0.652444
v 5.039735 -0.216998 1.166031
v 7.541193 -0.300582 0.346545
v 7.126201 0.504192 -0.179142
v 7.253261 -0.209523 -0.329410
v 7.414133 0.413132 0.496814
v 6.758546 -0.189651 0.091550
v 6.837064 0.114250 0.494806
v 6.899077 -0.234094 0.421465
v 6.696533 0.158693 0.164890
vt 1.000000 0.500000
vt 1.000000 1.000000
vt 0.000000 1.000000
vt 1.000000 0.000000
vt 0.500000 1.000000
vt 0.000000 0.500000
vt 0.000000 0.000000
vt 0.500000 0.000000
vn -0.247900 -0.957700 0.145900
vn 0.165600 0.967000 -0.193400
vn -0.771900 -0.020800 0.635400
vn 0.662900 -0.132300 -0.736900
vn -0.387600 0.659500 0.644100
vn 0.757700 0.652500 0.014800
vn 0.765000 -0.295800 0.572100
vn -0.166300 0.811300 -0.560400
vn 0.677000 -0.164400 -0.717400
vn -0.078300 0.679900 0.729100
vn 0.689800 0.656100 -0.306200
vn -0.559300 -0.751700 0.349400
vn -0.706300 0.058100 -0.705500
vn 0.517700 -0.270700 0.811600
vn -0.622500 0.238800 0.745300
vn 0.160600 -0.636600 -0.754300
vn -0.713700 0.375000 -0.591600
vn 0.251800 -0.772800 0.582600
vn 0.364300 -0.277300 0.889000
vn -0.426800 0.666100 -0.611700
vn 0.465700 -0.543800 -0.698100
vn -0.420300 0.451500 0.787000
vn -0.189400 -0.886400 0.422400
vn 0.035700 0.994800 -0.095200
vn -0.406700 0.386700 0.827700
vn 0.512500 -0.357800 -0.780600
vn -0.981900 0.122800 0.144300
vn 0.905100 0.235600 -0.353800
vn 0.515300 -0.792500 -0.326200
vn 0.199900 0.978700 0.046700
vn 0.714900 -0.019900 0.699000
vn 0.000300 0.206100 -0.978500
vn -0.062900 0.609800 -0.790100
vn 0.018500 -0.604200 0.796600
vn 0.162800 0.787600 0.594200
vn -0.207300 -0.782100 -0.587700
vn -0.646300 0.045300 -0.761700
vn 0.094500 -0.189000 0.977400
vn -0.439400 0.846300 0.301200
vn -0.112500 -0.990000 -0.085400
vn 0.198300 -0.956600 -0.213300
vn 0.043500 0.992400 0.115100
vn 0.367600 -0.128500 0.921000
vn -0.107600 0.186400 -0.976600
vn -0.003000 -0.999700 -0.025600
vn 0.024900 0.993500 -0.110800
vn -0.586500 0.471000 0.658900
vn 0.671100 -0.295600 -0.679900
vn -0.392300 0.680100 0.619400
vn 0.606700 0.693200 -0.389100
vn -0.660100 -0.707000 0.253700
vn -0.571100 0.266100 -0.776500
vn 0.683200 -0.036900 0.729300
vn 0.525300 -0.586400 0.616600
vn -0.204100 0.275800 -0.939300
vn 0.372500 -0.491700 -0.787000
vn -0.499000 0.501000 0.707100
vn 0.001200 -0.974400 0.224900
vn 0.291200 0.872000 -0.393300
vn -0.507700 -0.107500 0.854800
vn 0.491800 -0.181800 -0.851500
vn 0.002600 -0.794200 -0.607700
vn 0.079000 0.793700 0.603200
vn 0.287200 -0.618500 0.731400
vn -0.212600 0.619300 -0.755900
usemtl Material
s off
f 34/1/1 3/2/1 4/3/1
f 8/4/2 7/2/2 36/5/2
f 34/6/3 36/1/3 7/2/3
f 35/6/4 33/1/4 4/2/4
f 6/7/5 5/3/5 1/2/5
f 11/4/6 10/2/6 9/3/6
f 17/3/7 9/3/7 10/2/7
f 20/7/8 18/4/8 11/4/8
f 17/3/9 20/7/9 12/7/9
f 19/2/10 10/2/10 11/4/10
f 1/2/11 14/2/11 15/4/11
f 5/3/12 6/7/12 16/7/12
f 6/7/13 2/4/13 15/4/13
f 5/3/14 13/3/14 14/2/14
f 24/4/15 21/2/15 19/2/15
f 23/3/16 22/7/16 20/7/16
f 24/4/17 18/4/17 20/7/17
f 23/3/18 17/3/18 19/2/18
f 14/2/19 13/3/19 23/3/19
f 15/4/20 24/4/20 22/7/20
f 13/3/21 16/7/21 22/7/21
f 14/2/22 21/2/22 24/4/22
f 33/6/23 28/3/23 27/2/23
f 35/8/24 36/5/24 31/2/24
f 27/3/25 31/2/25 36/1/25
f 32/3/26 28/2/26 33/1/26
f 26/4/27 25/2/27 29/3/27
f 37/3/28 38/2/28 39/4/28
f 38/2/29 37/3/29 45/3/29
f 48/7/30 40/7/30 39/4/30
f 37/3/31 40/7/31 48/7/31
f 39/4/32 38/2/32 47/2/32
f 43/4/33 42/2/33 25/2/33
f 41/3/34 44/7/34 30/7/34
f 30/7/35 44/7/35 43/4/35
f 42/2/36 41/3/36 29/3/36
f 52/4/37 46/4/37 47/2/37
f 45/3/38 48/7/38 50/7/38
f 50/7/39 48/7/39 46/4/39
f 47/2/40 45/3/40 51/3/40
f 49/2/41 51/3/41 41/3/41
f 50/7/42 52/4/42 43/4/42
f 51/3/43 50/7/43 44/7/43
f 52/4/44 49/2/44 42/2/44
f 33/6/45 34/1/45 4/3/45
f 35/8/46 8/4/46 36/5/46
f 3/3/47 34/6/47 7/2/47
f 8/3/48 35/6/48 4/2/48
f 2/4/49 6/7/49 1/2/49
f 12/7/6 11/4/6 9/3/6
f 19/2/7 17/3/7 10/2/7
f 12/7/8 20/7/8 11/4/8
f 9/3/9 17/3/9 12/7/9
f 18/4/10 19/2/10 11/4/10
f 2/4/50 1/2/50 15/4/50
f 13/3/51 5/3/51 16/7/51
f 16/7/52 6/7/52 15/4/52
f 1/2/53 5/3/53 14/2/53
f 18/4/15 24/4/15 19/2/15
f 17/3/16 23/3/16 20/7/16
f 22/7/17 24/4/17 20/7/17
f 21/2/18 23/3/18 19/2/18
f 21/2/54 14/2/54 23/3/54
f 16/7/55 15/4/55 22/7/55
f 23/3/56 13/3/56 22/7/56
f 15/4/57 14/2/57 24/4/57
f 34/1/58 33/6/58 27/2/58
f 32/4/59 35/8/59 31/2/59
f 34/6/60 27/3/60 36/1/60
f 35/6/61 32/3/61 33/1/61
f 30/7/27 26/4/27 29/3/27
f 40/7/28 37/3/28 39/4/28
f 47/2/29 38/2/29 45/3/29
f 46/4/30 48/7/30 39/4/30
f 45/3/31 37/3/31 48/7/31
f 46/4/32 39/4/32 47/2/32
f 26/4/33 43/4/33 25/2/33
f 29/3/34 41/3/34 30/7/34
f 26/4/35 30/7/35 43/4/35
f 25/2/36 42/2/36 29/3/36
f 49/2/37 52/4/37 47/2/37
f 51/3/38 45/3/38 50/7/38
f 52/4/39 50/7/39 46/4/39
f 49/2/40 47/2/40 51/3/40
f 42/2/62 49/2/62 41/3/62
f 44/7/63 50/7/63 43/4/63
f 41/3/64 51/3/64 44/7/64
f 43/4/65 52/4/65 42/2/65
