# Blender v2.76 (sub 0) OBJ File: 'handsAttack.blend'
# www.blender.org
mtllib handsAttack_000030.mtl
o Cube
v -1.209301 0.080099 -1.722482
v -1.514646 0.186428 -2.092419
v -1.766582 -0.181184 -1.715609
v -1.366087 -0.312516 -1.859010
v -1.486007 -0.288359 -1.524672
v -1.801154 -0.181286 -1.882468
v -1.579291 0.254077 -1.861431
v -1.246418 0.169124 -1.957909
v 2.495258 -0.268531 -3.092493
v 2.348901 -0.118763 -2.878612
v 2.215293 0.048938 -3.087470
v 2.361650 -0.100830 -3.301350
v 0.269745 -2.385842 -3.052460
v 0.293956 -1.990957 -2.955294
v -0.055371 -1.793460 -3.431251
v -0.079635 -2.188354 -3.528358
v 2.317220 -0.840881 -3.122143
v 1.624762 -0.055660 -3.109717
v 1.955222 -0.470449 -2.593134
v 1.986759 -0.426093 -3.638727
v 1.519579 -0.849917 -2.890731
v 1.534971 -0.828267 -3.401054
v 1.696260 -1.030714 -3.148925
v 1.358292 -0.647469 -3.142861
v 1.808999 0.006122 1.039041
v 1.919269 0.413905 1.327024
v 1.823305 -0.038970 1.666319
v 1.919910 -0.243665 1.316576
v 1.813967 -0.289684 1.456000
v 1.924236 0.118099 1.743983
v 1.816062 0.364467 1.453431
v 1.912780 0.159890 1.103666
v 0.342221 -0.351548 -0.010725
v -0.349472 -0.349472 -0.000446
v 0.295099 0.315099 -0.181461
v -0.254448 0.375574 0.137493
v 7.716347 0.008834 0.386494
v 7.610553 0.037215 0.107930
v 7.546223 0.324570 0.161638
v 7.652017 0.296189 0.440203
v 4.729211 -0.894519 1.075518
v 4.722922 -0.520059 0.547692
v 4.862513 -0.003847 0.912248
v 4.868801 -0.378307 1.440075
v 7.374850 -0.358839 0.715675
v 6.954067 0.422098 0.159521
v 7.113180 -0.288641 0.026679
v 7.215737 0.351900 0.848516
v 6.600410 -0.280647 0.425861
v 6.650465 0.031983 0.826977
v 6.728123 -0.314909 0.762141
v 6.522751 0.066244 0.490698
vt 1.000000 0.500000
vt 1.000000 1.000000
vt 0.000000 1.000000
vt 1.000000 0.000000
vt 0.500000 1.000000
vt 0.000000 0.500000
vt 0.000000 0.000000
vt 0.500000 0.000000
vn -0.267600 -0.955100 0.127400
vn 0.192100 0.963600 -0.185900
vn -0.833700 0.004200 0.552300
vn 0.727700 -0.121500 -0.675100
vn -0.453600 0.661300 0.597400
vn 0.749500 0.660100 0.050600
vn 0.706100 -0.253900 0.661000
vn -0.114000 0.775500 -0.621000
vn 0.745300 -0.198900 -0.636400
vn -0.153100 0.720400 0.676400
vn 0.708900 0.661000 -0.246000
vn -0.591200 -0.750100 0.296300
vn -0.634300 0.053900 -0.771200
vn 0.459300 -0.238700 0.855600
vn -0.694100 0.275300 0.665100
vn 0.237200 -0.677800 -0.696000
vn -0.653600 0.332400 -0.680000
vn 0.196600 -0.734800 0.649100
vn 0.295500 -0.245300 0.923300
vn -0.366500 0.625500 -0.688800
vn 0.530500 -0.571100 -0.626400
vn -0.496900 0.493300 0.714000
vn -0.295200 -0.857900 0.420600
vn 0.059800 0.994500 -0.085600
vn -0.490100 0.399900 0.774500
vn 0.615000 -0.359400 -0.701800
vn -0.976400 0.170400 0.132500
vn 0.910400 0.263400 -0.318900
vn 0.557100 -0.777800 -0.290800
vn 0.162300 0.986000 0.038800
vn 0.684400 0.017000 0.728900
vn 0.035000 0.191200 -0.980900
vn -0.031800 0.582300 -0.812300
vn -0.012400 -0.574600 0.818400
vn 0.193500 0.801300 0.566100
vn -0.237700 -0.793500 -0.560100
vn -0.614200 0.010000 -0.789100
vn 0.059100 -0.170600 0.983600
vn -0.482200 0.834000 0.268100
vn -0.072900 -0.994600 -0.073700
vn 0.245800 -0.950500 -0.190200
vn -0.014800 0.994200 0.106900
vn 0.343900 -0.097600 0.933900
vn -0.249100 0.123800 -0.960500
vn -0.003300 -0.999800 -0.018100
vn 0.041100 0.992300 -0.117200
vn -0.653600 0.477900 0.586900
vn 0.731200 -0.306800 -0.609300
vn -0.455800 0.681800 0.572200
vn 0.640200 0.694300 -0.328900
vn -0.674500 -0.710600 0.200300
vn -0.515000 0.234400 -0.824500
vn 0.608100 -0.030800 0.793300
vn -0.694200 0.275300 0.665100
vn 0.467300 -0.541500 0.698900
vn -0.130000 0.244300 -0.960900
vn 0.454700 -0.529600 -0.716100
vn -0.561300 0.533000 0.633100
vn -0.000200 -0.983000 0.183400
vn 0.385600 0.838900 -0.384100
vn -0.600500 -0.072800 0.796300
vn 0.605000 -0.157100 -0.780600
vn 0.066200 -0.813400 -0.577900
vn 0.011200 0.815600 0.578500
vn 0.291300 -0.603200 0.742500
vn -0.127400 0.594900 -0.793600
usemtl Material
s off
f 34/1/1 3/2/1 4/3/1
f 8/4/2 7/2/2 36/5/2
f 34/6/3 36/1/3 7/2/3
f 35/6/4 33/1/4 4/2/4
f 6/7/5 5/3/5 1/2/5
f 12/7/6 11/4/6 10/2/6
f 17/3/7 9/3/7 10/2/7
f 20/7/8 18/4/8 11/4/8
f 17/3/9 20/7/9 12/7/9
f 19/2/10 10/2/10 11/4/10
f 1/2/11 14/2/11 15/4/11
f 5/3/12 6/7/12 16/7/12
f 6/7/13 2/4/13 15/4/13
f 5/3/14 13/3/14 14/2/14
f 24/4/15 21/2/15 19/2/15
f 23/3/16 22/7/16 20/7/16
f 24/4/17 18/4/17 20/7/17
f 23/3/18 17/3/18 19/2/18
f 14/2/19 13/3/19 23/3/19
f 15/4/20 24/4/20 22/7/20
f 13/3/21 16/7/21 22/7/21
f 14/2/22 21/2/22 24/4/22
f 33/6/23 28/3/23 27/2/23
f 35/8/24 36/5/24 31/2/24
f 27/3/25 31/2/25 36/1/25
f 32/3/26 28/2/26 33/1/26
f 26/4/27 25/2/27 29/3/27
f 37/3/28 38/2/28 39/4/28
f 38/2/29 37/3/29 45/3/29
f 48/7/30 40/7/30 39/4/30
f 45/3/31 37/3/31 40/7/31
f 39/4/32 38/2/32 47/2/32
f 26/4/33 43/4/33 42/2/33
f 41/3/34 44/7/34 30/7/34
f 30/7/35 44/7/35 43/4/35
f 42/2/36 41/3/36 29/3/36
f 46/4/37 47/2/37 49/2/37
f 51/3/38 45/3/38 48/7/38
f 48/7/39 46/4/39 52/4/39
f 47/2/40 45/3/40 51/3/40
f 49/2/41 51/3/41 41/3/41
f 50/7/42 52/4/42 43/4/42
f 51/3/43 50/7/43 44/7/43
f 43/4/44 52/4/44 49/2/44
f 33/6/45 34/1/45 4/3/45
f 35/8/46 8/4/46 36/5/46
f 3/3/47 34/6/47 7/2/47
f 8/3/48 35/6/48 4/2/48
f 2/4/49 6/7/49 1/2/49
f 9/3/6 12/7/6 10/2/6
f 19/2/7 17/3/7 10/2/7
f 12/7/8 20/7/8 11/4/8
f 9/3/9 17/3/9 12/7/9
f 18/4/10 19/2/10 11/4/10
f 2/4/50 1/2/50 15/4/50
f 13/3/51 5/3/51 16/7/51
f 16/7/52 6/7/52 15/4/52
f 1/2/53 5/3/53 14/2/53
f 18/4/54 24/4/54 19/2/54
f 17/3/16 23/3/16 20/7/16
f 22/7/17 24/4/17 20/7/17
f 21/2/18 23/3/18 19/2/18
f 21/2/55 14/2/55 23/3/55
f 16/7/56 15/4/56 22/7/56
f 23/3/57 13/3/57 22/7/57
f 15/4/58 14/2/58 24/4/58
f 34/1/59 33/6/59 27/2/59
f 32/4/60 35/8/60 31/2/60
f 34/6/61 27/3/61 36/1/61
f 35/6/62 32/3/62 33/1/62
f 30/7/27 26/4/27 29/3/27
f 40/7/28 37/3/28 39/4/28
f 47/2/29 38/2/29 45/3/29
f 46/4/30 48/7/30 39/4/30
f 48/7/31 45/3/31 40/7/31
f 46/4/32 39/4/32 47/2/32
f 25/2/33 26/4/33 42/2/33
f 29/3/34 41/3/34 30/7/34
f 26/4/35 30/7/35 43/4/35
f 25/2/36 42/2/36 29/3/36
f 52/4/37 46/4/37 49/2/37
f 50/7/38 51/3/38 48/7/38
f 50/7/39 48/7/39 52/4/39
f 49/2/40 47/2/40 51/3/40
f 42/2/63 49/2/63 41/3/63
f 44/7/64 50/7/64 43/4/64
f 41/3/65 51/3/65 44/7/65
f 42/2/66 43/4/66 49/2/66
