# Blender v2.76 (sub 0) OBJ File: 'handsBlock.blend'
# www.blender.org
mtllib handsBlock_000021.mtl
o Cube
v 0.422131 -0.163494 -1.973104
v 0.646892 0.134163 -2.311851
v 0.457270 -0.336241 -2.423782
v 0.668540 -0.537846 -2.186025
v 0.523118 -0.602477 -2.200909
v 0.739627 -0.309055 -2.549210
v 0.514829 0.125833 -2.315490
v 0.824734 -0.063294 -2.164326
v 2.399269 1.418041 1.574892
v 2.157966 1.493667 1.414736
v 2.323046 1.687763 1.257666
v 2.564348 1.612138 1.417822
v 2.985683 -0.965174 -0.363089
v 2.666766 -0.602243 -0.384955
v 3.022444 -0.236862 -0.776426
v 3.341329 -0.599824 -0.754609
v 2.565342 0.851127 1.469100
v 2.376814 1.518255 0.684484
v 1.968508 1.038179 1.072976
v 2.973647 1.331203 1.080608
v 2.352708 0.688027 0.682940
v 2.843288 0.831044 0.686665
v 2.644006 0.596732 0.876277
v 2.551991 0.922338 0.493327
v -0.792979 0.003386 2.039970
v -0.586916 0.468913 2.086904
v -0.607347 0.149739 2.352495
v -0.471976 -0.150258 2.392349
v -0.559008 -0.143550 2.470142
v -0.352945 0.321977 2.517076
v -0.654931 0.469252 2.137460
v -0.519363 0.169356 2.177373
v 0.342731 -0.353772 0.003799
v -0.349472 -0.349472 -0.000446
v 0.401680 0.269716 0.055728
v -0.260755 0.405917 -0.056498
v 2.452883 1.374197 -1.353067
v 2.225913 1.265598 -1.515199
v 2.035532 1.443429 -1.367800
v 2.262501 1.552029 -1.205667
v 1.822308 -1.116337 0.923448
v 1.526125 -0.930331 0.378895
v 1.786980 -0.341021 0.438308
v 2.083163 -0.527027 0.982862
v 2.686945 0.955083 -0.992900
v 1.654677 1.126322 -1.029339
v 2.125563 0.686475 -1.393915
v 2.216060 1.394929 -0.628324
v 2.063979 0.442773 -0.794614
v 2.108148 0.788550 -0.420951
v 2.337974 0.573873 -0.598890
v 1.834154 0.657450 -0.616676
vt 1.000000 0.500000
vt 1.000000 1.000000
vt 0.000000 1.000000
vt 0.500000 0.000000
vt 1.000000 0.000000
vt 0.000000 0.500000
vt 0.000000 0.000000
vt 0.500000 1.000000
vn -0.557400 -0.808200 -0.190000
vn 0.530000 0.847600 -0.026100
vn -0.939000 0.085600 -0.333000
vn 0.934500 -0.315100 0.165500
vn -0.868400 0.055900 -0.492700
vn -0.214400 0.718100 0.662100
vn -0.591300 -0.312000 0.743600
vn 0.421900 0.879400 -0.220500
vn 0.655900 0.051600 0.753100
vn -0.825300 0.515800 -0.230000
vn -0.228200 0.806500 0.545400
vn 0.266900 -0.812400 -0.518500
vn 0.527000 0.484300 -0.698400
vn -0.573000 -0.462700 0.676400
vn -0.702400 0.021700 -0.711400
vn 0.833100 -0.459500 0.307800
vn 0.590600 0.398700 -0.701600
vn -0.459900 -0.836500 0.297900
vn -0.660800 -0.549900 0.510800
vn 0.527900 0.715500 -0.457600
vn 0.819400 -0.239400 0.520900
vn -0.805200 0.249400 -0.538100
vn -0.910800 -0.412600 -0.012300
vn 0.893600 0.423700 0.148300
vn -0.979300 -0.190800 -0.066800
vn 0.903800 0.322900 0.280800
vn -0.792500 0.297100 0.532500
vn 0.143100 0.717900 -0.681300
vn 0.640800 -0.262200 -0.721500
vn -0.527700 0.829400 0.183200
vn 0.753100 0.616900 0.228500
vn -0.640000 -0.049700 -0.766700
vn -0.475500 0.294100 -0.829100
vn 0.439600 -0.280600 0.853300
vn 0.385000 0.917100 0.103800
vn -0.420900 -0.903600 -0.079700
vn -0.765800 -0.564400 -0.308200
vn 0.678500 0.126700 0.723600
vn -0.649400 0.347000 0.676700
vn 0.562100 -0.784700 -0.261300
vn 0.627000 -0.633300 -0.453600
vn -0.640100 0.572100 0.512800
vn 0.770700 0.458000 0.442900
vn -0.769900 -0.445900 -0.456500
vn -0.006700 -0.996500 0.082800
vn 0.209200 0.976600 -0.049300
vn -0.932100 0.188600 -0.309300
vn 0.973400 -0.108800 0.201800
vn -0.863300 0.085800 -0.497400
vn -0.231000 0.801700 0.551200
vn 0.266200 -0.813400 -0.517200
vn 0.543800 0.434600 -0.717900
vn -0.567600 -0.478300 0.670100
vn -0.563500 -0.603800 0.563800
vn 0.713000 0.605100 -0.354300
vn 0.805400 -0.250200 0.537300
vn -0.819200 0.238700 -0.521500
vn -0.006700 -0.996600 0.082600
vn 0.179600 0.975900 0.124100
vn -0.978600 0.101700 -0.178800
vn 0.912800 -0.118800 0.390700
vn 0.559500 -0.642400 -0.523700
vn -0.615500 0.580500 0.533100
vn 0.911800 -0.391000 -0.125200
vn -0.915100 0.400200 0.048800
usemtl Material
s off
f 34/1/1 3/2/1 4/3/1
f 35/4/2 8/5/2 7/2/2
f 34/6/3 36/1/3 7/2/3
f 33/1/4 4/2/4 8/3/4
f 6/7/5 5/3/5 1/2/5
f 12/7/6 11/5/6 10/2/6
f 17/3/7 9/3/7 10/2/7
f 20/7/8 18/5/8 11/5/8
f 20/7/9 12/7/9 9/3/9
f 19/2/10 10/2/10 11/5/10
f 1/2/11 14/2/11 15/5/11
f 5/3/12 6/7/12 16/7/12
f 6/7/13 2/5/13 15/5/13
f 5/3/14 13/3/14 14/2/14
f 21/2/15 19/2/15 18/5/15
f 22/7/16 20/7/16 17/3/16
f 22/7/17 24/5/17 18/5/17
f 23/3/18 17/3/18 19/2/18
f 14/2/19 13/3/19 23/3/19
f 15/5/20 24/5/20 22/7/20
f 13/3/21 16/7/21 22/7/21
f 14/2/22 21/2/22 24/5/22
f 28/3/23 27/2/23 34/1/23
f 36/8/24 31/2/24 32/5/24
f 34/6/25 27/3/25 31/2/25
f 32/3/26 28/2/26 33/1/26
f 26/5/27 25/2/27 29/3/27
f 40/7/28 37/3/28 38/2/28
f 38/2/29 37/3/29 45/3/29
f 40/7/30 39/5/30 46/5/30
f 37/3/31 40/7/31 48/7/31
f 39/5/32 38/2/32 47/2/32
f 43/5/33 42/2/33 25/2/33
f 29/3/34 41/3/34 44/7/34
f 30/7/35 44/7/35 43/5/35
f 42/2/36 41/3/36 29/3/36
f 52/5/37 46/5/37 47/2/37
f 51/3/38 45/3/38 48/7/38
f 50/7/39 48/7/39 46/5/39
f 47/2/40 45/3/40 51/3/40
f 42/2/41 49/2/41 51/3/41
f 50/7/42 52/5/42 43/5/42
f 51/3/43 50/7/43 44/7/43
f 43/5/44 52/5/44 49/2/44
f 33/6/45 34/1/45 4/3/45
f 36/8/46 35/4/46 7/2/46
f 3/3/47 34/6/47 7/2/47
f 35/6/48 33/1/48 8/3/48
f 2/5/49 6/7/49 1/2/49
f 9/3/6 12/7/6 10/2/6
f 19/2/7 17/3/7 10/2/7
f 12/7/8 20/7/8 11/5/8
f 17/3/9 20/7/9 9/3/9
f 18/5/10 19/2/10 11/5/10
f 2/5/50 1/2/50 15/5/50
f 13/3/51 5/3/51 16/7/51
f 16/7/52 6/7/52 15/5/52
f 1/2/53 5/3/53 14/2/53
f 24/5/15 21/2/15 18/5/15
f 23/3/16 22/7/16 17/3/16
f 20/7/17 22/7/17 18/5/17
f 21/2/18 23/3/18 19/2/18
f 21/2/54 14/2/54 23/3/54
f 16/7/55 15/5/55 22/7/55
f 23/3/56 13/3/56 22/7/56
f 15/5/57 14/2/57 24/5/57
f 33/6/58 28/3/58 34/1/58
f 35/4/59 36/8/59 32/5/59
f 36/1/60 34/6/60 31/2/60
f 35/6/61 32/3/61 33/1/61
f 30/7/27 26/5/27 29/3/27
f 39/5/28 40/7/28 38/2/28
f 47/2/29 38/2/29 45/3/29
f 48/7/30 40/7/30 46/5/30
f 45/3/31 37/3/31 48/7/31
f 46/5/32 39/5/32 47/2/32
f 26/5/33 43/5/33 25/2/33
f 30/7/34 29/3/34 44/7/34
f 26/5/35 30/7/35 43/5/35
f 25/2/36 42/2/36 29/3/36
f 49/2/37 52/5/37 47/2/37
f 50/7/38 51/3/38 48/7/38
f 52/5/39 50/7/39 46/5/39
f 49/2/40 47/2/40 51/3/40
f 41/3/62 42/2/62 51/3/62
f 44/7/63 50/7/63 43/5/63
f 41/3/64 51/3/64 44/7/64
f 42/2/65 43/5/65 49/2/65
