# Blender v2.76 (sub 0) OBJ File: 'handsBlock.blend'
# www.blender.org
mtllib handsBlock_000113.mtl
o Cube
v 0.655828 -0.085007 -1.986946
v 0.784141 -0.035272 -2.471640
v 0.324182 -0.381493 -2.416290
v 0.656438 -0.522475 -2.171632
v 0.331116 -0.466546 -2.048512
v 0.446845 -0.413961 -2.536495
v 0.578529 0.050476 -2.387342
v 0.851687 -0.053381 -2.165317
v 4.688433 -0.365342 -0.356579
v 4.503720 -0.141203 -0.428956
v 4.632832 -0.121778 -0.698304
v 4.817546 -0.345916 -0.625927
v 2.569897 -2.465161 -1.295685
v 2.585025 -1.983165 -1.332498
v 2.803081 -1.978648 -1.937220
v 2.787890 -2.460644 -1.900427
v 4.391939 -0.882982 -0.290985
v 4.254415 -0.280554 -1.136202
v 3.935072 -0.328601 -0.470001
v 4.711281 -0.834935 -0.957186
v 3.744110 -0.848717 -0.809643
v 4.122956 -1.095844 -1.047425
v 3.967094 -1.119295 -0.722270
v 3.899972 -0.825266 -1.134797
v -0.634619 0.130752 1.915969
v -0.351374 0.446628 2.201232
v -0.685855 0.092285 2.405942
v -0.589068 -0.132895 2.326647
v -0.793229 -0.108887 2.338812
v -0.509984 0.206989 2.624075
v -0.537233 0.458150 2.194542
v -0.440238 0.233027 2.115371
v 0.342731 -0.353772 0.003799
v -0.349472 -0.349472 -0.000446
v 0.401680 0.269716 0.055728
v -0.260755 0.405917 -0.056498
v 4.224846 -0.163287 1.439956
v 4.128662 -0.153417 1.156677
v 3.969742 0.092410 1.219200
v 4.065926 0.082541 1.502479
v 1.465638 -2.076695 2.153083
v 1.666422 -1.773336 1.617807
v 2.024982 -1.373470 1.978921
v 1.824198 -1.676829 2.514197
v 4.010714 -0.643710 1.728926
v 3.379745 -0.011275 1.182912
v 3.772814 -0.619301 1.028268
v 3.617645 -0.035684 1.883569
v 3.268852 -0.807137 1.393075
v 3.193118 -0.522291 1.810524
v 3.384964 -0.819050 1.735046
v 3.077006 -0.510377 1.468552
vt 1.000000 0.500000
vt 1.000000 1.000000
vt 0.000000 1.000000
vt 1.000000 0.000000
vt 0.500000 1.000000
vt 0.000000 0.000000
vt 0.000000 0.500000
vt 0.500000 0.000000
vn -0.337700 -0.937700 -0.081700
vn 0.363300 0.931600 -0.011200
vn -0.793000 0.491100 -0.360400
vn 0.910400 -0.381100 0.160800
vn -0.748600 0.654400 -0.107000
vn 0.658100 0.659600 0.363000
vn -0.136300 0.201000 0.970100
vn 0.656300 0.320200 -0.683200
vn 0.826900 -0.427300 0.365600
vn -0.306900 0.948500 -0.078700
vn 0.639600 0.731500 0.236100
vn -0.605700 -0.763000 -0.225900
vn 0.225200 -0.033800 -0.973700
vn -0.251500 0.081600 0.964400
vn -0.788400 0.512100 -0.341000
vn 0.387100 -0.914200 0.119600
vn 0.210200 -0.139300 -0.967700
vn -0.611400 -0.262900 0.746300
vn -0.445000 0.082100 0.891700
vn 0.493600 0.129000 -0.860100
vn 0.625200 -0.748900 0.219800
vn -0.620100 0.745800 -0.243500
vn -0.924600 -0.376200 -0.060200
vn 0.926200 0.362000 0.105400
vn -0.943200 0.277500 -0.182800
vn 0.912300 -0.151400 0.380400
vn -0.772500 0.631300 0.068000
vn 0.784100 0.569600 -0.246400
vn 0.797500 -0.529400 -0.289200
vn -0.177900 0.979500 0.094500
vn 0.605000 0.194700 0.772100
vn 0.014600 0.255300 -0.966700
vn 0.292700 0.482900 -0.825300
vn -0.327700 -0.454300 0.828400
vn 0.536400 0.632000 0.559400
vn -0.571400 -0.603400 -0.556300
vn -0.545100 -0.142200 -0.826200
vn 0.067000 -0.205000 0.976500
vn -0.744700 0.608500 0.274100
vn 0.266600 -0.955800 -0.123800
vn 0.486300 -0.851800 -0.194800
vn -0.554400 0.803700 0.216200
vn 0.426000 0.045600 0.903600
vn -0.412600 -0.035300 -0.910200
vn -0.006700 -0.997100 0.076400
vn 0.216300 0.971500 -0.097500
vn -0.958800 0.092700 -0.268600
vn 0.971000 -0.109500 0.212700
vn -0.730300 0.671700 -0.124400
vn -0.136200 0.201000 0.970100
vn 0.638300 0.730200 0.243900
vn -0.606000 -0.763200 -0.224100
vn 0.195000 -0.080800 -0.977500
vn -0.261000 0.066700 0.963000
vn -0.390700 -0.024900 0.920200
vn 0.593400 -0.079800 -0.801000
vn 0.619400 -0.746500 0.243000
vn -0.625800 0.748300 -0.220100
vn -0.006800 -0.995700 0.092000
vn 0.185300 0.978200 0.093200
vn -0.986600 0.106700 -0.123600
vn 0.919900 -0.118100 0.373900
vn 0.479700 -0.828300 -0.289500
vn -0.546900 0.799600 0.248000
vn 0.567900 -0.770600 0.289300
vn -0.519400 0.780300 -0.348400
usemtl Material
s off
f 34/1/1 3/2/1 4/3/1
f 8/4/2 7/2/2 36/5/2
f 36/1/3 7/2/3 3/3/3
f 33/1/4 4/2/4 8/3/4
f 6/6/5 5/3/5 1/2/5
f 11/4/6 10/2/6 9/3/6
f 17/3/7 9/3/7 10/2/7
f 20/6/8 18/4/8 11/4/8
f 17/3/9 20/6/9 12/6/9
f 19/2/10 10/2/10 11/4/10
f 1/2/11 14/2/11 15/4/11
f 5/3/12 6/6/12 16/6/12
f 6/6/13 2/4/13 15/4/13
f 5/3/14 13/3/14 14/2/14
f 21/2/15 19/2/15 18/4/15
f 23/3/16 22/6/16 20/6/16
f 22/6/17 24/4/17 18/4/17
f 23/3/18 17/3/18 19/2/18
f 14/2/19 13/3/19 23/3/19
f 15/4/20 24/4/20 22/6/20
f 13/3/21 16/6/21 22/6/21
f 14/2/22 21/2/22 24/4/22
f 28/3/23 27/2/23 34/1/23
f 36/5/24 31/2/24 32/4/24
f 34/7/25 27/3/25 31/2/25
f 32/3/26 28/2/26 33/1/26
f 30/6/27 26/4/27 25/2/27
f 40/6/28 37/3/28 38/2/28
f 38/2/29 37/3/29 45/3/29
f 48/6/30 40/6/30 39/4/30
f 45/3/31 37/3/31 40/6/31
f 39/4/32 38/2/32 47/2/32
f 43/4/33 42/2/33 25/2/33
f 29/3/34 41/3/34 44/6/34
f 44/6/35 43/4/35 26/4/35
f 42/2/36 41/3/36 29/3/36
f 46/4/37 47/2/37 49/2/37
f 51/3/38 45/3/38 48/6/38
f 48/6/39 46/4/39 52/4/39
f 47/2/40 45/3/40 51/3/40
f 42/2/41 49/2/41 51/3/41
f 50/6/42 52/4/42 43/4/42
f 51/3/43 50/6/43 44/6/43
f 43/4/44 52/4/44 49/2/44
f 33/7/45 34/1/45 4/3/45
f 35/8/46 8/4/46 36/5/46
f 34/7/47 36/1/47 3/3/47
f 35/7/48 33/1/48 8/3/48
f 2/4/49 6/6/49 1/2/49
f 12/6/6 11/4/6 9/3/6
f 19/2/50 17/3/50 10/2/50
f 12/6/8 20/6/8 11/4/8
f 9/3/9 17/3/9 12/6/9
f 18/4/10 19/2/10 11/4/10
f 2/4/51 1/2/51 15/4/51
f 13/3/52 5/3/52 16/6/52
f 16/6/53 6/6/53 15/4/53
f 1/2/54 5/3/54 14/2/54
f 24/4/15 21/2/15 18/4/15
f 17/3/16 23/3/16 20/6/16
f 20/6/17 22/6/17 18/4/17
f 21/2/18 23/3/18 19/2/18
f 21/2/55 14/2/55 23/3/55
f 16/6/56 15/4/56 22/6/56
f 23/3/57 13/3/57 22/6/57
f 15/4/58 14/2/58 24/4/58
f 33/7/59 28/3/59 34/1/59
f 35/8/60 36/5/60 32/4/60
f 36/1/61 34/7/61 31/2/61
f 35/7/62 32/3/62 33/1/62
f 29/3/27 30/6/27 25/2/27
f 39/4/28 40/6/28 38/2/28
f 47/2/29 38/2/29 45/3/29
f 46/4/30 48/6/30 39/4/30
f 48/6/31 45/3/31 40/6/31
f 46/4/32 39/4/32 47/2/32
f 26/4/33 43/4/33 25/2/33
f 30/6/34 29/3/34 44/6/34
f 30/6/35 44/6/35 26/4/35
f 25/2/36 42/2/36 29/3/36
f 52/4/37 46/4/37 49/2/37
f 50/6/38 51/3/38 48/6/38
f 50/6/39 48/6/39 52/4/39
f 49/2/40 47/2/40 51/3/40
f 41/3/63 42/2/63 51/3/63
f 44/6/64 50/6/64 43/4/64
f 41/3/65 51/3/65 44/6/65
f 42/2/66 43/4/66 49/2/66
