# Blender v2.76 (sub 0) OBJ File: 'handsAttack.blend'
# www.blender.org
mtllib handsAttack_000053.mtl
o Cube
v 0.541686 -0.071555 -2.023571
v 0.639322 -0.018636 -2.514327
v 0.181597 -0.363482 -2.433486
v 0.529658 -0.505208 -2.209838
v 0.210416 -0.449618 -2.067652
v 0.295105 -0.393797 -2.560695
v 0.437911 0.067284 -2.417111
v 0.723624 -0.035757 -2.211911
v 4.623025 -0.374946 -0.613960
v 4.430841 -0.151919 -0.668002
v 4.541983 -0.123131 -0.944434
v 4.734168 -0.346157 -0.890392
v 2.475367 -2.475959 -1.471541
v 2.486839 -1.997402 -1.500335
v 2.665677 -1.981142 -2.117099
v 2.654139 -2.459699 -2.088318
v 4.338804 -0.898864 -0.544025
v 4.138356 -0.276029 -1.361411
v 3.863461 -0.347234 -0.677690
v 4.613699 -0.827658 -1.227747
v 3.658381 -0.860950 -1.018841
v 4.024552 -1.095431 -1.287308
v 3.890384 -1.130185 -0.953603
v 3.792550 -0.826196 -1.352547
v -0.472167 0.097937 1.951964
v -0.196597 0.424582 2.232579
v -0.525278 0.067027 2.451242
v -0.419755 -0.160361 2.356414
v -0.624211 -0.139957 2.378191
v -0.348641 0.186688 2.658806
v -0.383754 0.433048 2.235354
v -0.278023 0.205720 2.140639
v 0.343171 -0.353698 0.002958
v -0.349472 -0.349472 -0.000446
v 0.403305 0.271968 0.038762
v -0.266693 0.404904 -0.045288
v 4.488412 -0.205328 1.535314
v 4.397233 -0.197258 1.250327
v 4.243320 0.053208 1.306663
v 4.334500 0.045138 1.591649
v 1.683095 -2.052808 2.215152
v 1.875567 -1.751658 1.675592
v 2.224411 -1.338159 2.030822
v 2.031939 -1.639309 2.570381
v 4.257868 -0.676210 1.827346
v 3.651664 -0.036753 1.261806
v 4.032349 -0.656250 1.122466
v 3.877183 -0.056713 1.966684
v 3.517953 -0.826579 1.481256
v 3.442222 -0.533961 1.893295
v 3.628024 -0.836320 1.825288
v 3.332152 -0.524220 1.549263
vt 1.000000 0.500000
vt 1.000000 1.000000
vt 0.000000 1.000000
vt 1.000000 0.000000
vt 0.500000 1.000000
vt 0.000000 0.000000
vt 0.000000 0.500000
vt 0.500000 0.000000
vn -0.338200 -0.938600 -0.068400
vn 0.356300 0.934000 -0.027100
vn -0.811400 0.494600 -0.311400
vn 0.919400 -0.379400 0.103500
vn -0.747900 0.661600 -0.053600
vn 0.670700 0.660000 0.338400
vn -0.076100 0.172400 0.982100
vn 0.606100 0.349100 -0.714700
vn 0.854800 -0.423700 0.299600
vn -0.324800 0.945200 -0.032200
vn 0.658800 0.722400 0.210100
vn -0.624300 -0.757000 -0.192900
vn 0.164800 -0.029400 -0.985900
vn -0.200400 0.063600 0.977600
vn -0.816000 0.508400 -0.275100
vn 0.407000 -0.910800 0.068800
vn 0.149200 -0.109600 -0.982700
vn -0.558100 -0.292800 0.776400
vn -0.396600 0.064600 0.915700
vn 0.435800 0.161000 -0.885500
vn 0.644800 -0.745900 0.167200
vn -0.645100 0.742100 -0.182100
vn -0.906000 -0.423300 0.007000
vn 0.912500 0.407000 0.041800
vn -0.947600 0.296600 -0.118300
vn 0.932400 -0.174400 0.316600
vn -0.788100 0.612600 0.060800
vn 0.801800 0.546900 -0.241000
vn 0.789100 -0.552600 -0.268100
vn -0.155600 0.984800 0.077700
vn 0.596600 0.191300 0.779400
vn 0.036900 0.240800 -0.969900
vn 0.279500 0.479100 -0.832100
vn -0.315200 -0.451300 0.834900
vn 0.521000 0.652600 0.550100
vn -0.556700 -0.624900 -0.547400
vn -0.534500 -0.141000 -0.833300
vn 0.045700 -0.192400 0.980300
vn -0.734100 0.630200 0.252700
vn 0.245300 -0.963700 -0.105800
vn 0.467500 -0.866700 -0.174100
vn -0.525700 0.828800 0.191700
vn 0.404700 0.043200 0.913400
vn -0.381900 -0.026900 -0.923800
vn -0.006400 -0.997700 0.067800
vn 0.206100 0.973000 -0.103700
vn -0.972600 0.094100 -0.212800
vn 0.982700 -0.103300 0.154000
vn -0.730500 0.679100 -0.072100
vn 0.658900 0.722600 0.209000
vn -0.623400 -0.755800 -0.200600
vn 0.142800 -0.062800 -0.987800
vn -0.201200 0.062300 0.977600
vn -0.331400 -0.057400 0.941700
vn 0.549900 -0.063300 -0.832800
vn 0.642300 -0.744900 0.180700
vn -0.647600 0.743200 -0.168200
vn -0.006500 -0.996800 0.079800
vn 0.182900 0.979000 0.090200
vn -0.993000 0.105900 -0.052300
vn 0.946700 -0.108400 0.303400
vn 0.461600 -0.834400 -0.301100
vn -0.508100 0.816400 0.274400
vn 0.546200 -0.761200 0.349700
vn -0.482500 0.768300 -0.420500
usemtl Material
s off
f 34/1/1 3/2/1 4/3/1
f 8/4/2 7/2/2 36/5/2
f 36/1/3 7/2/3 3/3/3
f 33/1/4 4/2/4 8/3/4
f 6/6/5 5/3/5 1/2/5
f 11/4/6 10/2/6 9/3/6
f 19/2/7 17/3/7 9/3/7
f 20/6/8 18/4/8 11/4/8
f 17/3/9 20/6/9 12/6/9
f 18/4/10 19/2/10 10/2/10
f 1/2/11 14/2/11 15/4/11
f 5/3/12 6/6/12 16/6/12
f 6/6/13 2/4/13 15/4/13
f 5/3/14 13/3/14 14/2/14
f 21/2/15 19/2/15 18/4/15
f 23/3/16 22/6/16 20/6/16
f 22/6/17 24/4/17 18/4/17
f 23/3/18 17/3/18 19/2/18
f 14/2/19 13/3/19 23/3/19
f 15/4/20 24/4/20 22/6/20
f 13/3/21 16/6/21 22/6/21
f 14/2/22 21/2/22 24/4/22
f 28/3/23 27/2/23 34/1/23
f 36/5/24 31/2/24 32/4/24
f 34/7/25 27/3/25 31/2/25
f 32/3/26 28/2/26 33/1/26
f 26/4/27 25/2/27 29/3/27
f 40/6/28 37/3/28 38/2/28
f 38/2/29 37/3/29 45/3/29
f 48/6/30 40/6/30 39/4/30
f 37/3/31 40/6/31 48/6/31
f 39/4/32 38/2/32 47/2/32
f 43/4/33 42/2/33 25/2/33
f 29/3/34 41/3/34 44/6/34
f 44/6/35 43/4/35 26/4/35
f 42/2/36 41/3/36 29/3/36
f 46/4/37 47/2/37 49/2/37
f 51/3/38 45/3/38 48/6/38
f 50/6/39 48/6/39 46/4/39
f 47/2/40 45/3/40 51/3/40
f 42/2/41 49/2/41 51/3/41
f 50/6/42 52/4/42 43/4/42
f 51/3/43 50/6/43 44/6/43
f 43/4/44 52/4/44 49/2/44
f 33/7/45 34/1/45 4/3/45
f 35/8/46 8/4/46 36/5/46
f 34/7/47 36/1/47 3/3/47
f 35/7/48 33/1/48 8/3/48
f 2/4/49 6/6/49 1/2/49
f 12/6/6 11/4/6 9/3/6
f 10/2/7 19/2/7 9/3/7
f 12/6/8 20/6/8 11/4/8
f 9/3/9 17/3/9 12/6/9
f 11/4/10 18/4/10 10/2/10
f 2/4/50 1/2/50 15/4/50
f 13/3/51 5/3/51 16/6/51
f 16/6/52 6/6/52 15/4/52
f 1/2/53 5/3/53 14/2/53
f 24/4/15 21/2/15 18/4/15
f 17/3/16 23/3/16 20/6/16
f 20/6/17 22/6/17 18/4/17
f 21/2/18 23/3/18 19/2/18
f 21/2/54 14/2/54 23/3/54
f 16/6/55 15/4/55 22/6/55
f 23/3/56 13/3/56 22/6/56
f 15/4/57 14/2/57 24/4/57
f 33/7/58 28/3/58 34/1/58
f 35/8/59 36/5/59 32/4/59
f 36/1/60 34/7/60 31/2/60
f 35/7/61 32/3/61 33/1/61
f 30/6/27 26/4/27 29/3/27
f 39/4/28 40/6/28 38/2/28
f 47/2/29 38/2/29 45/3/29
f 46/4/30 48/6/30 39/4/30
f 45/3/31 37/3/31 48/6/31
f 46/4/32 39/4/32 47/2/32
f 26/4/33 43/4/33 25/2/33
f 30/6/34 29/3/34 44/6/34
f 30/6/35 44/6/35 26/4/35
f 25/2/36 42/2/36 29/3/36
f 52/4/37 46/4/37 49/2/37
f 50/6/38 51/3/38 48/6/38
f 52/4/39 50/6/39 46/4/39
f 49/2/40 47/2/40 51/3/40
f 41/3/62 42/2/62 51/3/62
f 44/6/63 50/6/63 43/4/63
f 41/3/64 51/3/64 44/6/64
f 42/2/65 43/4/65 49/2/65
