# Blender v2.76 (sub 0) OBJ File: 'handsBlock.blend'
# www.blender.org
mtllib handsBlock_000007.mtl
o Cube
v 0.592913 -0.086876 -1.969667
v 0.770983 0.020283 -2.428659
v 0.360073 -0.380282 -2.426046
v 0.657550 -0.527487 -2.175487
v 0.360683 -0.517689 -2.093238
v 0.526392 -0.409890 -2.557141
v 0.572060 0.075397 -2.367894
v 0.844336 -0.053823 -2.163455
v 4.353879 0.287191 0.201464
v 4.139635 0.476837 0.113542
v 4.296378 0.539287 -0.133697
v 4.510622 0.349642 -0.045775
v 2.831994 -2.104267 -1.119200
v 2.756433 -1.626750 -1.132362
v 3.046270 -1.538428 -1.699329
v 3.121772 -2.015954 -1.686194
v 4.159328 -0.280535 0.201685
v 4.017105 0.342995 -0.627295
v 3.629421 0.188530 -0.015778
v 4.547011 -0.126070 -0.409833
v 3.590739 -0.333083 -0.401481
v 4.038589 -0.486631 -0.593808
v 3.849372 -0.562020 -0.295342
v 3.779958 -0.257693 -0.699946
v -0.687835 0.103987 1.935011
v -0.402151 0.464567 2.158052
v -0.660235 0.104002 2.398423
v -0.564668 -0.143527 2.350235
v -0.744412 -0.130135 2.385973
v -0.458727 0.230445 2.609013
v -0.562610 0.467105 2.172976
v -0.466832 0.219644 2.124896
v 0.342731 -0.353772 0.003799
v -0.349472 -0.349472 -0.000446
v 0.401680 0.269716 0.055728
v -0.260755 0.405917 -0.056498
v 4.026439 0.345289 0.652501
v 3.884525 0.329431 0.389432
v 3.709311 0.558297 0.470157
v 3.851225 0.574155 0.733225
v 1.675759 -1.832716 1.882747
v 1.747379 -1.536341 1.311875
v 2.109026 -1.079884 1.594222
v 2.037406 -1.376259 2.165092
v 3.922827 -0.140980 0.988609
v 3.138449 0.385869 0.537603
v 3.571820 -0.180203 0.337942
v 3.489456 0.425092 1.188271
v 3.161346 -0.405553 0.788579
v 3.121148 -0.110125 1.203600
v 3.332663 -0.386409 1.106152
v 2.949831 -0.129268 0.886027
vt 1.000000 0.500000
vt 1.000000 1.000000
vt 0.000000 1.000000
vt 1.000000 0.000000
vt 0.500000 1.000000
vt 0.000000 0.500000
vt 0.000000 0.000000
vt 0.500000 0.000000
vn -0.374100 -0.922200 -0.097700
vn 0.416400 0.909000 0.020000
vn -0.933600 0.083800 -0.348400
vn 0.916700 -0.365600 0.161600
vn -0.842500 0.506700 -0.183200
vn 0.462000 0.745000 0.481100
vn -0.298500 0.102700 0.948900
vn 0.663600 0.486000 -0.568700
vn 0.840100 -0.287700 0.459900
vn -0.475000 0.876400 -0.079800
vn 0.446500 0.820900 0.356100
vn -0.408600 -0.846000 -0.342500
vn 0.352500 0.078100 -0.932600
vn -0.386200 -0.035700 0.921700
vn -0.822500 0.376300 -0.426400
vn 0.540800 -0.830500 0.133100
vn 0.357900 -0.028400 -0.933300
vn -0.639600 -0.425800 0.640000
vn -0.564900 -0.066700 0.822500
vn 0.566300 0.280400 -0.775100
vn 0.726500 -0.630600 0.273100
vn -0.717900 0.630200 -0.295900
vn -0.935000 -0.350300 -0.054900
vn 0.933600 0.338600 0.117100
vn -0.973800 0.164200 -0.157200
vn 0.931600 -0.026000 0.362600
vn -0.821900 0.541200 0.177800
vn 0.657700 0.642300 -0.393500
vn 0.797600 -0.448600 -0.403200
vn -0.277900 0.956200 0.092300
vn 0.695400 0.302400 0.651900
vn -0.175700 0.205100 -0.962800
vn 0.092000 0.470100 -0.877800
vn -0.129300 -0.445600 0.885900
vn 0.540000 0.717400 0.440200
vn -0.577300 -0.692800 -0.432100
vn -0.652000 -0.246300 -0.717100
vn 0.251000 -0.145300 0.957000
vn -0.758000 0.532400 0.376800
vn 0.357000 -0.924000 -0.136900
vn 0.547700 -0.799300 -0.247300
vn -0.605000 0.744800 0.281500
vn 0.560000 0.140700 0.816500
vn -0.549200 -0.129300 -0.825600
vn -0.006700 -0.996900 0.078500
vn 0.216400 0.971300 -0.098400
vn -0.863000 0.434400 -0.258000
vn 0.971600 -0.109300 0.209700
vn -0.825800 0.528400 -0.197000
vn 0.444400 0.818800 0.363500
vn -0.409100 -0.846400 -0.340900
vn 0.332800 0.026700 -0.942600
vn -0.392400 -0.051900 0.918300
vn -0.494700 -0.163200 0.853600
vn 0.696700 0.090600 -0.711600
vn 0.717300 -0.631000 0.295400
vn -0.727000 0.629900 -0.273500
vn -0.006700 -0.996200 0.086700
vn 0.183900 0.977700 0.100900
vn -0.985000 0.105600 -0.136300
vn 0.916600 -0.118500 0.381900
vn 0.522800 -0.781600 -0.340200
vn -0.591900 0.743300 0.311600
vn 0.697300 -0.684300 0.213200
vn -0.660600 0.696600 -0.279900
usemtl Material
s off
f 34/1/1 3/2/1 4/3/1
f 8/4/2 7/2/2 36/5/2
f 34/6/3 36/1/3 7/2/3
f 33/1/4 4/2/4 8/3/4
f 6/7/5 5/3/5 1/2/5
f 12/7/6 11/4/6 10/2/6
f 17/3/7 9/3/7 10/2/7
f 20/7/8 18/4/8 11/4/8
f 17/3/9 20/7/9 12/7/9
f 19/2/10 10/2/10 11/4/10
f 1/2/11 14/2/11 15/4/11
f 5/3/12 6/7/12 16/7/12
f 6/7/13 2/4/13 15/4/13
f 5/3/14 13/3/14 14/2/14
f 21/2/15 19/2/15 18/4/15
f 23/3/16 22/7/16 20/7/16
f 24/4/17 18/4/17 20/7/17
f 23/3/18 17/3/18 19/2/18
f 14/2/19 13/3/19 23/3/19
f 15/4/20 24/4/20 22/7/20
f 13/3/21 16/7/21 22/7/21
f 14/2/22 21/2/22 24/4/22
f 28/3/23 27/2/23 34/1/23
f 36/5/24 31/2/24 32/4/24
f 34/6/25 27/3/25 31/2/25
f 32/3/26 28/2/26 33/1/26
f 30/7/27 26/4/27 25/2/27
f 37/3/28 38/2/28 39/4/28
f 47/2/29 38/2/29 37/3/29
f 48/7/30 40/7/30 39/4/30
f 45/3/31 37/3/31 40/7/31
f 39/4/32 38/2/32 47/2/32
f 43/4/33 42/2/33 25/2/33
f 41/3/34 44/7/34 30/7/34
f 30/7/35 44/7/35 43/4/35
f 42/2/36 41/3/36 29/3/36
f 52/4/37 46/4/37 47/2/37
f 45/3/38 48/7/38 50/7/38
f 50/7/39 48/7/39 46/4/39
f 47/2/40 45/3/40 51/3/40
f 42/2/41 49/2/41 51/3/41
f 50/7/42 52/4/42 43/4/42
f 51/3/43 50/7/43 44/7/43
f 43/4/44 52/4/44 49/2/44
f 33/6/45 34/1/45 4/3/45
f 35/8/46 8/4/46 36/5/46
f 3/3/47 34/6/47 7/2/47
f 35/6/48 33/1/48 8/3/48
f 2/4/49 6/7/49 1/2/49
f 9/3/6 12/7/6 10/2/6
f 19/2/7 17/3/7 10/2/7
f 12/7/8 20/7/8 11/4/8
f 9/3/9 17/3/9 12/7/9
f 18/4/10 19/2/10 11/4/10
f 2/4/50 1/2/50 15/4/50
f 13/3/51 5/3/51 16/7/51
f 16/7/52 6/7/52 15/4/52
f 1/2/53 5/3/53 14/2/53
f 24/4/15 21/2/15 18/4/15
f 17/3/16 23/3/16 20/7/16
f 22/7/17 24/4/17 20/7/17
f 21/2/18 23/3/18 19/2/18
f 21/2/54 14/2/54 23/3/54
f 16/7/55 15/4/55 22/7/55
f 23/3/56 13/3/56 22/7/56
f 15/4/57 14/2/57 24/4/57
f 33/6/58 28/3/58 34/1/58
f 35/8/59 36/5/59 32/4/59
f 36/1/60 34/6/60 31/2/60
f 35/6/61 32/3/61 33/1/61
f 29/3/27 30/7/27 25/2/27
f 40/7/28 37/3/28 39/4/28
f 45/3/29 47/2/29 37/3/29
f 46/4/30 48/7/30 39/4/30
f 48/7/31 45/3/31 40/7/31
f 46/4/32 39/4/32 47/2/32
f 26/4/33 43/4/33 25/2/33
f 29/3/34 41/3/34 30/7/34
f 26/4/35 30/7/35 43/4/35
f 25/2/36 42/2/36 29/3/36
f 49/2/37 52/4/37 47/2/37
f 51/3/38 45/3/38 50/7/38
f 52/4/39 50/7/39 46/4/39
f 49/2/40 47/2/40 51/3/40
f 41/3/62 42/2/62 51/3/62
f 44/7/63 50/7/63 43/4/63
f 41/3/64 51/3/64 44/7/64
f 42/2/65 43/4/65 49/2/65
