# Blender v2.76 (sub 0) OBJ File: 'handsBlock.blend'
# www.blender.org
mtllib handsBlock_000067.mtl
o Cube
v 0.522896 -0.104334 -1.961258
v 0.737344 0.074172 -2.380798
v 0.399966 -0.370175 -2.430724
v 0.660501 -0.532367 -2.179793
v 0.411251 -0.562990 -2.140060
v 0.614340 -0.386061 -2.566367
v 0.556334 0.099432 -2.346334
v 0.836231 -0.056093 -2.162657
v 3.756630 0.875726 0.792110
v 3.520936 1.022601 0.680434
v 3.694099 1.136126 0.464281
v 3.929793 0.989251 0.575957
v 3.003789 -1.668362 -0.863247
v 2.827908 -1.217846 -0.865757
v 3.169900 -1.025603 -1.375014
v 3.345730 -1.476140 -1.372540
v 3.693563 0.281659 0.734936
v 3.538900 0.925730 -0.075913
v 3.110602 0.644938 0.458716
v 4.121861 0.562451 0.200306
v 3.243437 0.159385 0.047696
v 3.737005 0.119125 -0.078427
v 3.527964 -0.017921 0.182511
v 3.452477 0.296432 -0.213242
v -0.737806 0.068762 1.967132
v -0.467689 0.474835 2.120501
v -0.635698 0.119781 2.384792
v -0.532349 -0.150492 2.371434
v -0.679761 -0.144046 2.428352
v -0.409644 0.262026 2.581721
v -0.595360 0.472226 2.154226
v -0.491801 0.202035 2.140958
v 0.342731 -0.353772 0.003799
v -0.349472 -0.349472 -0.000446
v 0.401680 0.269716 0.055728
v -0.260755 0.405917 -0.056498
v 3.590260 0.827939 -0.182037
v 3.406526 0.779061 -0.413227
v 3.219612 0.988294 -0.308916
v 3.403347 1.037173 -0.077727
v 1.816262 -1.554060 1.538982
v 1.742781 -1.284666 0.955126
v 2.084722 -0.770620 1.149275
v 2.158203 -1.040014 1.733132
v 3.615659 0.352826 0.183727
v 2.698905 0.749442 -0.130092
v 3.161213 0.231929 -0.388093
v 3.153351 0.870339 0.441726
v 2.873247 -0.016853 0.138718
v 2.869409 0.294738 0.543728
v 3.095049 0.042153 0.417807
v 2.647607 0.235731 0.264639
vt 1.000000 0.500000
vt 1.000000 1.000000
vt 0.000000 1.000000
vt 1.000000 0.000000
vt 0.500000 1.000000
vt 0.000000 0.500000
vt 0.000000 0.000000
vt 0.500000 0.000000
vn -0.433800 -0.892100 -0.126200
vn 0.461800 0.885800 0.046200
vn -0.934900 0.084200 -0.344900
vn 0.923700 -0.346700 0.162800
vn -0.897700 0.331600 -0.290000
vn 0.212800 0.784500 0.582500
vn -0.447400 -0.038500 0.893500
vn 0.615500 0.658300 -0.433300
vn 0.807400 -0.140900 0.572900
vn -0.639300 0.760700 -0.112600
vn 0.199200 0.865100 0.460300
vn -0.159000 -0.882700 -0.442100
vn 0.457300 0.224700 -0.860400
vn -0.497700 -0.189600 0.846400
vn -0.814800 0.228200 -0.532900
vn 0.685100 -0.706500 0.177800
vn 0.486100 0.122100 -0.865300
vn -0.615900 -0.600400 0.510200
vn -0.649000 -0.249300 0.718800
vn 0.596500 0.454100 -0.661800
vn 0.800100 -0.483900 0.354600
vn -0.788400 0.487100 -0.375800
vn -0.933900 -0.355000 -0.042200
vn 0.928000 0.349300 0.130000
vn -0.991600 0.031600 -0.125200
vn 0.935200 0.112100 0.336000
vn -0.841400 0.442600 0.310100
vn 0.483000 0.696200 -0.531000
vn 0.764500 -0.367100 -0.529900
vn -0.382800 0.917200 0.110300
vn 0.754700 0.425100 0.499700
vn -0.373100 0.125000 -0.919300
vn -0.132600 0.426200 -0.894900
vn 0.094400 -0.406100 0.908900
vn 0.509100 0.804100 0.306900
vn -0.547300 -0.784000 -0.292900
vn -0.731800 -0.367800 -0.573700
vn 0.437400 -0.056700 0.897500
vn -0.742000 0.453500 0.493800
vn 0.447500 -0.878000 -0.170000
vn 0.596500 -0.736800 -0.318300
vn -0.638800 0.677600 0.364400
vn 0.674400 0.257400 0.692100
vn -0.667100 -0.245200 -0.703400
vn -0.006700 -0.996700 0.080500
vn 0.216600 0.971100 -0.100200
vn -0.895000 0.348100 -0.279000
vn 0.972300 -0.109100 0.206500
vn -0.884500 0.357400 -0.300000
vn 0.196500 0.862000 0.467200
vn -0.159700 -0.883400 -0.440600
vn 0.451200 0.171300 -0.875900
vn -0.499600 -0.206400 0.841300
vn -0.564600 -0.331100 0.756100
vn 0.755000 0.291400 -0.587500
vn 0.788100 -0.488000 0.375100
vn -0.800300 0.483100 -0.355100
vn -0.006700 -0.996500 0.083100
vn 0.182300 0.977100 0.109800
vn -0.982900 0.104200 -0.151900
vn 0.914100 -0.118700 0.387800
vn 0.553000 -0.727800 -0.405400
vn -0.620400 0.679500 0.391600
vn 0.810100 -0.577400 0.102000
vn -0.788100 0.590200 -0.174700
usemtl Material
s off
f 34/1/1 3/2/1 4/3/1
f 8/4/2 7/2/2 36/5/2
f 34/6/3 36/1/3 7/2/3
f 33/1/4 4/2/4 8/3/4
f 6/7/5 5/3/5 1/2/5
f 11/4/6 10/2/6 9/3/6
f 19/2/7 17/3/7 9/3/7
f 18/4/8 11/4/8 12/7/8
f 17/3/9 20/7/9 12/7/9
f 19/2/10 10/2/10 11/4/10
f 1/2/11 14/2/11 15/4/11
f 5/3/12 6/7/12 16/7/12
f 6/7/13 2/4/13 15/4/13
f 5/3/14 13/3/14 14/2/14
f 24/4/15 21/2/15 19/2/15
f 23/3/16 22/7/16 20/7/16
f 24/4/17 18/4/17 20/7/17
f 23/3/18 17/3/18 19/2/18
f 14/2/19 13/3/19 23/3/19
f 15/4/20 24/4/20 22/7/20
f 13/3/21 16/7/21 22/7/21
f 14/2/22 21/2/22 24/4/22
f 28/3/23 27/2/23 34/1/23
f 36/5/24 31/2/24 32/4/24
f 34/6/25 27/3/25 31/2/25
f 32/3/26 28/2/26 33/1/26
f 30/7/27 26/4/27 25/2/27
f 37/3/28 38/2/28 39/4/28
f 38/2/29 37/3/29 45/3/29
f 48/7/30 40/7/30 39/4/30
f 37/3/31 40/7/31 48/7/31
f 39/4/32 38/2/32 47/2/32
f 26/4/33 43/4/33 42/2/33
f 29/3/34 41/3/34 44/7/34
f 30/7/35 44/7/35 43/4/35
f 42/2/36 41/3/36 29/3/36
f 46/4/37 47/2/37 49/2/37
f 51/3/38 45/3/38 48/7/38
f 50/7/39 48/7/39 46/4/39
f 49/2/40 47/2/40 45/3/40
f 42/2/41 49/2/41 51/3/41
f 50/7/42 52/4/42 43/4/42
f 51/3/43 50/7/43 44/7/43
f 43/4/44 52/4/44 49/2/44
f 33/6/45 34/1/45 4/3/45
f 35/8/46 8/4/46 36/5/46
f 3/3/47 34/6/47 7/2/47
f 35/6/48 33/1/48 8/3/48
f 2/4/49 6/7/49 1/2/49
f 12/7/6 11/4/6 9/3/6
f 10/2/7 19/2/7 9/3/7
f 20/7/8 18/4/8 12/7/8
f 9/3/9 17/3/9 12/7/9
f 18/4/10 19/2/10 11/4/10
f 2/4/50 1/2/50 15/4/50
f 13/3/51 5/3/51 16/7/51
f 16/7/52 6/7/52 15/4/52
f 1/2/53 5/3/53 14/2/53
f 18/4/15 24/4/15 19/2/15
f 17/3/16 23/3/16 20/7/16
f 22/7/17 24/4/17 20/7/17
f 21/2/18 23/3/18 19/2/18
f 21/2/54 14/2/54 23/3/54
f 16/7/55 15/4/55 22/7/55
f 23/3/56 13/3/56 22/7/56
f 15/4/57 14/2/57 24/4/57
f 33/6/58 28/3/58 34/1/58
f 35/8/59 36/5/59 32/4/59
f 36/1/60 34/6/60 31/2/60
f 35/6/61 32/3/61 33/1/61
f 29/3/27 30/7/27 25/2/27
f 40/7/28 37/3/28 39/4/28
f 47/2/29 38/2/29 45/3/29
f 46/4/30 48/7/30 39/4/30
f 45/3/31 37/3/31 48/7/31
f 46/4/32 39/4/32 47/2/32
f 25/2/33 26/4/33 42/2/33
f 30/7/34 29/3/34 44/7/34
f 26/4/35 30/7/35 43/4/35
f 25/2/36 42/2/36 29/3/36
f 52/4/37 46/4/37 49/2/37
f 50/7/38 51/3/38 48/7/38
f 52/4/39 50/7/39 46/4/39
f 51/3/40 49/2/40 45/3/40
f 41/3/62 42/2/62 51/3/62
f 44/7/63 50/7/63 43/4/63
f 41/3/64 51/3/64 44/7/64
f 42/2/65 43/4/65 49/2/65
