# Blender v2.76 (sub 0) OBJ File: 'handsBlock.blend'
# www.blender.org
mtllib handsBlock_000017.mtl
o Cube
v 0.431491 -0.155717 -1.970398
v 0.658112 0.129768 -2.318260
v 0.451955 -0.340693 -2.425344
v 0.667539 -0.537441 -2.185444
v 0.510106 -0.600533 -2.195695
v 0.728075 -0.319071 -2.552843
v 0.519950 0.123930 -2.318343
v 0.825791 -0.062361 -2.163982
v 2.558724 1.388090 1.506688
v 2.316249 1.470984 1.351993
v 2.484206 1.657123 1.188474
v 2.726681 1.574230 1.343167
v 3.005152 -1.035577 -0.418383
v 2.699432 -0.661244 -0.436127
v 3.057952 -0.313526 -0.840867
v 3.363638 -0.687889 -0.823172
v 2.700837 0.814293 1.403132
v 2.516525 1.479715 0.616071
v 2.101104 1.019322 1.020516
v 3.116258 1.274686 0.998686
v 2.461651 0.650996 0.624681
v 2.957119 0.775632 0.614028
v 2.754364 0.550927 0.811426
v 2.664407 0.875701 0.427283
v -0.788885 0.010573 2.031269
v -0.573935 0.470875 2.088703
v -0.609561 0.146410 2.356413
v -0.478634 -0.150974 2.391017
v -0.572323 -0.144986 2.467483
v -0.357373 0.315316 2.524918
v -0.648446 0.470234 2.138357
v -0.517319 0.172948 2.173023
v 0.342731 -0.353772 0.003799
v -0.349472 -0.349472 -0.000446
v 0.401680 0.269716 0.055728
v -0.260755 0.405917 -0.056498
v 2.595124 1.332490 -1.244162
v 2.371103 1.230374 -1.414406
v 2.180145 1.411394 -1.271708
v 2.404166 1.513510 -1.101465
v 1.835013 -1.160287 0.989936
v 1.560866 -0.963366 0.437734
v 1.832971 -0.380670 0.510440
v 2.107117 -0.577591 1.062642
v 2.807863 0.905367 -0.880198
v 1.781462 1.100525 -0.948326
v 2.253773 0.652794 -1.301273
v 2.335552 1.353098 -0.527249
v 2.167355 0.405985 -0.706327
v 2.207268 0.747784 -0.328548
v 2.437790 0.529259 -0.500811
v 1.936833 0.624510 -0.534063
vt 1.000000 0.500000
vt 1.000000 1.000000
vt 0.000000 1.000000
vt 1.000000 0.000000
vt 0.500000 1.000000
vt 0.000000 0.500000
vt 0.000000 0.000000
vt 0.500000 0.000000
vn -0.544000 -0.818900 -0.182800
vn 0.495700 0.866200 0.063100
vn -0.938500 0.085400 -0.334600
vn 0.933400 -0.318400 0.165200
vn -0.878400 0.083100 -0.470600
vn -0.170100 0.732500 0.659100
vn -0.582700 -0.281900 0.762300
vn 0.448300 0.860700 -0.241400
vn 0.677000 0.035000 0.735200
vn -0.811400 0.543800 -0.214400
vn -0.183700 0.820200 0.541800
vn 0.222800 -0.827200 -0.515900
vn 0.526000 0.456900 -0.717300
vn -0.571700 -0.433900 0.696300
vn -0.719700 0.040500 -0.693100
vn 0.823400 -0.487100 0.291300
vn 0.586300 0.369000 -0.721200
vn -0.482600 -0.815600 0.319400
vn -0.667000 -0.519400 0.534100
vn 0.541800 0.690400 -0.479300
vn 0.823400 -0.264400 0.502100
vn -0.809300 0.273600 -0.519800
vn -0.914400 -0.404400 -0.015800
vn 0.898600 0.413500 0.146600
vn -0.983200 -0.167400 -0.073300
vn 0.909100 0.301800 0.287200
vn -0.802400 0.311100 0.509300
vn 0.181300 0.719600 -0.670300
vn 0.657700 -0.271300 -0.702700
vn -0.514400 0.839900 0.173200
vn 0.759200 0.597700 0.257700
vn -0.615900 -0.029100 -0.787300
vn -0.441700 0.311200 -0.841500
vn 0.405300 -0.297100 0.864500
vn 0.402200 0.907200 0.123800
vn -0.438500 -0.893100 -0.100800
vn -0.768100 -0.544300 -0.337400
vn 0.657500 0.105500 0.746000
vn -0.662900 0.356600 0.658400
vn 0.552300 -0.795400 -0.249700
vn 0.626800 -0.644000 -0.438500
vn -0.643200 0.582700 0.496800
vn 0.766200 0.436800 0.471300
vn -0.764700 -0.424600 -0.484700
vn -0.006700 -0.996600 0.082600
vn 0.217100 0.970600 -0.103700
vn -0.929200 0.206500 -0.306400
vn 0.973300 -0.108900 0.202200
vn -0.872300 0.112700 -0.475800
vn -0.186600 0.815600 0.547800
vn 0.222200 -0.828200 -0.514600
vn 0.540400 0.406400 -0.736700
vn -0.567100 -0.449700 0.690100
vn -0.570400 -0.576400 0.585200
vn 0.725300 0.574300 -0.379700
vn 0.809500 -0.274400 0.519100
vn -0.823300 0.263700 -0.502700
vn -0.006700 -0.996600 0.082400
vn 0.179900 0.976000 0.122700
vn -0.979100 0.101900 -0.175900
vn 0.912800 -0.118800 0.390800
vn 0.657700 -0.271300 -0.702800
vn 0.552300 -0.795300 -0.249700
vn 0.561400 -0.651000 -0.510900
vn -0.619100 0.590400 0.517900
vn 0.906300 -0.410800 -0.099200
vn -0.906900 0.420700 0.022700
usemtl Material
s off
f 34/1/1 3/2/1 4/3/1
f 8/4/2 7/2/2 36/5/2
f 34/6/3 36/1/3 7/2/3
f 33/1/4 4/2/4 8/3/4
f 6/7/5 5/3/5 1/2/5
f 11/4/6 10/2/6 9/3/6
f 17/3/7 9/3/7 10/2/7
f 18/4/8 11/4/8 12/7/8
f 17/3/9 20/7/9 12/7/9
f 19/2/10 10/2/10 11/4/10
f 1/2/11 14/2/11 15/4/11
f 5/3/12 6/7/12 16/7/12
f 6/7/13 2/4/13 15/4/13
f 5/3/14 13/3/14 14/2/14
f 21/2/15 19/2/15 18/4/15
f 22/7/16 20/7/16 17/3/16
f 22/7/17 24/4/17 18/4/17
f 23/3/18 17/3/18 19/2/18
f 14/2/19 13/3/19 23/3/19
f 15/4/20 24/4/20 22/7/20
f 13/3/21 16/7/21 22/7/21
f 14/2/22 21/2/22 24/4/22
f 28/3/23 27/2/23 34/1/23
f 36/5/24 31/2/24 32/4/24
f 34/6/25 27/3/25 31/2/25
f 32/3/26 28/2/26 33/1/26
f 26/4/27 25/2/27 29/3/27
f 40/7/28 37/3/28 38/2/28
f 47/2/29 38/2/29 37/3/29
f 48/7/30 40/7/30 39/4/30
f 37/3/31 40/7/31 48/7/31
f 39/4/32 38/2/32 47/2/32
f 43/4/33 42/2/33 25/2/33
f 41/3/34 44/7/34 30/7/34
f 30/7/35 44/7/35 43/4/35
f 42/2/36 41/3/36 29/3/36
f 52/4/37 46/4/37 47/2/37
f 51/3/38 45/3/38 48/7/38
f 50/7/39 48/7/39 46/4/39
f 47/2/40 45/3/40 51/3/40
f 42/2/41 49/2/41 51/3/41
f 50/7/42 52/4/42 43/4/42
f 51/3/43 50/7/43 44/7/43
f 43/4/44 52/4/44 49/2/44
f 33/6/45 34/1/45 4/3/45
f 35/8/46 8/4/46 36/5/46
f 3/3/47 34/6/47 7/2/47
f 35/6/48 33/1/48 8/3/48
f 2/4/49 6/7/49 1/2/49
f 12/7/6 11/4/6 9/3/6
f 19/2/7 17/3/7 10/2/7
f 20/7/8 18/4/8 12/7/8
f 9/3/9 17/3/9 12/7/9
f 18/4/10 19/2/10 11/4/10
f 2/4/50 1/2/50 15/4/50
f 13/3/51 5/3/51 16/7/51
f 16/7/52 6/7/52 15/4/52
f 1/2/53 5/3/53 14/2/53
f 24/4/15 21/2/15 18/4/15
f 23/3/16 22/7/16 17/3/16
f 20/7/17 22/7/17 18/4/17
f 21/2/18 23/3/18 19/2/18
f 21/2/54 14/2/54 23/3/54
f 16/7/55 15/4/55 22/7/55
f 23/3/56 13/3/56 22/7/56
f 15/4/57 14/2/57 24/4/57
f 33/6/58 28/3/58 34/1/58
f 35/8/59 36/5/59 32/4/59
f 36/1/60 34/6/60 31/2/60
f 35/6/61 32/3/61 33/1/61
f 30/7/27 26/4/27 29/3/27
f 39/4/28 40/7/28 38/2/28
f 45/3/62 47/2/62 37/3/62
f 46/4/30 48/7/30 39/4/30
f 45/3/31 37/3/31 48/7/31
f 46/4/32 39/4/32 47/2/32
f 26/4/33 43/4/33 25/2/33
f 29/3/34 41/3/34 30/7/34
f 26/4/35 30/7/35 43/4/35
f 25/2/36 42/2/36 29/3/36
f 49/2/37 52/4/37 47/2/37
f 50/7/38 51/3/38 48/7/38
f 52/4/39 50/7/39 46/4/39
f 49/2/63 47/2/63 51/3/63
f 41/3/64 42/2/64 51/3/64
f 44/7/65 50/7/65 43/4/65
f 41/3/66 51/3/66 44/7/66
f 42/2/67 43/4/67 49/2/67
