# Blender v2.76 (sub 0) OBJ File: 'handsAttack.blend'
# www.blender.org
mtllib handsAttack_000056.mtl
o Cube
v 0.629380 -0.081792 -1.997196
v 0.748666 -0.032615 -2.484072
v 0.288118 -0.376926 -2.421015
v 0.625288 -0.518047 -2.181689
v 0.300847 -0.460914 -2.052760
v 0.407456 -0.408814 -2.542640
v 0.543979 0.053999 -2.395971
v 0.820458 -0.049012 -2.177614
v 4.679191 -0.385658 -0.435268
v 4.493366 -0.160941 -0.502847
v 4.617225 -0.140230 -0.774557
v 4.803051 -0.364947 -0.706977
v 2.539515 -2.476628 -1.343444
v 2.555929 -1.995589 -1.379079
v 2.762241 -1.990132 -1.987787
v 2.745763 -2.471169 -1.952169
v 4.383423 -0.903319 -0.366631
v 4.230155 -0.296282 -1.205820
v 3.923806 -0.347509 -0.533780
v 4.689772 -0.852093 -1.038671
v 3.725645 -0.865616 -0.872367
v 4.099492 -1.111889 -1.118789
v 3.949971 -1.136891 -0.790786
v 3.875165 -0.840613 -1.200371
v -0.593433 0.123025 1.925582
v -0.312275 0.440426 2.211218
v -0.647306 0.085636 2.418331
v -0.548144 -0.139545 2.334479
v -0.753013 -0.116084 2.348360
v -0.471855 0.201316 2.633996
v -0.499119 0.451493 2.206248
v -0.399750 0.226370 2.122517
v 0.342845 -0.353755 0.003594
v -0.349472 -0.349472 -0.000446
v 0.402188 0.270258 0.051547
v -0.262291 0.405681 -0.053768
v 4.292299 -0.188206 1.485394
v 4.198654 -0.178215 1.201270
v 4.041442 0.069208 1.261786
v 4.135088 0.059218 1.545910
v 1.512456 -2.077539 2.176333
v 1.714468 -1.774851 1.641140
v 2.070384 -1.373054 2.002726
v 1.868373 -1.675743 2.537920
v 4.071327 -0.665901 1.773736
v 3.450862 -0.029218 1.220669
v 3.839705 -0.641190 1.070988
v 3.682484 -0.053929 1.923416
v 3.330931 -0.823483 1.431909
v 3.254196 -0.536857 1.847954
v 3.443980 -0.835543 1.774900
v 3.141148 -0.524796 1.504963
vt 1.000000 0.500000
vt 1.000000 1.000000
vt 0.000000 1.000000
vt 1.000000 0.000000
vt 0.500000 1.000000
vt 0.000000 0.000000
vt 0.000000 0.500000
vt 0.500000 0.000000
vn -0.337200 -0.938200 -0.078200
vn 0.360200 0.932700 -0.016100
vn -0.796900 0.493400 -0.348400
vn 0.912800 -0.381100 0.146600
vn -0.745800 0.659800 -0.092100
vn 0.665900 0.657000 0.353600
vn -0.117100 0.196000 0.973600
vn 0.643200 0.323100 -0.694200
vn 0.833400 -0.430100 0.347100
vn -0.307300 0.949200 -0.067700
vn 0.648900 0.726400 0.226500
vn -0.615000 -0.758800 -0.214500
vn 0.206700 -0.035300 -0.977800
vn -0.235100 0.079800 0.968700
vn -0.794200 0.514700 -0.322800
vn 0.388300 -0.915300 0.107200
vn 0.191100 -0.134400 -0.972300
vn -0.597100 -0.266200 0.756700
vn -0.429600 0.081300 0.899400
vn 0.477000 0.133200 -0.868700
vn 0.627400 -0.751000 0.205800
vn -0.623800 0.747700 -0.227400
vn -0.920200 -0.389100 -0.043300
vn 0.923000 0.374300 0.089100
vn -0.943700 0.285200 -0.167500
vn 0.917000 -0.160300 0.365300
vn -0.774700 0.629200 0.063400
vn 0.791400 0.561800 -0.241100
vn 0.795100 -0.537400 -0.281000
vn -0.169800 0.981300 0.090500
vn 0.600100 0.191300 0.776800
vn 0.025200 0.252600 -0.967200
vn 0.294500 0.481800 -0.825300
vn -0.329600 -0.453300 0.828200
vn 0.532200 0.634900 0.560000
vn -0.567300 -0.606400 -0.557100
vn -0.539200 -0.139500 -0.830500
vn 0.056700 -0.203000 0.977500
vn -0.741500 0.616000 0.266000
vn 0.259000 -0.958500 -0.119100
vn 0.479900 -0.856900 -0.188300
vn -0.545900 0.811500 0.208500
vn 0.416900 0.042800 0.908000
vn -0.401100 -0.030900 -0.915500
vn -0.006600 -0.997200 0.074100
vn 0.213800 0.971800 -0.099100
vn -0.962600 0.093100 -0.254600
vn 0.974200 -0.107900 0.198200
vn -0.727700 0.677100 -0.109900
vn 0.648000 0.725400 0.232000
vn -0.614900 -0.758700 -0.215200
vn 0.178200 -0.078700 -0.980800
vn -0.242600 0.068400 0.967700
vn -0.373100 -0.029600 0.927300
vn 0.579500 -0.079900 -0.811000
vn 0.622600 -0.749000 0.226700
vn -0.628600 0.749900 -0.206300
vn -0.006700 -0.996000 0.089000
vn 0.184800 0.978400 0.092300
vn -0.988700 0.106700 -0.105800
vn 0.927100 -0.115600 0.356600
vn 0.473900 -0.831100 -0.291200
vn -0.535800 0.805400 0.253300
vn 0.559100 -0.770600 0.306000
vn -0.506600 0.779800 -0.367900
usemtl Material
s off
f 34/1/1 3/2/1 4/3/1
f 8/4/2 7/2/2 36/5/2
f 36/1/3 7/2/3 3/3/3
f 33/1/4 4/2/4 8/3/4
f 6/6/5 5/3/5 1/2/5
f 12/6/6 11/4/6 10/2/6
f 19/2/7 17/3/7 9/3/7
f 20/6/8 18/4/8 11/4/8
f 17/3/9 20/6/9 12/6/9
f 19/2/10 10/2/10 11/4/10
f 1/2/11 14/2/11 15/4/11
f 5/3/12 6/6/12 16/6/12
f 6/6/13 2/4/13 15/4/13
f 5/3/14 13/3/14 14/2/14
f 24/4/15 21/2/15 19/2/15
f 22/6/16 20/6/16 17/3/16
f 22/6/17 24/4/17 18/4/17
f 23/3/18 17/3/18 19/2/18
f 14/2/19 13/3/19 23/3/19
f 15/4/20 24/4/20 22/6/20
f 13/3/21 16/6/21 22/6/21
f 14/2/22 21/2/22 24/4/22
f 28/3/23 27/2/23 34/1/23
f 36/5/24 31/2/24 32/4/24
f 34/7/25 27/3/25 31/2/25
f 32/3/26 28/2/26 33/1/26
f 26/4/27 25/2/27 29/3/27
f 37/3/28 38/2/28 39/4/28
f 38/2/29 37/3/29 45/3/29
f 48/6/30 40/6/30 39/4/30
f 37/3/31 40/6/31 48/6/31
f 39/4/32 38/2/32 47/2/32
f 43/4/33 42/2/33 25/2/33
f 41/3/34 44/6/34 30/6/34
f 44/6/35 43/4/35 26/4/35
f 42/2/36 41/3/36 29/3/36
f 46/4/37 47/2/37 49/2/37
f 51/3/38 45/3/38 48/6/38
f 50/6/39 48/6/39 46/4/39
f 49/2/40 47/2/40 45/3/40
f 42/2/41 49/2/41 51/3/41
f 50/6/42 52/4/42 43/4/42
f 51/3/43 50/6/43 44/6/43
f 43/4/44 52/4/44 49/2/44
f 33/7/45 34/1/45 4/3/45
f 35/8/46 8/4/46 36/5/46
f 34/7/47 36/1/47 3/3/47
f 35/7/48 33/1/48 8/3/48
f 2/4/49 6/6/49 1/2/49
f 9/3/6 12/6/6 10/2/6
f 10/2/7 19/2/7 9/3/7
f 12/6/8 20/6/8 11/4/8
f 9/3/9 17/3/9 12/6/9
f 18/4/10 19/2/10 11/4/10
f 2/4/50 1/2/50 15/4/50
f 13/3/51 5/3/51 16/6/51
f 16/6/52 6/6/52 15/4/52
f 1/2/53 5/3/53 14/2/53
f 18/4/15 24/4/15 19/2/15
f 23/3/16 22/6/16 17/3/16
f 20/6/17 22/6/17 18/4/17
f 21/2/18 23/3/18 19/2/18
f 21/2/54 14/2/54 23/3/54
f 16/6/55 15/4/55 22/6/55
f 23/3/56 13/3/56 22/6/56
f 15/4/57 14/2/57 24/4/57
f 33/7/58 28/3/58 34/1/58
f 35/8/59 36/5/59 32/4/59
f 36/1/60 34/7/60 31/2/60
f 35/7/61 32/3/61 33/1/61
f 30/6/27 26/4/27 29/3/27
f 40/6/28 37/3/28 39/4/28
f 47/2/29 38/2/29 45/3/29
f 46/4/30 48/6/30 39/4/30
f 45/3/31 37/3/31 48/6/31
f 46/4/32 39/4/32 47/2/32
f 26/4/33 43/4/33 25/2/33
f 29/3/34 41/3/34 30/6/34
f 30/6/35 44/6/35 26/4/35
f 25/2/36 42/2/36 29/3/36
f 52/4/37 46/4/37 49/2/37
f 50/6/38 51/3/38 48/6/38
f 52/4/39 50/6/39 46/4/39
f 51/3/40 49/2/40 45/3/40
f 41/3/62 42/2/62 51/3/62
f 44/6/63 50/6/63 43/4/63
f 41/3/64 51/3/64 44/6/64
f 42/2/65 43/4/65 49/2/65
