# Blender v2.76 (sub 0) OBJ File: 'handsBlock.blend'
# www.blender.org
mtllib handsBlock_000040.mtl
o Cube
v 0.439455 -0.149563 -1.968422
v 0.667088 0.125789 -2.323712
v 0.447430 -0.344217 -2.426486
v 0.666739 -0.537075 -2.184950
v 0.499567 -0.598528 -2.191169
v 0.718228 -0.327013 -2.555521
v 0.524050 0.122199 -2.320772
v 0.826692 -0.061621 -2.163728
v 2.687633 1.358460 1.447739
v 2.444504 1.447407 1.297498
v 2.614477 1.626871 1.128685
v 2.857606 1.537924 1.278928
v 3.018110 -1.094451 -0.463639
v 2.723637 -0.711079 -0.478346
v 3.083741 -0.378070 -0.893905
v 3.378178 -0.761472 -0.879245
v 2.809901 0.779690 1.346551
v 2.628959 1.443572 0.557411
v 2.208550 0.999690 0.974948
v 3.230310 1.223573 0.929015
v 2.549034 0.617034 0.574960
v 3.047726 0.726305 0.552542
v 2.842536 0.509659 0.756330
v 2.754223 0.833681 0.371171
v -0.785196 0.016449 2.024274
v -0.563299 0.472252 2.090503
v -0.611529 0.143695 2.359553
v -0.484074 -0.151440 2.389760
v -0.583203 -0.145920 2.464973
v -0.361306 0.309883 2.531201
v -0.643132 0.470923 2.139254
v -0.515476 0.175885 2.169526
v 0.342731 -0.353772 0.003799
v -0.349472 -0.349472 -0.000446
v 0.401680 0.269716 0.055728
v -0.260755 0.405917 -0.056498
v 2.708449 1.295206 -1.151679
v 2.487152 1.198405 -1.328464
v 2.295889 1.382077 -1.189615
v 2.517186 1.478878 -1.012829
v 1.843083 -1.196947 1.044505
v 1.587380 -0.991404 0.486626
v 1.868278 -0.414404 0.570464
v 2.123982 -0.619948 1.128343
v 2.903472 0.861856 -0.785160
v 1.883053 1.076722 -0.878990
v 2.356119 0.622430 -1.222417
v 2.430406 1.316146 -0.441733
v 2.249384 0.373522 -0.631656
v 2.285642 0.712106 -0.250628
v 2.516532 0.490379 -0.418244
v 2.018494 0.595249 -0.464040
vt 1.000000 0.500000
vt 1.000000 1.000000
vt 0.000000 1.000000
vt 1.000000 0.000000
vt 0.500000 1.000000
vt 0.000000 0.500000
vt 0.000000 0.000000
vt 0.500000 0.000000
vn -0.532900 -0.827500 -0.176800
vn 0.494200 0.867100 0.062600
vn -0.938100 0.085300 -0.335800
vn 0.932600 -0.321100 0.164900
vn -0.885500 0.105900 -0.452500
vn -0.133300 0.743100 0.655700
vn -0.574300 -0.257200 0.777200
vn 0.469000 0.844400 -0.259000
vn 0.693500 0.020600 0.720200
vn -0.798900 0.566600 -0.202000
vn -0.146900 0.830100 0.537900
vn 0.186300 -0.838100 -0.512800
vn 0.524000 0.434300 -0.732700
vn -0.569400 -0.410100 0.712500
vn -0.732900 0.056500 -0.677900
vn 0.814200 -0.509500 0.278100
vn 0.581500 0.344500 -0.737000
vn -0.500200 -0.797600 0.337200
vn -0.670800 -0.494100 0.553100
vn 0.552100 0.669300 -0.497200
vn 0.825600 -0.285100 0.486800
vn -0.811600 0.293700 -0.504900
vn -0.917200 -0.398000 -0.018700
vn 0.902500 0.405400 0.145200
vn -0.985900 -0.148100 -0.078500
vn 0.913100 0.284300 0.292300
vn -0.809600 0.322900 0.490100
vn 0.212400 0.720300 -0.660300
vn 0.670900 -0.279100 -0.687000
vn -0.503100 0.848300 0.165300
vn 0.763100 0.581700 0.281700
vn -0.595300 -0.012500 -0.803400
vn -0.413300 0.324800 -0.850700
vn 0.376700 -0.310200 0.872900
vn 0.415600 0.898600 0.140600
vn -0.452300 -0.884000 -0.118400
vn -0.768900 -0.527600 -0.361200
vn 0.639400 0.088400 0.763800
vn -0.673300 0.364800 0.643100
vn 0.543800 -0.804000 -0.240500
vn 0.626100 -0.652900 -0.426300
vn -0.645100 0.591500 0.483600
vn 0.761500 0.419300 0.494300
vn -0.759400 -0.407100 -0.507600
vn -0.006700 -0.996600 0.082500
vn 0.217100 0.970700 -0.103300
vn -0.926700 0.221100 -0.303900
vn 0.973200 -0.108900 0.202600
vn -0.878600 0.135300 -0.458100
vn -0.133400 0.743100 0.655700
vn -0.149700 0.825600 0.544000
vn 0.185600 -0.839000 -0.511400
vn 0.536400 0.383200 -0.751900
vn -0.565400 -0.426100 0.706200
vn -0.574900 -0.553500 0.602600
vn 0.734100 0.548400 -0.400500
vn 0.811800 -0.294600 0.504200
vn -0.825500 0.284400 -0.487500
vn -0.006700 -0.996600 0.082200
vn 0.180100 0.976100 0.121500
vn -0.979500 0.102200 -0.173600
vn 0.912800 -0.118800 0.390800
vn 0.562500 -0.658200 -0.500300
vn -0.621500 0.598600 0.505400
vn 0.900800 -0.427200 -0.078100
vn -0.899200 0.437500 0.001700
usemtl Material
s off
f 34/1/1 3/2/1 4/3/1
f 8/4/2 7/2/2 36/5/2
f 34/6/3 36/1/3 7/2/3
f 33/1/4 4/2/4 8/3/4
f 6/7/5 5/3/5 1/2/5
f 11/4/6 10/2/6 9/3/6
f 17/3/7 9/3/7 10/2/7
f 20/7/8 18/4/8 11/4/8
f 20/7/9 12/7/9 9/3/9
f 19/2/10 10/2/10 11/4/10
f 1/2/11 14/2/11 15/4/11
f 5/3/12 6/7/12 16/7/12
f 6/7/13 2/4/13 15/4/13
f 5/3/14 13/3/14 14/2/14
f 21/2/15 19/2/15 18/4/15
f 23/3/16 22/7/16 20/7/16
f 22/7/17 24/4/17 18/4/17
f 23/3/18 17/3/18 19/2/18
f 14/2/19 13/3/19 23/3/19
f 15/4/20 24/4/20 22/7/20
f 13/3/21 16/7/21 22/7/21
f 14/2/22 21/2/22 24/4/22
f 28/3/23 27/2/23 34/1/23
f 36/5/24 31/2/24 32/4/24
f 34/6/25 27/3/25 31/2/25
f 32/3/26 28/2/26 33/1/26
f 26/4/27 25/2/27 29/3/27
f 37/3/28 38/2/28 39/4/28
f 38/2/29 37/3/29 45/3/29
f 48/7/30 40/7/30 39/4/30
f 45/3/31 37/3/31 40/7/31
f 39/4/32 38/2/32 47/2/32
f 43/4/33 42/2/33 25/2/33
f 41/3/34 44/7/34 30/7/34
f 30/7/35 44/7/35 43/4/35
f 42/2/36 41/3/36 29/3/36
f 52/4/37 46/4/37 47/2/37
f 51/3/38 45/3/38 48/7/38
f 50/7/39 48/7/39 46/4/39
f 47/2/40 45/3/40 51/3/40
f 42/2/41 49/2/41 51/3/41
f 50/7/42 52/4/42 43/4/42
f 51/3/43 50/7/43 44/7/43
f 43/4/44 52/4/44 49/2/44
f 33/6/45 34/1/45 4/3/45
f 35/8/46 8/4/46 36/5/46
f 3/3/47 34/6/47 7/2/47
f 35/6/48 33/1/48 8/3/48
f 2/4/49 6/7/49 1/2/49
f 12/7/50 11/4/50 9/3/50
f 19/2/7 17/3/7 10/2/7
f 12/7/8 20/7/8 11/4/8
f 17/3/9 20/7/9 9/3/9
f 18/4/10 19/2/10 11/4/10
f 2/4/51 1/2/51 15/4/51
f 13/3/52 5/3/52 16/7/52
f 16/7/53 6/7/53 15/4/53
f 1/2/54 5/3/54 14/2/54
f 24/4/15 21/2/15 18/4/15
f 17/3/16 23/3/16 20/7/16
f 20/7/17 22/7/17 18/4/17
f 21/2/18 23/3/18 19/2/18
f 21/2/55 14/2/55 23/3/55
f 16/7/56 15/4/56 22/7/56
f 23/3/57 13/3/57 22/7/57
f 15/4/58 14/2/58 24/4/58
f 33/6/59 28/3/59 34/1/59
f 35/8/60 36/5/60 32/4/60
f 36/1/61 34/6/61 31/2/61
f 35/6/62 32/3/62 33/1/62
f 30/7/27 26/4/27 29/3/27
f 40/7/28 37/3/28 39/4/28
f 47/2/29 38/2/29 45/3/29
f 46/4/30 48/7/30 39/4/30
f 48/7/31 45/3/31 40/7/31
f 46/4/32 39/4/32 47/2/32
f 26/4/33 43/4/33 25/2/33
f 29/3/34 41/3/34 30/7/34
f 26/4/35 30/7/35 43/4/35
f 25/2/36 42/2/36 29/3/36
f 49/2/37 52/4/37 47/2/37
f 50/7/38 51/3/38 48/7/38
f 52/4/39 50/7/39 46/4/39
f 49/2/40 47/2/40 51/3/40
f 41/3/63 42/2/63 51/3/63
f 44/7/64 50/7/64 43/4/64
f 41/3/65 51/3/65 44/7/65
f 42/2/66 43/4/66 49/2/66
