# Blender v2.76 (sub 0) OBJ File: 'handsBlock.blend'
# www.blender.org
mtllib handsBlock_000046.mtl
o Cube
v 0.452093 -0.140581 -1.965837
v 0.680361 0.119071 -2.332362
v 0.440248 -0.349363 -2.427985
v 0.665557 -0.536458 -2.184167
v 0.483742 -0.594755 -2.183838
v 0.702574 -0.338631 -2.559070
v 0.530121 0.119263 -2.324632
v 0.828126 -0.060537 -2.163389
v 2.880718 1.304422 1.352648
v 2.637132 1.402751 1.209141
v 2.809575 1.571785 1.032261
v 3.053160 1.473457 1.175766
v 3.032556 -1.186126 -0.532417
v 2.755962 -0.789533 -0.543106
v 3.117165 -0.479322 -0.975031
v 3.393721 -0.875943 -0.964388
v 2.972415 0.719262 1.255999
v 2.796453 1.380551 0.463560
v 2.369937 0.962465 0.901054
v 3.398930 1.137348 0.818504
v 2.678686 0.558996 0.495800
v 3.180909 0.644351 0.455510
v 2.972739 0.440296 0.669039
v 2.886857 0.763052 0.282272
v -0.778993 0.025379 2.013856
v -0.547100 0.473947 2.093811
v -0.614791 0.139579 2.364212
v -0.492334 -0.151939 2.387558
v -0.599723 -0.146921 2.460572
v -0.367830 0.301647 2.540527
v -0.635039 0.471772 2.140904
v -0.512378 0.180349 2.164318
v 0.342731 -0.353772 0.003799
v -0.349472 -0.349472 -0.000446
v 0.401680 0.269716 0.055728
v -0.260755 0.405917 -0.056498
v 2.875429 1.232994 -1.005133
v 2.658817 1.144295 -1.191702
v 2.467380 1.332076 -1.058714
v 2.683992 1.420776 -0.872146
v 1.851292 -1.253916 1.127782
v 1.624353 -1.035801 0.562286
v 1.917907 -0.467960 0.663500
v 2.144845 -0.686075 1.228996
v 3.043043 0.790743 -0.635698
v 2.033783 1.035813 -0.768223
v 2.507279 0.571355 -1.097152
v 2.569547 1.255200 -0.306769
v 2.369658 0.320030 -0.513850
v 2.400050 0.653796 -0.128088
v 2.631150 0.427107 -0.288628
v 2.138559 0.546719 -0.353310
vt 1.000000 0.500000
vt 1.000000 1.000000
vt 0.000000 1.000000
vt 1.000000 0.000000
vt 0.500000 1.000000
vt 0.000000 0.500000
vt 0.000000 0.000000
vt 0.500000 0.000000
vn -0.515900 -0.840000 -0.167900
vn 0.491100 0.869000 0.061400
vn -0.937400 0.085000 -0.337600
vn 0.931200 -0.325300 0.164600
vn -0.894100 0.141600 -0.424800
vn -0.076600 0.757100 0.648800
vn -0.559500 -0.219700 0.799200
vn 0.499000 0.817900 -0.286500
vn 0.717300 -0.002700 0.696800
vn -0.777800 0.600900 -0.184100
vn -0.090000 0.843100 0.530200
vn 0.129800 -0.852600 -0.506300
vn 0.519000 0.399500 -0.755700
vn -0.563900 -0.373400 0.736600
vn -0.751700 0.082100 -0.654400
vn 0.798400 -0.543700 0.258800
vn 0.572000 0.307000 -0.760600
vn -0.525300 -0.768600 0.365000
vn -0.674400 -0.454600 0.581900
vn 0.565900 0.636000 -0.524700
vn 0.827200 -0.317300 0.463700
vn -0.813400 0.325000 -0.482400
vn -0.921100 -0.388700 -0.022900
vn 0.908100 0.393700 0.142900
vn -0.989200 -0.118400 -0.086500
vn 0.918600 0.257000 0.300100
vn -0.819300 0.341500 0.460500
vn 0.259400 0.720200 -0.643500
vn 0.690000 -0.291800 -0.662400
vn -0.485100 0.860800 0.153900
vn 0.767300 0.556700 0.318400
vn -0.562300 0.012300 -0.826800
vn -0.369100 0.344700 -0.863100
vn 0.332000 -0.329200 0.884000
vn 0.434900 0.884900 0.166800
vn -0.472000 -0.869400 -0.145900
vn -0.768300 -0.501800 -0.397500
vn 0.610200 0.062700 0.789800
vn -0.688200 0.378000 0.619300
vn 0.530100 -0.817000 -0.227000
vn 0.624100 -0.666600 -0.407600
vn -0.647100 0.605300 0.463600
vn 0.752400 0.392500 0.529000
vn -0.749500 -0.380200 -0.542000
vn -0.006700 -0.996600 0.082200
vn 0.217000 0.970700 -0.102800
vn -0.922400 0.243100 -0.300100
vn 0.973100 -0.108900 0.203200
vn -0.886100 0.170500 -0.431000
vn 0.717300 -0.002700 0.696700
vn -0.092800 0.838800 0.536400
vn 0.129100 -0.853500 -0.504900
vn 0.528400 0.347700 -0.774600
vn -0.560900 -0.389700 0.730500
vn -0.579700 -0.517900 0.629100
vn 0.745100 0.508000 -0.432200
vn 0.813500 -0.325900 0.481700
vn -0.827100 0.316600 -0.464300
vn -0.006700 -0.996600 0.082000
vn 0.180500 0.976300 0.119600
vn -0.980100 0.102500 -0.170000
vn 0.912800 -0.118800 0.390700
vn 0.563400 -0.669400 -0.484300
vn -0.624200 0.611500 0.486300
vn 0.890700 -0.452200 -0.046300
vn -0.885700 0.463200 -0.029800
usemtl Material
s off
f 34/1/1 3/2/1 4/3/1
f 8/4/2 7/2/2 36/5/2
f 34/6/3 36/1/3 7/2/3
f 33/1/4 4/2/4 8/3/4
f 6/7/5 5/3/5 1/2/5
f 11/4/6 10/2/6 9/3/6
f 17/3/7 9/3/7 10/2/7
f 20/7/8 18/4/8 11/4/8
f 17/3/9 20/7/9 12/7/9
f 18/4/10 19/2/10 10/2/10
f 1/2/11 14/2/11 15/4/11
f 5/3/12 6/7/12 16/7/12
f 6/7/13 2/4/13 15/4/13
f 5/3/14 13/3/14 14/2/14
f 21/2/15 19/2/15 18/4/15
f 23/3/16 22/7/16 20/7/16
f 24/4/17 18/4/17 20/7/17
f 23/3/18 17/3/18 19/2/18
f 14/2/19 13/3/19 23/3/19
f 15/4/20 24/4/20 22/7/20
f 13/3/21 16/7/21 22/7/21
f 14/2/22 21/2/22 24/4/22
f 28/3/23 27/2/23 34/1/23
f 36/5/24 31/2/24 32/4/24
f 34/6/25 27/3/25 31/2/25
f 32/3/26 28/2/26 33/1/26
f 26/4/27 25/2/27 29/3/27
f 37/3/28 38/2/28 39/4/28
f 47/2/29 38/2/29 37/3/29
f 40/7/30 39/4/30 46/4/30
f 37/3/31 40/7/31 48/7/31
f 39/4/32 38/2/32 47/2/32
f 43/4/33 42/2/33 25/2/33
f 29/3/34 41/3/34 44/7/34
f 30/7/35 44/7/35 43/4/35
f 42/2/36 41/3/36 29/3/36
f 52/4/37 46/4/37 47/2/37
f 45/3/38 48/7/38 50/7/38
f 48/7/39 46/4/39 52/4/39
f 47/2/40 45/3/40 51/3/40
f 42/2/41 49/2/41 51/3/41
f 50/7/42 52/4/42 43/4/42
f 51/3/43 50/7/43 44/7/43
f 43/4/44 52/4/44 49/2/44
f 33/6/45 34/1/45 4/3/45
f 35/8/46 8/4/46 36/5/46
f 3/3/47 34/6/47 7/2/47
f 35/6/48 33/1/48 8/3/48
f 2/4/49 6/7/49 1/2/49
f 12/7/6 11/4/6 9/3/6
f 19/2/7 17/3/7 10/2/7
f 12/7/8 20/7/8 11/4/8
f 9/3/50 17/3/50 12/7/50
f 11/4/10 18/4/10 10/2/10
f 2/4/51 1/2/51 15/4/51
f 13/3/52 5/3/52 16/7/52
f 16/7/53 6/7/53 15/4/53
f 1/2/54 5/3/54 14/2/54
f 24/4/15 21/2/15 18/4/15
f 17/3/16 23/3/16 20/7/16
f 22/7/17 24/4/17 20/7/17
f 21/2/18 23/3/18 19/2/18
f 21/2/55 14/2/55 23/3/55
f 16/7/56 15/4/56 22/7/56
f 23/3/57 13/3/57 22/7/57
f 15/4/58 14/2/58 24/4/58
f 33/6/59 28/3/59 34/1/59
f 35/8/60 36/5/60 32/4/60
f 36/1/61 34/6/61 31/2/61
f 35/6/62 32/3/62 33/1/62
f 30/7/27 26/4/27 29/3/27
f 40/7/28 37/3/28 39/4/28
f 45/3/29 47/2/29 37/3/29
f 48/7/30 40/7/30 46/4/30
f 45/3/31 37/3/31 48/7/31
f 46/4/32 39/4/32 47/2/32
f 26/4/33 43/4/33 25/2/33
f 30/7/34 29/3/34 44/7/34
f 26/4/35 30/7/35 43/4/35
f 25/2/36 42/2/36 29/3/36
f 49/2/37 52/4/37 47/2/37
f 51/3/38 45/3/38 50/7/38
f 50/7/39 48/7/39 52/4/39
f 49/2/40 47/2/40 51/3/40
f 41/3/63 42/2/63 51/3/63
f 44/7/64 50/7/64 43/4/64
f 41/3/65 51/3/65 44/7/65
f 42/2/66 43/4/66 49/2/66
