# Blender v2.76 (sub 0) OBJ File: 'handsBlock.blend'
# www.blender.org
mtllib handsBlock_000043.mtl
o Cube
v 0.445315 -0.145284 -1.967143
v 0.673383 0.122733 -2.327723
v 0.444100 -0.346668 -2.427227
v 0.666178 -0.536794 -2.184587
v 0.492098 -0.596865 -2.187792
v 0.710974 -0.332543 -2.557269
v 0.526928 0.120865 -2.322562
v 0.827356 -0.061105 -2.163561
v 2.778832 1.334427 1.403873
v 2.535407 1.427756 1.256802
v 2.706631 1.602360 1.084201
v 2.950057 1.509031 1.231273
v 3.025698 -1.137213 -0.495972
v 2.739510 -0.747547 -0.508699
v 3.100330 -0.425188 -0.931963
v 3.386481 -0.814883 -0.919282
v 2.886791 0.752476 1.304675
v 2.708212 1.415178 0.514005
v 2.284708 0.983315 0.940915
v 3.310295 1.184338 0.877765
v 2.610462 0.590727 0.538293
v 3.111022 0.688842 0.507472
v 2.904321 0.478062 0.715836
v 2.817162 0.801508 0.329930
v -0.782371 0.020647 2.019345
v -0.555690 0.473109 2.091970
v -0.613021 0.141759 2.361760
v -0.487957 -0.151706 2.388769
v -0.590970 -0.146454 2.462993
v -0.364290 0.306008 2.535619
v -0.639331 0.471352 2.139986
v -0.514065 0.177984 2.167062
v 0.342731 -0.353772 0.003799
v -0.349472 -0.349472 -0.000446
v 0.401680 0.269716 0.055728
v -0.260755 0.405917 -0.056498
v 2.787729 1.266805 -1.083704
v 2.568551 1.173808 -1.265111
v 2.377162 1.359400 -1.129014
v 2.596340 1.452397 -0.947608
v 1.847555 -1.223534 1.083597
v 1.605260 -1.012001 0.521985
v 1.892215 -0.439231 0.613920
v 2.134510 -0.650764 1.175533
v 2.969942 0.829185 -0.715668
v 1.954455 1.058209 -0.827741
v 2.427832 0.599169 -1.164356
v 2.496565 1.288225 -0.379052
v 2.306581 0.349007 -0.576936
v 2.340128 0.685317 -0.193652
v 2.571169 0.461272 -0.357944
v 2.075539 0.573053 -0.412645
vt 1.000000 0.500000
vt 1.000000 1.000000
vt 0.000000 1.000000
vt 1.000000 0.000000
vt 0.500000 1.000000
vt 0.000000 0.500000
vt 0.000000 0.000000
vt 0.500000 0.000000
vn -0.524900 -0.833500 -0.172600
vn 0.492800 0.867900 0.062100
vn -0.937800 0.085200 -0.336700
vn 0.931900 -0.323000 0.164800
vn -0.889900 0.122500 -0.439500
vn -0.106800 0.750000 0.652700
vn -0.567700 -0.239600 0.787600
vn 0.483300 0.832200 -0.271800
vn 0.704900 0.009900 0.709200
vn -0.789300 0.582700 -0.193500
vn -0.120200 0.836500 0.534600
vn 0.159800 -0.845200 -0.510000
vn 0.522000 0.418000 -0.743500
vn -0.567200 -0.392900 0.723900
vn -0.742000 0.068300 -0.666900
vn 0.807100 -0.525600 0.269000
vn 0.577400 0.326900 -0.748200
vn -0.512200 -0.784200 0.350200
vn -0.672800 -0.475600 0.566600
vn 0.558900 0.653800 -0.510100
vn 0.826600 -0.300200 0.476000
vn -0.812700 0.308400 -0.494300
vn -0.919100 -0.393600 -0.020700
vn 0.905200 0.399800 0.144100
vn -0.987500 -0.134200 -0.082300
vn 0.915800 0.271500 0.296000
vn -0.814400 0.331600 0.476200
vn 0.234500 0.720400 -0.652700
vn 0.680000 -0.285000 -0.675500
vn -0.494700 0.854200 0.159800
vn 0.765300 0.570000 0.298900
vn -0.580000 -0.000800 -0.814600
vn -0.392700 0.334300 -0.856800
vn 0.355800 -0.319300 0.878300
vn 0.424800 0.892300 0.152800
vn -0.461700 -0.877300 -0.131200
vn -0.768900 -0.515500 -0.378200
vn 0.625900 0.076300 0.776200
vn -0.680500 0.370900 0.632000
vn 0.537500 -0.810100 -0.234100
vn 0.625300 -0.659300 -0.417500
vn -0.646200 0.597900 0.474200
vn 0.757500 0.406700 0.510600
vn -0.755000 -0.394500 -0.523800
vn -0.006700 -0.996600 0.082400
vn 0.217000 0.970700 -0.103100
vn -0.924700 0.231500 -0.302100
vn 0.973100 -0.108900 0.202900
vn -0.882400 0.151700 -0.445400
vn -0.123100 0.832200 0.540700
vn 0.159200 -0.846100 -0.508600
vn 0.533000 0.366500 -0.762600
vn -0.563600 -0.409000 0.717700
vn -0.577400 -0.536900 0.615100
vn 0.739600 0.529600 -0.415400
vn 0.812900 -0.309200 0.493600
vn -0.826600 0.299400 -0.476600
vn -0.006700 -0.996600 0.082100
vn 0.180300 0.976200 0.120600
vn -0.979800 0.102300 -0.171900
vn 0.912800 -0.118800 0.390700
vn 0.563000 -0.663500 -0.492800
vn -0.622900 0.604600 0.496500
vn 0.896300 -0.438900 -0.063100
vn -0.893100 0.449600 -0.013200
usemtl Material
s off
f 34/1/1 3/2/1 4/3/1
f 8/4/2 7/2/2 36/5/2
f 34/6/3 36/1/3 7/2/3
f 33/1/4 4/2/4 8/3/4
f 6/7/5 5/3/5 1/2/5
f 11/4/6 10/2/6 9/3/6
f 17/3/7 9/3/7 10/2/7
f 20/7/8 18/4/8 11/4/8
f 20/7/9 12/7/9 9/3/9
f 18/4/10 19/2/10 10/2/10
f 1/2/11 14/2/11 15/4/11
f 5/3/12 6/7/12 16/7/12
f 6/7/13 2/4/13 15/4/13
f 5/3/14 13/3/14 14/2/14
f 24/4/15 21/2/15 19/2/15
f 23/3/16 22/7/16 20/7/16
f 24/4/17 18/4/17 20/7/17
f 23/3/18 17/3/18 19/2/18
f 14/2/19 13/3/19 23/3/19
f 15/4/20 24/4/20 22/7/20
f 13/3/21 16/7/21 22/7/21
f 14/2/22 21/2/22 24/4/22
f 28/3/23 27/2/23 34/1/23
f 36/5/24 31/2/24 32/4/24
f 34/6/25 27/3/25 31/2/25
f 32/3/26 28/2/26 33/1/26
f 30/7/27 26/4/27 25/2/27
f 40/7/28 37/3/28 38/2/28
f 47/2/29 38/2/29 37/3/29
f 48/7/30 40/7/30 39/4/30
f 45/3/31 37/3/31 40/7/31
f 39/4/32 38/2/32 47/2/32
f 43/4/33 42/2/33 25/2/33
f 41/3/34 44/7/34 30/7/34
f 30/7/35 44/7/35 43/4/35
f 42/2/36 41/3/36 29/3/36
f 52/4/37 46/4/37 47/2/37
f 51/3/38 45/3/38 48/7/38
f 48/7/39 46/4/39 52/4/39
f 47/2/40 45/3/40 51/3/40
f 42/2/41 49/2/41 51/3/41
f 50/7/42 52/4/42 43/4/42
f 51/3/43 50/7/43 44/7/43
f 43/4/44 52/4/44 49/2/44
f 33/6/45 34/1/45 4/3/45
f 35/8/46 8/4/46 36/5/46
f 3/3/47 34/6/47 7/2/47
f 35/6/48 33/1/48 8/3/48
f 2/4/49 6/7/49 1/2/49
f 12/7/6 11/4/6 9/3/6
f 19/2/7 17/3/7 10/2/7
f 12/7/8 20/7/8 11/4/8
f 17/3/9 20/7/9 9/3/9
f 11/4/10 18/4/10 10/2/10
f 2/4/50 1/2/50 15/4/50
f 13/3/51 5/3/51 16/7/51
f 16/7/52 6/7/52 15/4/52
f 1/2/53 5/3/53 14/2/53
f 18/4/15 24/4/15 19/2/15
f 17/3/16 23/3/16 20/7/16
f 22/7/17 24/4/17 20/7/17
f 21/2/18 23/3/18 19/2/18
f 21/2/54 14/2/54 23/3/54
f 16/7/55 15/4/55 22/7/55
f 23/3/56 13/3/56 22/7/56
f 15/4/57 14/2/57 24/4/57
f 33/6/58 28/3/58 34/1/58
f 35/8/59 36/5/59 32/4/59
f 36/1/60 34/6/60 31/2/60
f 35/6/61 32/3/61 33/1/61
f 29/3/27 30/7/27 25/2/27
f 39/4/28 40/7/28 38/2/28
f 45/3/29 47/2/29 37/3/29
f 46/4/30 48/7/30 39/4/30
f 48/7/31 45/3/31 40/7/31
f 46/4/32 39/4/32 47/2/32
f 26/4/33 43/4/33 25/2/33
f 29/3/34 41/3/34 30/7/34
f 26/4/35 30/7/35 43/4/35
f 25/2/36 42/2/36 29/3/36
f 49/2/37 52/4/37 47/2/37
f 50/7/38 51/3/38 48/7/38
f 50/7/39 48/7/39 52/4/39
f 49/2/40 47/2/40 51/3/40
f 41/3/62 42/2/62 51/3/62
f 44/7/63 50/7/63 43/4/63
f 41/3/64 51/3/64 44/7/64
f 42/2/65 43/4/65 49/2/65
