# Blender v2.76 (sub 0) OBJ File: 'handsBlock.blend'
# www.blender.org
mtllib handsBlock_000083.mtl
o Cube
v 0.587764 -0.087608 -1.968660
v 0.769192 0.024530 -2.425141
v 0.363008 -0.379854 -2.426612
v 0.657706 -0.527871 -2.175803
v 0.363767 -0.521437 -2.096787
v 0.532880 -0.408831 -2.558314
v 0.571210 0.077298 -2.366306
v 0.843737 -0.053926 -2.163351
v 4.318043 0.335416 0.245990
v 4.101811 0.522074 0.156552
v 4.260277 0.588165 -0.088635
v 4.476508 0.401508 0.000803
v 2.848936 -2.073445 -1.102519
v 2.765975 -1.597122 -1.114334
v 3.060645 -1.501541 -1.677622
v 3.143545 -1.977874 -1.665834
v 4.132512 -0.235303 0.241437
v 3.989635 0.389842 -0.586212
v 3.597689 0.226372 0.020228
v 4.524457 -0.071833 -0.365002
v 3.571547 -0.293946 -0.368269
v 4.023876 -0.439491 -0.556289
v 3.832579 -0.519276 -0.260303
v 3.762845 -0.214161 -0.664256
v -0.691821 0.101601 1.936975
v -0.406628 0.465662 2.154931
v -0.658298 0.105060 2.397612
v -0.562485 -0.144210 2.351965
v -0.740046 -0.131499 2.389434
v -0.454852 0.232562 2.607389
v -0.564847 0.467652 2.171417
v -0.468824 0.218452 2.125878
v 0.342731 -0.353772 0.003799
v -0.349472 -0.349472 -0.000446
v 0.401680 0.269716 0.055728
v -0.260755 0.405917 -0.056498
v 4.002155 0.383574 0.589931
v 3.856858 0.365455 0.328863
v 3.680559 0.592911 0.411195
v 3.825856 0.611030 0.672263
v 1.689356 -1.812572 1.859106
v 1.750403 -1.517491 1.286340
v 2.111429 -1.056628 1.562250
v 2.050382 -1.351709 2.135016
v 3.907773 -0.102505 0.929019
v 3.112345 0.415264 0.486939
v 3.548398 -0.147321 0.283299
v 3.471719 0.460080 1.132659
v 3.146236 -0.375035 0.740198
v 3.108812 -0.078580 1.154747
v 3.321636 -0.353161 1.055357
v 2.933411 -0.100453 0.839589
vt 1.000000 0.500000
vt 1.000000 1.000000
vt 0.000000 1.000000
vt 1.000000 0.000000
vt 0.500000 1.000000
vt 0.000000 0.500000
vt 0.000000 0.000000
vt 0.500000 0.000000
vn -0.377800 -0.920600 -0.099400
vn 0.420200 0.907200 0.022300
vn -0.933700 0.083800 -0.348200
vn 0.917200 -0.364300 0.161600
vn -0.848300 0.494200 -0.190300
vn 0.444800 0.749900 0.489600
vn -0.310600 0.093400 0.945900
vn 0.662100 0.499100 -0.559100
vn 0.839400 -0.276600 0.467900
vn -0.487900 0.869100 -0.081000
vn 0.429400 0.826100 0.364800
vn -0.391300 -0.850700 -0.350900
vn 0.361500 0.088100 -0.928200
vn -0.395800 -0.046200 0.917200
vn -0.823600 0.365300 -0.433800
vn 0.552400 -0.822500 0.135300
vn 0.368600 -0.018300 -0.929400
vn -0.639800 -0.438900 0.630900
vn -0.572800 -0.079500 0.815800
vn 0.570300 0.293000 -0.767400
vn 0.733300 -0.620300 0.278300
vn -0.724400 0.620200 -0.301000
vn -0.935300 -0.349600 -0.054200
vn 0.933600 0.338200 0.118100
vn -0.975700 0.154800 -0.155000
vn 0.932500 -0.015800 0.360900
vn -0.824600 0.533900 0.187200
vn 0.646100 0.647200 -0.404500
vn 0.796300 -0.442400 -0.412500
vn -0.285800 0.953800 0.092900
vn 0.701200 0.311300 0.641400
vn -0.190700 0.200100 -0.961000
vn 0.075600 0.467900 -0.880500
vn -0.113000 -0.443700 0.889000
vn 0.539000 0.724000 0.430400
vn -0.576400 -0.699800 -0.422000
vn -0.659300 -0.255000 -0.707400
vn 0.265300 -0.139600 0.954000
vn -0.757900 0.526400 0.385300
vn 0.364000 -0.921000 -0.138700
vn 0.552000 -0.794900 -0.252000
vn -0.608300 0.740000 0.287200
vn 0.569600 0.148900 0.808300
vn -0.559100 -0.137400 -0.817700
vn -0.006700 -0.996900 0.078700
vn 0.216400 0.971300 -0.098600
vn -0.865500 0.428400 -0.259500
vn 0.971700 -0.109300 0.209500
vn -0.831800 0.516200 -0.203800
vn 0.662100 0.499100 -0.559000
vn 0.427300 0.823900 0.372200
vn -0.391800 -0.851200 -0.349300
vn 0.342800 0.036400 -0.938700
vn -0.401600 -0.062500 0.913700
vn -0.501500 -0.175000 0.847300
vn 0.703100 0.105000 -0.703300
vn 0.723900 -0.621000 0.300500
vn -0.733800 0.619600 -0.278700
vn -0.006700 -0.996200 0.086300
vn 0.183800 0.977700 0.101500
vn -0.984900 0.105500 -0.137400
vn 0.916400 -0.118500 0.382400
vn 0.364000 -0.921000 -0.138600
vn 0.525700 -0.777700 -0.344700
vn -0.594800 0.738700 0.317200
vn 0.706700 -0.676900 0.206000
vn -0.671000 0.689200 -0.273200
usemtl Material
s off
f 34/1/1 3/2/1 4/3/1
f 8/4/2 7/2/2 36/5/2
f 34/6/3 36/1/3 7/2/3
f 33/1/4 4/2/4 8/3/4
f 6/7/5 5/3/5 1/2/5
f 12/7/6 11/4/6 10/2/6
f 17/3/7 9/3/7 10/2/7
f 20/7/8 18/4/8 11/4/8
f 17/3/9 20/7/9 12/7/9
f 18/4/10 19/2/10 10/2/10
f 1/2/11 14/2/11 15/4/11
f 5/3/12 6/7/12 16/7/12
f 6/7/13 2/4/13 15/4/13
f 5/3/14 13/3/14 14/2/14
f 21/2/15 19/2/15 18/4/15
f 22/7/16 20/7/16 17/3/16
f 22/7/17 24/4/17 18/4/17
f 23/3/18 17/3/18 19/2/18
f 14/2/19 13/3/19 23/3/19
f 15/4/20 24/4/20 22/7/20
f 13/3/21 16/7/21 22/7/21
f 14/2/22 21/2/22 24/4/22
f 28/3/23 27/2/23 34/1/23
f 36/5/24 31/2/24 32/4/24
f 34/6/25 27/3/25 31/2/25
f 32/3/26 28/2/26 33/1/26
f 26/4/27 25/2/27 29/3/27
f 40/7/28 37/3/28 38/2/28
f 38/2/29 37/3/29 45/3/29
f 40/7/30 39/4/30 46/4/30
f 45/3/31 37/3/31 40/7/31
f 39/4/32 38/2/32 47/2/32
f 43/4/33 42/2/33 25/2/33
f 41/3/34 44/7/34 30/7/34
f 44/7/35 43/4/35 26/4/35
f 42/2/36 41/3/36 29/3/36
f 46/4/37 47/2/37 49/2/37
f 51/3/38 45/3/38 48/7/38
f 50/7/39 48/7/39 46/4/39
f 49/2/40 47/2/40 45/3/40
f 42/2/41 49/2/41 51/3/41
f 50/7/42 52/4/42 43/4/42
f 51/3/43 50/7/43 44/7/43
f 43/4/44 52/4/44 49/2/44
f 33/6/45 34/1/45 4/3/45
f 35/8/46 8/4/46 36/5/46
f 3/3/47 34/6/47 7/2/47
f 35/6/48 33/1/48 8/3/48
f 2/4/49 6/7/49 1/2/49
f 9/3/6 12/7/6 10/2/6
f 19/2/7 17/3/7 10/2/7
f 12/7/50 20/7/50 11/4/50
f 9/3/9 17/3/9 12/7/9
f 11/4/10 18/4/10 10/2/10
f 2/4/51 1/2/51 15/4/51
f 13/3/52 5/3/52 16/7/52
f 16/7/53 6/7/53 15/4/53
f 1/2/54 5/3/54 14/2/54
f 24/4/15 21/2/15 18/4/15
f 23/3/16 22/7/16 17/3/16
f 20/7/17 22/7/17 18/4/17
f 21/2/18 23/3/18 19/2/18
f 21/2/55 14/2/55 23/3/55
f 16/7/56 15/4/56 22/7/56
f 23/3/57 13/3/57 22/7/57
f 15/4/58 14/2/58 24/4/58
f 33/6/59 28/3/59 34/1/59
f 35/8/60 36/5/60 32/4/60
f 36/1/61 34/6/61 31/2/61
f 35/6/62 32/3/62 33/1/62
f 30/7/27 26/4/27 29/3/27
f 39/4/28 40/7/28 38/2/28
f 47/2/29 38/2/29 45/3/29
f 48/7/30 40/7/30 46/4/30
f 48/7/31 45/3/31 40/7/31
f 46/4/32 39/4/32 47/2/32
f 26/4/33 43/4/33 25/2/33
f 29/3/34 41/3/34 30/7/34
f 30/7/35 44/7/35 26/4/35
f 25/2/36 42/2/36 29/3/36
f 52/4/37 46/4/37 49/2/37
f 50/7/38 51/3/38 48/7/38
f 52/4/39 50/7/39 46/4/39
f 51/3/63 49/2/63 45/3/63
f 41/3/64 42/2/64 51/3/64
f 44/7/65 50/7/65 43/4/65
f 41/3/66 51/3/66 44/7/66
f 42/2/67 43/4/67 49/2/67
