# Blender v2.76 (sub 0) OBJ File: 'handsAttack.blend'
# www.blender.org
mtllib handsAttack_000039.mtl
o Cube
v -0.555878 0.036543 -2.026654
v -0.717947 0.127377 -2.486919
v -1.082183 -0.229468 -2.206663
v -0.662852 -0.369630 -2.200803
v -0.879614 -0.333623 -1.921964
v -1.054612 -0.240843 -2.375334
v -0.850467 0.202707 -2.294601
v -0.503751 0.106648 -2.269618
v 3.504446 -0.274381 -2.389209
v 3.302598 -0.087773 -2.270756
v 3.253623 0.030893 -2.541154
v 3.455472 -0.155714 -2.659607
v 1.301961 -2.428028 -2.691062
v 1.298223 -1.993123 -2.634269
v 1.136283 -1.858035 -3.231309
v 1.139954 -2.292943 -3.288069
v 3.320009 -0.844827 -2.362051
v 2.699631 -0.089767 -2.737869
v 2.820763 -0.383276 -2.069071
v 3.198877 -0.551318 -3.030849
v 2.491232 -0.825283 -2.413141
v 2.675780 -0.907299 -2.882557
v 2.734901 -1.050552 -2.556136
v 2.432112 -0.682029 -2.739563
v 1.045464 -0.060556 1.707834
v 1.223068 0.343867 1.965281
v 1.017849 -0.065649 2.289430
v 1.152206 -0.294511 2.038827
v 0.989821 -0.315857 2.147273
v 1.167424 0.088567 2.404719
v 1.068590 0.316235 2.056252
v 1.203117 0.087477 1.805664
v 0.344331 -0.352555 -0.005563
v -0.349472 -0.349472 -0.000446
v 0.364836 0.297586 -0.110133
v -0.282624 0.389278 0.068515
v 6.742203 -0.153108 1.342425
v 6.658896 -0.146235 1.055008
v 6.553677 0.131515 1.092147
v 6.636984 0.124642 1.379565
v 3.752963 -1.463757 1.909333
v 3.823401 -1.140572 1.353049
v 4.048229 -0.628613 1.678951
v 3.977792 -0.951798 2.235234
v 6.422764 -0.553565 1.655084
v 5.956467 0.150417 1.036052
v 6.216714 -0.536566 0.944192
v 6.162517 0.133418 1.746944
v 5.673635 -0.585356 1.297789
v 5.647184 -0.258355 1.689589
v 5.774203 -0.593653 1.644755
v 5.546618 -0.250058 1.342623
vt 1.000000 0.500000
vt 1.000000 1.000000
vt 0.000000 1.000000
vt 1.000000 0.000000
vt 0.500000 1.000000
vt 0.000000 0.500000
vt 0.000000 0.000000
vt 0.500000 0.000000
vn -0.317200 -0.946800 0.053900
vn 0.273700 0.951400 -0.140900
vn -0.971300 0.066600 0.228200
vn 0.905100 -0.095200 -0.414500
vn -0.638900 0.667100 0.383100
vn 0.720100 0.673900 0.165300
vn 0.434800 -0.098000 0.895200
vn 0.134200 0.630400 -0.764600
vn 0.904000 -0.306500 -0.298200
vn -0.335000 0.839000 0.428900
vn 0.731000 0.681000 -0.044200
vn -0.656900 -0.747200 0.100600
vn -0.344200 0.030400 -0.938400
vn 0.221500 -0.124400 0.967200
vn -0.861800 0.388300 0.326500
vn 0.422700 -0.799200 -0.427300
vn -0.375300 0.172100 -0.910800
vn -0.063700 -0.583000 0.810000
vn 0.030800 -0.129200 0.991100
vn -0.087400 0.464800 -0.881100
vn 0.678700 -0.654900 -0.332400
vn -0.679100 0.619000 0.394600
vn -0.522600 -0.750300 0.405000
vn 0.573400 0.734600 -0.362800
vn -0.815100 0.376900 0.440000
vn 0.882700 -0.324900 -0.339600
vn -0.931400 0.353400 0.087400
vn 0.893900 0.372100 -0.250200
vn 0.676100 -0.705400 -0.212800
vn 0.030200 0.999400 0.015100
vn 0.608800 0.125900 0.783300
vn 0.097500 0.168100 -0.980900
vn 0.087700 0.507200 -0.857300
vn -0.129900 -0.491200 0.861300
vn 0.326200 0.798800 0.505400
vn -0.368400 -0.782800 -0.501500
vn -0.537600 -0.091600 -0.838200
vn -0.007400 -0.135300 0.990800
vn -0.607300 0.770300 0.194400
vn 0.062300 -0.997200 -0.041900
vn 0.283000 -0.953400 -0.104800
vn -0.225300 0.970300 0.088500
vn 0.313700 -0.008100 0.949500
vn -0.229200 0.043200 -0.972400
vn -0.004400 -0.999900 0.009800
vn 0.104100 0.986200 -0.129000
vn -0.814800 0.497400 0.297700
vn 0.882000 -0.341500 -0.324600
vn -0.632400 0.686800 0.358200
vn 0.705400 0.700200 -0.110200
vn -0.688200 -0.725200 0.022700
vn -0.281900 0.121800 -0.951700
vn 0.309600 -0.001800 0.950900
vn 0.192600 -0.368900 0.909300
vn 0.142500 0.129300 -0.981300
vn 0.654400 -0.641600 -0.400100
vn -0.699900 0.632000 0.332800
vn -0.004200 -0.999500 0.030000
vn 0.151500 0.987600 0.042000
vn -0.826400 0.022300 0.562600
vn 0.908200 -0.094200 -0.407700
vn 0.302800 -0.840200 -0.449800
vn -0.201800 0.857800 0.472800
vn 0.354700 -0.608000 0.710300
vn -0.199600 0.587100 -0.784500
usemtl Material
s off
f 34/1/1 3/2/1 4/3/1
f 8/4/2 7/2/2 36/5/2
f 34/6/3 36/1/3 7/2/3
f 35/6/4 33/1/4 4/2/4
f 6/7/5 5/3/5 1/2/5
f 11/4/6 10/2/6 9/3/6
f 17/3/7 9/3/7 10/2/7
f 20/7/8 18/4/8 11/4/8
f 17/3/9 20/7/9 12/7/9
f 19/2/10 10/2/10 11/4/10
f 1/2/11 14/2/11 15/4/11
f 5/3/12 6/7/12 16/7/12
f 6/7/13 2/4/13 15/4/13
f 5/3/14 13/3/14 14/2/14
f 21/2/15 19/2/15 18/4/15
f 22/7/16 20/7/16 17/3/16
f 22/7/17 24/4/17 18/4/17
f 23/3/18 17/3/18 19/2/18
f 14/2/19 13/3/19 23/3/19
f 15/4/20 24/4/20 22/7/20
f 13/3/21 16/7/21 22/7/21
f 14/2/22 21/2/22 24/4/22
f 28/3/23 27/2/23 34/1/23
f 36/5/24 31/2/24 32/4/24
f 34/6/25 27/3/25 31/2/25
f 32/3/26 28/2/26 33/1/26
f 26/4/27 25/2/27 29/3/27
f 37/3/28 38/2/28 39/4/28
f 47/2/29 38/2/29 37/3/29
f 48/7/30 40/7/30 39/4/30
f 45/3/31 37/3/31 40/7/31
f 39/4/32 38/2/32 47/2/32
f 43/4/33 42/2/33 25/2/33
f 41/3/34 44/7/34 30/7/34
f 30/7/35 44/7/35 43/4/35
f 42/2/36 41/3/36 29/3/36
f 52/4/37 46/4/37 47/2/37
f 51/3/38 45/3/38 48/7/38
f 48/7/39 46/4/39 52/4/39
f 47/2/40 45/3/40 51/3/40
f 42/2/41 49/2/41 51/3/41
f 50/7/42 52/4/42 43/4/42
f 51/3/43 50/7/43 44/7/43
f 43/4/44 52/4/44 49/2/44
f 33/6/45 34/1/45 4/3/45
f 35/8/46 8/4/46 36/5/46
f 3/3/47 34/6/47 7/2/47
f 8/3/48 35/6/48 4/2/48
f 2/4/49 6/7/49 1/2/49
f 12/7/6 11/4/6 9/3/6
f 19/2/7 17/3/7 10/2/7
f 12/7/8 20/7/8 11/4/8
f 9/3/9 17/3/9 12/7/9
f 18/4/10 19/2/10 11/4/10
f 2/4/50 1/2/50 15/4/50
f 13/3/51 5/3/51 16/7/51
f 16/7/52 6/7/52 15/4/52
f 1/2/53 5/3/53 14/2/53
f 24/4/15 21/2/15 18/4/15
f 23/3/16 22/7/16 17/3/16
f 20/7/17 22/7/17 18/4/17
f 21/2/18 23/3/18 19/2/18
f 21/2/54 14/2/54 23/3/54
f 16/7/55 15/4/55 22/7/55
f 23/3/56 13/3/56 22/7/56
f 15/4/57 14/2/57 24/4/57
f 33/6/58 28/3/58 34/1/58
f 35/8/59 36/5/59 32/4/59
f 36/1/60 34/6/60 31/2/60
f 35/6/61 32/3/61 33/1/61
f 30/7/27 26/4/27 29/3/27
f 40/7/28 37/3/28 39/4/28
f 45/3/29 47/2/29 37/3/29
f 46/4/30 48/7/30 39/4/30
f 48/7/31 45/3/31 40/7/31
f 46/4/32 39/4/32 47/2/32
f 26/4/33 43/4/33 25/2/33
f 29/3/34 41/3/34 30/7/34
f 26/4/35 30/7/35 43/4/35
f 25/2/36 42/2/36 29/3/36
f 49/2/37 52/4/37 47/2/37
f 50/7/38 51/3/38 48/7/38
f 50/7/39 48/7/39 52/4/39
f 49/2/40 47/2/40 51/3/40
f 41/3/62 42/2/62 51/3/62
f 44/7/63 50/7/63 43/4/63
f 41/3/64 51/3/64 44/7/64
f 42/2/65 43/4/65 49/2/65
