# Blender v2.76 (sub 0) OBJ File: 'handsAttack.blend'
# www.blender.org
mtllib handsAttack_000047.mtl
o Cube
v 0.183093 -0.032146 -2.089569
v 0.193579 0.034861 -2.585991
v -0.245275 -0.312913 -2.435364
v 0.139021 -0.455914 -2.278619
v -0.154200 -0.406661 -2.086038
v -0.157330 -0.336927 -2.581763
v 0.009093 0.117680 -2.453919
v 0.325537 0.015459 -2.304530
v 4.337229 -0.334508 -1.281920
v 4.128124 -0.120345 -1.279639
v 4.186517 -0.060269 -1.567001
v 4.395623 -0.274431 -1.569282
v 2.165049 -2.466900 -1.946523
v 2.162534 -2.000037 -1.946748
v 2.228736 -1.942058 -2.580966
v 2.231182 -2.408921 -2.580739
v 4.095273 -0.879659 -1.215367
v 3.722502 -0.201364 -1.920479
v 3.578074 -0.349955 -1.209723
v 4.239700 -0.731068 -1.926122
v 3.339851 -0.843694 -1.558744
v 3.662772 -1.029705 -1.908399
v 3.592282 -1.102228 -1.561499
v 3.410342 -0.771171 -1.905644
v 0.030513 0.013695 1.988847
v 0.279058 0.373830 2.253249
v -0.018028 0.002649 2.514777
v 0.107580 -0.230573 2.372376
v -0.090542 -0.223264 2.425399
v 0.158003 0.136872 2.689800
v 0.095207 0.371079 2.287054
v 0.221018 0.137934 2.144730
v 0.344143 -0.353409 0.000265
v -0.349472 -0.349472 -0.000446
v 0.401213 0.279571 -0.012474
v -0.279865 0.400938 -0.009371
v 5.273983 -0.235514 1.641986
v 5.190255 -0.232649 1.354623
v 5.050544 0.028504 1.397933
v 5.134273 0.025640 1.685296
v 2.383882 -1.915349 2.272695
v 2.537124 -1.615384 1.720066
v 2.851757 -1.159489 2.054770
v 2.698515 -1.459454 2.607400
v 5.008396 -0.680528 1.944623
v 4.455747 -0.027511 1.340988
v 4.801304 -0.673443 1.233865
v 4.662838 -0.034595 2.051745
v 4.269140 -0.799177 1.585057
v 4.201559 -0.487374 1.984242
v 4.370215 -0.802635 1.931959
v 4.100483 -0.483916 1.637341
vt 1.000000 0.500000
vt 1.000000 1.000000
vt 0.000000 1.000000
vt 1.000000 0.000000
vt 0.500000 1.000000
vt 0.000000 0.000000
vt 0.000000 0.500000
vt 0.500000 0.000000
vn -0.338300 -0.940600 -0.028600
vn 0.336100 0.939300 -0.069100
vn -0.853100 0.497100 -0.158400
vn 0.926500 -0.370300 -0.066700
vn -0.739000 0.666500 0.098400
vn 0.688400 0.669200 0.279800
vn 0.092800 0.080000 0.992500
vn 0.451200 0.448800 -0.771400
vn 0.913700 -0.392900 0.103500
vn -0.369800 0.921700 0.117500
vn 0.693400 0.707400 0.137000
vn -0.651900 -0.751500 -0.101600
vn -0.004500 -0.007100 -1.000000
vn -0.059900 0.000200 0.998200
vn -0.875200 0.477400 -0.078000
vn 0.455500 -0.885400 -0.092600
vn -0.024100 -0.012800 -0.999600
vn -0.395700 -0.395100 0.829000
vn -0.259600 -0.000900 0.965700
vn 0.264200 0.267800 -0.926500
vn 0.692300 -0.721600 0.006200
vn -0.701800 0.712400 0.006300
vn -0.813900 -0.550900 0.184400
vn 0.837300 0.531100 -0.129800
vn -0.938800 0.335900 0.076700
vn 0.967000 -0.230700 0.108400
vn -0.841200 0.537600 0.058500
vn 0.839000 0.488600 -0.239600
vn 0.760200 -0.608500 -0.227600
vn -0.097300 0.994500 0.038300
vn 0.588400 0.184200 0.787300
vn 0.074500 0.201800 -0.976600
vn 0.217700 0.475500 -0.852300
vn -0.255800 -0.451200 0.855000
vn 0.467000 0.716400 0.518400
vn -0.505100 -0.692100 -0.515700
vn -0.522200 -0.139800 -0.841300
vn 0.010600 -0.158100 0.987400
vn -0.700300 0.682000 0.210800
vn 0.188800 -0.979900 -0.064800
vn 0.414400 -0.900800 -0.129700
vn -0.435900 0.889700 0.135900
vn 0.361200 0.038700 0.931700
vn -0.312400 -0.009600 -0.949900
vn -0.005700 -0.999000 0.045400
vn 0.173700 0.977700 -0.118400
vn -0.994900 0.091800 -0.041200
vn 0.995700 -0.090200 -0.022500
vn -0.724600 0.684800 0.077100
vn 0.692300 0.713000 0.110900
vn -0.653300 -0.744700 -0.136200
vn 0.000000 -0.000500 -1.000000
vn -0.033100 0.039200 0.998700
vn -0.158600 -0.165200 0.973400
vn 0.423700 0.001800 -0.905800
vn 0.692500 -0.721400 -0.010100
vn -0.701500 0.712600 -0.008100
vn -0.005700 -0.998700 0.051100
vn 0.175200 0.981300 0.079100
vn -0.982400 0.093100 0.161700
vn 0.993100 -0.088000 0.077200
vn 0.413600 -0.843400 -0.343100
vn -0.403300 0.846500 0.347600
vn 0.485200 -0.709800 0.510700
vn -0.378300 0.703100 -0.602100
usemtl Material
s off
f 34/1/1 3/2/1 4/3/1
f 8/4/2 7/2/2 36/5/2
f 36/1/3 7/2/3 3/3/3
f 33/1/4 4/2/4 8/3/4
f 6/6/5 5/3/5 1/2/5
f 12/6/6 11/4/6 10/2/6
f 19/2/7 17/3/7 9/3/7
f 20/6/8 18/4/8 11/4/8
f 17/3/9 20/6/9 12/6/9
f 19/2/10 10/2/10 11/4/10
f 1/2/11 14/2/11 15/4/11
f 5/3/12 6/6/12 16/6/12
f 6/6/13 2/4/13 15/4/13
f 5/3/14 13/3/14 14/2/14
f 21/2/15 19/2/15 18/4/15
f 23/3/16 22/6/16 20/6/16
f 24/4/17 18/4/17 20/6/17
f 23/3/18 17/3/18 19/2/18
f 14/2/19 13/3/19 23/3/19
f 15/4/20 24/4/20 22/6/20
f 13/3/21 16/6/21 22/6/21
f 14/2/22 21/2/22 24/4/22
f 28/3/23 27/2/23 34/1/23
f 36/5/24 31/2/24 32/4/24
f 34/7/25 27/3/25 31/2/25
f 32/3/26 28/2/26 33/1/26
f 30/6/27 26/4/27 25/2/27
f 37/3/28 38/2/28 39/4/28
f 47/2/29 38/2/29 37/3/29
f 48/6/30 40/6/30 39/4/30
f 45/3/31 37/3/31 40/6/31
f 39/4/32 38/2/32 47/2/32
f 43/4/33 42/2/33 25/2/33
f 41/3/34 44/6/34 30/6/34
f 30/6/35 44/6/35 43/4/35
f 42/2/36 41/3/36 29/3/36
f 46/4/37 47/2/37 49/2/37
f 51/3/38 45/3/38 48/6/38
f 50/6/39 48/6/39 46/4/39
f 47/2/40 45/3/40 51/3/40
f 42/2/41 49/2/41 51/3/41
f 50/6/42 52/4/42 43/4/42
f 51/3/43 50/6/43 44/6/43
f 43/4/44 52/4/44 49/2/44
f 33/7/45 34/1/45 4/3/45
f 35/8/46 8/4/46 36/5/46
f 34/7/47 36/1/47 3/3/47
f 35/7/48 33/1/48 8/3/48
f 2/4/49 6/6/49 1/2/49
f 9/3/6 12/6/6 10/2/6
f 10/2/7 19/2/7 9/3/7
f 12/6/8 20/6/8 11/4/8
f 9/3/9 17/3/9 12/6/9
f 18/4/10 19/2/10 11/4/10
f 2/4/50 1/2/50 15/4/50
f 13/3/51 5/3/51 16/6/51
f 16/6/52 6/6/52 15/4/52
f 1/2/53 5/3/53 14/2/53
f 24/4/15 21/2/15 18/4/15
f 17/3/16 23/3/16 20/6/16
f 22/6/17 24/4/17 20/6/17
f 21/2/18 23/3/18 19/2/18
f 21/2/54 14/2/54 23/3/54
f 16/6/55 15/4/55 22/6/55
f 23/3/56 13/3/56 22/6/56
f 15/4/57 14/2/57 24/4/57
f 33/7/58 28/3/58 34/1/58
f 35/8/59 36/5/59 32/4/59
f 36/1/60 34/7/60 31/2/60
f 35/7/61 32/3/61 33/1/61
f 29/3/27 30/6/27 25/2/27
f 40/6/28 37/3/28 39/4/28
f 45/3/29 47/2/29 37/3/29
f 46/4/30 48/6/30 39/4/30
f 48/6/31 45/3/31 40/6/31
f 46/4/32 39/4/32 47/2/32
f 26/4/33 43/4/33 25/2/33
f 29/3/34 41/3/34 30/6/34
f 26/4/35 30/6/35 43/4/35
f 25/2/36 42/2/36 29/3/36
f 52/4/37 46/4/37 49/2/37
f 50/6/38 51/3/38 48/6/38
f 52/4/39 50/6/39 46/4/39
f 49/2/40 47/2/40 51/3/40
f 41/3/62 42/2/62 51/3/62
f 44/6/63 50/6/63 43/4/63
f 41/3/64 51/3/64 44/6/64
f 42/2/65 43/4/65 49/2/65
