# Blender v2.76 (sub 0) OBJ File: 'handsBlock.blend'
# www.blender.org
mtllib handsBlock_000112.mtl
o Cube
v 0.655137 -0.084954 -1.986705
v 0.784087 -0.034624 -2.471168
v 0.324577 -0.381521 -2.416426
v 0.656442 -0.522533 -2.171674
v 0.331356 -0.467162 -2.049017
v 0.447721 -0.414008 -2.536788
v 0.578499 0.050767 -2.387129
v 0.851606 -0.053378 -2.165291
v 4.685833 -0.357524 -0.350307
v 4.500741 -0.133742 -0.422824
v 4.630225 -0.113859 -0.691961
v 4.815317 -0.337640 -0.619444
v 2.573346 -2.461364 -1.294031
v 2.587475 -1.979311 -1.330509
v 2.806451 -1.973926 -1.934892
v 2.792258 -2.455977 -1.898432
v 4.390372 -0.875853 -0.285504
v 4.252831 -0.273179 -1.130543
v 3.932569 -0.322356 -0.464866
v 4.710634 -0.826676 -0.951182
v 3.743268 -0.842670 -0.805138
v 4.123020 -1.088812 -1.042494
v 3.966709 -1.112815 -0.717596
v 3.899580 -0.818667 -1.130036
v -0.635253 0.130482 1.916127
v -0.351892 0.446873 2.200703
v -0.685552 0.092401 2.405885
v -0.588823 -0.133037 2.326932
v -0.792738 -0.109169 2.339383
v -0.509378 0.207222 2.623959
v -0.537492 0.458273 2.194277
v -0.440555 0.232891 2.115449
v 0.342731 -0.353772 0.003799
v -0.349472 -0.349472 -0.000446
v 0.401680 0.269716 0.055728
v -0.260755 0.405917 -0.056498
v 4.223690 -0.157254 1.431036
v 4.126956 -0.147648 1.147935
v 3.967825 0.097995 1.210644
v 4.064559 0.088390 1.493745
v 1.468416 -2.074029 2.150298
v 1.667775 -1.770654 1.614499
v 2.026481 -1.370136 1.974744
v 1.827122 -1.673510 2.510543
v 4.010753 -0.637827 1.720638
v 3.377901 -0.006500 1.175524
v 3.771492 -0.614071 1.020421
v 3.617161 -0.030257 1.875740
v 3.268476 -0.802411 1.386272
v 3.193151 -0.517468 1.803728
v 3.385252 -0.814006 1.728028
v 3.076375 -0.505872 1.461973
vt 1.000000 0.500000
vt 1.000000 1.000000
vt 0.000000 1.000000
vt 1.000000 0.000000
vt 0.500000 1.000000
vt 0.000000 0.000000
vt 0.000000 0.500000
vt 0.500000 0.000000
vn -0.338000 -0.937600 -0.081900
vn 0.364000 0.931300 -0.010900
vn -0.793400 0.490500 -0.360400
vn 0.910500 -0.380900 0.160800
vn -0.749800 0.652800 -0.107800
vn 0.656100 0.660800 0.364500
vn -0.138200 0.200000 0.970000
vn 0.656600 0.322100 -0.682000
vn 0.827300 -0.425700 0.366600
vn -0.308800 0.947900 -0.078600
vn 0.637700 0.732800 0.237600
vn -0.603700 -0.764200 -0.227300
vn 0.226800 -0.032700 -0.973400
vn -0.253200 0.080400 0.964100
vn -0.788900 0.510600 -0.341800
vn 0.388900 -0.913500 0.119600
vn 0.212000 -0.138200 -0.967500
vn -0.612000 -0.264700 0.745200
vn -0.446600 0.080500 0.891100
vn 0.494600 0.130600 -0.859300
vn 0.626500 -0.747700 0.220200
vn -0.621400 0.744600 -0.243900
vn -0.924800 -0.375700 -0.060200
vn 0.926400 0.361500 0.105500
vn -0.943600 0.276300 -0.182500
vn 0.912600 -0.150000 0.380200
vn -0.773300 0.630300 0.069200
vn 0.782900 0.570500 -0.248200
vn 0.797700 -0.528500 -0.290500
vn -0.179100 0.979300 0.094400
vn 0.606200 0.195900 0.770800
vn 0.012400 0.254900 -0.966900
vn 0.290400 0.482900 -0.826100
vn -0.325500 -0.454400 0.829200
vn 0.536600 0.633000 0.558000
vn -0.571600 -0.604400 -0.554900
vn -0.546500 -0.143400 -0.825100
vn 0.069100 -0.204500 0.976400
vn -0.745000 0.607700 0.275200
vn 0.267700 -0.955500 -0.123900
vn 0.487100 -0.851200 -0.195300
vn -0.555100 0.803000 0.216900
vn 0.427700 0.046600 0.902700
vn -0.414300 -0.036200 -0.909400
vn -0.006700 -0.997100 0.076400
vn 0.216300 0.971500 -0.097500
vn -0.958800 0.092700 -0.268700
vn 0.971000 -0.109500 0.212600
vn -0.731500 0.670200 -0.125100
vn 0.636300 0.731400 0.245300
vn -0.604000 -0.764400 -0.225600
vn 0.196700 -0.079700 -0.977200
vn -0.262600 0.065600 0.962700
vn -0.392100 -0.026300 0.919500
vn 0.594800 -0.078000 -0.800100
vn 0.620600 -0.745300 0.243500
vn -0.627100 0.747000 -0.220600
vn -0.006700 -0.995700 0.091900
vn 0.185300 0.978200 0.093300
vn -0.986600 0.106700 -0.123800
vn 0.919900 -0.118100 0.374000
vn 0.480300 -0.827800 -0.290000
vn -0.547500 0.799000 0.248700
vn 0.569500 -0.769600 0.288600
vn -0.521100 0.779500 -0.347800
usemtl Material
s off
f 34/1/1 3/2/1 4/3/1
f 8/4/2 7/2/2 36/5/2
f 36/1/3 7/2/3 3/3/3
f 33/1/4 4/2/4 8/3/4
f 6/6/5 5/3/5 1/2/5
f 12/6/6 11/4/6 10/2/6
f 17/3/7 9/3/7 10/2/7
f 20/6/8 18/4/8 11/4/8
f 17/3/9 20/6/9 12/6/9
f 19/2/10 10/2/10 11/4/10
f 1/2/11 14/2/11 15/4/11
f 5/3/12 6/6/12 16/6/12
f 6/6/13 2/4/13 15/4/13
f 5/3/14 13/3/14 14/2/14
f 24/4/15 21/2/15 19/2/15
f 22/6/16 20/6/16 17/3/16
f 22/6/17 24/4/17 18/4/17
f 23/3/18 17/3/18 19/2/18
f 14/2/19 13/3/19 23/3/19
f 15/4/20 24/4/20 22/6/20
f 13/3/21 16/6/21 22/6/21
f 14/2/22 21/2/22 24/4/22
f 28/3/23 27/2/23 34/1/23
f 36/5/24 31/2/24 32/4/24
f 34/7/25 27/3/25 31/2/25
f 32/3/26 28/2/26 33/1/26
f 30/6/27 26/4/27 25/2/27
f 37/3/28 38/2/28 39/4/28
f 47/2/29 38/2/29 37/3/29
f 48/6/30 40/6/30 39/4/30
f 37/3/31 40/6/31 48/6/31
f 39/4/32 38/2/32 47/2/32
f 43/4/33 42/2/33 25/2/33
f 29/3/34 41/3/34 44/6/34
f 30/6/35 44/6/35 43/4/35
f 42/2/36 41/3/36 29/3/36
f 52/4/37 46/4/37 47/2/37
f 51/3/38 45/3/38 48/6/38
f 50/6/39 48/6/39 46/4/39
f 47/2/40 45/3/40 51/3/40
f 42/2/41 49/2/41 51/3/41
f 50/6/42 52/4/42 43/4/42
f 51/3/43 50/6/43 44/6/43
f 43/4/44 52/4/44 49/2/44
f 33/7/45 34/1/45 4/3/45
f 35/8/46 8/4/46 36/5/46
f 34/7/47 36/1/47 3/3/47
f 35/7/48 33/1/48 8/3/48
f 2/4/49 6/6/49 1/2/49
f 9/3/6 12/6/6 10/2/6
f 19/2/7 17/3/7 10/2/7
f 12/6/8 20/6/8 11/4/8
f 9/3/9 17/3/9 12/6/9
f 18/4/10 19/2/10 11/4/10
f 2/4/50 1/2/50 15/4/50
f 13/3/51 5/3/51 16/6/51
f 16/6/52 6/6/52 15/4/52
f 1/2/53 5/3/53 14/2/53
f 18/4/15 24/4/15 19/2/15
f 23/3/16 22/6/16 17/3/16
f 20/6/17 22/6/17 18/4/17
f 21/2/18 23/3/18 19/2/18
f 21/2/54 14/2/54 23/3/54
f 16/6/55 15/4/55 22/6/55
f 23/3/56 13/3/56 22/6/56
f 15/4/57 14/2/57 24/4/57
f 33/7/58 28/3/58 34/1/58
f 35/8/59 36/5/59 32/4/59
f 36/1/60 34/7/60 31/2/60
f 35/7/61 32/3/61 33/1/61
f 29/3/27 30/6/27 25/2/27
f 40/6/28 37/3/28 39/4/28
f 45/3/29 47/2/29 37/3/29
f 46/4/30 48/6/30 39/4/30
f 45/3/31 37/3/31 48/6/31
f 46/4/32 39/4/32 47/2/32
f 26/4/33 43/4/33 25/2/33
f 30/6/34 29/3/34 44/6/34
f 26/4/35 30/6/35 43/4/35
f 25/2/36 42/2/36 29/3/36
f 49/2/37 52/4/37 47/2/37
f 50/6/38 51/3/38 48/6/38
f 52/4/39 50/6/39 46/4/39
f 49/2/40 47/2/40 51/3/40
f 41/3/62 42/2/62 51/3/62
f 44/6/63 50/6/63 43/4/63
f 41/3/64 51/3/64 44/6/64
f 42/2/65 43/4/65 49/2/65
