# Blender v2.76 (sub 0) OBJ File: 'handsBlock.blend'
# www.blender.org
mtllib handsBlock_000036.mtl
o Cube
v 0.433039 -0.154489 -1.969992
v 0.659896 0.129011 -2.319320
v 0.451075 -0.341396 -2.425579
v 0.667380 -0.537371 -2.185348
v 0.508021 -0.600167 -2.194821
v 0.726162 -0.320655 -2.553393
v 0.520764 0.123601 -2.318815
v 0.825966 -0.062214 -2.163930
v 2.584252 1.382616 1.495291
v 2.341626 1.466696 1.341475
v 2.510005 1.651531 1.176914
v 2.752631 1.567451 1.330729
v 3.007920 -1.047094 -0.427304
v 2.704386 -0.670958 -0.444426
v 3.063271 -0.326122 -0.851301
v 3.366771 -0.702288 -0.834229
v 2.722470 0.807791 1.392165
v 2.538827 1.472920 0.604698
v 2.122363 1.015753 1.011722
v 3.138934 1.264957 0.985139
v 2.479006 0.644562 0.615027
v 2.975165 0.766192 0.602053
v 2.771900 0.543062 0.800710
v 2.682270 0.867693 0.416370
v -0.788182 0.011731 2.029881
v -0.571839 0.471163 2.089034
v -0.609938 0.145875 2.357037
v -0.479707 -0.151075 2.390781
v -0.574469 -0.145187 2.467011
v -0.358126 0.314244 2.526165
v -0.647399 0.470378 2.138522
v -0.516968 0.173527 2.172329
v 0.342731 -0.353772 0.003799
v -0.349472 -0.349472 -0.000446
v 0.401680 0.269716 0.055728
v -0.260755 0.405917 -0.056498
v 2.617685 1.325365 -1.226173
v 2.394179 1.224297 -1.397713
v 2.203149 1.405836 -1.255772
v 2.426656 1.506905 -1.084233
v 1.836770 -1.167465 1.000681
v 1.566230 -0.968822 0.447319
v 1.840098 -0.387229 0.522201
v 2.110638 -0.585872 1.075563
v 2.826950 0.896992 -0.861665
v 1.801644 1.096025 -0.934874
v 2.274134 0.647009 -1.285948
v 2.354461 1.346007 -0.510593
v 2.183710 0.399753 -0.691782
v 2.222915 0.740916 -0.313353
v 2.453524 0.521763 -0.484701
v 1.953101 0.618907 -0.520434
vt 1.000000 0.500000
vt 1.000000 1.000000
vt 0.000000 1.000000
vt 1.000000 0.000000
vt 0.500000 1.000000
vt 0.000000 0.500000
vt 0.000000 0.000000
vt 0.500000 0.000000
vn -0.541800 -0.820600 -0.181600
vn 0.495500 0.866300 0.063000
vn -0.938400 0.085400 -0.334800
vn 0.933300 -0.318900 0.165200
vn -0.879900 0.087600 -0.467000
vn -0.162900 0.734700 0.658500
vn -0.581100 -0.277000 0.765200
vn 0.452400 0.857500 -0.244900
vn 0.680300 0.032200 0.732200
vn -0.809000 0.548300 -0.211900
vn -0.176500 0.822200 0.541100
vn 0.215600 -0.829400 -0.515300
vn 0.525700 0.452500 -0.720400
vn -0.571300 -0.429200 0.699500
vn -0.722300 0.043600 -0.690200
vn 0.821600 -0.491500 0.288700
vn 0.585400 0.364100 -0.724400
vn -0.486100 -0.812100 0.322900
vn -0.667900 -0.514500 0.537800
vn 0.543900 0.686300 -0.482800
vn 0.823900 -0.268400 0.499100
vn -0.809800 0.277500 -0.516900
vn -0.915000 -0.403100 -0.016400
vn 0.899400 0.411900 0.146300
vn -0.983700 -0.163600 -0.074300
vn 0.909900 0.298400 0.288200
vn -0.803900 0.313400 0.505500
vn 0.187500 0.719800 -0.668400
vn 0.660300 -0.272800 -0.699700
vn -0.512200 0.841500 0.171600
vn 0.760000 0.594600 0.262400
vn -0.611900 -0.025800 -0.790500
vn -0.436100 0.314000 -0.843300
vn 0.399700 -0.299800 0.866200
vn 0.404800 0.905500 0.127100
vn -0.441300 -0.891300 -0.104200
vn -0.768300 -0.541000 -0.342100
vn 0.654000 0.102100 0.749600
vn -0.665000 0.358200 0.655400
vn 0.550700 -0.797100 -0.247900
vn 0.626700 -0.645800 -0.436100
vn -0.643600 0.584400 0.494200
vn 0.765400 0.433300 0.475800
vn -0.763700 -0.421200 -0.489200
vn -0.006700 -0.996600 0.082600
vn 0.217100 0.970600 -0.103600
vn -0.928700 0.209400 -0.305900
vn 0.973300 -0.108900 0.202300
vn -0.873600 0.117100 -0.472300
vn -0.179300 0.817600 0.547100
vn 0.215000 -0.830400 -0.514000
vn 0.539700 0.401900 -0.739800
vn -0.566800 -0.445100 0.693300
vn -0.571400 -0.571900 0.588600
vn 0.727100 0.569200 -0.383800
vn 0.810000 -0.278400 0.516100
vn -0.823800 0.267700 -0.499700
vn -0.006700 -0.996600 0.082300
vn 0.179900 0.976000 0.122400
vn -0.979200 0.102000 -0.175500
vn 0.912800 -0.118800 0.390800
vn 0.561600 -0.652500 -0.508800
vn -0.619600 0.592000 0.515400
vn 0.905300 -0.414100 -0.095000
vn -0.905500 0.424000 0.018600
usemtl Material
s off
f 34/1/1 3/2/1 4/3/1
f 8/4/2 7/2/2 36/5/2
f 34/6/3 36/1/3 7/2/3
f 33/1/4 4/2/4 8/3/4
f 6/7/5 5/3/5 1/2/5
f 11/4/6 10/2/6 9/3/6
f 17/3/7 9/3/7 10/2/7
f 20/7/8 18/4/8 11/4/8
f 17/3/9 20/7/9 12/7/9
f 18/4/10 19/2/10 10/2/10
f 1/2/11 14/2/11 15/4/11
f 5/3/12 6/7/12 16/7/12
f 6/7/13 2/4/13 15/4/13
f 5/3/14 13/3/14 14/2/14
f 24/4/15 21/2/15 19/2/15
f 23/3/16 22/7/16 20/7/16
f 24/4/17 18/4/17 20/7/17
f 23/3/18 17/3/18 19/2/18
f 14/2/19 13/3/19 23/3/19
f 15/4/20 24/4/20 22/7/20
f 13/3/21 16/7/21 22/7/21
f 14/2/22 21/2/22 24/4/22
f 28/3/23 27/2/23 34/1/23
f 36/5/24 31/2/24 32/4/24
f 34/6/25 27/3/25 31/2/25
f 32/3/26 28/2/26 33/1/26
f 26/4/27 25/2/27 29/3/27
f 37/3/28 38/2/28 39/4/28
f 47/2/29 38/2/29 37/3/29
f 48/7/30 40/7/30 39/4/30
f 45/3/31 37/3/31 40/7/31
f 39/4/32 38/2/32 47/2/32
f 43/4/33 42/2/33 25/2/33
f 41/3/34 44/7/34 30/7/34
f 44/7/35 43/4/35 26/4/35
f 42/2/36 41/3/36 29/3/36
f 52/4/37 46/4/37 47/2/37
f 45/3/38 48/7/38 50/7/38
f 48/7/39 46/4/39 52/4/39
f 47/2/40 45/3/40 51/3/40
f 42/2/41 49/2/41 51/3/41
f 50/7/42 52/4/42 43/4/42
f 51/3/43 50/7/43 44/7/43
f 43/4/44 52/4/44 49/2/44
f 33/6/45 34/1/45 4/3/45
f 35/8/46 8/4/46 36/5/46
f 3/3/47 34/6/47 7/2/47
f 35/6/48 33/1/48 8/3/48
f 2/4/49 6/7/49 1/2/49
f 12/7/6 11/4/6 9/3/6
f 19/2/7 17/3/7 10/2/7
f 12/7/8 20/7/8 11/4/8
f 9/3/9 17/3/9 12/7/9
f 11/4/10 18/4/10 10/2/10
f 2/4/50 1/2/50 15/4/50
f 13/3/51 5/3/51 16/7/51
f 16/7/52 6/7/52 15/4/52
f 1/2/53 5/3/53 14/2/53
f 18/4/15 24/4/15 19/2/15
f 17/3/16 23/3/16 20/7/16
f 22/7/17 24/4/17 20/7/17
f 21/2/18 23/3/18 19/2/18
f 21/2/54 14/2/54 23/3/54
f 16/7/55 15/4/55 22/7/55
f 23/3/56 13/3/56 22/7/56
f 15/4/57 14/2/57 24/4/57
f 33/6/58 28/3/58 34/1/58
f 35/8/59 36/5/59 32/4/59
f 36/1/60 34/6/60 31/2/60
f 35/6/61 32/3/61 33/1/61
f 30/7/27 26/4/27 29/3/27
f 40/7/28 37/3/28 39/4/28
f 45/3/29 47/2/29 37/3/29
f 46/4/30 48/7/30 39/4/30
f 48/7/31 45/3/31 40/7/31
f 46/4/32 39/4/32 47/2/32
f 26/4/33 43/4/33 25/2/33
f 29/3/34 41/3/34 30/7/34
f 30/7/35 44/7/35 26/4/35
f 25/2/36 42/2/36 29/3/36
f 49/2/37 52/4/37 47/2/37
f 51/3/38 45/3/38 50/7/38
f 50/7/39 48/7/39 52/4/39
f 49/2/40 47/2/40 51/3/40
f 41/3/62 42/2/62 51/3/62
f 44/7/63 50/7/63 43/4/63
f 41/3/64 51/3/64 44/7/64
f 42/2/65 43/4/65 49/2/65
