# Blender v2.76 (sub 0) OBJ File: 'handsAttack.blend'
# www.blender.org
mtllib handsAttack_000041.mtl
o Cube
v -0.363479 0.020373 -2.068938
v -0.481574 0.105629 -2.544775
v -0.869979 -0.248511 -2.296403
v -0.454592 -0.390098 -2.249586
v -0.694263 -0.350617 -1.990974
v -0.825733 -0.263158 -2.461521
v -0.629879 0.183037 -2.366627
v -0.286776 0.084787 -2.308046
v 3.751068 -0.286187 -2.132923
v 3.541992 -0.091171 -2.044314
v 3.520328 0.012767 -2.324178
v 3.729405 -0.182249 -2.412787
v 1.555296 -2.439843 -2.527943
v 1.548527 -1.995517 -2.485320
v 1.444958 -1.879629 -3.101454
v 1.451657 -2.323958 -3.144053
v 3.555997 -0.852273 -2.092219
v 2.985292 -0.112845 -2.565259
v 3.038872 -0.369924 -1.873051
v 3.502416 -0.595194 -2.784427
v 2.736013 -0.826921 -2.222013
v 2.962256 -0.936869 -2.666830
v 2.988408 -1.062341 -2.328982
v 2.709862 -0.701448 -2.559861
v 0.789871 -0.055032 1.827751
v 0.987258 0.341445 2.083142
v 0.754791 -0.056894 2.394833
v 0.891494 -0.289082 2.173321
v 0.716923 -0.302890 2.268914
v 0.914311 0.093587 2.524305
v 0.822241 0.320399 2.160503
v 0.959126 0.088308 1.939021
v 0.344524 -0.352808 -0.004027
v -0.349472 -0.349472 -0.000446
v 0.378430 0.292658 -0.086042
v -0.285159 0.392727 0.047977
v 6.387202 -0.188162 1.492109
v 6.305990 -0.184335 1.204038
v 6.190899 0.089614 1.240123
v 6.272113 0.085787 1.528195
v 3.415066 -1.601849 2.064037
v 3.507410 -1.288085 1.505570
v 3.757283 -0.786186 1.828869
v 3.664940 -1.099950 2.387336
v 6.079387 -0.599307 1.802549
v 5.593857 0.087741 1.179290
v 5.878517 -0.589840 1.090036
v 5.794728 0.078274 1.891803
v 5.334672 -0.657274 1.439365
v 5.293777 -0.331186 1.830684
v 5.432712 -0.661894 1.787123
v 5.195738 -0.326565 1.482926
vt 1.000000 0.500000
vt 1.000000 1.000000
vt 0.000000 1.000000
vt 1.000000 0.000000
vt 0.500000 1.000000
vt 0.000000 0.500000
vt 0.000000 0.000000
vt 0.500000 0.000000
vn -0.325700 -0.944900 0.032300
vn 0.292700 0.948100 -0.124100
vn -0.987900 0.076800 0.134400
vn 0.938600 -0.091600 -0.332500
vn -0.675300 0.667900 0.312800
vn 0.711900 0.674500 0.195400
vn 0.347700 -0.052500 0.936100
vn 0.214800 0.585500 -0.781700
vn 0.922900 -0.332000 -0.194800
vn -0.360400 0.865000 0.349100
vn 0.726300 0.687400 0.007200
vn -0.662600 -0.747500 0.046200
vn -0.256900 0.021600 -0.966200
vn 0.149400 -0.092200 0.984500
vn -0.882300 0.414900 0.222400
vn 0.448200 -0.826100 -0.341500
vn -0.286000 0.125100 -0.950000
vn -0.148100 -0.536300 0.830900
vn -0.045700 -0.096100 0.994300
vn 0.002300 0.415700 -0.909500
vn 0.696600 -0.674700 -0.244100
vn -0.702600 0.647600 0.294900
vn -0.606400 -0.706000 0.365800
vn 0.652000 0.688200 -0.318200
vn -0.859500 0.371600 0.350900
vn 0.925800 -0.304800 -0.223600
vn -0.911400 0.404400 0.076500
vn 0.882400 0.402700 -0.243400
vn 0.701800 -0.681700 -0.206900
vn -0.004600 0.999900 0.014600
vn 0.597800 0.147400 0.788000
vn 0.099300 0.170900 -0.980300
vn 0.122000 0.493800 -0.861000
vn -0.163300 -0.475500 0.864400
vn 0.365300 0.784500 0.501100
vn -0.406600 -0.766100 -0.497700
vn -0.527400 -0.110600 -0.842400
vn -0.010600 -0.135000 0.990800
vn -0.635200 0.748900 0.189000
vn 0.097200 -0.994400 -0.040600
vn 0.321200 -0.941400 -0.103100
vn -0.282800 0.954700 0.092400
vn 0.319400 0.009400 0.947600
vn -0.241700 0.026200 -0.970000
vn -0.004700 -0.999800 0.018300
vn 0.122400 0.984100 -0.128700
vn -0.838900 0.501300 0.212200
vn 0.906000 -0.349500 -0.238500
vn -0.666600 0.687300 0.288600
vn 0.712000 0.674500 0.195400
vn 0.347800 -0.052500 0.936100
vn 0.709700 0.702800 -0.050200
vn -0.683200 -0.729900 -0.022400
vn -0.210200 0.090200 -0.973500
vn 0.220900 0.008000 0.975300
vn 0.103400 -0.317500 0.942600
vn 0.218300 0.096400 -0.971100
vn 0.682300 -0.666500 -0.300300
vn -0.714800 0.655500 0.243500
vn -0.004600 -0.999500 0.030400
vn 0.159500 0.985700 0.053700
vn -0.884100 0.046300 0.465000
vn 0.955400 -0.086100 -0.282600
vn 0.335700 -0.843900 -0.418600
vn -0.255300 0.860400 0.441200
vn 0.385200 -0.627600 0.676600
vn -0.236900 0.606700 -0.758800
usemtl Material
s off
f 34/1/1 3/2/1 4/3/1
f 8/4/2 7/2/2 36/5/2
f 34/6/3 36/1/3 7/2/3
f 35/6/4 33/1/4 4/2/4
f 6/7/5 5/3/5 1/2/5
f 12/7/6 11/4/6 10/2/6
f 17/3/7 9/3/7 10/2/7
f 20/7/8 18/4/8 11/4/8
f 17/3/9 20/7/9 12/7/9
f 19/2/10 10/2/10 11/4/10
f 1/2/11 14/2/11 15/4/11
f 5/3/12 6/7/12 16/7/12
f 6/7/13 2/4/13 15/4/13
f 5/3/14 13/3/14 14/2/14
f 21/2/15 19/2/15 18/4/15
f 23/3/16 22/7/16 20/7/16
f 24/4/17 18/4/17 20/7/17
f 23/3/18 17/3/18 19/2/18
f 14/2/19 13/3/19 23/3/19
f 15/4/20 24/4/20 22/7/20
f 13/3/21 16/7/21 22/7/21
f 14/2/22 21/2/22 24/4/22
f 28/3/23 27/2/23 34/1/23
f 36/5/24 31/2/24 32/4/24
f 34/6/25 27/3/25 31/2/25
f 32/3/26 28/2/26 33/1/26
f 30/7/27 26/4/27 25/2/27
f 40/7/28 37/3/28 38/2/28
f 38/2/29 37/3/29 45/3/29
f 48/7/30 40/7/30 39/4/30
f 45/3/31 37/3/31 40/7/31
f 39/4/32 38/2/32 47/2/32
f 43/4/33 42/2/33 25/2/33
f 41/3/34 44/7/34 30/7/34
f 30/7/35 44/7/35 43/4/35
f 42/2/36 41/3/36 29/3/36
f 46/4/37 47/2/37 49/2/37
f 51/3/38 45/3/38 48/7/38
f 50/7/39 48/7/39 46/4/39
f 49/2/40 47/2/40 45/3/40
f 42/2/41 49/2/41 51/3/41
f 50/7/42 52/4/42 43/4/42
f 51/3/43 50/7/43 44/7/43
f 43/4/44 52/4/44 49/2/44
f 33/6/45 34/1/45 4/3/45
f 35/8/46 8/4/46 36/5/46
f 3/3/47 34/6/47 7/2/47
f 8/3/48 35/6/48 4/2/48
f 2/4/49 6/7/49 1/2/49
f 9/3/50 12/7/50 10/2/50
f 19/2/51 17/3/51 10/2/51
f 12/7/8 20/7/8 11/4/8
f 9/3/9 17/3/9 12/7/9
f 18/4/10 19/2/10 11/4/10
f 2/4/52 1/2/52 15/4/52
f 13/3/53 5/3/53 16/7/53
f 16/7/54 6/7/54 15/4/54
f 1/2/55 5/3/55 14/2/55
f 24/4/15 21/2/15 18/4/15
f 17/3/16 23/3/16 20/7/16
f 22/7/17 24/4/17 20/7/17
f 21/2/18 23/3/18 19/2/18
f 21/2/56 14/2/56 23/3/56
f 16/7/57 15/4/57 22/7/57
f 23/3/58 13/3/58 22/7/58
f 15/4/59 14/2/59 24/4/59
f 33/6/60 28/3/60 34/1/60
f 35/8/61 36/5/61 32/4/61
f 36/1/62 34/6/62 31/2/62
f 35/6/63 32/3/63 33/1/63
f 29/3/27 30/7/27 25/2/27
f 39/4/28 40/7/28 38/2/28
f 47/2/29 38/2/29 45/3/29
f 46/4/30 48/7/30 39/4/30
f 48/7/31 45/3/31 40/7/31
f 46/4/32 39/4/32 47/2/32
f 26/4/33 43/4/33 25/2/33
f 29/3/34 41/3/34 30/7/34
f 26/4/35 30/7/35 43/4/35
f 25/2/36 42/2/36 29/3/36
f 52/4/37 46/4/37 49/2/37
f 50/7/38 51/3/38 48/7/38
f 52/4/39 50/7/39 46/4/39
f 51/3/40 49/2/40 45/3/40
f 41/3/64 42/2/64 51/3/64
f 44/7/65 50/7/65 43/4/65
f 41/3/66 51/3/66 44/7/66
f 42/2/67 43/4/67 49/2/67
