# Blender v2.76 (sub 0) OBJ File: ''
# www.blender.org
mtllib doorWindow.mtl
o Cube
v 1.959069 0.030843 -0.086381
v 1.959069 0.030843 0.086381
v 0.839600 5.016671 0.086381
v 0.839600 6.013837 0.086381
v 0.839601 6.013837 -0.086381
v 0.839601 5.016671 -0.086381
v 0.839601 5.016671 0.086603
v 0.839601 6.013837 0.085720
v 0.839601 5.016671 0.085720
v 0.839601 6.013837 0.090269
v 1.426067 7.011002 -0.086381
v 1.959069 6.061460 -0.086381
v 1.590774 6.964529 -0.086381
v 1.739358 6.829656 -0.086381
v 1.857275 6.619587 -0.086381
v 1.932982 6.354885 -0.086381
v 1.959067 6.061460 0.086381
v 1.426065 7.011002 0.086381
v 1.932980 6.354885 0.086381
v 1.857273 6.619587 0.086381
v 1.739356 6.829656 0.086381
v 1.590772 6.964529 0.086381
v -1.959069 0.030843 -0.086381
v -1.959069 0.030843 0.086381
v 0.000000 0.030843 -0.086381
v 0.000000 0.030843 0.086381
v 0.000000 7.011002 -0.086381
v 0.000000 7.011002 0.086381
v 0.000000 5.016671 -0.086381
v 0.000000 6.013837 -0.086381
v 0.000000 6.013837 0.086381
v 0.000000 5.016671 0.086381
v -0.839600 5.016671 0.086381
v -0.839600 6.013837 0.086381
v -0.839601 6.013837 -0.086381
v -0.839601 5.016671 -0.086381
v 0.000000 5.016671 0.086603
v -0.839601 5.016671 0.086603
v -0.839601 6.013837 0.085720
v -0.839601 5.016671 0.085720
v 0.000000 6.013837 0.090269
v -0.839601 6.013837 0.090269
v -1.426067 7.011002 -0.086381
v -1.959069 6.061460 -0.086381
v -1.590774 6.964529 -0.086381
v -1.739358 6.829656 -0.086381
v -1.857275 6.619587 -0.086381
v -1.932982 6.354885 -0.086381
v -1.959067 6.061460 0.086381
v -1.426065 7.011002 0.086381
v -1.932980 6.354885 0.086381
v -1.857273 6.619587 0.086381
v -1.739356 6.829656 0.086381
v -1.590772 6.964529 0.086381
vt 0.223002 0.374070
vt 0.403737 0.198221
vt 0.520167 0.366347
vt 0.340171 0.479473
vt 0.262996 0.676349
vt 0.372408 0.992009
vt 0.195391 0.955075
vt 0.078962 0.786949
vt 0.069041 0.780755
vt 0.060358 0.773421
vt 0.052998 0.764955
vt 0.047159 0.755037
vt 0.043511 0.743092
vt 0.020558 0.614545
vt 0.081045 0.602482
vt 0.099140 0.693212
vt 0.168298 0.709172
vt 0.174455 0.340408
vt 0.068258 0.262603
vt 0.345334 0.025817
vt 0.368286 0.154364
vt 0.697184 0.403281
vt 0.361844 0.687100
vt 0.416304 0.398077
vt 0.416304 0.477957
vt 0.043051 0.477956
vt 0.043051 0.398076
vt 0.445917 0.355150
vt 0.116968 0.191582
vt 0.146581 0.148656
vt 0.381981 0.307180
vt 0.217018 0.660232
vt 0.153083 0.612262
vt 0.371935 0.166309
vt 0.187375 0.342841
vt 0.377773 0.176227
vt 0.198381 0.348378
vt 0.385134 0.184693
vt 0.207826 0.355668
vt 0.393816 0.192028
vt 0.216028 0.364247
vt 0.862920 0.775453
vt 0.884593 0.983079
vt 0.593350 0.771983
vt 0.593350 0.692103
vt 0.622963 0.649176
vt 0.559027 0.601206
vt 0.591007 0.558583
vt 0.697204 0.636388
vt 0.710124 0.638821
vt 0.721130 0.644358
vt 0.730576 0.651648
vt 0.738777 0.660226
vt 0.745751 0.670049
vn 1.000000 0.000000 0.000000
vn -0.000000 -0.000000 1.000000
vn 0.000000 1.000000 0.000000
vn 0.000000 -1.000000 0.000000
vn -1.000000 -0.000000 0.000000
vn 0.271600 0.962400 0.000000
vn 0.672100 0.740400 0.000000
vn 0.872000 0.489500 0.000000
vn 0.961400 0.275000 0.000000
vn 0.996100 0.088600 0.000000
vn 0.000000 0.000000 -1.000000
vn -0.271600 0.962400 0.000000
vn -0.672100 0.740400 0.000000
vn -0.872000 0.489500 0.000000
vn -0.961400 0.275000 0.000000
vn -0.996100 0.088600 0.000000
usemtl Material.001
s off
f 12/1/1 17/2/1 2/3/1 1/4/1
f 32/5/2 26/6/2 2/7/2 17/8/2 19/9/2 20/10/2 21/11/2 22/12/2 18/13/2 28/14/2 31/15/2 4/16/2 3/17/2
f 11/18/3 27/19/3 28/20/3 18/21/3
f 26/22/4 25/23/4 1/4/4 2/3/4
f 6/24/3 29/25/3 37/26/3 7/27/3
f 5/28/5 6/24/5 9/29/5 8/30/5
f 30/31/4 5/28/4 10/32/4 41/33/4
f 11/18/6 18/21/6 22/34/6 13/35/6
f 13/35/7 22/34/7 21/36/7 14/37/7
f 14/37/8 21/36/8 20/38/8 15/39/8
f 15/39/9 20/38/9 19/40/9 16/41/9
f 16/41/10 19/40/10 17/2/10 12/1/10
f 1/42/11 25/43/11 29/44/11 6/45/11 5/46/11 30/47/11 27/48/11 11/49/11 13/50/11 14/51/11 15/52/11 16/53/11 12/54/11
f 44/1/5 23/4/5 24/3/5 49/2/5
f 32/5/2 33/17/2 34/16/2 31/15/2 28/14/2 50/13/2 54/12/2 53/11/2 52/10/2 51/9/2 49/8/2 24/7/2 26/6/2
f 43/18/3 50/21/3 28/20/3 27/19/3
f 26/22/4 24/3/4 23/4/4 25/23/4
f 36/24/3 38/27/3 37/26/3 29/25/3
f 35/28/1 39/30/1 40/29/1 36/24/1
f 30/31/4 41/33/4 42/32/4 35/28/4
f 43/18/12 45/35/12 54/34/12 50/21/12
f 45/35/13 46/37/13 53/36/13 54/34/13
f 46/37/14 47/39/14 52/38/14 53/36/14
f 47/39/15 48/41/15 51/40/15 52/38/15
f 48/41/16 44/1/16 49/2/16 51/40/16
f 23/42/11 44/54/11 48/53/11 47/52/11 46/51/11 45/50/11 43/49/11 27/48/11 30/47/11 35/46/11 36/45/11 29/44/11 25/43/11
